<?xml version="1.0" encoding="UTF-8"?>
<!DOCTYPE svg PUBLIC "-//W3C//DTD SVG 1.1//EN" "http://www.w3.org/Graphics/SVG/1.1/DTD/svg11.dtd">
<!-- Creator: CorelDRAW X8 -->
<svg xmlns="http://www.w3.org/2000/svg" xml:space="preserve" width="135.922mm" height="135.922mm" version="1.1" style="shape-rendering:geometricPrecision; text-rendering:geometricPrecision; image-rendering:optimizeQuality; fill-rule:evenodd; clip-rule:evenodd"
viewBox="0 0 1982 1982"
 xmlns:xlink="http://www.w3.org/1999/xlink">
 <defs>
  <style type="text/css">
   <![CDATA[
    .fil1 {fill:#FEFEFE}
    .fil0 {fill:#E6C318}
   ]]>
  </style>
 </defs>
 <g id="Warstwa_x0020_1">
  <metadata id="CorelCorpID_0Corel-Layer"/>
  <path class="fil0" d="M991 0c548,0 991,444 991,991 0,548 -443,991 -991,991 -547,0 -991,-443 -991,-991 0,-547 444,-991 991,-991z"/>
  <g id="_2231298365072">
   <g>
    <g>
     <path class="fil1" d="M519 1032c-15,-167 56,-317 174,-413 46,-37 114,-5 114,54l0 0c0,21 -10,41 -27,55 -83,68 -133,175 -121,294 16,154 139,279 293,296 201,22 372,-135 372,-332 0,-104 -48,-197 -124,-258 -16,-14 -26,-34 -26,-55l0 0c0,-59 67,-92 113,-55 107,87 176,219 176,368 0,273 -231,492 -507,472 -229,-16 -415,-198 -437,-426zm471 -624c-38,0 -69,32 -69,70l0 321c0,39 31,70 69,70 39,0 70,-31 70,-70l0 -321c0,-38 -31,-70 -70,-70z"/>
    </g>
   </g>
   <g>
   </g>
   <g>
   </g>
   <g>
   </g>
   <g>
   </g>
   <g>
   </g>
   <g>
   </g>
   <g>
   </g>
   <g>
   </g>
   <g>
   </g>
   <g>
   </g>
   <g>
   </g>
   <g>
   </g>
   <g>
   </g>
   <g>
   </g>
   <g>
   </g>
  </g>
 </g>
</svg>
