<?xml version="1.0" encoding="UTF-8"?>
<!DOCTYPE svg PUBLIC "-//W3C//DTD SVG 1.1//EN" "http://www.w3.org/Graphics/SVG/1.1/DTD/svg11.dtd">
<!-- Creator: CorelDRAW X8 -->
<svg xmlns="http://www.w3.org/2000/svg" xml:space="preserve" width="135.922mm" height="135.922mm" version="1.1" style="shape-rendering:geometricPrecision; text-rendering:geometricPrecision; image-rendering:optimizeQuality; fill-rule:evenodd; clip-rule:evenodd"
viewBox="0 0 2613 2613"
 xmlns:xlink="http://www.w3.org/1999/xlink">
 <defs>
  <style type="text/css">
   <![CDATA[
    .fil1 {fill:#FEFEFE}
    .fil0 {fill:#98278F}
   ]]>
  </style>
 </defs>
 <g id="Warstwa_x0020_1">
  <metadata id="CorelCorpID_0Corel-Layer"/>
  <path class="fil0" d="M1307 0c721,0 1306,585 1306,1307 0,721 -585,1306 -1306,1306 -722,0 -1307,-585 -1307,-1306 0,-722 585,-1307 1307,-1307z"/>
  <g id="_2231302625744">
   <g>
    <path class="fil1" d="M743 793c9,-10 21,-15 34,-15l789 0c13,0 24,5 34,15 10,9 15,21 15,34l0 148 123 0c14,0 29,3 45,10 16,7 29,15 39,25l152 152c7,7 13,14 18,23 5,9 8,17 10,24 3,7 4,16 5,28 1,12 2,21 2,27 1,5 1,15 0,29 0,14 0,23 0,27l0 246c13,0 25,5 35,15 9,10 14,21 14,34 0,8 -1,15 -3,21 -2,6 -5,11 -10,14 -5,4 -9,7 -13,9 -4,2 -10,4 -18,5 -8,0 -14,1 -17,1 -3,0 -10,0 -20,0 -10,0 -16,0 -17,0l-50 0c0,54 -19,101 -57,139 -39,39 -85,58 -140,58 -54,0 -100,-19 -139,-58 -38,-38 -58,-85 -58,-139l-295 0c0,54 -20,101 -58,139 -39,39 -85,58 -139,58 -55,0 -101,-19 -140,-58 -38,-38 -57,-85 -57,-139 -2,0 -8,0 -18,0 -10,0 -16,0 -19,0 -3,0 -9,-1 -18,-1 -8,-1 -14,-3 -18,-5 -3,-2 -8,-5 -13,-9 -4,-3 -8,-8 -10,-14 -2,-6 -3,-13 -3,-21l0 -788c0,-13 5,-25 15,-34zm901 941c20,20 43,29 69,29 27,0 50,-9 70,-29 19,-19 29,-43 29,-69 0,-27 -10,-50 -29,-70 -20,-19 -43,-29 -70,-29 -26,0 -49,10 -69,29 -19,20 -29,43 -29,70 0,26 10,50 29,69zm-29 -463l295 0 0 -23c0,-7 -2,-13 -6,-17l-151 -151c-4,-4 -10,-6 -17,-6l-121 0 0 197zm-661 463c20,20 43,29 70,29 26,0 49,-9 69,-29 19,-19 29,-43 29,-69 0,-27 -10,-50 -29,-70 -20,-19 -43,-29 -69,-29 -27,0 -50,10 -70,29 -19,20 -29,43 -29,70 0,26 10,50 29,69z"/>
   </g>
   <g>
   </g>
   <g>
   </g>
   <g>
   </g>
   <g>
   </g>
   <g>
   </g>
   <g>
   </g>
   <g>
   </g>
   <g>
   </g>
   <g>
   </g>
   <g>
   </g>
   <g>
   </g>
   <g>
   </g>
   <g>
   </g>
   <g>
   </g>
   <g>
   </g>
  </g>
 </g>
</svg>
