<?xml version="1.0" encoding="UTF-8"?>
<!DOCTYPE svg PUBLIC "-//W3C//DTD SVG 1.1//EN" "http://www.w3.org/Graphics/SVG/1.1/DTD/svg11.dtd">
<!-- Creator: CorelDRAW X8 -->
<svg xmlns="http://www.w3.org/2000/svg" xml:space="preserve" width="135.922mm" height="135.922mm" version="1.1" style="shape-rendering:geometricPrecision; text-rendering:geometricPrecision; image-rendering:optimizeQuality; fill-rule:evenodd; clip-rule:evenodd"
viewBox="0 0 1700 1700"
 xmlns:xlink="http://www.w3.org/1999/xlink">
 <defs>
  <style type="text/css">
   <![CDATA[
    .fil1 {fill:#FEFEFE}
    .fil0 {fill:#3086C0}
   ]]>
  </style>
 </defs>
 <g id="Warstwa_x0020_1">
  <metadata id="CorelCorpID_0Corel-Layer"/>
  <path class="fil0" d="M850 0c470,0 850,381 850,850 0,470 -380,850 -850,850 -469,0 -850,-380 -850,-850 0,-469 381,-850 850,-850z"/>
  <g id="_2231236731568">
   <g>
    <g>
     <g>
      <path class="fil1" d="M453 825l132 -132 0 -153c0,-27 22,-50 50,-50 27,0 50,23 50,50l0 53 98 -98c48,-49 133,-49 181,0l330 330c20,19 20,51 0,70 -19,20 -51,20 -70,0l-330 -330c-11,-10 -30,-10 -41,0l-330 330c-9,10 -22,15 -35,15 -13,0 -26,-5 -35,-15 -20,-19 -20,-51 0,-70z"/>
      <path class="fil1" d="M856 660c10,-10 25,-10 35,0l290 290c5,5 7,11 7,18l0 211c0,50 -40,90 -90,90l-143 0 0 -222 -163 0 0 222 -143 0c-50,0 -90,-40 -90,-90l0 -211c0,-7 2,-13 7,-18l290 -290z"/>
     </g>
    </g>
   </g>
   <g>
   </g>
   <g>
   </g>
   <g>
   </g>
   <g>
   </g>
   <g>
   </g>
   <g>
   </g>
   <g>
   </g>
   <g>
   </g>
   <g>
   </g>
   <g>
   </g>
   <g>
   </g>
   <g>
   </g>
   <g>
   </g>
   <g>
   </g>
   <g>
   </g>
  </g>
 </g>
</svg>
