<?xml version="1.0" encoding="utf-8"?>
<!-- Generator: Adobe Illustrator 21.0.0, SVG Export Plug-In . SVG Version: 6.00 Build 0)  -->
<svg version="1.1" id="Layer_1" xmlns="http://www.w3.org/2000/svg" xmlns:xlink="http://www.w3.org/1999/xlink" x="0px" y="0px"
	 viewBox="0 0 100 36.3" style="enable-background:new 0 0 100 36.3;" xml:space="preserve">
<style type="text/css">
	.st0{fill:#FFFFFF;}
</style>
<g>
	<path class="st0" d="M71.6,16.4c-1.6-0.3-3.3-0.3-4.3-1.4c-0.4-0.5-0.4-1.3-0.2-1.7c0.6-1.3,2.2-1.7,3.7-1.6c1.3,0,2.5,0.7,3.1,1.8
		c0.2,0.5,0.3,1,0.3,1.5h4.3c0.1-1.7-0.6-3.4-1.7-4.5c-1.3-1.4-4.4-2.8-8.3-2.3c-2.1,0.3-4.9,1.5-5.8,4.2c-0.8,2.5,0,4.9,1.6,6.1
		c2,1.5,5.7,1.9,7.2,2.3c1.7,0.3,2.6,0.6,2.9,1.6c0.2,0.6,0.1,1.4-0.3,1.9c-1.1,1.4-3.3,1.6-5.1,1c-1.5-0.5-2.1-1.7-2.4-3.3H62
		c0,1.5,0.5,2.5,1.2,3.8c1,1.6,2.7,2.8,5.3,3.2c2.8,0.5,5.6,0.1,7.3-0.8c1-0.6,1.7-1.3,2.4-2.1c0.9-1.2,1.7-4,0.3-6.6
		C77.1,17.3,74.2,16.9,71.6,16.4L71.6,16.4z M56.7,11c-2-2.3-5.1-3.2-8.3-2.8c-2.9,0.5-5,2.1-6.4,4.4c-0.8,1.3-1.3,2.8-1.5,4.3
		c-0.5,3.5,0.5,9.4,6.7,11.7c2.9,1.1,6.5,0.7,9.3-1.3c1.6-1.2,3.1-3.8,3.2-5.4h-5.1c-0.2,0.7-0.6,1.6-1.5,2.3
		c-2.1,1.5-4.4,0.5-5.5-0.2c-1.6-1.2-2.1-3.1-2.1-5.8c0-1.4,0.4-3.8,1.6-4.9c1.3-1.1,2.9-1.4,4.5-0.9c1.7,0.5,2.9,2.4,2.8,4h-7.3
		v3.6h12.6c0.1-1.3-0.1-2.6-0.3-3.8C58.9,14.6,57.8,12.4,56.7,11L56.7,11z M99.4,23.7v-6.2c-0.1-1.6-0.1-3.2-0.4-4.7
		c-0.3-1.5-1.7-4-5.9-4.5c-0.8-0.1-1.7-0.1-2.5-0.1h0C89,8.3,87.5,8.5,86.3,9c-2.5,1-3.8,3.5-3.8,6.1h4.6c-0.1-1.3,0.9-2.5,1.8-2.9
		c0.4-0.2,1-0.3,1.6-0.3c1.2-0.1,2.3,0.2,3.1,1c0.5,0.5,0.7,1.2,0.5,2c-0.3,1.2-1.6,1.6-3.6,1.9l0,0c-0.7,0.1-1.5,0.2-2.4,0.3
		c-2.4,0.3-5.9,1.5-6.7,5c-0.3,1.4-0.1,3.9,2.1,5.6c1.4,1.1,3.5,1.6,5,1.6c0.7,0,1.4-0.1,2-0.2v0c1.6-0.3,2.9-1.1,4.1-2.1
		c0.1,0.3,0.3,1.4,0.6,1.7h4.9C99.3,27.2,99.4,25,99.4,23.7L99.4,23.7z M94.2,23c-0.5,1.4-2,2.2-3.7,2.4v0c-0.3,0.1-0.7,0.1-1.2,0.1
		c-1.2,0-2.1-0.6-2.5-1.4c-0.5-0.9-0.2-1.7,0.1-2.3c0.7-1.2,1.9-1.4,3.6-1.8l0,0c0.5-0.1,1.1-0.2,1.7-0.3c1.3-0.3,1.6-0.5,2.2-1
		C94.4,19.1,94.5,22.4,94.2,23L94.2,23z M22.6,0.6C12.9-1.9,3,4,0.6,13.7C-1.9,23.4,4,33.3,13.7,35.7c6.9,1.8,13.9-0.7,18.2-5.8
		c-1.9,0.5-4.1,0.5-6.6-0.3c-8.1-2.8-9.6-10.3-7.6-15.6c2-5.3,9.1-7.7,14-4.2c4.8,3.5,4.4,10.1,4.4,10.3
		C37.2,11.3,31.5,2.8,22.6,0.6L22.6,0.6z M8.3,20.7c-1.3,0-2.3-1-2.3-2.3C6,17.1,7,16,8.3,16c1.3,0,2.3,1,2.3,2.3
		C10.6,19.7,9.6,20.7,8.3,20.7L8.3,20.7z M23.6,16.5h7.3c0,0,0.3-1.1-1-2.8c-2.6-2.7-5.5-0.9-5.5-0.9c-1.4,0.8-3.2,3.9-2.2,8.4
		c1.3,4.5,6.5,5.4,9.6,4.4c2.1-0.7,3.3-2.2,3.9-3.2c0.2-0.8,0.3-1.5,0.4-2.3H23.6V16.5L23.6,16.5z"/>
</g>
</svg>
