<?xml version="1.0" encoding="utf-8"?>
<!-- Generator: Adobe Illustrator 23.0.3, SVG Export Plug-In . SVG Version: 6.00 Build 0)  -->
<svg version="1.1" id="Layer_1" xmlns="http://www.w3.org/2000/svg" xmlns:xlink="http://www.w3.org/1999/xlink" x="0px" y="0px"
	 viewBox="0 0 197.7 18.4" style="enable-background:new 0 0 197.7 18.4;" xml:space="preserve">
<style type="text/css">
	.st0{fill:#FFFFFF;}
</style>
<path class="st0" d="M8.1,14v-1.7c0-0.2-0.2-0.4-0.4-0.4c0,0,0,0,0,0h-5V8.4h4.6c0.2,0,0.4-0.2,0.4-0.4c0,0,0,0,0,0V6.3
	c0-0.2-0.2-0.4-0.4-0.4c0,0,0,0,0,0H2.7V2.7h5c0.2,0,0.4-0.2,0.4-0.4c0,0,0,0,0,0V0.6c0-0.2-0.2-0.4-0.4-0.4c0,0,0,0,0,0H0.4
	C0.2,0.2,0,0.4,0,0.6c0,0,0,0,0,0V14c0,0.2,0.2,0.4,0.4,0.4c0,0,0,0,0,0h7.3C7.9,14.4,8.1,14.2,8.1,14C8.1,14,8.1,14,8.1,14z
	 M18.1,14V4.8c0-0.2-0.2-0.4-0.4-0.4c0,0,0,0,0,0h-1.9c-0.2,0-0.4,0.2-0.4,0.4c0,0,0,0,0,0v6.9c-0.5,0.2-1,0.4-1.5,0.4
	c-0.9,0-1.2-0.5-1.2-1.3v-6c0-0.2-0.2-0.4-0.4-0.4c0,0,0,0,0,0h-1.9c-0.2,0-0.4,0.2-0.4,0.4c0,0,0,0,0,0v6.4c0,2,0.7,3.4,3,3.4
	c0.9,0,1.8-0.3,2.6-0.9V14c0,0.2,0.2,0.4,0.4,0.4c0,0,0,0,0,0h1.7C17.9,14.4,18.1,14.2,18.1,14C18.1,14,18.1,14,18.1,14z M25.6,6.9
	V4.6c0-0.2-0.1-0.4-0.3-0.4c-0.1,0-0.3,0-0.4,0c-0.8,0-1.6,0.5-1.8,1.3V4.8c0-0.2-0.2-0.4-0.4-0.4c0,0,0,0,0,0h-1.7
	c-0.2,0-0.4,0.2-0.4,0.4c0,0,0,0,0,0V14c0,0.2,0.2,0.4,0.4,0.4c0,0,0,0,0,0h1.9c0.2,0,0.4-0.2,0.4-0.4c0,0,0,0,0,0V8.5
	c0.4-0.7,1.1-1.1,1.9-1.2c0.1,0,0.1,0,0.2,0C25.5,7.3,25.6,7.2,25.6,6.9z M34.9,10.6V8.2c0-2.7-1.5-4-4.1-4s-4.1,1.3-4.1,4v2.4
	c0,2.7,1.5,4,4.1,4S34.9,13.3,34.9,10.6z M32.2,10.6c0,0.9-0.3,1.6-1.4,1.6s-1.4-0.7-1.4-1.6V8.1c0-0.9,0.3-1.6,1.4-1.6
	s1.4,0.7,1.4,1.6V10.6z M45.3,10.6V7.8c0-2.2-1-3.6-3.3-3.6c-0.8,0-1.6,0.3-2.3,0.7V4.8c0-0.2-0.2-0.4-0.4-0.4c0,0,0,0,0,0h-1.7
	c-0.2,0-0.4,0.2-0.4,0.4c0,0,0,0,0,0v13c0,0.2,0.2,0.4,0.4,0.4c0,0,0,0,0,0h1.9c0.2,0,0.4-0.2,0.4-0.4c0,0,0,0,0,0v-3.6
	c0.5,0.1,1,0.1,1.5,0.1C44.1,14.4,45.3,12.9,45.3,10.6z M42.6,10.5c0,0.9-0.4,1.6-1.4,1.6h-1.3V6.9c0.4-0.2,0.9-0.3,1.4-0.3
	c1,0,1.3,0.6,1.3,1.5L42.6,10.5z M55.6,10.1V8.4c0-2.3-1.1-4.2-3.9-4.2c-2.7,0-4.2,1.9-4.2,4.7v0.8c0,3.5,1.8,4.8,4.5,4.8
	c0.9,0,1.9-0.1,2.8-0.3c0.2,0,0.4-0.2,0.4-0.4c0,0,0,0,0,0v-1.7c0-0.2-0.1-0.3-0.4-0.3c-0.9,0.1-1.7,0.2-2.6,0.3
	c-0.9,0.1-1.8-0.5-1.9-1.4c0-0.1,0-0.2,0-0.2h5C55.4,10.5,55.6,10.3,55.6,10.1C55.6,10.1,55.6,10.1,55.6,10.1z M53.1,8.6h-2.9
	c0-1.4,0.4-2.1,1.5-2.1c1.1,0,1.4,0.7,1.4,1.8V8.6z M65.4,14V8c0-2.5-0.8-3.8-3.7-3.8c-1.1,0-2.2,0.2-3.2,0.4
	c-0.2,0-0.4,0.2-0.4,0.4v1.7c0,0.2,0.2,0.3,0.4,0.3c0.9-0.2,1.8-0.3,2.8-0.3c1,0,1.5,0.4,1.5,1.3v0.5c-0.6-0.1-1.2-0.1-1.8-0.1
	c-2.3,0-3.6,1.1-3.6,3.1c0,2.2,1.2,3.1,3.2,3.1c0.9,0,1.7-0.3,2.4-0.7V14c0,0.2,0.2,0.4,0.4,0.4c0,0,0,0,0,0H65
	C65.2,14.4,65.4,14.2,65.4,14C65.4,14,65.4,14,65.4,14z M62.7,12c-0.5,0.2-1,0.4-1.6,0.4c-0.8,0-1.1-0.4-1.1-1
	c0-0.7,0.4-1.1,1.3-1.1h1.4V12z M75.9,14V7.6c0-2-0.7-3.4-3-3.4c-0.9,0-1.8,0.3-2.6,0.9V4.8c0-0.2-0.2-0.4-0.4-0.4c0,0,0,0,0,0h-1.7
	c-0.2,0-0.4,0.2-0.4,0.4c0,0,0,0,0,0V14c0,0.2,0.2,0.4,0.4,0.4c0,0,0,0,0,0h1.9c0.2,0,0.4-0.2,0.4-0.4c0,0,0,0,0,0V7.1
	c0.5-0.2,1-0.4,1.5-0.4c0.9,0,1.2,0.5,1.2,1.3v6c0,0.2,0.2,0.4,0.4,0.4c0,0,0,0,0,0h1.9C75.7,14.4,75.9,14.2,75.9,14
	C75.9,14,75.9,14,75.9,14z M92.3,10.5V9.9c0-2.5-1.4-3.3-2.9-3.8l-1.7-0.6c-0.7-0.2-1.2-0.6-1.2-1.3V4c0-1,0.5-1.5,1.9-1.5
	c1.1,0,2.2,0.1,3.3,0.3c0.2,0,0.4-0.1,0.4-0.3V0.7c0-0.2-0.2-0.4-0.4-0.4C90.6,0.1,89.5,0,88.4,0c-2.5,0-4.6,1.1-4.6,4v0.5
	c-0.1,1.6,0.9,3.1,2.5,3.5l1.7,0.6c0.9,0.3,1.6,0.6,1.6,1.5v0.4c0,1.2-0.6,1.6-2.1,1.6c-1.1-0.1-2.3-0.2-3.4-0.4
	c-0.2,0-0.4,0.1-0.4,0.3v1.8c0,0.2,0.2,0.4,0.4,0.4c1.2,0.3,2.4,0.4,3.6,0.4C90.8,14.6,92.3,13.6,92.3,10.5z M102.7,10.6V7.8
	c0-2.2-1-3.6-3.3-3.6c-0.8,0-1.6,0.3-2.3,0.7V4.8c0-0.2-0.2-0.4-0.4-0.4c0,0,0,0,0,0H95c-0.2,0-0.4,0.2-0.4,0.4c0,0,0,0,0,0v13
	c0,0.2,0.2,0.4,0.4,0.4c0,0,0,0,0,0h1.9c0.2,0,0.4-0.2,0.4-0.4c0,0,0,0,0,0v-3.6c0.5,0.1,1,0.1,1.5,0.1
	C101.5,14.4,102.7,12.9,102.7,10.6z M100,10.5c0,0.9-0.4,1.6-1.4,1.6h-1.3V6.9c0.4-0.2,0.9-0.3,1.4-0.3c1,0,1.3,0.6,1.3,1.5
	L100,10.5z M112.5,14V8c0-2.5-0.8-3.8-3.7-3.8c-1.1,0-2.2,0.2-3.2,0.4c-0.2,0-0.4,0.2-0.4,0.4v1.7c0,0.2,0.2,0.3,0.4,0.3
	c0.9-0.2,1.8-0.3,2.8-0.3c1,0,1.5,0.4,1.5,1.3v0.5c-0.6-0.1-1.2-0.1-1.8-0.1c-2.3,0-3.6,1.1-3.6,3.1c0,2.2,1.2,3.1,3.2,3.1
	c0.9,0,1.7-0.3,2.4-0.7V14c0,0.2,0.2,0.4,0.4,0.4c0,0,0,0,0,0h1.7C112.3,14.4,112.5,14.2,112.5,14C112.5,14,112.5,14,112.5,14z
	 M109.8,12c-0.5,0.2-1,0.4-1.6,0.4c-0.8,0-1.1-0.4-1.1-1c0-0.7,0.4-1.1,1.3-1.1h1.4V12z M121,14v-1.6c0-0.2-0.1-0.3-0.3-0.3
	c0,0-0.1,0-0.1,0c-0.5,0.1-1,0.1-1.6,0.1c-1.2,0-1.6-0.6-1.6-1.7V8.3c0-1,0.3-1.7,1.5-1.7c0.5,0,1.1,0.1,1.6,0.1
	c0.2,0,0.3-0.1,0.4-0.2c0,0,0-0.1,0-0.1V4.8c0-0.2-0.1-0.4-0.3-0.4c0,0,0,0,0,0c-0.6-0.1-1.2-0.2-1.8-0.2c-2.6,0-4.1,1.3-4.1,4v2.4
	c0,2.7,1.5,4,4.1,4c0.6,0,1.2-0.1,1.8-0.2C120.8,14.4,121,14.3,121,14C121,14,121,14,121,14z M130.5,10.1V8.4c0-2.3-1.1-4.2-3.9-4.2
	c-2.7,0-4.2,1.9-4.2,4.7v0.8c0,3.5,1.8,4.8,4.5,4.8c0.9,0,1.9-0.1,2.8-0.3c0.2,0,0.4-0.2,0.4-0.4c0,0,0,0,0,0v-1.7
	c0-0.2-0.1-0.3-0.4-0.3c-0.9,0.1-1.7,0.2-2.6,0.3c-0.9,0.1-1.8-0.5-1.9-1.4c0-0.1,0-0.2,0-0.2h5C130.3,10.5,130.5,10.3,130.5,10.1
	C130.5,10.1,130.5,10.1,130.5,10.1z M128,8.6h-2.9c0-1.4,0.4-2.1,1.5-2.1c1.1,0,1.4,0.7,1.4,1.8V8.6z M149,14l-4-13.4
	c0-0.2-0.2-0.4-0.5-0.4H142c-0.2,0-0.4,0.2-0.5,0.4l-4,13.4c-0.1,0.1,0,0.3,0.2,0.4c0,0,0.1,0,0.1,0h2.2c0.2,0,0.4-0.2,0.4-0.4
	l0.6-2h4.6l0.6,2c0,0.2,0.2,0.4,0.4,0.4h2.2c0.2,0,0.3-0.1,0.3-0.3C149,14.1,149,14,149,14z M144.9,9.5h-3.2l1.6-5.8L144.9,9.5z
	 M158.3,14.1v-9c0-0.2-0.2-0.4-0.4-0.4l0,0c-1.2-0.3-2.5-0.5-3.8-0.5c-2.7,0-3.9,1.5-3.9,3.8v2.6c0,2.2,1,3.6,3.3,3.6
	c0.7,0,1.5-0.2,2.1-0.6v0.5c0,1.2-0.4,1.8-1.7,1.8c-1,0-2-0.2-2.9-0.3c-0.2,0-0.4,0.1-0.4,0.3v1.8c0,0.2,0.2,0.4,0.4,0.4
	c0,0,0,0,0,0c1.1,0.2,2.2,0.4,3.4,0.4C157.2,18.4,158.3,17.4,158.3,14.1z M155.6,11.5c-0.4,0.2-0.9,0.3-1.4,0.3
	c-1,0-1.3-0.6-1.3-1.5V8.1c0-0.9,0.4-1.5,1.4-1.5c0.4,0,0.9,0.1,1.3,0.1L155.6,11.5z M168.6,10.1V8.4c0-2.3-1.1-4.2-3.9-4.2
	c-2.7,0-4.2,1.9-4.2,4.7v0.8c0,3.5,1.8,4.8,4.5,4.8c0.9,0,1.9-0.1,2.8-0.3c0.2,0,0.4-0.2,0.4-0.4c0,0,0,0,0,0v-1.7
	c0-0.2-0.1-0.3-0.4-0.3c-0.9,0.1-1.7,0.2-2.6,0.3c-0.9,0.1-1.8-0.5-1.9-1.4c0-0.1,0-0.2,0-0.2h5C168.4,10.5,168.6,10.3,168.6,10.1
	C168.6,10.1,168.6,10.1,168.6,10.1z M166.1,8.6h-2.9c0-1.4,0.4-2.1,1.5-2.1c1.1,0,1.4,0.7,1.4,1.8V8.6z M178.9,14V7.6
	c0-2-0.7-3.4-3-3.4c-0.9,0-1.8,0.3-2.6,0.9V4.8c0-0.2-0.2-0.4-0.4-0.4c0,0,0,0,0,0h-1.7c-0.2,0-0.4,0.2-0.4,0.4c0,0,0,0,0,0V14
	c0,0.2,0.2,0.4,0.4,0.4c0,0,0,0,0,0h1.9c0.2,0,0.4-0.2,0.4-0.4c0,0,0,0,0,0V7.1c0.5-0.2,1-0.4,1.5-0.4c0.9,0,1.2,0.5,1.2,1.3v6
	c0,0.2,0.2,0.4,0.4,0.4c0,0,0,0,0,0h1.9C178.7,14.4,178.9,14.2,178.9,14C178.9,14,178.9,14,178.9,14L178.9,14z M187.4,14v-1.6
	c0-0.2-0.1-0.3-0.3-0.3c0,0-0.1,0-0.1,0c-0.5,0.1-1,0.1-1.6,0.1c-1.2,0-1.6-0.6-1.6-1.7V8.3c0-1,0.3-1.7,1.5-1.7
	c0.5,0,1.1,0.1,1.6,0.1c0.2,0,0.3-0.1,0.4-0.2c0,0,0-0.1,0-0.1V4.8c0-0.2-0.1-0.4-0.3-0.4c0,0,0,0,0,0c-0.6-0.1-1.2-0.2-1.8-0.2
	c-2.6,0-4.1,1.3-4.1,4v2.4c0,2.7,1.5,4,4.1,4c0.6,0,1.2-0.1,1.8-0.2C187.2,14.4,187.4,14.3,187.4,14C187.4,14,187.4,14,187.4,14
	L187.4,14z M197.7,4.8c0-0.2-0.1-0.3-0.2-0.4c0,0-0.1,0-0.1,0h-2.1c-0.2,0-0.4,0.2-0.4,0.4l-1.9,5.5l-1.7-5.5c0-0.2-0.2-0.3-0.4-0.3
	h-2.1c-0.2,0-0.3,0.1-0.3,0.3c0,0,0,0.1,0,0.1l3.1,9.8l-1.1,3.2c-0.1,0.2,0,0.3,0.2,0.4c0,0,0.1,0,0.1,0h2.2c0.2,0,0.4-0.2,0.4-0.4
	L197.7,4.8z"/>
</svg>
