<?xml version="1.0" encoding="UTF-8" ?>
<!DOCTYPE svg PUBLIC "-//W3C//DTD SVG 1.1//EN" "http://www.w3.org/Graphics/SVG/1.1/DTD/svg11.dtd">
<svg width="249pt" height="361pt" viewBox="0 0 249 361" version="1.1" xmlns="http://www.w3.org/2000/svg">
<g id="#65a26bff">
<path d=" M 83.73 0.00 L 171.25 0.00 C 173.14 0.90 175.41 0.73 177.25 1.81 C 179.72 3.24 180.83 6.19 181.00 8.92 C 181.04 74.44 180.93 139.97 181.05 205.49 C 200.37 205.53 219.68 205.46 238.99 205.53 C 242.45 205.79 246.68 205.63 249.00 208.70 L 249.00 211.82 C 247.98 215.93 244.50 218.66 241.61 221.48 C 217.51 252.77 193.91 284.44 169.61 315.57 C 159.09 329.60 147.87 343.08 136.65 356.56 C 134.44 358.49 132.04 360.50 128.99 360.76 C 125.26 361.23 121.93 359.05 119.00 357.03 C 81.65 311.73 44.24 266.46 6.74 221.26 C 3.93 218.56 1.19 215.55 0.00 211.75 L 0.00 207.80 C 2.36 205.45 5.88 205.31 9.00 205.25 C 29.58 205.26 50.16 205.22 70.74 205.27 C 70.76 140.51 70.76 75.74 70.74 10.97 C 70.41 8.37 70.50 5.48 72.36 3.41 C 75.31 0.41 79.93 0.82 83.73 0.00 Z" />
</g>
</svg>
