<?xml version="1.0" encoding="UTF-8"?>
<!DOCTYPE svg PUBLIC "-//W3C//DTD SVG 1.1//EN" "http://www.w3.org/Graphics/SVG/1.1/DTD/svg11.dtd">
<!-- Creator: CorelDRAW X8 -->
<svg xmlns="http://www.w3.org/2000/svg" xml:space="preserve" width="5531.14mm" height="5531.14mm" version="1.1" style="shape-rendering:geometricPrecision; text-rendering:geometricPrecision; image-rendering:optimizeQuality; fill-rule:evenodd; clip-rule:evenodd"
viewBox="0 0 158839 158839"
 xmlns:xlink="http://www.w3.org/1999/xlink">
 <g id="Warstwa_x0020_1">
  <metadata id="CorelCorpID_0Corel-Layer"/>
  <g id="_1475083560336">
   <g>
    <g>
     <path d="M98603 90493c-4730,0 -8901,2253 -11626,5703l-25279 -12927c331,-1234 569,-2510 569,-3852 0,-1461 -283,-2836 -677,-4175l25167 -12868c2711,3607 6990,5964 11849,5964 8232,0 14891,-6659 14891,-14883 0,-8217 -6659,-14879 -14891,-14879 -8213,0 -14879,6662 -14879,14879 0,1346 238,2625 573,3863l-25275 12927c-2729,-3454 -6908,-5714 -11645,-5714 -8224,0 -14879,6666 -14879,14886 0,8221 6655,14883 14879,14883 4867,0 9143,-2364 11864,-5974l25156 12868c-394,1334 -680,2721 -680,4186 0,8220 6666,14883 14879,14883 8231,0 14890,-6663 14890,-14883 4,-8228 -6655,-14887 -14886,-14887z"/>
    </g>
    <path d="M158839 79420c0,-43863 -35557,-79420 -79419,-79420 -43863,0 -79420,35557 -79420,79420 0,43862 35557,79419 79420,79419 43862,0 79419,-35557 79419,-79419zm-13384 0c0,-36471 -29565,-66036 -66035,-66036 -36471,0 -66036,29565 -66036,66036 0,36470 29565,66035 66036,66035 36470,0 66035,-29565 66035,-66035z"/>
 </g>
</svg>
