<svg xmlns="http://www.w3.org/2000/svg" xmlns:xlink="http://www.w3.org/1999/xlink" width="36" height="36" viewBox="0 0 36 36"><defs><clipPath id="b"><rect width="36" height="36"/></clipPath></defs><g id="a" clip-path="url(#b)"><g transform="translate(-8239 -3120)"><g transform="translate(8132.09 2537.869)"><path d="M142.47,602.85a6.8,6.8,0,0,1-6.71,5.79h-3.43a1.308,1.308,0,0,1-.09-2.6h3.51a4.226,4.226,0,0,0,.12-8.45,1.3,1.3,0,0,1-1.26-1.34,1.355,1.355,0,0,1,.08-.39,5.343,5.343,0,0,0-.18-4.08,5.324,5.324,0,0,0-9.83.44,1.311,1.311,0,0,1-1.68.77,3.689,3.689,0,0,0-4.95,1.74,3.841,3.841,0,0,0-.27.83,1.3,1.3,0,0,1-.55.82,1.309,1.309,0,0,1-.98.2,5.038,5.038,0,0,0-1.02-.1,4.78,4.78,0,0,0-.08,9.56h3.44a1.307,1.307,0,0,1-.08,2.6H115.3a7.379,7.379,0,0,1-.75-14.72v-.04l.75-.01c.09,0,.19.01.28.01a6.249,6.249,0,0,1,5.8-3.87,5.931,5.931,0,0,1,1.39.16,7.915,7.915,0,0,1,10.23-3.3,7.958,7.958,0,0,1,4.61,7.21,7.3,7.3,0,0,1-.09,1.14,6.849,6.849,0,0,1,4.95,7.63Z" fill="#000"/><path d="M130.1,611.266a1.018,1.018,0,0,0-1.438-.082h0l-2.451,2.189V600.839a1.019,1.019,0,0,0-2.038,0v12.535l-2.452-2.189a1.018,1.018,0,1,0-1.357,1.519h0l3.7,3.312a1.681,1.681,0,0,0,2.242,0l3.7-3.312a1.019,1.019,0,0,0,.089-1.437Z" fill="#000"/></g><rect width="36" height="36" transform="translate(8239 3120)" fill="none"/></g></g></svg>