<?xml version="1.0" encoding="UTF-8" ?>
<!DOCTYPE svg PUBLIC "-//W3C//DTD SVG 1.1//EN" "http://www.w3.org/Graphics/SVG/1.1/DTD/svg11.dtd">
<svg width="200pt" height="200pt" viewBox="0 0 200 200" version="1.1" xmlns="http://www.w3.org/2000/svg">
<g id="#f7f7f7fa">
</g>
<g id="#000000ff">
<path fill="#000000" opacity="1.00" d=" M 56.11 9.12 C 59.49 8.30 63.32 10.81 63.46 14.38 C 63.58 18.75 63.74 23.16 63.34 27.52 C 62.39 33.16 53.39 33.64 51.73 28.23 C 50.91 23.86 51.46 19.33 51.38 14.91 C 51.31 12.16 53.40 9.60 56.11 9.12 Z" />
<path fill="#000000" opacity="1.00" d=" M 141.35 9.54 C 144.74 7.85 149.51 10.04 149.93 13.92 C 150.17 18.32 150.16 22.74 149.93 27.14 C 149.47 31.62 143.42 33.62 140.11 30.79 C 136.82 28.21 138.16 23.59 137.87 20.00 C 137.87 16.33 137.16 11.27 141.35 9.54 Z" />
<path fill="#000000" opacity="1.00" d=" M 27.43 22.62 C 33.44 20.73 39.85 21.90 46.04 21.58 C 45.93 26.06 45.87 31.19 49.51 34.44 C 54.00 39.28 62.50 38.66 66.35 33.34 C 69.17 30.09 68.80 25.59 68.87 21.59 C 89.88 21.63 110.89 21.48 131.89 21.66 C 133.36 24.47 131.73 28.30 133.58 31.19 C 136.39 37.73 145.72 39.99 151.03 35.10 C 155.18 31.94 155.45 26.42 155.16 21.66 C 161.30 21.83 167.90 20.55 173.63 23.36 C 179.49 26.15 183.20 32.57 182.98 39.02 C 183.01 83.01 183.02 127.01 182.98 171.00 C 183.12 177.44 179.31 183.82 173.42 186.51 C 169.58 188.48 165.17 188.17 161.00 188.18 C 118.68 188.16 76.36 188.18 34.04 188.17 C 27.80 188.45 21.51 185.11 18.53 179.57 C 16.67 176.40 16.26 172.65 16.36 169.04 C 16.39 125.69 16.36 82.34 16.37 38.99 C 16.11 31.91 20.68 24.94 27.43 22.62 M 22.32 59.94 C 22.37 96.30 22.31 132.67 22.35 169.03 C 22.19 176.22 28.83 182.60 36.02 182.19 C 76.67 182.20 117.33 182.19 157.98 182.20 C 160.67 182.18 163.38 182.33 166.06 181.99 C 172.18 181.01 177.09 175.20 177.01 169.00 C 176.99 132.64 177.00 96.27 177.00 59.90 C 125.44 59.93 73.88 59.85 22.32 59.94 Z" />
<path fill="#000000" opacity="1.00" d=" M 134.58 67.68 C 139.43 67.43 144.30 67.59 149.16 67.55 C 149.34 72.37 149.23 77.20 149.25 82.02 C 144.35 82.03 139.44 82.04 134.54 82.01 C 134.55 77.23 134.49 72.45 134.58 67.68 Z" />
<path fill="#000000" opacity="1.00" d=" M 155.14 67.63 C 160.06 67.49 164.98 67.54 169.90 67.59 C 169.91 72.39 169.90 77.20 169.90 82.00 C 164.98 82.05 160.06 82.05 155.14 82.00 C 155.15 77.21 155.15 72.42 155.14 67.63 Z" />
<path fill="#000000" opacity="1.00" d=" M 31.45 89.43 C 36.29 89.31 41.13 89.42 45.97 89.34 C 46.18 94.18 46.12 99.04 46.02 103.89 C 41.14 103.87 36.26 103.93 31.38 103.84 C 31.41 99.03 31.33 94.23 31.45 89.43 Z" />
<path fill="#000000" opacity="1.00" d=" M 52.07 89.32 C 56.95 89.43 61.82 89.32 66.69 89.41 C 66.78 94.23 66.73 99.05 66.74 103.87 C 61.83 103.91 56.92 103.88 52.01 103.89 C 52.02 99.03 51.95 94.17 52.07 89.32 Z" />
<path fill="#000000" opacity="1.00" d=" M 72.93 89.32 C 77.65 89.40 82.37 89.40 87.10 89.33 C 87.63 94.16 87.31 99.03 87.31 103.89 C 82.44 103.89 77.57 103.89 72.70 103.88 C 72.71 99.03 72.38 94.16 72.93 89.32 Z" />
<path fill="#000000" opacity="1.00" d=" M 93.34 89.40 C 98.21 89.34 103.07 89.42 107.94 89.33 C 108.04 94.18 107.99 99.04 107.99 103.89 C 103.09 103.88 98.18 103.91 93.28 103.86 C 93.29 99.04 93.22 94.22 93.34 89.40 Z" />
<path fill="#000000" opacity="1.00" d=" M 114.04 89.33 C 118.88 89.42 123.73 89.30 128.58 89.44 C 128.67 94.24 128.62 99.05 128.62 103.85 C 123.75 103.92 118.87 103.87 113.99 103.89 C 113.90 99.04 113.84 94.18 114.04 89.33 Z" />
<path fill="#000000" opacity="1.00" d=" M 135.19 89.45 C 139.81 89.22 144.44 89.47 149.06 89.34 C 149.43 94.18 149.24 99.04 149.19 103.88 C 144.32 103.89 139.45 103.89 134.58 103.88 C 134.57 99.25 134.39 94.61 134.62 89.99 L 135.19 89.45 Z" />
<path fill="#000000" opacity="1.00" d=" M 155.18 89.39 C 160.08 89.36 164.97 89.38 169.87 89.37 C 169.93 94.21 169.90 99.04 169.90 103.88 C 164.98 103.89 160.07 103.89 155.15 103.88 C 155.15 99.05 155.12 94.22 155.18 89.39 Z" />
<path fill="#000000" opacity="1.00" d=" M 31.41 111.23 C 36.27 111.14 41.15 111.19 46.02 111.17 C 46.14 116.02 46.15 120.86 46.01 125.71 C 41.14 125.66 36.28 125.77 31.42 125.61 C 31.37 120.82 31.38 116.02 31.41 111.23 Z" />
<path fill="#000000" opacity="1.00" d=" M 52.01 111.17 C 56.91 111.19 61.82 111.16 66.72 111.20 C 66.75 116.02 66.77 120.84 66.70 125.67 C 61.82 125.73 56.94 125.65 52.06 125.74 C 51.96 120.88 52.01 116.02 52.01 111.17 Z" />
<path fill="#000000" opacity="1.00" d=" M 72.74 111.18 C 77.58 111.18 82.42 111.18 87.26 111.17 C 87.39 116.02 87.54 120.88 87.16 125.72 C 82.40 125.68 77.65 125.66 72.89 125.74 C 72.43 120.90 72.65 116.03 72.74 111.18 Z" />
<path fill="#000000" opacity="1.00" d=" M 93.29 111.20 C 98.19 111.15 103.09 111.19 107.99 111.17 C 108.00 116.02 108.02 120.87 107.97 125.71 C 103.08 125.66 98.19 125.74 93.30 125.64 C 93.26 120.83 93.27 116.01 93.29 111.20 Z" />
<path fill="#000000" opacity="1.00" d=" M 113.99 111.17 C 118.86 111.19 123.73 111.15 128.60 111.21 C 128.64 116.01 128.64 120.82 128.60 125.62 C 123.74 125.76 118.87 125.65 114.00 125.71 C 113.87 120.87 113.89 116.02 113.99 111.17 Z" />
<path fill="#000000" opacity="1.00" d=" M 134.62 111.17 C 139.46 111.18 144.30 111.18 149.14 111.17 C 149.29 116.02 149.41 120.88 149.06 125.72 C 144.29 125.68 139.52 125.65 134.76 125.74 C 134.33 120.90 134.54 116.02 134.62 111.17 Z" />
<path fill="#000000" opacity="1.00" d=" M 155.16 111.19 C 160.07 111.17 164.98 111.18 169.89 111.18 C 169.91 116.02 169.92 120.85 169.88 125.69 C 164.97 125.69 160.07 125.71 155.17 125.68 C 155.13 120.85 155.14 116.02 155.16 111.19 Z" />
<path fill="#000000" opacity="1.00" d=" M 31.36 133.04 C 36.27 132.97 41.18 133.01 46.09 133.00 C 46.06 137.85 46.19 142.70 45.99 147.55 C 41.20 147.39 36.40 147.74 31.63 147.37 C 31.04 142.63 31.58 137.81 31.36 133.04 Z" />
<path fill="#000000" opacity="1.00" d=" M 52.00 133.00 C 56.92 133.00 61.83 132.99 66.75 133.01 C 66.69 137.85 66.87 142.69 66.61 147.52 C 61.76 147.52 56.92 147.47 52.07 147.57 C 51.95 142.71 52.02 137.86 52.00 133.00 Z" />
<path fill="#000000" opacity="1.00" d=" M 72.65 133.00 C 77.55 133.00 82.46 133.00 87.37 133.00 C 87.24 137.86 87.68 142.74 87.08 147.58 C 82.36 147.48 77.65 147.48 72.93 147.58 C 72.34 142.74 72.77 137.86 72.65 133.00 Z" />
<path fill="#000000" opacity="1.00" d=" M 93.25 133.03 C 98.17 132.98 103.08 133.01 108.00 133.00 C 107.98 137.85 108.04 142.70 107.94 147.56 C 103.10 147.48 98.26 147.51 93.42 147.53 C 93.13 142.70 93.34 137.86 93.25 133.03 Z" />
<path fill="#000000" opacity="1.00" d=" M 113.92 133.00 C 118.85 133.03 123.78 132.93 128.71 133.10 C 128.52 137.89 128.78 142.70 128.49 147.49 C 123.69 147.55 118.89 147.44 114.09 147.59 C 113.78 142.73 113.97 137.86 113.92 133.00 Z" />
<path fill="#000000" opacity="1.00" d=" M 134.53 133.00 C 139.44 133.00 144.35 133.00 149.26 133.00 C 149.17 137.86 149.49 142.73 149.03 147.57 C 144.45 147.39 139.87 147.67 135.30 147.45 L 134.61 146.87 C 134.39 142.25 134.61 137.62 134.53 133.00 Z" />
<path fill="#000000" opacity="1.00" d=" M 155.14 133.01 C 160.06 133.00 164.99 133.00 169.91 133.01 C 169.88 137.85 169.96 142.69 169.84 147.52 C 164.96 147.50 160.08 147.53 155.19 147.50 C 155.10 142.67 155.16 137.84 155.14 133.01 Z" />
<path fill="#000000" opacity="1.00" d=" M 31.80 154.65 C 36.51 154.30 41.24 154.66 45.95 154.47 C 46.22 159.30 46.05 164.15 46.09 169.00 C 41.18 168.99 36.27 169.03 31.36 168.96 C 31.70 164.22 30.79 159.25 31.80 154.65 Z" />
<path fill="#000000" opacity="1.00" d=" M 52.00 154.52 C 56.93 154.58 61.86 154.36 66.78 154.68 C 66.71 159.45 66.74 164.22 66.75 168.99 C 61.84 169.01 56.92 168.99 52.00 169.00 C 52.00 164.17 52.00 159.34 52.00 154.52 Z" />
</g>
</svg>
