<?xml version="1.0" encoding="UTF-8"?>
<!DOCTYPE svg PUBLIC "-//W3C//DTD SVG 1.1//EN" "http://www.w3.org/Graphics/SVG/1.1/DTD/svg11.dtd">
<!-- Creator: CorelDRAW 2017 -->
<svg xmlns="http://www.w3.org/2000/svg" xml:space="preserve" width="10.1cm" height="10.0987cm" version="1.1" style="shape-rendering:geometricPrecision; text-rendering:geometricPrecision; image-rendering:optimizeQuality; fill-rule:evenodd; clip-rule:evenodd"
viewBox="0 0 6.16 6.16"
 xmlns:xlink="http://www.w3.org/1999/xlink">
	<path d="M5.21 5.69l-4.74 0 0 -4.74 3.5 0 0.3 -0.47 -3.79 0c-0.26,0 -0.47,0.21 -0.47,0.47l0 4.74c0,0.26 0.21,0.47 0.47,0.47l4.74 0c0.26,0 0.47,-0.21 0.47,-0.47l0 -3.13 -0.47 0.76 0 2.37z"/>
	<path d="M6.01 0.05c-0.06,-0.04 -0.12,-0.05 -0.18,-0.05 -0.11,0 -0.21,0.05 -0.28,0.15l-2.58 3.72 -1 -1.14c-0.14,-0.12 -0.34,-0.12 -0.47,0.02 -0.12,0.13 -0.12,0.34 0.02,0.47l1.2 1.37 0.03 0.03 0.03 0.03 0.01 0.01 0.03 0.02 0.06 0.03 0.01 0.01 0.1 0.02 0 -0c0.09,0 0.18,-0.03 0.25,-0.1l0.03 -0.04 0 -0 2.82 -4.07c0.1,-0.15 0.06,-0.36 -0.1,-0.46z"/>
</svg>
