<?xml version="1.0" encoding="UTF-8" ?>
<!DOCTYPE svg PUBLIC "-//W3C//DTD SVG 1.1//EN" "http://www.w3.org/Graphics/SVG/1.1/DTD/svg11.dtd">
<svg width="512pt" height="512pt" viewBox="0 0 512 512" version="1.1" xmlns="http://www.w3.org/2000/svg">
	<g>
		<path d=" M 246.72 0.00 L 265.21 0.00 C 297.53 1.53 329.67 8.56 359.26 21.78 C 413.22 45.52 458.38 88.53 484.78 141.24 C 501.39 173.89 510.31 210.18 512.00 246.71 L 512.00 265.23 C 510.28 303.27 500.62 341.03 482.74 374.72 C 452.66 432.35 399.86 477.68 338.22 498.42 C 314.74 506.55 290.04 510.70 265.27 512.00 L 246.84 512.00 C 209.26 510.30 171.96 500.88 138.58 483.40 C 84.05 455.32 40.32 407.01 17.88 349.92 C 7.09 323.00 1.45 294.21 0.00 265.29 L 0.00 246.82 C 0.55 241.20 0.74 235.54 1.35 229.92 C 5.20 191.55 17.99 154.13 38.36 121.40 C 69.36 71.17 118.21 32.21 174.19 13.43 C 197.55 5.41 222.09 1.29 246.72 0.00 M 243.42 40.68 C 201.11 43.02 159.66 58.35 125.97 84.04 C 92.80 109.12 67.04 143.92 53.01 183.09 C 39.42 220.62 36.72 261.97 45.04 300.99 C 52.33 335.45 68.38 367.99 91.13 394.88 C 111.51 419.07 137.23 438.74 165.96 451.97 C 210.27 472.55 261.69 477.17 309.01 465.08 C 341.86 456.80 372.63 440.51 398.06 418.14 C 425.84 393.83 447.29 362.31 459.51 327.47 C 474.74 284.43 475.69 236.52 462.27 192.89 C 446.33 140.29 409.28 94.61 361.33 67.83 C 325.72 47.69 284.24 38.23 243.42 40.68 Z" />
		<path d=" M 192.15 180.14 C 199.29 177.41 207.85 179.34 213.21 184.77 C 227.51 198.98 241.69 213.31 256.00 227.51 C 270.32 213.31 284.51 198.99 298.80 184.77 C 303.02 180.57 309.13 178.34 315.07 179.03 C 322.55 179.73 329.31 185.06 331.85 192.12 C 334.57 199.25 332.68 207.80 327.27 213.16 C 313.04 227.46 298.72 241.65 284.52 255.97 C 297.07 268.59 309.73 281.09 322.32 293.67 C 325.63 297.06 329.50 300.16 331.46 304.60 C 334.91 311.85 333.33 321.05 327.75 326.80 C 322.05 333.02 312.28 334.84 304.68 331.24 C 300.69 329.53 297.86 326.15 294.84 323.17 C 281.92 310.29 269.07 297.34 256.11 284.49 C 241.79 298.70 227.56 313.01 213.28 327.26 C 209.06 331.52 202.87 333.64 196.92 332.95 C 190.45 332.34 184.47 328.28 181.39 322.57 C 178.13 316.75 178.10 309.26 181.34 303.41 C 183.14 299.99 186.14 297.46 188.81 294.75 C 201.71 281.83 214.65 268.95 227.52 256.00 C 213.32 241.68 198.99 227.48 184.77 213.19 C 180.56 208.98 178.36 202.86 179.04 196.93 C 179.73 189.44 185.08 182.67 192.15 180.14 Z" />
	</g>
</svg>
