<svg id="Layer_1" data-name="Layer 1" xmlns="http://www.w3.org/2000/svg" viewBox="0 0 26 26"><defs><style>.cls-1{fill:none;}.cls-2{fill:#000;}.cls-3{fill:none;}</style></defs><title>expandcollapse</title><polygon class="cls-1" points="14.58 12.15 17.08 12.15 17.08 13.19 12.81 13.19 12.81 8.92 13.85 8.92 13.85 11.42 17.39 7.87 18.12 8.61 14.58 12.15"/><polygon class="cls-1" points="20.5 5.5 20.5 20.5 12.5 20.5 12.5 19.5 19.5 19.5 19.5 6.5 6.5 6.5 6.5 13.5 5.5 13.5 5.5 5.5 20.5 5.5"/><polygon class="cls-2" points="14.58 12.15 17.08 12.15 17.08 13.19 12.81 13.19 12.81 8.92 13.85 8.92 13.85 11.42 17.39 7.87 18.12 8.61 14.58 12.15"/><polygon class="cls-3" points="14.58 12.15 17.08 12.15 17.08 13.19 12.81 13.19 12.81 8.92 13.85 8.92 13.85 11.42 17.39 7.87 18.12 8.61 14.58 12.15"/><polygon class="cls-3" points="20.5 5.5 20.5 20.5 12.5 20.5 12.5 19.5 19.5 19.5 19.5 6.5 6.5 6.5 6.5 13.5 5.5 13.5 5.5 5.5 20.5 5.5"/><path class="cls-2" d="M5.5,5.5v8h1v-7h13v13h-7v1h8V5.5Z"/><path class="cls-2" d="M5.5,14.5v6h6v-6Zm5,5h-4v-4h4Z"/><rect class="cls-1" x="6.5" y="15.5" width="4" height="4"/></svg>