<svg id="Слой_1" data-name="Слой 1" xmlns="http://www.w3.org/2000/svg" viewBox="0 0 512 645"><defs><style>.cls-1{fill:#fefefe;}</style></defs><g id="_fefefeff" data-name="#fefefeff"><path class="cls-1" d="M406.3,205.82a9.91,9.91,0,0,1-2.89-.43l-.13,0q-12.36-3.33-24.68-6.61l-.1,0c-13-3.47-26.43-7.06-39.63-10.64a9,9,0,0,1-5.94-10.92l0-.15a9,9,0,0,1,8.58-6.25,7.32,7.32,0,0,1,2.2.32l.12,0,20.69,5.53q9.19,2.48,18.39,4.93l9.59,2.55-4.77-8.7a152.45,152.45,0,0,0-67.52-63.67A149.13,149.13,0,0,0,255.85,97a144.25,144.25,0,0,0-18.28,1.17,152,152,0,0,0-121.1,93.46,9.19,9.19,0,0,1-8.44,5.82,7.55,7.55,0,0,1-2-.25,9,9,0,0,1-6.71-7.53l0-.19c-.37-2.17.7-4.63,1.83-7.23l.65-1.49a169.71,169.71,0,0,1,66.37-76.27,167.86,167.86,0,0,1,85.19-25.22h7.09A168.46,168.46,0,0,1,334,98.88a171.14,171.14,0,0,1,65.46,61.23l5.12,8.25,2.59-9.35c1.21-4.4,2.4-8.87,3.55-13.19,1.44-5.41,2.92-11,4.48-16.49,1-3.33,4.74-6,8.53-6a7.51,7.51,0,0,1,2.81.53l.15,0A8.91,8.91,0,0,1,432,134.7l-.76,2.79q-7.49,28-15,56c-.33,1.19-.53,2.37-.73,3.52-.35,2-.65,3.72-1.51,4.86l-.15.2a9,9,0,0,1-7.55,3.74Z"/><path class="cls-1" d="M22.71,506.61a8.41,8.41,0,0,1-8.41-8.38q0-133.87,0-267.73a8.42,8.42,0,0,1,8.41-8.39,8.23,8.23,0,0,1,5,1.73L60.81,249c46.92,35.63,95.44,72.48,143.13,108.75a8.37,8.37,0,0,1,0,13.33q-59.55,45.21-119.08,90.45l-57.11,43.4A8.27,8.27,0,0,1,22.71,506.61Zm10.75-251.5c0,76.24,0,147,0,218.51v2.85l39.49-30,106.59-81,1.49-1.13-1.48-1.13C137,330.86,93.89,298.15,52.07,266.39L33.46,252.26Z"/><path class="cls-1" d="M488.26,506.61a8.22,8.22,0,0,1-5-1.72l-57.12-43.4Q366.59,416.27,307,371a8.37,8.37,0,0,1,0-13.33c47.62-36.22,96.06-73,142.91-108.58l26.15-19.86v2.65h0v-2.65l7.15-5.43a8.23,8.23,0,0,1,5-1.73,8.42,8.42,0,0,1,8.41,8.39q0,133.86,0,267.73A8.41,8.41,0,0,1,488.26,506.61ZM460.9,264.87c-42.45,32.24-86.21,65.47-129.47,98.37l-1.49,1.13,1.49,1.13,106.59,81,39.49,30v-2.85c0-71.52,0-142.27,0-218.51v-2.85Z"/><path class="cls-1" d="M256.05,257.67a11.91,11.91,0,0,1-10.3-6.14c-1.64-2.88-1.55-6.19-1.45-9.69,0-1.34.07-2.72,0-4.06a11.8,11.8,0,0,1,7.57-11.11,10.52,10.52,0,0,1,4-.78A11.9,11.9,0,0,1,266.25,232c1.65,2.88,1.56,6.19,1.46,9.69,0,1.36-.08,2.77,0,4.15a11.79,11.79,0,0,1-8.93,11.44A10.46,10.46,0,0,1,256.05,257.67Z"/><path class="cls-1" d="M256,322.11a11.29,11.29,0,0,1-9.11-4.33l-.07-.08c-2.74-3.13-2.66-7.31-2.57-11.73,0-1.13.05-2.31,0-3.44a11.89,11.89,0,0,1,6.77-11,10,10,0,0,1,4.71-1.16c6.3,0,11.86,5.23,11.89,11.19,0,1.19,0,2.48,0,3.72.13,4.74.26,9.64-3,13l-.08.08A11.07,11.07,0,0,1,256,322.11Z"/><path class="cls-1" d="M255.89,386.56a10.83,10.83,0,0,1-6.52-2.07,11.88,11.88,0,0,1-5.07-10.16c0-1.29,0-2.58,0-3.83a24.5,24.5,0,0,1,.63-7.72,11.93,11.93,0,0,1,7.92-7.51,9.93,9.93,0,0,1,3.12-.5,12,12,0,0,1,8.44,3.7,10.88,10.88,0,0,1,3.28,7.81c0,1.27,0,2.61,0,3.91.12,4.38.23,8.52-2.39,11.72A11.7,11.7,0,0,1,255.89,386.56Z"/><path class="cls-1" d="M256.14,451c-.31,0-.63,0-.95,0a11.78,11.78,0,0,1-10.88-12c.05-1.3,0-2.61,0-3.88a25.37,25.37,0,0,1,.61-7.85A12,12,0,0,1,252,420a10.16,10.16,0,0,1,3.88-.76,12,12,0,0,1,11.56,9.16,49,49,0,0,1,.29,8.29c0,1.11,0,2.22,0,3.33C267.53,445.84,262.15,451,256.14,451Z"/><path class="cls-1" d="M256,515.43a11.07,11.07,0,0,1-8.67-3.89l-.08-.09c-3.14-3.23-3-7.93-2.94-12.49,0-1.11.05-2.21,0-3.27a11.81,11.81,0,0,1,8.26-11.44,10,10,0,0,1,3.36-.57c6.17,0,11.65,5.2,11.73,11.13,0,1.25,0,2.62,0,3.94.14,4.62.28,9-2.57,12.29l-.07.08A11.28,11.28,0,0,1,256,515.43Z"/><path class="cls-1" d="M256,579.87A11.07,11.07,0,0,1,247.3,576l-.08-.09c-3.14-3.22-3-7.93-2.94-12.48,0-1.11.05-2.21,0-3.28a11.8,11.8,0,0,1,8.26-11.43,10,10,0,0,1,3.36-.58c6.17,0,11.65,5.2,11.73,11.13,0,1.25,0,2.62,0,3.94.14,4.62.28,9-2.57,12.29l-.07.08A11.28,11.28,0,0,1,256,579.87Z"/><path class="cls-1" d="M256,193.21a11.06,11.06,0,0,1-8.67-3.88l-.08-.09c-3.14-3.23-3-7.94-2.94-12.49,0-1.11.05-2.21,0-3.27A11.8,11.8,0,0,1,252.57,162a10,10,0,0,1,3.36-.58c6.17,0,11.65,5.2,11.73,11.13,0,1.26,0,2.62,0,3.95.14,4.62.28,9-2.57,12.29l-.07.08A11.3,11.3,0,0,1,256,193.21Z"/></g></svg>