<?xml version="1.0" encoding="UTF-8" ?>
<!DOCTYPE svg PUBLIC "-//W3C//DTD SVG 1.1//EN" "http://www.w3.org/Graphics/SVG/1.1/DTD/svg11.dtd">
<svg width="512pt" height="512pt" viewBox="0 0 512 512" version="1.1" xmlns="http://www.w3.org/2000/svg">
<g>
<path opacity="1.00" d=" M 249.06 48.10 C 262.94 46.17 277.29 50.25 288.57 58.42 C 300.99 67.13 309.86 79.82 317.01 92.98 C 369.38 183.63 421.71 274.30 474.06 364.95 C 481.83 378.60 487.18 394.15 486.28 410.03 C 485.52 425.64 477.60 440.72 465.07 450.09 C 451.40 460.47 433.86 464.21 416.99 464.34 C 311.01 464.35 205.03 464.34 99.04 464.35 C 83.44 464.61 67.30 462.28 53.56 454.47 C 41.23 447.64 31.62 435.93 27.79 422.32 C 23.79 408.60 25.59 393.78 30.57 380.57 C 34.09 370.76 39.70 361.93 44.85 352.93 C 96.25 263.99 147.56 174.99 198.99 86.06 C 209.66 67.53 227.06 50.94 249.06 48.10 M 249.46 77.60 C 237.48 81.26 229.23 91.76 223.18 102.20 C 170.97 192.67 118.70 283.11 66.51 373.59 C 60.53 383.46 54.85 394.19 54.68 406.01 C 54.37 413.92 57.87 421.93 64.24 426.73 C 72.98 433.39 84.35 435.12 95.06 435.29 C 202.04 435.31 309.01 435.29 415.98 435.30 C 426.33 435.21 437.22 433.80 446.04 427.96 C 452.16 424.01 456.39 417.28 457.09 410.01 C 458.21 399.42 454.21 389.09 449.18 379.98 C 396.21 288.24 343.23 196.50 290.27 104.75 C 285.30 95.80 279.28 87.01 270.58 81.32 C 264.46 77.24 256.61 75.47 249.46 77.60 Z" />
<path opacity="1.00" d=" M 250.47 162.67 C 259.02 160.27 268.80 163.88 273.77 171.22 C 276.37 174.93 277.75 179.45 277.69 183.98 C 277.69 219.33 277.69 254.68 277.69 290.04 C 277.75 294.34 276.63 298.67 274.28 302.29 C 269.71 309.69 260.39 313.67 251.88 311.93 C 242.07 310.23 234.26 300.99 234.31 291.02 C 234.27 257.00 234.31 222.98 234.29 188.96 C 234.32 185.33 234.06 181.62 235.04 178.07 C 236.93 170.67 243.06 164.55 250.47 162.67 Z" />
<path opacity="1.00" d=" M 249.41 345.55 C 263.91 341.39 280.20 352.05 282.34 366.94 C 285.33 381.50 273.81 396.75 259.06 398.07 C 245.44 399.98 231.67 389.65 229.63 376.07 C 226.98 362.76 236.23 348.62 249.41 345.55 Z" />
</g>
</svg>
