<?xml version="1.0" encoding="UTF-8" ?>
<!DOCTYPE svg PUBLIC "-//W3C//DTD SVG 1.1//EN" "http://www.w3.org/Graphics/SVG/1.1/DTD/svg11.dtd">
<svg width="584pt" height="584pt" viewBox="0 0 584 584" version="1.1" xmlns="http://www.w3.org/2000/svg">
<g id="#fefefeff">
<path d=" M 276.48 0.00 L 307.21 0.00 C 346.95 2.34 386.28 12.40 421.95 30.14 C 472.24 54.81 514.77 94.63 543.24 142.81 C 545.85 132.88 548.23 122.88 550.94 112.98 C 552.64 106.88 559.75 103.24 565.72 105.24 C 571.65 106.83 575.20 113.59 573.59 119.43 C 568.82 138.28 564.00 157.11 559.19 175.95 C 557.91 182.11 551.27 186.51 545.11 184.92 C 525.99 180.13 506.89 175.23 487.80 170.33 C 482.02 168.97 478.05 162.77 479.12 156.95 C 480.03 150.61 486.76 145.88 493.04 147.37 C 503.04 149.74 512.96 152.45 522.94 154.92 C 501.37 118.51 471.16 87.21 435.27 64.73 C 400.85 43.06 361.44 29.48 321.04 24.98 C 277.64 20.09 233.06 26.15 192.55 42.47 C 139.11 63.82 92.60 102.43 62.54 151.58 C 33.32 198.84 19.73 255.41 23.74 310.79 C 24.16 314.80 24.33 319.26 21.63 322.58 C 17.73 328.19 8.74 329.01 4.03 323.97 C 0.29 320.55 0.33 315.19 0.00 310.53 L 0.00 274.42 C 1.80 246.60 7.42 219.02 16.92 192.80 C 36.26 138.90 71.91 91.01 118.05 57.08 C 163.79 23.13 219.58 2.95 276.48 0.00 Z" />
<path d=" M 206.37 152.14 C 213.81 135.79 229.82 123.01 248.02 121.68 C 265.43 120.26 282.52 129.83 291.96 144.24 C 301.25 130.13 317.82 120.60 334.92 121.62 C 353.51 122.54 370.00 135.51 377.58 152.15 C 397.10 157.02 411.23 177.02 409.14 197.07 C 430.98 208.60 442.41 236.95 433.20 260.16 C 441.71 267.72 447.65 278.19 449.37 289.48 C 451.31 302.14 448.27 315.36 441.63 326.25 C 448.95 337.22 451.77 351.16 448.81 364.06 C 446.88 372.99 442.25 381.20 435.97 387.80 C 438.20 404.24 431.75 421.43 419.54 432.59 C 410.88 440.75 399.21 445.50 387.32 445.80 C 379.81 458.36 367.10 467.66 352.91 471.17 C 340.80 474.28 327.60 473.00 316.37 467.48 C 306.28 462.67 297.86 454.72 291.96 445.27 C 282.78 460.33 266.56 471.26 248.81 472.65 C 228.08 474.54 207.14 463.46 196.46 445.71 C 183.89 445.59 171.63 440.05 162.87 431.11 C 151.67 419.94 145.76 403.55 147.99 387.82 C 140.51 380.02 135.46 369.85 134.29 359.08 C 132.92 347.63 135.94 335.84 142.30 326.27 C 134.72 313.80 131.79 298.22 135.75 284.05 C 138.25 274.83 143.62 266.50 150.74 260.17 C 141.52 236.97 152.95 208.60 174.80 197.08 C 173.88 186.12 177.28 174.88 184.31 166.40 C 189.93 159.48 197.78 154.48 206.37 152.14 M 226.89 151.76 C 234.69 153.70 242.06 157.64 247.65 163.47 C 250.45 166.34 250.73 171.20 248.34 174.41 C 245.51 178.60 238.92 179.25 235.37 175.62 C 228.41 168.57 217.26 166.08 208.06 169.87 C 199.07 173.25 192.75 182.13 192.04 191.65 C 205.18 190.31 218.63 194.87 228.47 203.64 C 239.89 213.62 246.85 228.80 246.24 244.02 C 245.75 249.54 239.24 253.23 234.24 250.85 C 230.75 249.44 228.77 245.68 228.96 242.01 C 228.63 227.26 217.89 213.16 203.47 209.60 C 194.57 207.38 184.85 209.99 177.91 215.88 C 167.22 224.57 161.84 240.07 166.74 253.24 C 167.85 256.83 170.84 259.98 170.25 263.97 C 169.96 267.15 167.57 269.50 164.99 271.10 C 155.17 277.75 149.80 290.19 151.66 301.91 C 153.68 317.31 167.17 331.17 183.12 331.29 C 187.49 331.10 191.56 334.60 191.97 338.96 C 192.65 343.69 188.73 348.43 183.94 348.59 C 173.50 348.90 163.27 345.03 154.93 338.91 C 148.34 351.07 151.10 367.29 161.39 376.54 C 164.23 378.80 166.87 382.12 165.99 386.01 C 164.72 391.89 164.54 398.09 166.36 403.89 C 170.49 418.05 184.68 430.28 200.01 428.02 C 204.32 427.17 208.40 430.10 209.91 434.04 C 217.70 450.23 237.76 459.45 255.02 453.87 C 268.22 449.80 278.56 438.30 281.95 425.00 C 284.74 414.54 283.12 402.94 277.23 393.83 C 270.37 382.90 257.83 375.85 244.92 375.78 C 241.16 375.95 237.47 373.56 236.28 369.96 C 234.23 364.75 238.49 358.47 244.08 358.47 C 258.55 358.19 272.83 364.09 283.30 374.00 C 283.27 332.68 283.30 291.36 283.28 250.04 C 283.61 243.84 278.27 238.13 272.07 238.04 C 267.92 238.16 263.88 235.23 263.13 231.09 C 262.02 226.51 265.38 221.57 270.00 220.81 C 274.53 220.24 279.07 221.43 283.29 223.03 C 283.26 206.02 283.33 189.00 283.26 171.99 C 282.91 156.06 270.17 140.81 254.07 139.07 C 243.48 137.81 233.30 143.64 226.89 151.76 M 300.68 172.03 C 300.60 189.03 300.67 206.03 300.64 223.03 C 305.34 221.33 310.63 219.72 315.57 221.29 C 321.20 223.29 322.83 231.39 318.46 235.45 C 315.41 238.94 310.28 237.20 306.64 239.50 C 302.89 241.54 300.51 245.74 300.65 250.01 C 300.63 291.34 300.67 332.67 300.64 374.00 C 311.13 364.08 325.45 358.15 339.94 358.48 C 344.74 358.55 348.73 363.27 348.09 368.02 C 347.73 372.46 343.53 376.02 339.09 375.78 C 328.11 375.87 317.32 380.86 310.17 389.19 C 303.31 397.00 299.85 407.64 300.80 417.99 C 301.90 432.60 311.33 446.33 324.76 452.30 C 334.26 456.66 345.58 456.43 355.06 452.13 C 363.47 448.43 370.42 441.62 374.40 433.35 C 375.81 430.03 379.27 427.59 382.95 427.96 C 386.61 428.32 390.37 428.58 393.97 427.54 C 410.83 423.03 422.44 404.08 418.12 387.02 C 416.93 383.17 418.98 379.30 422.03 377.02 C 432.70 367.83 435.72 351.29 429.00 338.91 C 420.42 345.17 409.81 349.21 399.09 348.48 C 392.56 347.69 389.52 338.77 394.16 334.13 C 397.32 330.31 402.68 331.69 406.92 330.55 C 423.19 326.84 434.58 309.57 432.35 293.16 C 431.25 283.82 425.64 275.31 417.77 270.25 C 413.91 267.97 412.42 262.60 414.71 258.70 C 418.49 252.00 420.04 244.00 418.37 236.43 C 415.53 221.75 402.44 208.72 387.01 208.82 C 369.66 208.87 355.23 225.12 354.97 242.05 C 355.27 246.34 352.28 250.64 347.96 251.39 C 342.87 252.58 337.48 248.22 337.62 242.98 C 337.45 226.85 345.48 210.95 358.36 201.28 C 367.82 194.00 380.01 190.49 391.91 191.64 C 391.24 184.44 387.69 177.49 381.82 173.18 C 374.07 167.20 362.78 166.45 354.30 171.31 C 351.55 172.72 349.50 175.09 346.98 176.82 C 343.32 179.12 338.07 177.97 335.62 174.44 C 333.17 171.20 333.49 166.28 336.35 163.40 C 341.93 157.60 349.29 153.71 357.06 151.75 C 350.64 143.65 340.48 137.84 329.91 139.06 C 313.77 140.78 301.01 156.07 300.68 172.03 Z" />
<path d=" M 254.41 178.69 C 260.34 175.60 267.92 181.40 266.58 187.91 C 265.88 194.25 257.45 197.53 252.65 193.35 C 247.62 189.71 248.67 181.05 254.41 178.69 Z" />
<path d=" M 322.38 178.64 C 328.30 175.67 335.84 181.45 334.45 187.94 C 333.74 194.24 325.37 197.51 320.57 193.38 C 315.45 189.74 316.54 180.94 322.38 178.64 Z" />
<path d=" M 188.29 242.95 C 188.17 238.65 191.70 234.67 195.98 234.29 C 200.51 233.65 205.16 237.28 205.50 241.87 C 205.77 245.54 205.92 249.27 207.15 252.78 C 210.96 265.20 223.12 274.19 236.00 274.86 C 244.37 275.50 252.77 272.37 259.02 266.83 C 262.81 263.19 269.66 264.18 272.23 268.77 C 274.55 272.41 273.50 277.56 270.10 280.14 C 263.18 286.27 254.45 290.12 245.39 291.76 C 241.85 308.03 225.70 320.58 209.00 319.30 C 203.43 318.53 200.03 311.66 202.83 306.77 C 204.33 303.78 207.59 302.03 210.88 302.08 C 217.91 302.02 224.40 297.57 227.39 291.28 C 213.80 288.30 201.58 279.48 194.74 267.33 C 190.53 259.95 188.23 251.45 188.29 242.95 Z" />
<path d=" M 383.17 235.13 C 387.97 232.53 394.54 235.75 395.46 241.11 C 396.04 246.37 395.07 251.70 393.68 256.76 C 388.83 273.95 373.95 287.58 356.53 291.29 C 359.54 297.55 366.00 302.01 373.03 302.08 C 377.09 301.94 381.03 304.80 381.86 308.83 C 383.20 313.82 379.08 319.33 373.90 319.41 C 357.46 320.01 342.03 307.64 338.47 291.69 C 329.17 290.13 320.27 286.00 313.29 279.64 C 309.85 276.67 309.50 270.95 312.57 267.59 C 315.55 263.94 321.50 263.60 324.93 266.82 C 332.35 273.38 342.80 276.33 352.54 274.32 C 366.73 271.67 378.07 258.45 378.28 243.97 C 378.09 240.39 379.83 236.69 383.17 235.13 Z" />
<path d=" M 562.79 260.83 C 567.15 255.80 575.67 255.92 580.06 260.84 C 584.71 265.79 583.12 273.17 584.00 279.34 L 584.00 304.57 C 581.19 372.63 553.76 439.37 507.60 489.51 C 461.92 539.61 398.34 573.05 331.08 581.87 C 323.92 582.84 316.72 583.46 309.51 584.00 L 275.60 584.00 C 221.68 580.87 168.68 562.71 124.41 531.72 C 90.41 508.07 61.70 476.96 40.53 441.38 C 37.97 451.22 35.57 461.10 32.94 470.92 C 31.34 477.18 24.03 481.08 17.94 478.88 C 11.98 477.08 8.46 470.15 10.31 464.24 C 15.09 445.47 19.85 426.70 24.68 407.95 C 26.05 401.74 32.94 397.58 39.07 399.36 C 57.54 403.98 75.97 408.78 94.44 413.42 C 97.12 414.07 99.84 415.13 101.68 417.29 C 105.49 421.31 105.88 428.07 102.39 432.42 C 99.60 436.20 94.44 437.93 89.91 436.66 C 80.21 434.25 70.54 431.70 60.84 429.26 C 88.52 476.15 130.93 514.10 180.56 536.48 C 217.25 553.14 257.69 561.50 297.99 560.61 C 340.99 559.78 383.72 548.26 421.35 527.44 C 472.59 499.42 514.46 454.41 537.90 400.85 C 555.87 360.28 563.30 315.17 559.68 270.97 C 559.24 267.34 560.21 263.49 562.79 260.83 Z" />
<path d=" M 243.53 331.76 C 247.90 331.49 253.03 330.18 256.74 333.26 C 260.93 336.48 260.91 343.52 256.67 346.70 C 254.02 349.04 250.32 348.54 247.08 348.86 C 232.71 349.99 219.29 358.58 212.02 370.99 C 210.23 374.64 205.98 377.00 201.94 375.88 C 196.93 374.82 193.84 368.78 196.03 364.12 C 205.34 346.47 223.73 334.04 243.53 331.76 Z" />
<path d=" M 330.44 331.59 C 351.50 330.03 372.63 341.15 384.49 358.44 C 386.34 361.34 388.83 364.30 388.58 367.96 C 388.45 372.79 383.68 376.79 378.90 376.07 C 375.57 375.81 373.06 373.26 371.57 370.46 C 363.79 357.45 349.12 348.92 333.95 348.69 C 329.89 348.99 325.61 346.64 324.44 342.59 C 322.84 338.07 325.81 332.71 330.44 331.59 Z" />
<path d=" M 193.37 386.36 C 198.75 384.63 204.60 386.12 209.93 387.46 C 229.20 393.05 243.77 411.10 245.98 430.93 C 246.32 434.76 247.11 439.24 244.41 442.45 C 241.31 446.57 234.51 446.73 231.20 442.78 C 228.87 440.43 229.04 436.97 228.80 433.93 C 227.50 417.80 213.44 403.04 196.90 402.90 C 192.88 402.97 189.16 399.88 188.44 395.94 C 187.60 392.10 189.79 387.94 193.37 386.36 Z" />
<path d=" M 377.43 386.58 C 382.31 385.90 388.17 384.19 392.45 387.53 C 396.58 390.65 396.70 397.48 392.70 400.76 C 389.57 403.76 384.95 402.56 381.11 403.58 C 366.04 406.92 354.93 421.76 354.91 437.03 C 355.01 441.36 351.40 445.32 347.09 445.63 C 342.54 446.18 338.00 442.52 337.67 437.94 C 336.76 414.37 354.23 391.40 377.43 386.58 Z" />
</g>
</svg>
