<?xml version="1.0" encoding="UTF-8" ?>
<!DOCTYPE svg PUBLIC "-//W3C//DTD SVG 1.1//EN" "http://www.w3.org/Graphics/SVG/1.1/DTD/svg11.dtd">
<svg width="557pt" height="626pt" viewBox="0 0 557 626" version="1.1" xmlns="http://www.w3.org/2000/svg">
<g id="#ffffffff">
</g>
<g id="#000000ff">
<path fill="#000000" opacity="1.00" d=" M 71.37 0.00 L 377.74 0.00 L 375.07 0.75 C 378.65 0.68 381.35 3.10 383.51 5.61 C 423.37 51.04 463.11 96.56 502.95 141.98 C 505.75 145.30 505.79 149.84 505.80 153.94 C 505.71 177.17 505.89 200.40 505.70 223.63 C 511.43 224.64 517.27 223.77 523.04 224.26 C 534.73 224.44 545.75 231.59 551.46 241.67 C 555.51 248.02 555.81 255.75 556.22 263.03 C 556.14 322.35 556.34 381.68 556.12 440.99 C 555.50 447.52 554.74 454.36 550.78 459.86 C 545.58 468.86 535.93 474.42 525.87 476.23 C 519.87 476.76 513.85 476.45 507.84 476.54 C 505.45 475.77 505.76 478.65 505.75 480.03 C 505.82 519.70 505.76 559.36 505.78 599.03 C 505.82 603.35 505.55 607.79 503.72 611.79 C 499.87 619.81 491.53 625.59 482.58 626.00 L 75.35 626.00 C 66.17 625.55 57.56 619.48 53.98 611.04 C 52.36 607.24 52.19 603.07 52.21 599.02 C 52.25 559.34 52.17 519.66 52.25 479.98 C 52.17 478.84 52.60 476.49 50.86 476.55 C 44.29 476.33 37.66 476.99 31.13 476.02 C 27.06 475.07 23.07 473.72 19.38 471.74 C 11.01 466.97 4.84 458.52 2.82 449.11 C 1.18 437.80 1.96 426.37 1.78 414.99 C 1.87 399.33 1.61 383.67 1.92 368.02 C 1.64 333.01 1.90 297.99 1.78 262.97 C 2.18 255.66 2.50 247.87 6.66 241.54 C 11.46 233.11 19.95 226.65 29.54 224.84 C 37.04 223.50 44.68 224.61 52.21 223.77 C 52.24 157.52 52.19 91.28 52.23 25.03 C 52.14 19.23 53.74 13.17 57.82 8.88 C 61.13 4.37 66.52 2.34 71.37 0.00 M 76.39 24.51 C 76.35 90.96 76.40 157.41 76.36 223.86 C 77.59 224.01 78.83 224.11 80.07 224.15 C 210.70 224.13 341.34 224.15 471.98 224.14 C 475.22 224.12 478.48 224.37 481.69 223.74 C 481.51 203.31 481.71 182.87 481.59 162.43 C 445.69 162.16 409.79 162.44 373.90 162.29 C 370.73 161.87 367.31 161.41 364.96 159.01 C 361.91 156.64 360.88 152.66 360.84 148.96 C 360.73 107.46 360.95 65.96 360.74 24.46 C 265.95 24.58 171.17 24.48 76.39 24.51 M 84.01 263.49 C 75.21 263.87 66.54 265.59 57.74 265.85 C 57.62 267.22 57.50 268.59 57.48 269.98 C 57.49 324.99 57.48 380.01 57.49 435.03 C 57.52 439.16 57.35 443.29 57.70 447.42 C 71.31 447.34 84.92 447.37 98.53 447.41 C 98.63 425.74 98.77 404.05 98.46 382.39 L 99.50 382.58 L 99.71 381.72 C 101.26 381.76 102.82 381.78 104.38 381.80 L 104.48 382.62 C 106.02 382.32 107.60 382.32 109.17 382.40 C 113.47 382.65 117.81 382.60 122.08 381.93 C 135.24 381.59 148.37 378.26 160.09 372.25 C 162.58 371.09 164.46 369.04 166.92 367.83 C 168.69 366.99 169.41 364.63 171.49 364.39 L 171.42 363.57 C 171.78 363.43 172.50 363.16 172.85 363.03 C 178.43 356.75 183.80 349.84 185.76 341.48 C 186.57 339.01 186.68 336.22 188.23 334.06 C 188.43 331.64 188.56 329.21 188.81 326.79 C 190.05 320.24 189.44 313.48 188.15 306.98 C 186.70 302.43 185.16 297.91 183.42 293.47 L 182.37 293.47 C 182.41 293.07 182.50 292.27 182.55 291.87 C 180.46 290.07 179.73 287.21 177.71 285.31 C 173.55 279.35 167.45 275.27 161.31 271.60 C 158.37 269.99 155.11 269.19 152.08 267.81 C 130.05 261.17 106.70 262.31 84.01 263.49 M 215.56 266.50 C 215.61 326.47 215.52 386.45 215.60 446.42 C 216.83 446.42 218.16 446.40 219.24 447.10 C 222.19 447.41 225.17 447.26 228.12 447.69 C 234.66 448.89 241.34 448.36 247.94 448.71 C 258.63 449.49 269.38 449.52 280.05 448.52 C 282.64 448.19 285.40 448.74 287.89 447.77 C 290.35 447.39 292.84 447.28 295.33 447.15 L 295.15 446.36 C 295.83 446.36 297.17 446.36 297.84 446.36 C 303.61 444.83 309.59 444.17 315.26 442.25 C 316.52 441.68 317.81 441.17 319.13 440.75 C 329.04 437.67 338.06 432.40 346.42 426.36 C 350.26 422.89 354.09 419.38 357.25 415.27 C 357.51 415.02 358.02 414.51 358.27 414.25 C 360.78 411.30 362.30 407.68 364.85 404.78 C 366.43 401.96 367.30 398.72 369.28 396.13 C 372.10 388.41 374.91 380.62 376.21 372.48 C 378.58 354.69 378.89 336.03 372.97 318.88 C 368.35 304.03 358.75 290.94 346.30 281.69 C 342.76 279.53 339.59 276.76 335.75 275.12 C 334.22 274.24 332.32 273.88 331.11 272.53 C 330.73 272.55 329.96 272.61 329.58 272.63 L 329.39 271.67 C 324.42 270.44 319.70 267.90 314.56 267.45 L 314.46 266.67 C 313.22 266.56 311.99 266.41 310.78 266.20 C 302.07 263.83 292.98 263.73 284.05 262.85 C 269.66 262.09 255.29 263.32 240.91 263.65 C 232.46 264.60 223.89 264.84 215.56 266.50 M 405.14 263.85 C 405.17 325.05 404.88 386.27 405.29 447.46 C 419.03 447.29 432.77 447.39 446.51 447.40 C 447.21 422.92 446.46 398.38 446.88 373.88 C 447.41 373.78 448.45 373.58 448.97 373.48 C 470.14 373.50 491.31 373.52 512.48 373.47 C 512.50 362.25 512.47 351.02 512.50 339.80 C 490.56 339.56 468.60 340.01 446.67 339.58 C 446.92 326.72 446.72 313.85 446.77 300.98 C 446.71 299.77 446.96 298.62 447.52 297.55 C 470.78 297.83 494.08 297.81 517.34 297.55 C 517.32 286.47 517.25 275.39 517.37 264.32 C 512.30 263.39 507.13 264.03 502.01 263.85 C 469.72 263.86 437.43 263.84 405.14 263.85 M 76.36 594.61 C 211.45 594.72 346.55 594.73 481.64 594.60 C 481.58 555.27 481.65 515.93 481.61 476.60 C 346.54 476.50 211.48 476.51 76.41 476.59 C 76.32 515.93 76.42 555.27 76.36 594.61 Z" />
<path fill="#000000" opacity="1.00" d=" M 102.02 295.11 C 103.97 294.48 106.10 294.12 108.06 294.97 L 107.60 293.90 C 116.92 293.25 126.36 294.13 135.06 297.67 C 138.71 300.41 142.72 302.91 144.78 307.18 C 148.92 313.92 148.70 322.58 146.90 330.06 C 146.43 332.89 144.58 335.11 143.32 337.60 C 141.98 339.83 139.85 341.38 138.04 343.20 C 134.49 345.99 130.20 347.80 125.82 348.81 C 124.64 349.63 123.19 349.64 121.81 349.72 C 121.58 349.86 121.11 350.13 120.88 350.27 C 114.60 350.75 108.26 350.81 101.99 350.22 C 100.94 349.74 99.79 349.57 98.66 349.46 C 98.56 331.53 98.67 313.61 98.60 295.69 C 99.74 295.50 100.88 295.31 102.02 295.11 Z" />
<path fill="#000000" opacity="1.00" d=" M 257.29 296.04 C 270.50 294.07 284.12 293.92 297.10 297.31 C 301.78 298.12 305.56 301.39 310.13 302.63 C 315.89 307.56 323.10 311.92 325.61 319.47 L 326.70 319.65 C 326.61 320.09 326.42 320.98 326.32 321.42 L 327.34 321.56 C 329.64 326.87 331.15 332.44 332.54 338.05 C 334.46 349.19 333.84 360.73 331.81 371.75 C 330.49 376.86 329.39 382.30 326.73 386.87 C 325.07 390.55 322.97 394.17 320.30 397.25 C 316.45 401.74 312.04 405.92 306.71 408.65 C 306.23 408.93 305.26 409.47 304.78 409.75 C 301.23 411.71 297.29 413.23 293.22 413.59 L 293.24 414.06 C 281.59 417.15 269.39 417.18 257.45 416.18 C 257.10 376.14 257.41 336.08 257.29 296.04 Z" />
</g>
</svg>
