<?xml version="1.0" encoding="UTF-8" ?>
<!DOCTYPE svg PUBLIC "-//W3C//DTD SVG 1.1//EN" "http://www.w3.org/Graphics/SVG/1.1/DTD/svg11.dtd">
<svg width="557pt" height="626pt" viewBox="0 0 557 626" version="1.1" xmlns="http://www.w3.org/2000/svg">
<g>
<path fill="#000000" opacity="1.00" d=" M 72.34 0.00 L 373.82 0.00 C 377.19 0.70 380.16 2.53 383.16 4.14 C 423.24 49.64 463.02 95.41 503.07 140.94 C 505.95 143.84 506.86 147.99 506.77 151.96 C 506.82 175.91 506.75 199.87 506.80 223.82 C 514.36 224.56 522.02 223.54 529.54 224.83 C 544.73 227.93 557.14 242.31 556.76 258.02 C 556.86 319.33 556.84 380.65 556.77 441.96 C 557.22 456.07 547.50 469.65 534.20 474.16 C 525.64 477.70 516.19 476.29 507.18 476.47 C 506.50 480.28 506.83 484.16 506.79 488.01 C 506.74 525.98 506.86 563.96 506.73 601.93 C 507.22 614.52 495.91 625.51 483.58 626.00 L 75.67 626.00 C 63.67 625.02 52.85 614.34 53.26 602.00 C 53.19 560.22 53.21 518.43 53.25 476.64 C 44.12 476.07 34.56 477.83 25.88 474.17 C 16.53 471.12 9.20 463.51 5.46 454.55 C 3.14 448.99 3.25 442.89 2.77 436.99 C 2.91 400.66 2.55 364.32 2.96 328.00 C 2.65 308.34 2.71 288.66 2.93 269.00 C 2.75 265.69 2.69 262.37 2.89 259.06 C 3.48 253.02 4.22 246.73 7.64 241.53 C 13.23 231.85 23.66 224.72 34.98 224.33 C 41.08 223.69 47.27 224.70 53.34 223.59 C 53.06 158.07 53.31 92.55 53.21 27.02 C 53.09 23.69 53.67 20.41 53.88 17.10 C 53.90 16.11 53.01 14.44 54.92 14.55 C 57.31 10.53 60.10 6.48 64.23 4.08 C 66.76 2.37 69.74 1.57 72.34 0.00 M 77.40 24.50 C 77.33 90.93 77.44 157.37 77.35 223.81 C 80.20 224.26 83.09 224.17 85.97 224.15 C 215.31 224.14 344.64 224.15 473.98 224.15 C 476.87 224.17 479.78 224.27 482.65 223.79 C 482.55 203.34 482.70 182.88 482.58 162.43 C 446.05 162.12 409.51 162.52 372.99 162.23 C 370.85 161.34 368.36 161.23 366.61 159.55 C 363.18 157.20 361.84 152.94 361.85 148.95 C 361.73 107.46 361.93 65.97 361.75 24.48 C 266.97 24.54 172.19 24.51 77.40 24.50 M 51.14 265.92 C 53.33 269.99 55.84 273.92 57.79 278.11 C 61.66 284.38 65.31 290.87 68.70 297.44 L 69.57 297.66 C 69.56 298.01 69.55 298.72 69.55 299.08 C 73.29 304.82 76.56 310.98 79.83 317.05 C 83.64 323.32 87.20 329.80 90.71 336.26 C 91.76 338.17 93.32 339.85 93.81 342.02 C 93.32 345.25 90.82 347.63 89.46 350.50 C 87.99 352.53 87.48 355.18 85.55 356.87 C 85.54 357.18 85.51 357.78 85.50 358.09 C 82.98 360.47 82.08 364.11 80.17 366.99 C 77.57 370.31 76.36 374.48 73.72 377.79 C 70.25 384.27 66.68 390.72 62.74 396.92 C 59.71 403.01 56.08 408.79 52.73 414.69 C 51.04 417.90 49.03 420.95 47.49 424.24 C 47.12 424.49 46.38 424.99 46.00 425.24 C 50.59 426.18 55.28 425.63 59.92 425.77 C 69.76 425.66 79.62 425.97 89.45 425.62 C 89.49 425.12 89.58 424.12 89.62 423.62 L 90.37 423.53 C 90.62 422.92 91.13 421.71 91.38 421.10 C 92.57 418.10 93.80 415.09 95.39 412.28 C 95.92 411.16 96.39 410.01 96.80 408.84 C 100.25 401.62 103.59 394.35 106.75 387.00 C 108.75 383.96 109.35 380.24 111.22 377.13 C 111.82 375.42 112.52 373.74 113.31 372.11 C 114.05 370.10 114.78 368.10 115.52 366.10 C 116.49 367.31 117.31 368.64 117.83 370.11 C 120.54 374.33 121.91 379.21 124.48 383.50 C 126.74 387.14 127.80 391.43 130.31 394.92 C 131.90 398.27 133.31 401.73 135.16 404.96 C 137.42 408.81 138.75 413.16 141.22 416.90 C 142.79 419.72 143.75 422.85 145.45 425.58 C 159.60 425.95 173.81 425.79 187.98 425.65 C 186.43 420.24 182.61 415.90 180.16 410.90 C 175.77 403.57 171.62 396.09 167.24 388.76 C 165.89 386.45 164.46 384.20 163.31 381.79 C 160.88 377.70 158.35 373.67 156.27 369.39 C 153.84 366.69 152.87 363.08 150.71 360.19 C 148.33 357.01 147.34 352.90 144.46 350.10 C 144.46 349.79 144.47 349.18 144.47 348.88 C 142.56 346.65 140.84 343.91 140.27 341.03 C 141.21 338.03 143.21 335.45 144.70 332.69 C 152.26 319.88 159.46 306.79 167.17 294.06 C 169.17 290.48 170.91 286.71 173.36 283.38 C 176.19 277.69 179.86 272.48 182.72 266.80 C 183.88 264.81 185.57 262.98 185.74 260.57 C 171.72 260.74 157.71 260.58 143.69 260.64 C 142.76 262.73 141.90 264.86 140.83 266.89 C 138.72 270.85 137.06 275.02 135.32 279.15 C 132.66 283.47 131.18 288.38 128.75 292.83 C 127.30 296.70 125.67 300.51 124.30 304.41 L 123.67 304.60 C 122.57 308.96 120.26 312.97 119.09 317.35 C 118.72 317.49 117.98 317.76 117.61 317.90 C 117.19 316.58 116.67 315.31 116.10 314.06 C 114.67 311.37 113.77 308.44 112.30 305.77 C 109.69 300.89 108.09 295.53 105.33 290.71 C 103.80 288.32 103.52 285.15 101.48 283.15 C 101.48 282.83 101.48 282.20 101.49 281.89 C 99.46 279.32 98.62 276.12 97.15 273.25 C 95.05 269.13 92.90 265.02 91.19 260.72 C 77.21 260.48 63.22 260.79 49.24 260.55 C 49.06 262.56 49.87 264.40 51.14 265.92 M 213.63 291.98 C 213.50 299.49 212.01 306.92 212.39 314.45 L 211.66 314.60 C 211.84 319.44 211.35 324.26 211.12 329.08 C 209.29 355.37 207.95 381.76 206.21 408.07 C 205.18 413.79 205.62 419.76 204.70 425.55 C 216.29 425.94 227.92 425.83 239.51 425.62 C 240.93 406.41 241.01 387.13 242.26 367.92 C 242.71 361.67 242.14 355.31 243.19 349.14 C 243.42 342.74 243.65 336.34 243.80 329.93 C 244.59 327.71 244.27 325.34 244.36 323.05 C 244.35 314.99 245.29 306.98 245.43 298.93 C 245.46 297.82 245.50 296.65 246.21 295.74 C 247.32 301.88 248.42 308.03 249.76 314.12 C 252.09 322.72 253.22 331.60 255.84 340.13 C 256.24 341.41 256.56 342.73 256.86 344.05 C 258.46 349.33 259.49 354.78 260.87 360.12 C 261.23 361.11 261.56 362.11 261.88 363.12 C 263.38 368.06 264.52 373.10 265.79 378.11 C 268.48 385.51 269.86 393.29 272.19 400.80 C 274.06 406.46 275.32 412.29 276.85 418.04 C 277.49 419.42 277.68 420.93 277.83 422.44 C 287.65 423.54 297.65 422.66 307.54 422.90 C 308.18 420.51 308.95 418.17 309.82 415.86 C 311.81 410.63 312.78 405.08 314.73 399.84 C 317.11 393.92 318.21 387.57 320.47 381.61 C 322.76 375.58 323.95 369.20 326.23 363.17 C 328.09 358.19 329.19 352.98 330.81 347.93 C 333.57 341.50 334.50 334.47 337.12 328.00 C 338.95 322.04 340.15 315.91 341.79 309.90 C 342.26 308.62 342.70 307.33 343.18 306.05 C 343.38 304.98 343.58 303.92 343.80 302.86 C 344.90 300.22 344.86 297.19 346.38 294.73 C 346.98 309.15 346.41 323.60 347.30 338.01 C 347.63 349.01 347.45 360.03 348.26 371.01 C 348.65 377.14 348.70 383.29 348.67 389.44 L 349.40 389.55 C 348.97 401.64 350.44 413.66 350.61 425.73 C 362.66 425.78 374.70 425.83 386.74 425.70 C 386.72 419.21 386.65 412.69 385.87 406.24 C 384.63 384.86 383.74 363.44 382.51 342.06 C 382.50 333.21 381.04 324.43 381.36 315.58 L 380.63 315.42 C 380.73 309.25 380.51 303.07 379.74 296.95 C 379.30 286.30 378.71 275.66 378.31 265.02 C 378.28 263.50 377.92 262.02 377.59 260.55 C 361.58 260.70 345.57 260.67 329.57 260.58 C 328.73 262.75 327.91 264.93 327.23 267.16 C 326.87 268.14 326.53 269.13 326.21 270.13 C 324.55 274.65 323.65 279.42 321.78 283.86 C 319.64 289.52 318.42 295.47 316.34 301.16 C 315.84 302.09 315.49 303.08 315.29 304.13 C 311.25 315.88 308.37 327.97 304.83 339.86 C 302.90 346.13 302.06 352.71 299.82 358.88 C 299.58 360.23 299.28 361.58 298.83 362.89 C 297.96 366.53 297.02 370.16 296.35 373.85 C 296.01 373.77 295.33 373.60 294.99 373.52 C 294.45 370.60 293.99 367.67 293.19 364.81 C 291.50 358.58 290.52 352.20 289.17 345.90 C 288.64 344.61 288.41 343.22 288.22 341.85 C 285.77 335.15 284.86 328.00 282.79 321.19 C 282.66 320.59 282.39 319.40 282.26 318.80 C 280.20 312.95 278.99 306.85 277.06 300.95 C 276.68 299.96 276.35 298.95 276.07 297.92 C 274.31 292.26 272.91 286.49 271.16 280.82 C 269.08 275.30 267.96 269.47 266.21 263.84 C 265.79 262.79 265.44 261.73 265.17 260.64 C 248.64 260.63 232.10 260.64 215.57 260.63 C 214.60 271.06 214.25 281.53 213.63 291.98 M 415.68 260.62 C 415.57 262.08 415.47 263.55 415.46 265.02 C 415.46 318.55 415.50 372.08 415.45 425.61 C 449.85 425.92 484.27 425.78 518.67 425.68 C 518.73 415.29 518.75 404.90 518.66 394.51 C 496.91 394.47 475.16 394.47 453.42 394.51 C 453.26 350.18 453.24 305.84 453.42 261.51 L 452.38 261.59 L 452.52 260.56 C 440.24 260.72 427.96 260.61 415.68 260.62 M 77.38 594.63 C 212.46 594.70 347.54 594.73 482.62 594.62 C 482.59 555.27 482.68 515.92 482.58 476.58 C 347.52 476.52 212.46 476.51 77.41 476.58 C 77.35 515.93 77.40 555.28 77.38 594.63 Z" />
</g>
<g>
<path fill="#000000" opacity="1.00" d=" M 373.82 0.00 L 379.10 0.00 L 377.91 0.28 C 379.84 1.29 381.72 2.48 383.16 4.14 C 380.16 2.53 377.19 0.70 373.82 0.00 Z" />
</g>
</svg>
