<?xml version="1.0" encoding="UTF-8" ?>
<!DOCTYPE svg PUBLIC "-//W3C//DTD SVG 1.1//EN" "http://www.w3.org/Graphics/SVG/1.1/DTD/svg11.dtd">
<svg width="557pt" height="626pt" viewBox="0 0 557 626" version="1.1" xmlns="http://www.w3.org/2000/svg">
<g id="#ffffffff">
</g>
<g id="#000000ff">
<path fill="#000000" opacity="1.00" d=" M 70.33 0.00 L 373.12 0.00 C 377.20 0.33 380.47 3.16 382.98 6.17 C 422.68 51.44 462.30 96.77 501.98 142.04 C 504.77 145.35 504.78 149.88 504.80 153.97 C 504.73 177.20 504.86 200.42 504.72 223.65 C 512.68 224.85 520.87 223.25 528.78 225.11 C 541.74 228.33 552.53 239.64 554.40 252.97 C 555.89 265.59 554.94 278.32 555.23 291.00 C 554.87 304.66 555.55 318.33 555.07 332.00 C 555.35 368.33 555.24 404.69 555.13 441.02 C 554.49 447.55 553.71 454.38 549.77 459.89 C 545.29 467.59 537.52 472.78 529.10 475.32 C 521.14 477.37 512.87 476.18 504.77 476.64 C 504.77 518.40 504.83 560.17 504.74 601.93 C 505.19 614.62 493.73 625.71 481.27 626.00 L 73.91 626.00 C 61.80 625.19 50.86 614.39 51.26 602.00 C 51.18 560.21 51.21 518.42 51.24 476.64 C 42.17 476.09 32.67 477.80 24.02 474.21 C 12.72 470.61 4.20 460.29 1.74 448.83 C 1.29 443.89 0.67 438.94 0.77 433.98 C 0.91 410.32 0.57 386.65 0.94 363.00 C 0.72 357.67 0.65 352.32 0.98 347.00 C 0.53 319.68 0.94 292.33 0.78 265.00 C 1.13 258.55 1.07 251.88 3.48 245.78 C 7.41 236.39 15.47 228.76 25.19 225.64 C 33.65 223.11 42.58 224.75 51.22 223.75 C 51.20 157.84 51.22 91.92 51.22 26.00 C 51.06 19.86 52.49 13.39 56.86 8.84 C 60.13 4.33 65.54 2.38 70.33 0.00 M 75.39 24.49 C 75.35 90.94 75.41 157.39 75.36 223.84 C 76.60 223.99 77.83 224.10 79.07 224.15 C 212.89 224.13 346.70 224.16 480.52 224.14 C 480.73 203.56 480.62 182.98 480.57 162.41 C 444.65 162.19 408.73 162.43 372.81 162.29 C 368.39 162.04 364.11 160.20 361.59 156.44 C 360.48 154.13 359.88 151.60 359.85 149.04 C 359.73 107.52 359.93 66.00 359.75 24.47 C 264.97 24.54 170.18 24.52 75.39 24.49 M 74.19 263.26 C 74.30 315.65 74.00 368.05 74.34 420.45 C 85.82 420.39 97.31 420.31 108.79 420.49 C 109.64 417.37 109.14 414.13 109.25 410.96 C 109.33 396.77 109.11 382.59 109.36 368.41 C 112.02 366.61 113.22 363.50 115.52 361.34 C 117.74 359.11 119.12 356.17 121.60 354.19 L 121.38 353.25 L 122.59 353.66 C 122.67 353.26 122.83 352.47 122.90 352.07 C 123.88 354.90 125.64 357.33 126.88 360.04 C 129.50 363.83 131.40 368.06 133.82 371.99 C 141.07 384.56 147.97 397.38 155.41 409.83 C 157.34 413.45 159.11 417.18 161.64 420.44 C 174.45 420.34 187.25 420.42 200.06 420.41 C 200.98 420.37 201.90 420.25 202.81 420.04 C 202.53 419.90 201.99 419.64 201.72 419.50 C 199.56 413.48 195.09 408.61 192.31 402.86 C 190.02 400.21 189.03 396.73 186.72 394.08 C 183.27 387.94 179.56 381.96 175.81 376.01 C 173.94 372.96 172.37 369.71 170.24 366.82 C 168.83 364.55 167.50 362.23 166.19 359.90 C 163.65 356.32 161.79 352.33 159.26 348.74 C 158.06 346.85 156.96 344.90 155.89 342.94 C 155.15 341.47 154.15 340.18 153.21 338.85 C 152.04 336.92 151.12 334.84 149.70 333.08 C 148.89 331.88 148.30 330.57 148.41 329.09 C 150.71 327.45 151.66 324.61 153.71 322.71 C 154.78 322.10 155.13 320.84 155.72 319.86 C 157.19 318.18 158.74 316.53 159.71 314.51 L 160.24 314.49 C 165.27 307.46 170.74 300.78 176.12 294.02 C 177.36 291.72 179.40 289.99 180.76 287.76 C 185.10 282.14 189.73 276.74 193.74 270.92 C 195.31 268.78 197.64 267.10 198.58 264.56 C 199.01 264.33 199.87 263.87 200.31 263.64 C 186.91 262.76 173.43 263.52 160.00 263.23 C 158.50 263.45 156.37 262.73 155.39 264.26 C 153.52 267.12 151.62 269.95 149.79 272.83 C 147.28 275.71 145.73 279.26 143.21 282.13 C 141.70 284.37 140.33 286.70 138.72 288.87 C 135.01 294.15 131.52 299.56 127.80 304.83 C 123.97 310.40 120.09 315.92 116.71 321.79 C 113.98 325.30 112.32 329.51 109.48 332.93 C 108.95 309.73 109.41 286.50 109.25 263.29 C 97.57 263.22 85.88 263.28 74.19 263.26 M 223.52 263.32 C 223.10 271.22 222.71 279.13 222.26 287.03 C 221.40 292.80 221.35 298.65 221.31 304.47 L 220.59 304.47 C 220.85 308.70 220.24 312.91 220.14 317.14 C 219.29 320.71 219.73 324.43 219.42 328.07 C 218.14 342.72 217.93 357.45 216.65 372.11 C 216.26 376.32 216.80 380.65 215.75 384.78 C 215.46 389.65 215.13 394.52 215.26 399.40 L 214.55 399.46 C 214.92 406.46 213.40 413.38 213.53 420.38 C 224.48 420.49 235.42 420.39 246.37 420.43 C 247.08 415.08 246.06 409.50 247.39 404.29 C 247.52 400.15 247.75 396.01 247.82 391.87 C 248.90 383.99 248.21 375.94 249.15 368.02 C 249.79 345.10 251.20 322.21 251.61 299.28 L 252.43 299.60 C 252.46 298.91 252.53 297.51 252.56 296.81 C 253.58 298.41 253.42 300.38 253.72 302.19 C 255.84 308.59 256.38 315.46 257.89 322.05 C 258.58 325.16 259.51 328.24 259.83 331.43 L 260.43 331.27 C 261.39 336.24 262.59 341.17 263.84 346.07 C 264.50 347.12 264.50 348.36 264.61 349.56 L 265.20 349.66 C 266.44 355.90 268.05 362.06 269.83 368.17 C 270.20 369.47 270.54 370.78 270.88 372.11 C 272.71 378.14 274.32 384.28 275.67 390.44 L 276.27 390.47 C 277.47 396.56 279.61 402.44 280.66 408.55 L 281.15 408.58 C 281.77 411.61 282.86 414.52 283.48 417.55 C 292.74 417.61 301.99 417.61 311.25 417.56 C 312.08 415.00 312.84 412.41 313.91 409.94 C 315.46 404.57 316.85 399.15 318.81 393.91 C 323.93 376.46 329.86 359.28 334.77 341.77 C 337.57 335.16 338.70 327.94 341.16 321.19 C 342.76 316.21 343.39 310.95 345.13 306.03 C 345.34 304.83 345.52 303.63 345.69 302.44 L 346.29 302.48 C 346.80 300.00 347.46 297.55 348.16 295.12 C 348.84 297.33 348.62 299.68 348.67 301.96 C 348.71 331.65 350.08 361.31 350.86 390.98 C 351.65 400.10 351.66 409.26 351.71 418.40 L 352.50 418.54 C 352.46 419.00 352.39 419.92 352.35 420.38 C 363.81 420.50 375.28 420.36 386.75 420.46 C 387.17 408.44 385.25 396.47 385.46 384.45 L 384.76 384.42 C 384.88 378.87 384.52 373.32 384.23 367.78 C 384.14 367.33 383.95 366.43 383.86 365.98 C 383.10 347.03 381.80 328.10 381.12 309.14 C 380.18 301.86 380.77 294.49 379.84 287.23 C 379.34 281.31 379.27 275.37 379.23 269.44 L 378.45 269.65 C 378.63 267.52 378.61 265.39 378.36 263.27 C 363.56 263.24 348.76 263.26 333.96 263.26 C 332.57 263.03 331.17 263.63 331.36 265.23 C 330.17 267.29 329.90 269.75 329.04 271.96 C 326.44 281.59 322.61 290.82 320.24 300.52 L 319.73 300.53 C 318.13 305.98 316.51 311.43 314.88 316.87 C 314.58 317.89 314.24 318.89 313.85 319.87 C 313.55 321.20 313.27 322.55 312.81 323.84 C 311.57 328.39 310.38 332.96 309.32 337.55 L 308.70 337.56 C 308.69 339.03 308.35 340.43 307.70 341.74 C 306.22 348.14 304.94 354.62 302.89 360.88 C 301.74 364.59 301.33 368.50 299.90 372.13 C 299.14 369.43 298.63 366.68 298.09 363.94 C 297.46 362.53 297.41 360.99 297.38 359.48 L 296.77 359.50 C 295.31 350.80 293.13 342.21 291.27 333.60 C 291.13 333.56 290.83 333.48 290.68 333.44 C 289.28 326.91 287.72 320.41 286.09 313.93 C 283.57 308.14 282.78 301.78 280.67 295.85 C 278.36 289.64 277.05 283.14 275.21 276.80 C 273.39 272.53 272.33 267.98 271.34 263.46 C 255.41 263.02 239.45 263.31 223.52 263.32 M 414.39 263.28 C 414.47 315.66 414.28 368.04 414.48 420.43 C 447.13 420.41 479.79 420.47 512.44 420.39 C 512.60 410.40 512.49 400.41 512.50 390.41 C 491.75 390.27 471.00 390.35 450.25 390.37 C 450.24 348.09 450.17 305.82 450.29 263.55 C 438.34 262.91 426.35 263.40 414.39 263.28 M 75.38 594.63 C 210.46 594.71 345.54 594.73 480.62 594.62 C 480.60 555.27 480.68 515.92 480.58 476.57 C 345.52 476.55 210.46 476.48 75.40 476.60 C 75.35 515.94 75.39 555.28 75.38 594.63 Z" />
</g>
</svg>
