<?xml version="1.0" encoding="UTF-8" ?>
<!DOCTYPE svg PUBLIC "-//W3C//DTD SVG 1.1//EN" "http://www.w3.org/Graphics/SVG/1.1/DTD/svg11.dtd">
<svg width="557pt" height="626pt" viewBox="0 0 557 626" version="1.1" xmlns="http://www.w3.org/2000/svg">
<g>
<path fill="#000000" opacity="1.00" d=" M 72.97 0.00 L 373.57 0.00 C 376.65 1.00 379.45 2.64 382.25 4.23 C 422.44 49.90 462.39 95.80 502.55 141.50 C 505.16 144.31 505.78 148.25 505.77 151.95 C 505.80 175.89 505.77 199.83 505.79 223.77 C 513.75 224.66 521.88 223.36 529.77 225.11 C 540.33 227.72 549.30 235.66 553.47 245.67 C 557.01 255.38 556.05 265.93 556.22 276.07 C 556.06 292.05 556.52 308.04 555.98 324.00 C 556.37 330.98 556.37 338.02 555.98 345.00 C 556.54 375.32 556.03 405.67 556.24 436.00 C 555.84 443.90 555.76 452.39 551.18 459.22 C 547.20 466.11 540.77 471.57 533.22 474.15 C 524.51 477.82 514.92 476.10 505.77 476.63 C 505.77 518.41 505.84 560.19 505.73 601.97 C 506.18 614.62 494.77 625.61 482.39 626.00 L 75.50 626.00 C 63.13 625.58 51.82 614.57 52.26 601.96 C 52.18 560.19 52.22 518.41 52.24 476.63 C 43.10 476.10 33.52 477.81 24.82 474.15 C 13.72 470.47 5.28 460.39 2.81 449.07 C 1.41 438.11 1.58 427.01 2.05 416.00 C 1.52 401.36 1.80 386.66 1.91 372.00 C 1.76 347.01 1.62 321.99 1.98 297.00 C 1.55 285.67 1.92 274.32 1.78 262.99 C 2.20 257.31 2.24 251.46 4.37 246.09 C 8.17 236.72 16.06 229.04 25.67 225.81 C 34.27 223.04 43.41 224.78 52.23 223.74 C 52.21 157.83 52.22 91.91 52.22 26.00 C 52.08 20.14 53.31 13.89 57.36 9.43 C 61.10 4.41 67.02 1.50 72.97 0.00 M 76.40 24.50 C 76.35 90.96 76.40 157.42 76.37 223.88 C 77.58 224.02 78.80 224.11 80.01 224.15 C 210.69 224.14 341.38 224.15 472.06 224.14 C 475.27 224.13 478.50 224.33 481.68 223.76 C 481.51 203.32 481.70 182.87 481.59 162.43 C 445.03 162.12 408.46 162.53 371.91 162.22 C 370.02 161.19 367.59 161.53 366.01 159.88 C 362.41 157.50 360.79 153.21 360.84 149.02 C 360.73 107.50 360.95 65.98 360.74 24.46 C 265.96 24.57 171.18 24.49 76.40 24.50 M 380.80 275.64 C 380.54 276.72 380.22 277.79 379.83 278.84 C 378.55 282.91 377.59 287.08 376.17 291.12 C 375.65 292.31 375.23 293.55 374.79 294.78 C 373.46 299.14 372.35 303.57 370.91 307.90 C 370.65 308.91 370.29 309.88 369.84 310.82 C 369.61 311.86 369.29 312.89 368.88 313.88 C 367.31 318.48 366.42 323.27 364.86 327.87 C 364.79 328.99 364.46 330.01 363.86 330.92 C 362.52 336.21 361.46 341.59 359.85 346.81 C 357.68 355.10 355.67 363.42 353.99 371.82 C 353.50 369.78 352.89 367.78 352.18 365.82 C 350.55 359.25 349.52 352.56 348.13 345.94 C 347.36 344.72 347.44 343.24 347.23 341.88 C 346.58 340.98 346.22 339.96 346.14 338.83 C 344.96 334.58 344.16 330.23 343.15 325.94 C 342.50 324.59 342.43 323.07 342.31 321.62 L 341.63 321.53 C 341.53 320.85 341.33 319.48 341.24 318.80 C 339.08 312.96 338.03 306.78 336.10 300.86 C 334.34 296.34 333.48 291.54 332.18 286.87 C 330.97 283.08 329.83 279.25 328.50 275.49 C 315.16 275.66 301.82 275.53 288.49 275.54 C 288.42 277.00 288.56 278.56 287.76 279.87 C 287.76 284.63 287.35 289.38 287.14 294.13 C 286.16 300.02 286.74 306.06 285.83 311.98 C 285.24 328.47 283.73 344.92 283.31 361.42 L 282.68 361.56 C 282.84 366.21 282.07 370.83 282.38 375.48 L 281.65 375.56 C 281.70 378.88 281.64 382.21 281.43 385.53 C 280.39 394.84 280.48 404.23 279.63 413.56 C 288.96 413.73 298.30 413.57 307.63 413.64 L 307.38 412.49 L 308.30 412.51 C 308.14 407.98 308.36 403.46 308.63 398.95 C 308.85 396.32 308.22 393.60 309.18 391.09 C 310.06 366.41 311.36 341.75 312.07 317.07 C 312.34 314.41 312.63 311.76 313.00 309.12 C 315.06 313.66 314.53 319.05 317.06 323.36 C 317.67 328.04 318.88 332.60 319.80 337.22 C 320.51 338.41 320.62 339.78 320.76 341.14 C 323.08 347.61 323.96 354.54 325.86 361.16 C 326.25 362.13 326.58 363.13 326.84 364.15 C 328.14 368.32 328.96 372.62 330.16 376.83 C 330.72 379.21 331.32 381.59 332.18 383.89 C 333.81 389.94 335.34 396.02 336.79 402.12 C 337.41 403.02 337.76 404.03 337.85 405.17 C 338.60 407.22 339.08 409.35 339.55 411.48 C 347.48 411.48 355.42 411.54 363.35 411.45 C 363.56 410.89 363.97 409.76 364.18 409.19 C 365.79 403.50 367.15 397.72 369.17 392.15 C 369.36 391.10 369.69 390.09 370.15 389.13 C 371.71 384.03 372.90 378.83 374.69 373.80 C 376.97 368.07 377.71 361.83 380.20 356.18 C 381.87 350.53 383.21 344.77 385.13 339.20 C 385.38 338.15 385.71 337.12 386.12 336.13 C 387.74 331.22 388.55 326.09 390.13 321.17 C 390.67 319.05 391.27 316.94 391.82 314.82 C 392.91 311.08 393.66 307.26 394.74 303.52 C 395.65 313.00 395.08 322.56 395.39 332.07 C 395.39 348.39 396.58 364.68 396.72 380.99 C 396.77 382.93 396.56 384.93 397.26 386.80 C 397.24 393.72 397.97 400.63 397.66 407.56 L 398.38 407.50 C 398.30 409.53 398.32 411.57 398.41 413.61 C 408.20 413.62 417.99 413.67 427.78 413.59 C 427.16 397.71 426.49 381.83 425.53 365.98 C 425.55 356.78 424.07 347.65 424.37 338.45 L 423.65 338.50 C 423.73 331.99 423.54 325.45 422.76 318.97 C 422.02 304.50 421.67 290.00 420.55 275.55 C 407.30 275.63 394.05 275.45 380.80 275.64 M 37.23 413.59 C 47.38 413.66 57.52 413.63 67.67 413.60 C 67.83 394.47 67.74 375.33 67.71 356.20 C 84.27 356.03 100.82 356.14 117.38 356.14 C 117.41 375.29 117.31 394.44 117.43 413.59 C 127.53 413.65 137.63 413.64 147.73 413.60 C 147.74 367.57 147.94 321.53 147.63 275.50 C 137.60 275.63 127.58 275.53 117.55 275.56 C 117.17 293.25 117.45 310.97 117.41 328.67 C 100.84 328.72 84.28 328.82 67.71 328.62 C 67.66 310.93 67.98 293.22 67.55 275.53 C 57.48 275.58 47.41 275.59 37.34 275.53 C 37.02 321.55 37.24 367.57 37.23 413.59 M 164.23 301.91 C 176.28 302.11 188.36 301.58 200.40 302.20 C 200.34 339.33 200.33 376.47 200.40 413.61 C 210.47 413.63 220.54 413.66 230.60 413.60 C 230.61 376.49 230.71 339.38 230.55 302.28 C 242.84 301.43 255.20 302.25 267.52 301.84 C 267.47 293.08 267.61 284.33 267.45 275.58 C 233.09 275.53 198.73 275.61 164.37 275.54 C 164.05 284.32 164.31 293.12 164.23 301.91 M 451.15 322.98 C 451.16 353.17 451.12 383.37 451.16 413.57 C 479.24 413.62 507.33 413.77 535.40 413.49 C 535.34 404.84 535.37 396.19 535.38 387.55 C 517.55 387.00 499.69 387.47 481.84 387.30 C 481.66 350.04 482.01 312.78 481.67 275.53 C 471.56 275.60 461.44 275.57 451.33 275.53 C 450.90 291.34 451.27 307.16 451.15 322.98 M 76.39 594.63 C 211.47 594.70 346.55 594.74 481.62 594.61 C 481.59 555.27 481.67 515.92 481.59 476.58 C 346.54 476.51 211.48 476.52 76.43 476.58 C 76.31 515.93 76.40 555.28 76.39 594.63 Z" />
</g>
<g>
<path fill="#000000" opacity="1.00" d=" M 373.57 0.00 L 378.07 0.00 L 376.84 0.18 C 378.83 1.25 380.77 2.49 382.25 4.23 C 379.45 2.64 376.65 1.00 373.57 0.00 Z" />
</g>
<g>
<path fill="#000000" opacity="1.00" d=" M 312.47 303.49 C 314.82 309.88 316.09 316.63 317.06 323.36 C 314.53 319.05 315.06 313.66 313.00 309.12 C 312.63 311.76 312.34 314.41 312.07 317.07 C 312.04 312.54 311.75 307.98 312.47 303.49 Z" />
</g>
</svg>
