<?xml version="1.0" encoding="UTF-8" ?>
<!DOCTYPE svg PUBLIC "-//W3C//DTD SVG 1.1//EN" "http://www.w3.org/Graphics/SVG/1.1/DTD/svg11.dtd">
<svg width="557pt" height="626pt" viewBox="0 0 557 626" version="1.1" xmlns="http://www.w3.org/2000/svg">
<g id="#ffffffff">
</g>
<g id="#000000ff">
<path fill="#000000" opacity="1.00" d=" M 72.32 0.00 L 378.12 0.00 L 375.16 0.56 C 378.56 0.98 381.36 3.02 383.49 5.56 C 423.33 51.04 463.14 96.55 502.98 142.02 C 505.76 145.35 505.78 149.88 505.80 153.99 C 505.73 177.22 505.85 200.46 505.74 223.70 C 513.95 224.86 522.38 223.25 530.50 225.28 C 540.97 228.19 549.86 236.24 553.73 246.39 C 556.85 255.58 556.10 265.46 556.21 275.01 C 556.11 318.67 556.43 362.34 556.06 406.00 C 556.37 417.65 556.23 429.32 556.13 440.99 C 555.48 444.95 555.59 449.06 554.13 452.87 C 550.06 465.53 538.14 474.54 525.12 476.34 C 518.67 476.70 512.22 476.44 505.77 476.61 C 505.76 518.50 505.85 560.40 505.72 602.28 C 506.02 614.81 494.65 625.62 482.39 626.00 L 75.53 626.00 C 65.19 625.60 55.44 617.96 52.94 607.86 C 52.17 604.63 52.22 601.29 52.21 597.99 C 52.25 558.66 52.18 519.32 52.24 479.99 C 52.17 478.68 52.57 475.86 50.27 476.55 C 41.94 476.25 33.24 477.59 25.30 474.33 C 13.98 470.75 5.29 460.57 2.82 449.06 C 1.91 442.08 1.52 435.03 1.87 428.00 C 1.73 424.00 1.74 420.00 1.91 416.01 C 1.62 365.34 1.90 314.67 1.78 263.99 C 2.07 257.99 2.17 251.82 4.36 246.14 C 8.41 235.97 17.37 227.86 28.02 225.16 C 35.97 223.36 44.17 224.63 52.22 223.77 C 52.21 158.18 52.23 92.58 52.21 26.99 C 52.13 22.13 52.59 17.07 55.01 12.75 C 58.63 6.21 65.28 2.04 72.32 0.00 M 76.40 24.51 C 76.36 90.97 76.38 157.44 76.39 223.91 C 77.92 224.03 79.45 224.14 80.99 224.15 C 210.67 224.13 340.34 224.15 470.01 224.14 C 473.90 224.12 477.80 224.33 481.67 223.79 C 481.53 203.34 481.69 182.88 481.59 162.43 C 445.06 162.11 408.52 162.55 372.00 162.21 C 365.95 161.46 360.74 156.30 360.95 150.02 C 360.68 108.18 361.02 66.31 360.78 24.46 C 265.98 24.57 171.19 24.49 76.40 24.51 M 41.63 256.78 C 41.31 268.38 41.56 279.99 41.50 291.60 C 57.81 291.62 74.13 291.65 90.44 291.59 C 90.60 341.15 90.46 390.72 90.51 440.28 C 104.50 440.34 118.49 440.34 132.48 440.28 C 132.52 390.72 132.40 341.15 132.54 291.59 C 149.15 291.63 165.76 291.64 182.37 291.59 C 182.44 280.18 182.24 268.77 182.46 257.37 C 178.40 256.27 174.15 257.00 170.00 256.81 C 162.34 256.99 154.63 256.42 147.00 257.11 C 143.68 256.56 140.31 256.86 136.97 256.81 C 105.19 256.78 73.41 256.84 41.63 256.78 M 198.18 256.83 C 198.27 257.43 198.44 258.63 198.52 259.23 C 199.13 260.07 199.74 260.92 200.36 261.77 C 204.08 268.61 207.78 275.47 211.85 282.10 C 215.19 288.40 218.71 294.60 222.32 300.75 C 225.84 307.23 229.42 313.69 233.25 319.99 C 236.59 326.07 239.75 332.31 243.63 338.02 C 243.60 338.27 243.53 338.77 243.50 339.02 C 245.77 341.17 246.52 344.36 248.35 346.84 L 248.28 347.95 C 245.20 354.20 241.15 359.92 238.16 366.23 L 237.73 366.45 C 236.22 369.14 234.76 371.85 233.38 374.61 L 232.44 374.62 C 232.48 374.96 232.56 375.66 232.60 376.00 C 230.23 378.65 229.26 382.16 227.20 385.02 C 219.65 397.93 212.49 411.09 204.80 423.93 C 202.03 429.50 198.58 434.69 195.68 440.20 C 211.49 440.42 227.32 440.35 243.14 440.24 C 244.88 436.54 246.23 432.67 248.14 429.06 C 250.02 425.51 251.43 421.75 253.02 418.07 C 253.31 417.57 253.90 416.56 254.19 416.06 C 255.76 412.69 257.18 409.27 258.71 405.89 C 258.95 405.37 259.44 404.34 259.69 403.82 C 261.57 400.25 262.87 396.42 264.63 392.79 C 266.74 388.99 267.93 384.79 269.58 380.78 C 270.16 379.55 270.73 378.33 271.34 377.13 C 271.48 376.54 271.77 375.37 271.92 374.78 C 272.22 374.67 272.83 374.45 273.13 374.34 C 273.89 376.33 274.74 378.30 275.66 380.23 C 284.97 398.91 294.46 417.49 303.67 436.22 C 304.43 437.58 305.18 438.94 305.94 440.32 C 321.98 440.25 338.04 440.47 354.08 440.19 C 353.58 439.61 352.59 438.45 352.09 437.87 C 346.96 428.12 341.15 418.74 335.68 409.18 C 333.75 406.10 332.34 402.71 330.16 399.80 C 328.46 396.85 326.95 393.79 325.14 390.91 C 321.07 384.01 317.20 376.96 313.03 370.11 C 311.36 367.38 310.00 364.46 308.28 361.76 C 306.55 359.33 305.42 356.55 303.83 354.03 C 302.14 351.52 300.64 348.88 299.44 346.11 C 306.35 334.45 312.88 322.58 319.90 310.99 C 321.98 307.34 323.82 303.55 326.20 300.07 C 329.38 294.02 333.01 288.23 336.32 282.26 C 341.12 273.78 346.44 265.54 350.71 256.79 C 335.39 256.80 320.07 256.84 304.75 256.77 C 304.29 257.05 303.36 257.62 302.90 257.90 C 301.85 260.72 300.70 263.52 299.29 266.19 C 295.88 273.75 292.16 281.15 288.92 288.79 C 288.56 289.50 288.20 290.22 287.84 290.95 C 285.60 295.46 284.22 300.36 281.76 304.77 C 279.38 309.89 278.63 316.06 274.82 320.32 C 273.30 316.88 271.77 313.44 270.32 309.97 C 268.10 306.22 266.73 302.05 264.79 298.16 C 262.99 294.52 261.58 290.71 259.67 287.13 C 257.82 283.90 256.57 280.38 254.88 277.06 C 254.38 275.99 253.87 274.92 253.37 273.85 C 251.14 269.62 249.34 265.18 247.05 260.98 C 246.26 259.08 245.56 256.92 243.18 256.73 C 236.46 257.07 229.69 256.39 223.00 257.11 C 217.70 256.62 212.30 256.59 207.00 257.12 C 204.09 256.61 201.12 256.80 198.18 256.83 M 363.53 257.47 C 363.59 268.82 363.57 280.17 363.54 291.52 C 379.89 291.73 396.26 291.58 412.61 291.60 C 412.78 340.99 412.77 390.40 412.62 439.80 C 414.04 440.12 415.49 440.38 416.97 440.34 C 429.50 440.26 442.04 440.40 454.57 440.26 C 454.62 390.71 454.53 341.16 454.62 291.61 C 471.25 291.61 487.88 291.63 504.51 291.61 C 504.51 280.01 504.60 268.40 504.46 256.79 C 474.63 256.82 444.81 256.79 414.98 256.81 C 411.98 256.83 408.96 256.59 406.00 257.13 C 392.66 256.39 379.24 256.99 365.87 256.82 C 365.29 256.98 364.12 257.31 363.53 257.47 M 76.38 594.62 C 211.46 594.69 346.54 594.70 481.61 594.61 C 481.61 555.27 481.65 515.93 481.59 476.58 C 346.53 476.51 211.48 476.51 76.42 476.58 C 76.33 515.93 76.39 555.27 76.38 594.62 Z" />
</g>
</svg>
