<?xml version="1.0" encoding="UTF-8" ?>
<!DOCTYPE svg PUBLIC "-//W3C//DTD SVG 1.1//EN" "http://www.w3.org/Graphics/SVG/1.1/DTD/svg11.dtd">
<svg width="425pt" height="480pt" viewBox="0 0 425 480" version="1.1" xmlns="http://www.w3.org/2000/svg">
<g id="#ffffffff">
</g>
<g id="#000000ff">
<path fill="#000000" opacity="1.00" d=" M 55.78 0.00 L 284.39 0.00 C 287.06 0.20 289.72 1.38 291.45 3.47 C 321.67 37.94 351.85 72.45 382.04 106.95 C 384.51 109.30 386.27 112.45 386.09 115.96 C 386.09 134.49 386.22 153.03 386.03 171.56 C 392.70 172.04 399.63 170.83 406.09 173.07 C 414.77 175.84 421.66 183.37 423.77 192.22 C 426.05 205.48 423.18 219.09 425.00 232.45 L 425.00 311.72 C 423.29 322.62 425.89 333.77 423.82 344.61 C 421.85 353.33 415.21 360.83 406.76 363.79 C 400.15 366.29 392.98 365.10 386.10 365.44 C 386.14 396.96 386.10 428.48 386.12 460.00 C 386.90 470.13 378.38 479.69 368.20 480.00 L 55.49 480.00 C 45.87 479.49 37.63 470.75 37.89 461.09 C 37.91 429.22 37.81 397.35 37.94 365.47 C 31.33 365.05 24.49 366.23 18.08 364.08 C 9.03 361.21 1.85 353.24 0.00 343.92 L 0.00 193.21 C 1.81 183.92 8.94 175.94 17.95 173.05 C 24.40 170.84 31.29 172.02 37.95 171.58 C 37.79 120.70 37.92 69.83 37.89 18.95 C 37.60 9.18 46.01 0.30 55.78 0.00 M 56.82 18.78 C 56.65 69.85 56.60 120.97 56.84 172.05 C 58.02 171.17 59.65 171.91 61.00 171.66 C 161.67 171.67 262.34 171.67 363.01 171.66 C 364.34 171.90 366.00 171.18 367.15 172.06 C 367.40 156.18 367.37 140.23 367.17 124.38 C 339.47 124.73 311.73 124.45 284.02 124.52 C 279.00 124.57 274.59 120.04 274.75 115.03 C 274.77 83.16 274.64 51.29 274.82 19.42 L 274.31 18.68 C 273.49 18.71 271.84 18.77 271.02 18.80 C 199.62 18.78 128.21 18.83 56.82 18.78 M 295.53 192.86 C 295.20 194.58 295.47 196.34 295.38 198.07 C 295.41 244.05 295.34 290.04 295.41 336.02 C 327.28 335.97 359.15 336.03 391.02 335.99 C 391.06 327.07 390.97 318.14 391.00 309.22 C 370.60 309.27 350.17 309.02 329.80 309.34 L 329.35 308.54 C 329.47 297.76 329.44 286.98 329.37 276.21 L 328.79 275.94 C 329.54 275.85 331.04 275.66 331.78 275.57 C 349.30 275.78 366.87 275.30 384.35 275.81 C 384.86 266.90 384.51 257.86 384.52 248.91 C 366.18 249.16 347.82 248.86 329.47 249.07 C 329.38 239.35 329.37 229.62 329.48 219.91 C 348.95 219.81 368.43 219.90 387.91 219.86 C 387.95 210.95 387.87 202.03 387.95 193.12 C 358.63 193.00 329.31 193.10 299.98 193.07 C 298.50 192.94 296.96 193.31 295.53 192.86 M 145.05 194.02 C 145.06 240.62 145.01 287.22 145.07 333.83 L 145.27 334.65 C 155.69 334.52 166.18 334.33 176.57 334.74 C 176.67 334.33 176.87 333.51 176.98 333.10 C 176.90 286.74 176.99 240.37 176.93 194.00 C 166.30 194.00 155.67 193.98 145.05 194.02 M 36.38 334.74 L 37.19 335.58 C 47.43 334.98 58.07 335.54 68.46 335.30 C 68.28 316.47 68.40 297.63 68.40 278.80 C 85.28 278.65 102.19 279.08 119.04 278.59 C 118.57 270.07 119.00 261.49 118.82 252.95 C 102.06 253.04 85.24 252.69 68.51 253.13 C 68.14 242.41 68.59 231.64 68.28 220.91 C 85.56 220.65 102.90 220.89 120.20 220.79 C 120.83 220.66 122.10 220.41 122.73 220.29 C 121.88 211.94 122.74 203.19 122.30 194.71 C 93.70 194.81 65.09 194.63 36.50 194.80 C 36.38 241.44 36.63 288.10 36.38 334.74 M 202.01 194.74 C 201.99 241.60 201.99 288.46 202.01 335.33 C 230.76 335.28 259.51 335.45 288.25 335.24 C 288.11 326.44 288.13 317.58 288.24 308.77 C 269.56 308.20 250.69 309.05 232.01 308.35 C 232.09 308.02 232.24 307.37 232.32 307.04 C 232.21 269.61 232.37 232.17 232.24 194.75 C 222.16 194.72 212.09 194.73 202.01 194.74 M 57.25 365.33 L 56.85 364.93 C 56.53 395.28 56.78 425.65 56.72 456.01 C 160.21 456.14 263.72 456.03 367.22 456.07 C 367.31 425.72 367.40 395.35 367.17 365.00 C 366.85 365.11 366.22 365.33 365.90 365.43 C 263.02 365.31 160.12 365.51 57.25 365.33 Z" />
</g>
</svg>
