<?xml version="1.0" encoding="UTF-8" ?>
<!DOCTYPE svg PUBLIC "-//W3C//DTD SVG 1.1//EN" "http://www.w3.org/Graphics/SVG/1.1/DTD/svg11.dtd">
<svg width="225pt" height="225pt" viewBox="0 0 225 225" version="1.1" xmlns="http://www.w3.org/2000/svg">
<g id="#ffffffff">
</g>
<g id="#030104ff">
<path fill="#030104" opacity="1.00" d=" M 109.94 0.00 L 111.15 0.00 C 113.54 0.57 115.80 1.75 117.32 3.72 C 139.80 30.91 162.29 58.08 184.78 85.25 C 186.91 88.00 189.95 90.38 190.66 93.96 C 190.85 96.41 187.94 96.72 186.17 96.95 C 172.85 97.09 159.53 96.94 146.22 97.01 C 146.29 138.03 146.18 179.04 146.28 220.05 C 146.58 223.59 142.61 224.60 139.89 225.00 L 82.52 225.00 C 80.78 224.42 78.71 223.83 78.00 221.91 C 77.46 219.66 77.70 217.32 77.66 215.03 C 77.70 176.48 77.64 137.93 77.69 99.38 C 65.79 99.40 53.89 99.37 41.98 99.40 C 39.62 99.30 36.93 99.49 35.02 97.82 C 33.39 95.72 34.92 93.10 36.24 91.30 C 57.13 63.89 77.80 36.30 99.37 9.42 C 102.53 5.95 105.04 1.19 109.94 0.00 Z" />
</g>
</svg>
