<?xml version="1.0" encoding="UTF-8" ?>
<!DOCTYPE svg PUBLIC "-//W3C//DTD SVG 1.1//EN" "http://www.w3.org/Graphics/SVG/1.1/DTD/svg11.dtd">
<svg width="512pt" height="492pt" viewBox="0 0 512 492" version="1.1" xmlns="http://www.w3.org/2000/svg">
<g id="#000000ff">
<path fill="#000000" opacity="1.00" d=" M 20.72 0.00 L 238.75 0.00 C 241.05 0.34 243.25 1.34 244.74 3.17 C 284.45 47.79 324.12 92.45 363.84 137.07 C 366.39 139.85 369.45 142.88 369.19 146.99 C 369.22 159.63 369.21 172.27 369.19 184.91 C 389.39 197.92 404.83 218.25 411.44 241.40 C 417.31 261.58 416.56 283.62 409.25 303.32 C 403.91 317.94 394.97 331.13 383.72 341.84 C 424.26 382.42 464.88 422.92 505.42 463.51 C 509.81 467.45 507.33 475.55 501.52 476.45 C 497.65 477.45 494.46 474.59 492.09 471.93 C 461.60 441.41 431.08 410.94 400.57 380.45 C 390.82 370.84 381.35 360.95 371.42 351.53 C 370.87 351.96 369.75 352.81 369.20 353.23 C 369.24 391.80 369.22 430.37 369.21 468.94 C 369.47 480.55 359.77 490.87 348.33 492.00 L 20.54 492.00 C 10.01 490.72 1.17 481.90 0.00 471.34 L 0.00 20.85 C 1.07 10.15 10.05 1.16 20.72 0.00 M 19.30 16.38 C 16.59 17.84 15.15 20.97 15.38 23.98 C 15.37 172.01 15.39 320.03 15.37 468.06 C 15.12 471.07 16.57 474.22 19.30 475.65 C 21.63 477.00 24.43 476.53 27.00 476.62 C 133.36 476.59 239.71 476.63 346.07 476.59 C 350.12 476.74 353.84 473.17 353.80 469.11 C 353.84 433.16 353.85 397.22 353.80 361.28 C 336.86 368.36 317.96 370.64 299.83 367.75 C 278.53 364.47 258.51 353.90 243.57 338.40 L 243.04 338.23 C 190.37 338.20 137.70 338.24 85.03 338.21 C 80.97 338.53 77.12 335.15 76.93 331.08 C 76.47 326.65 80.54 322.51 84.98 322.86 C 133.71 322.85 182.45 322.86 231.18 322.86 C 222.38 309.05 216.95 293.10 215.73 276.75 C 172.14 276.71 128.55 276.76 84.96 276.73 C 79.95 277.13 75.65 271.82 77.18 267.00 C 78.06 263.62 81.45 261.14 84.95 261.36 C 128.55 261.33 172.16 261.39 215.76 261.33 C 216.99 245.00 222.38 229.02 231.22 215.24 C 182.49 215.23 133.76 215.24 85.03 215.23 C 81.58 215.45 78.21 213.10 77.25 209.79 C 75.55 204.94 79.87 199.43 84.97 199.86 C 136.66 199.86 188.34 199.84 240.03 199.88 C 241.35 199.69 243.10 200.35 244.09 199.15 C 257.09 185.83 273.88 176.22 291.99 171.88 C 312.43 166.90 334.41 168.67 353.82 176.79 C 353.84 169.11 353.83 161.42 353.82 153.74 C 320.21 153.69 286.59 153.82 252.98 153.68 C 240.28 152.73 231.45 139.89 230.80 127.92 C 230.67 90.41 230.80 52.89 230.74 15.38 C 162.82 15.37 94.90 15.39 26.98 15.37 C 24.41 15.45 21.62 15.00 19.30 16.38 M 246.14 27.93 C 246.16 60.97 246.11 94.00 246.17 127.04 C 246.49 132.18 249.91 139.14 255.98 138.39 C 285.42 138.34 314.87 138.41 344.31 138.35 C 311.65 101.49 278.87 64.73 246.14 27.93 M 300.61 185.78 C 270.04 190.88 243.53 214.29 234.57 243.94 C 228.76 262.47 229.62 283.00 237.02 300.96 C 244.45 319.25 258.53 334.71 276.00 343.87 C 290.91 351.78 308.24 354.98 325.00 353.04 C 341.62 351.19 357.60 344.17 370.28 333.29 C 384.21 321.41 394.18 304.93 398.02 287.02 C 401.81 269.73 399.99 251.27 392.82 235.08 C 384.41 215.87 368.59 200.05 349.38 191.64 C 334.18 184.90 316.97 182.89 300.61 185.78 Z" />
<path fill="#000000" opacity="1.00" d=" M 82.48 138.67 C 83.95 138.28 85.48 138.39 86.99 138.36 C 117.00 138.41 147.02 138.33 177.04 138.40 C 181.43 138.29 185.18 142.60 184.54 146.94 C 184.17 151.07 180.10 154.16 176.04 153.74 C 145.66 153.73 115.28 153.76 84.90 153.73 C 81.65 153.89 78.46 151.77 77.39 148.70 C 75.76 144.68 78.32 139.75 82.48 138.67 Z" />
<path fill="#000000" opacity="1.00" d=" M 82.51 384.63 C 83.65 384.39 84.81 384.30 85.98 384.34 C 152.00 384.37 218.02 384.35 284.04 384.36 C 287.97 384.03 291.78 387.09 292.22 391.01 C 293.01 395.66 288.75 400.15 284.09 399.73 C 217.71 399.74 151.34 399.74 84.96 399.73 C 81.10 399.98 77.41 396.92 76.98 393.07 C 76.40 389.38 78.92 385.59 82.51 384.63 Z" />
</g>
</svg>
