<?xml version="1.0" encoding="UTF-8" ?>
<!DOCTYPE svg PUBLIC "-//W3C//DTD SVG 1.1//EN" "http://www.w3.org/Graphics/SVG/1.1/DTD/svg11.dtd">
<svg width="256pt" height="256pt" viewBox="0 0 256 256" version="1.1" xmlns="http://www.w3.org/2000/svg">
<g id="#ffffffff">
</g>
<g id="#000000ff">
<path fill="#000000" opacity="1.00" d=" M 115.56 13.90 C 140.11 11.20 165.48 16.66 186.67 29.38 C 212.01 44.38 231.18 69.46 238.78 97.93 C 245.94 124.22 243.39 153.04 231.52 177.58 C 219.48 202.84 197.87 223.35 172.00 234.02 C 144.73 245.44 113.02 245.67 85.58 234.66 C 59.46 224.34 37.46 204.04 25.10 178.82 C 13.92 156.45 10.55 130.36 15.38 105.85 C 20.33 80.12 34.54 56.36 54.72 39.69 C 71.88 25.36 93.32 16.26 115.56 13.90 M 141.08 22.85 C 140.52 24.27 140.12 25.87 138.84 26.83 C 135.47 29.81 132.78 33.69 128.54 35.53 C 123.64 38.18 117.94 37.86 112.61 38.81 C 106.22 40.13 101.77 45.38 96.00 47.98 C 93.96 49.12 90.78 48.54 90.45 45.90 C 90.01 41.34 92.46 37.15 93.67 32.87 C 87.60 32.87 81.61 34.22 75.98 36.44 C 78.00 37.64 80.42 38.26 82.11 39.93 C 83.28 44.99 75.48 44.54 74.79 49.07 C 75.41 53.19 77.96 56.83 78.05 61.07 C 78.17 64.15 75.48 66.47 72.90 67.61 C 69.86 68.70 67.76 65.53 65.56 64.07 C 62.98 66.71 64.91 72.41 60.60 73.36 C 54.38 74.62 49.79 79.30 45.27 83.39 C 42.97 87.11 42.02 91.67 38.86 94.85 C 35.27 98.08 30.76 100.10 27.20 103.36 C 24.62 107.40 25.79 112.64 27.38 116.86 C 28.75 119.97 30.17 123.38 33.02 125.43 C 35.99 125.06 38.97 123.33 41.99 124.39 C 46.69 125.69 49.99 129.44 53.44 132.64 C 57.38 135.77 62.50 137.40 65.65 141.50 C 67.13 143.44 66.93 146.57 69.43 147.68 C 75.58 151.08 82.54 152.74 88.61 156.32 C 91.35 157.76 92.36 161.24 91.81 164.13 C 91.00 167.69 88.33 170.51 87.47 174.06 C 86.76 178.44 89.28 183.54 86.27 187.38 C 83.61 189.41 80.00 190.17 77.94 192.98 C 74.93 196.75 77.49 202.01 75.08 206.06 C 72.45 210.57 73.39 216.46 76.40 220.47 C 103.03 235.69 136.47 238.06 165.13 227.24 C 188.44 218.58 208.41 201.37 220.50 179.65 C 232.44 158.35 236.84 132.73 232.03 108.75 C 231.08 112.06 230.66 115.71 228.49 118.51 C 227.02 120.39 224.63 121.07 222.54 122.02 C 223.19 126.63 227.31 131.05 224.81 135.78 C 221.24 141.74 216.06 146.80 213.64 153.44 C 212.33 156.82 213.62 160.44 213.29 163.93 C 212.89 169.23 209.33 173.47 207.00 178.05 C 201.61 188.08 195.06 198.02 185.42 204.41 C 182.50 206.45 177.38 207.24 175.53 203.44 C 172.61 196.29 170.54 188.81 168.39 181.40 C 166.40 175.65 172.34 170.69 170.86 164.90 C 169.36 159.85 165.91 155.49 165.41 150.13 C 165.25 147.34 163.11 145.42 161.72 143.21 C 160.48 141.77 159.96 139.43 158.05 138.77 C 151.30 139.76 145.05 144.89 137.99 143.13 C 129.04 139.50 121.36 131.70 119.13 122.16 C 118.89 117.37 119.92 112.63 120.25 107.87 C 120.62 101.09 124.91 95.23 130.09 91.15 C 133.72 88.57 135.22 84.19 138.29 81.09 C 129.99 78.58 130.50 66.96 135.62 61.61 C 138.95 57.75 144.27 57.30 149.03 57.49 C 152.65 57.88 154.64 54.32 157.26 52.50 C 156.24 49.61 154.33 46.30 156.23 43.34 C 158.40 39.63 163.06 39.23 166.59 37.49 C 169.15 35.87 171.47 33.90 174.14 32.45 C 163.63 27.73 152.55 24.20 141.08 22.85 M 158.24 71.15 C 155.45 73.27 153.46 76.24 151.32 78.97 C 156.85 77.31 162.76 76.22 168.49 77.39 C 173.70 78.98 175.32 84.84 178.15 88.87 C 180.33 91.48 184.05 90.25 186.98 90.45 C 191.40 89.91 195.62 92.87 199.98 91.56 C 202.45 91.03 203.61 87.14 201.32 85.72 C 196.82 82.58 190.97 83.84 185.88 82.84 C 184.25 82.69 183.34 81.22 182.28 80.19 C 180.32 82.43 177.55 83.68 174.58 82.81 C 174.31 81.16 174.00 79.51 174.14 77.84 C 170.58 76.12 166.91 74.58 163.66 72.30 C 162.11 71.30 160.04 69.76 158.24 71.15 M 22.11 126.23 C 21.48 151.54 30.63 176.75 46.80 196.16 C 44.39 190.00 44.98 183.21 43.08 176.96 C 38.28 170.59 32.66 164.49 30.14 156.74 C 28.26 150.04 28.22 143.01 28.11 136.12 C 26.47 132.62 24.29 129.41 22.11 126.23 Z" />
</g>
</svg>
