<!-- Generated by IcoMoon.io -->
<svg version="1.1" xmlns="http://www.w3.org/2000/svg" width="32" height="32" viewBox="0 0 32 32">
<title>resource-editor--edit</title>
<path d="M10.802 20.668l-1.192 4.292h-3.367c-0.429 0-0.777 0.348-0.777 0.777s0.348 0.777 0.777 0.777h3.957c0.032 0 0.064-0.003 0.095-0.006 0.008-0.001 0.016-0.002 0.024-0.004 0.026-0.004 0.052-0.009 0.077-0.016 0.004-0.001 0.008-0.001 0.012-0.003l4.861-1.35c0.129-0.036 0.247-0.104 0.341-0.199l14.961-14.961c1.020-1.020 1.020-2.681 0-3.701l-0.909-0.909c-0.494-0.494-1.151-0.767-1.851-0.767s-1.356 0.272-1.851 0.767l-0.561 0.561v-4.233c0-0.934-0.759-1.693-1.692-1.693h-15.872c-0.206 0-0.404 0.082-0.549 0.227l-6.397 6.397c-0.146 0.146-0.227 0.343-0.227 0.549v23.134c0 0.934 0.76 1.693 1.693 1.693h21.352c0.933 0 1.692-0.76 1.692-1.693v-10.762c0-0.429-0.348-0.777-0.777-0.777s-0.777 0.348-0.777 0.777v10.762c0 0.077-0.062 0.14-0.139 0.14h-21.352c-0.077 0-0.14-0.063-0.14-0.14v-22.357h4.704c0.933 0 1.692-0.759 1.692-1.692v-4.704h15.095c0.077 0 0.139 0.063 0.139 0.14v5.741c0 0.015 0.001 0.029 0.002 0.043l-5.099 5.099h-12.507c-0.429 0-0.777 0.348-0.777 0.777s0.348 0.777 0.777 0.777h10.954l-4.639 4.639h-6.316c-0.429 0-0.777 0.348-0.777 0.777s0.348 0.777 0.777 0.777h4.763l-0.005 0.005c-0.095 0.095-0.163 0.212-0.199 0.342zM7.060 6.257c0 0.077-0.063 0.139-0.139 0.139h-3.606l3.745-3.745v3.606zM27.060 6.464c0.201-0.201 0.468-0.312 0.752-0.312s0.551 0.111 0.752 0.312l0.909 0.909c0.415 0.415 0.415 1.090 0 1.505l-0.97 0.97-2.413-2.413 0.97-0.97zM24.992 8.532l2.413 2.413-12.343 12.343-2.413-2.413 12.343-12.343zM11.942 22.366l1.629 1.629-2.255 0.626 0.626-2.255z"></path>
</svg>
