<!-- Generated by IcoMoon.io -->
<svg version="1.1" xmlns="http://www.w3.org/2000/svg" width="32" height="32" viewBox="0 0 32 32">
<title>resource-editor--out</title>
<path d="M30.545 0h-11.636c-0.803 0-1.455 0.651-1.455 1.455s0.651 1.455 1.455 1.455h8.125l-14.971 14.972c-0.568 0.568-0.568 1.489 0 2.057 0.284 0.284 0.656 0.426 1.028 0.426s0.745-0.142 1.029-0.426l14.971-14.971v8.125c0 0.803 0.651 1.455 1.455 1.455s1.455-0.651 1.455-1.455v-11.636c-0-0.803-0.651-1.455-1.455-1.455zM24.727 14.545c-0.803 0-1.455 0.651-1.455 1.455v13.091h-20.364v-20.364h13.091c0.803 0 1.455-0.651 1.455-1.455s-0.651-1.454-1.455-1.454h-14.545c-0.803 0-1.455 0.651-1.455 1.455v23.273c0 0.803 0.651 1.454 1.455 1.454h23.273c0.803 0 1.455-0.651 1.455-1.455v-14.545c-0-0.803-0.651-1.455-1.455-1.455z"></path>
</svg>
