<!-- Generated by IcoMoon.io -->
<svg version="1.1" xmlns="http://www.w3.org/2000/svg" width="32" height="32" viewBox="0 0 32 32">
<title>resource-editor--file-img</title>
<path d="M25.506 10.325c-0.081-0.268-0.33-0.463-0.625-0.463h-17.763c-0.295 0-0.543 0.195-0.625 0.463-0.021 0.064-0.033 0.133-0.033 0.204v17.279c0 0.361 0.292 0.653 0.653 0.653h17.773c0.361 0 0.653-0.292 0.653-0.653v-17.279c0-0.071-0.012-0.14-0.033-0.204zM7.771 11.181h16.457v9.456l-2.862-3.172c-0.23-0.255-0.618-0.288-0.889-0.076l-5.295 4.162-2.799-4.332c-0.014-0.022-0.030-0.043-0.046-0.063-0.115-0.139-0.283-0.225-0.466-0.235-0.012-0.001-0.025-0.001-0.037-0.001-0.008 0-0.015 0.001-0.022 0.001-0.011 0-0.021 0.001-0.032 0.002-0.015 0.001-0.029 0.003-0.043 0.005-0.010 0.002-0.020 0.003-0.030 0.005-0.015 0.003-0.029 0.007-0.043 0.011-0.009 0.003-0.019 0.005-0.028 0.008-0.014 0.005-0.029 0.010-0.043 0.016-0.009 0.004-0.018 0.007-0.027 0.011-0.014 0.006-0.028 0.014-0.041 0.021-0.008 0.004-0.017 0.009-0.025 0.013-0.014 0.008-0.027 0.017-0.040 0.026-0.007 0.005-0.015 0.010-0.022 0.015-0.014 0.011-0.027 0.022-0.040 0.034-0.006 0.005-0.012 0.010-0.017 0.015-0.018 0.017-0.035 0.036-0.051 0.055l-3.559 4.336v-10.315zM7.771 27.102v-3.547l4.001-4.875 5.442 8.421h-9.443zM24.228 27.102h-5.459l-2.874-4.448 4.911-3.86 3.423 3.794v4.515zM17.262 11.996c-1.448 0-2.627 1.177-2.627 2.623s1.178 2.623 2.627 2.623c1.449 0 2.627-1.177 2.627-2.623s-1.178-2.623-2.627-2.623zM17.262 15.937c-0.728 0-1.321-0.591-1.321-1.317s0.592-1.317 1.321-1.317c0.728 0 1.321 0.591 1.321 1.317s-0.593 1.317-1.321 1.317zM28.715 6.793l-6.603-6.602c-0.021-0.021-0.043-0.039-0.067-0.057-0.005-0.004-0.010-0.008-0.015-0.011-0.023-0.017-0.047-0.032-0.073-0.046-0.002-0.001-0.003-0.002-0.005-0.003-0.024-0.013-0.049-0.023-0.075-0.033-0.005-0.002-0.010-0.004-0.015-0.006-0.027-0.009-0.055-0.017-0.084-0.023-0.001-0-0.002-0-0.003-0.001-0.026-0.005-0.053-0.008-0.080-0.010-0.008-0.001-0.015-0.001-0.023-0.001s-0.014-0.001-0.022-0.001h-17.928c-0.361 0-0.653 0.292-0.653 0.653v30.694c0 0.361 0.292 0.653 0.653 0.653h24.555c0.361 0 0.653-0.292 0.653-0.653v-24.042c0-0.009 0.001-0.017 0.001-0.026 0-0.193-0.084-0.366-0.217-0.486zM22.303 2.229l4.397 4.396h-4.397v-4.396zM4.375 30.694v-29.388h16.622v5.973c0 0.361 0.292 0.653 0.653 0.653h5.974v22.762h-23.249z"></path>
</svg>
