<svg id="Layer_1" data-name="Layer 1" xmlns="http://www.w3.org/2000/svg" viewBox="0 0 26 26"><defs><style>.cls-1{fill:none;}.cls-2{fill:none;}.cls-3{fill:#000;}</style></defs><title>expandcollapse</title><polygon class="cls-1" points="20.5 5.5 20.5 20.5 12.5 20.5 12.5 19.5 19.5 19.5 19.5 6.5 6.5 6.5 6.5 13.5 5.5 13.5 5.5 5.5 20.5 5.5"/><polygon class="cls-2" points="20.5 5.5 20.5 20.5 12.5 20.5 12.5 19.5 19.5 19.5 19.5 6.5 6.5 6.5 6.5 13.5 5.5 13.5 5.5 5.5 20.5 5.5"/><polygon class="cls-2" points="20.5 5.5 20.5 20.5 12.5 20.5 12.5 19.5 19.5 19.5 19.5 6.5 6.5 6.5 6.5 13.5 5.5 13.5 5.5 5.5 20.5 5.5"/><path class="cls-3" d="M5.5,5.5v8h1v-7h13v13h-7v1h8V5.5Z"/><rect class="cls-1" x="6.5" y="15.5" width="4" height="4"/><path class="cls-3" d="M5.5,14.5v6h6v-6Zm5,5h-4v-4h4Z"/><polygon class="cls-3" points="17.13 8.87 17.13 13.14 16.09 13.14 16.09 10.64 12.54 14.19 12.5 14.15 11.85 13.5 11.81 13.46 15.35 9.91 12.85 9.91 12.85 8.87 17.13 8.87"/></svg>