<?xml version="1.0" encoding="UTF-8" ?>
<!DOCTYPE svg PUBLIC "-//W3C//DTD SVG 1.1//EN" "http://www.w3.org/Graphics/SVG/1.1/DTD/svg11.dtd">
<svg width="512pt" height="512pt" viewBox="0 0 512 512" version="1.1" xmlns="http://www.w3.org/2000/svg">
<g id="#fefefeff">
<path opacity="1.00" d=" M 252.53 0.00 L 261.56 0.00 C 302.10 0.97 342.41 11.52 378.01 31.00 C 426.07 57.06 465.38 98.90 488.32 148.53 C 503.15 180.29 511.07 215.15 512.00 250.16 L 512.00 261.53 C 511.00 303.52 499.70 345.27 478.89 381.78 C 448.10 436.49 396.55 479.12 336.94 498.87 C 311.96 507.23 285.70 511.58 259.37 512.00 L 254.55 512.00 C 211.68 511.78 168.90 500.59 131.50 479.61 C 82.55 452.36 42.99 408.65 20.87 357.16 C 7.41 326.08 0.36 292.30 0.00 258.45 L 0.00 254.46 C 0.22 223.63 5.95 192.82 17.10 164.06 C 36.19 114.35 71.30 71.03 115.84 41.89 C 156.17 15.26 204.21 0.61 252.53 0.00 M 236.55 37.84 C 202.98 40.75 170.16 51.67 141.50 69.37 C 102.30 93.39 71.01 130.05 53.50 172.56 C 37.89 210.11 33.27 252.07 39.98 292.15 C 45.77 327.23 60.43 360.78 82.09 388.96 C 100.26 412.76 123.40 432.74 149.53 447.35 C 193.28 472.00 245.68 480.53 295.05 471.53 C 333.56 464.64 370.02 447.02 399.50 421.33 C 427.65 396.93 449.45 365.25 462.08 330.19 C 478.87 283.93 479.32 231.96 463.35 185.42 C 445.06 131.25 404.56 85.11 353.31 59.81 C 317.43 41.83 276.50 34.25 236.55 37.84 Z" />
<path opacity="1.00" d=" M 149.42 148.69 C 152.17 147.72 155.13 147.99 157.99 147.95 C 224.67 147.97 291.35 147.94 358.03 147.97 C 365.95 147.72 373.00 155.06 372.54 162.95 C 372.44 170.47 365.66 177.12 358.11 176.95 C 290.03 176.98 221.95 176.98 153.87 176.95 C 146.69 177.07 140.15 171.06 139.55 163.92 C 138.76 157.36 143.14 150.69 149.42 148.69 Z" />
<path opacity="1.00" d=" M 148.37 242.64 C 150.44 241.73 152.73 241.47 154.98 241.49 C 221.65 241.50 288.33 241.51 355.00 241.49 C 359.98 241.11 365.38 242.30 368.76 246.24 C 374.34 252.01 373.58 262.32 367.23 267.23 C 363.61 270.41 358.60 270.73 354.02 270.51 C 287.35 270.49 220.68 270.52 154.01 270.49 C 146.94 270.68 140.37 264.93 139.60 257.91 C 138.62 251.58 142.51 245.07 148.37 242.64 Z" />
<path opacity="1.00" d=" M 149.52 335.74 C 152.25 334.83 155.17 335.07 158.00 335.04 C 224.70 335.06 291.39 335.02 358.09 335.06 C 365.99 334.84 373.02 342.11 372.54 350.00 C 372.51 357.59 365.60 364.27 358.00 364.02 C 290.00 364.04 222.01 364.03 154.01 364.02 C 148.31 364.13 142.82 360.48 140.63 355.23 C 137.16 347.72 141.67 338.12 149.52 335.74 Z" />
</g>
</svg>
