<?xml version="1.0" encoding="UTF-8"?>
<!DOCTYPE svg PUBLIC "-//W3C//DTD SVG 1.1//EN" "http://www.w3.org/Graphics/SVG/1.1/DTD/svg11.dtd">
<!-- Creator: CorelDRAW 2017 -->
<svg xmlns="http://www.w3.org/2000/svg" xml:space="preserve" width="10cm" height="10cm" version="1.1" style="shape-rendering:geometricPrecision; text-rendering:geometricPrecision; image-rendering:optimizeQuality; fill-rule:evenodd; clip-rule:evenodd"
viewBox="0 0 8.38 8.38"
 xmlns:xlink="http://www.w3.org/1999/xlink">
 <g>
  <path d="M8.27 7.73l-2.34 -2.35c0.45,-0.57 0.72,-1.28 0.72,-2.06 0,-1.84 -1.49,-3.32 -3.32,-3.32 -1.83,0 -3.33,1.49 -3.33,3.32 0,1.83 1.49,3.32 3.32,3.32 0.78,0 1.49,-0.27 2.06,-0.72l2.35 2.35c0.08,0.08 0.17,0.11 0.27,0.11 0.09,0 0.19,-0.04 0.27,-0.11 0.15,-0.14 0.15,-0.39 0,-0.53zm-7.51 -4.41c0,-1.42 1.15,-2.56 2.56,-2.56 1.41,0 2.56,1.15 2.56,2.56 0,1.41 -1.14,2.57 -2.56,2.57 -1.42,0 -2.56,-1.15 -2.56,-2.57z"/>
 </g>
</svg>
