<svg id="Слой_1" data-name="Слой 1" xmlns="http://www.w3.org/2000/svg" viewBox="0 0 512 645"><defs><style>.cls-1{fill:#fefefe;}</style></defs><g id="_fefefeff" data-name="#fefefeff"><path class="cls-1" d="M254.91,586.5c-3.66-.4-6.71-3.71-8.36-6.7l-.27-.49-.32-.47L225.5,548.67,223.68,546q-14.62-21.56-29.23-43.13L192,499.29,187.9,498A226,226,0,0,1,41.23,351.21a229.21,229.21,0,0,1-10.35-62.83v-9.53A224.81,224.81,0,0,1,133,95,224.23,224.23,0,0,1,250.32,58.5h11.16A225.08,225.08,0,0,1,481.12,277.88V288.4A225.17,225.17,0,0,1,324.12,498L320,499.27l-2.43,3.59q-14.38,21.23-28.78,42.44l-2.31,3.41L263.81,582.1l-.17.25a9.48,9.48,0,0,1-7.1,4.15Zm.93-509.74a205.34,205.34,0,0,0-104.66,28.56,206.7,206.7,0,0,0-100.32,205A204.32,204.32,0,0,0,93.12,410.94a207.38,207.38,0,0,0,105,71.05l.27.08.32.08a10.31,10.31,0,0,1,6.25,3.79q12.48,18.29,24.85,36.58,7.92,11.7,15.86,23.38L256,561.08l10.32-15.17q11.13-16.36,22.23-32.75l.81-1.19,17.27-25.47.13-.19a9.94,9.94,0,0,1,6-4l.2-.05.24-.06a208,208,0,0,0,102.2-66.9,204.42,204.42,0,0,0,45.18-100.71,206.64,206.64,0,0,0-92.64-204.9A205.07,205.07,0,0,0,265.27,77C262.16,76.83,259,76.76,255.84,76.76Z"/><path class="cls-1" d="M256.22,202.86a13,13,0,0,1-12.48-9.76l-.07-.28a9.06,9.06,0,0,1,.57-5.76,12.31,12.31,0,0,1,6.3-6.77l.29-.12.34-.16a10.8,10.8,0,0,1,4.55-1,12.74,12.74,0,0,1,12.08,8.85l.1.31c1.33,4.05-1.35,9.79-4.55,12l-.27.18-.3.24A10.44,10.44,0,0,1,256.22,202.86Z"/><path class="cls-1" d="M255.77,376.21a18.73,18.73,0,0,1-9.73-2.47,6.35,6.35,0,0,1-1.07-.83q0-20.45,0-40.89v-1.74q0-35.91,0-71.82a11,11,0,0,1,4.37-1.85,34.75,34.75,0,0,1,6.86-.71,22,22,0,0,1,10.23,2.22,5.22,5.22,0,0,1,.85.56c0,21.19,0,42.87,0,62q0,24.66,0,49.24c0,.53,0,1.1,0,1.66,0,.36,0,.72,0,1a14.21,14.21,0,0,1-6.22,3A24.73,24.73,0,0,1,255.77,376.21Z"/></g></svg>