<!-- Generated by IcoMoon.io -->
<svg version="1.1" xmlns="http://www.w3.org/2000/svg" width="1024" height="1024" viewBox="0 0 1024 1024">
<title></title>
<g id="icomoon-ignore">
</g>
<path d="M672 341.333c-41.311-38.751-97.047-62.555-158.342-62.555-127.953 0-231.68 103.727-231.68 231.68 0 55.233 19.328 105.951 51.589 145.761l-0.34-0.433c40.211 51.712 66.221 116.268 71.191 186.634l0.062 1.099s-2.987 20.48 15.36 21.333h184.747c20.053 0 15.36-25.173 15.36-25.173 4.994-69.598 30.537-132.406 70.522-183.338l-0.549 0.725c33.478-39.842 53.816-91.698 53.816-148.304 0-65.826-27.503-125.228-71.645-167.342l-0.091-0.086zM501.333 834.133l-35.84-216.32h95.573l-35.413 216.32zM667.307 637.013c-42.751 54.065-70.692 121.625-76.714 195.388l-0.086 1.305h-35.84l37.973-228.693c0.123-0.741 0.194-1.595 0.194-2.465 0-7.579-5.34-13.91-12.463-15.436l-0.104-0.019h-133.973c-8.483 0-15.36 6.877-15.36 15.36v0 2.56l38.4 229.12h-34.133c-7.379-75.493-35.588-143.254-78.731-198.846l0.651 0.872c-28.675-34.435-46.080-79.134-46.080-127.898 0-110.752 89.782-200.533 200.533-200.533s200.533 89.782 200.533 200.533c0 48.764-17.405 93.463-46.343 128.222l0.263-0.325z"></path>
<path d="M606.293 904.107h-188.587c-8.483 0-15.36 6.877-15.36 15.36s6.877 15.36 15.36 15.36h14.507c6.529 38.781 39.857 67.959 80 67.959s73.471-29.178 79.934-67.483l0.066-0.476h14.080c8.483 0 15.36-6.877 15.36-15.36s-6.877-15.36-15.36-15.36v0zM512 972.373c-0.134 0.001-0.293 0.002-0.451 0.002-21.686 0-40.114-13.947-46.805-33.361l-0.104-0.348h94.72c-6.538 20.205-25.186 34.56-47.187 34.56-0.061 0-0.122 0-0.183 0h0.009z"></path>
</svg>
