<svg width="291pt" height="330pt" viewBox="0 0 291 330" version="1.1" xmlns="http://www.w3.org/2000/svg">
	<g>
		<path d=" M 141.71 0.00 L 144.07 0.00 C 147.53 1.83 151.58 0.66 155.31 1.13 C 157.57 2.36 160.27 1.73 162.62 2.70 C 163.07 2.84 163.96 3.11 164.41 3.25 C 166.13 3.80 167.89 4.21 169.61 4.78 C 170.07 4.86 171.00 5.03 171.47 5.12 C 172.48 5.66 173.49 6.22 174.49 6.81 C 175.44 7.07 176.40 7.34 177.36 7.61 C 179.09 8.50 180.81 9.43 182.56 10.28 C 183.55 10.74 184.52 11.22 185.50 11.71 C 187.50 12.99 189.51 14.25 191.41 15.68 C 192.84 16.53 194.22 17.47 195.63 18.36 C 196.90 19.46 198.19 20.55 199.68 21.33 C 204.26 26.05 209.62 30.20 213.33 35.65 C 214.44 36.89 215.56 38.11 216.69 39.33 C 217.54 40.77 218.45 42.16 219.31 43.59 C 220.95 45.78 222.46 48.07 223.76 50.47 C 224.57 51.84 225.43 53.17 226.27 54.51 C 226.79 55.47 227.27 56.45 227.71 57.44 C 228.39 58.78 229.11 60.10 229.78 61.45 C 230.45 63.08 231.11 64.72 231.74 66.37 C 232.51 68.49 233.47 70.54 234.29 72.65 C 234.64 73.58 234.99 74.51 235.34 75.44 C 235.83 77.15 236.20 78.90 236.73 80.61 C 236.87 81.05 237.14 81.93 237.28 82.37 C 237.67 83.70 238.01 85.03 238.37 86.37 C 238.82 87.99 239.05 89.67 239.29 91.34 C 239.86 93.44 240.08 95.63 240.82 97.69 C 241.09 100.02 240.61 102.56 241.87 104.68 C 242.44 109.59 241.28 114.69 242.51 119.49 C 250.39 121.12 258.77 118.80 266.64 120.65 C 267.86 120.97 269.10 121.27 270.33 121.59 C 273.21 122.99 275.99 124.60 278.69 126.32 C 280.79 128.22 282.79 130.23 284.70 132.33 C 285.53 133.75 286.44 135.13 287.32 136.54 C 287.84 137.87 288.29 139.24 288.78 140.59 C 288.91 141.03 289.16 141.92 289.28 142.36 C 290.36 144.71 289.47 147.54 291.00 149.72 L 291.00 299.07 C 289.82 301.40 290.05 304.07 289.45 306.55 C 288.55 308.92 287.46 311.21 286.29 313.45 C 284.92 317.37 281.56 319.92 278.68 322.70 C 277.26 323.52 275.89 324.42 274.48 325.26 C 273.10 325.96 271.73 326.70 270.35 327.42 C 269.11 327.72 267.87 328.02 266.64 328.34 C 265.45 328.78 264.24 329.00 262.99 329.01 C 186.33 328.99 109.68 328.99 33.03 329.01 C 30.14 328.89 27.09 329.48 24.36 328.27 C 23.92 328.15 23.03 327.92 22.58 327.80 C 21.27 327.28 19.93 326.82 18.61 326.33 C 15.32 325.24 13.22 322.42 10.44 320.56 C 9.23 318.80 7.83 317.19 6.35 315.66 C 5.67 314.60 4.98 313.54 4.29 312.49 C 3.97 311.56 3.65 310.63 3.32 309.70 C 2.55 308.08 1.93 306.40 1.66 304.62 C 1.22 303.46 0.99 302.26 0.99 301.03 C 1.01 251.69 1.01 202.35 0.99 153.01 C 1.07 150.13 0.60 147.14 1.65 144.38 C 2.00 142.68 2.49 141.03 3.18 139.44 C 3.93 138.12 4.61 136.75 5.22 135.36 C 6.42 133.22 8.08 131.40 9.34 129.31 C 9.99 128.64 10.65 127.99 11.31 127.35 C 13.42 126.06 15.27 124.39 17.43 123.18 C 17.96 122.93 19.02 122.41 19.55 122.15 C 20.00 122.05 20.91 121.85 21.36 121.75 C 22.69 121.34 24.03 120.99 25.36 120.62 C 31.78 119.21 38.47 120.37 45.00 120.00 C 45.04 115.23 44.87 110.45 45.13 105.69 C 46.37 103.56 45.92 101.03 46.17 98.69 C 47.16 96.84 46.99 94.69 47.22 92.68 C 47.90 90.62 48.19 88.47 48.63 86.37 C 48.98 85.03 49.33 83.70 49.72 82.38 C 49.86 81.94 50.13 81.05 50.27 80.61 C 50.80 78.90 51.17 77.15 51.66 75.44 C 52.01 74.51 52.36 73.58 52.71 72.65 C 53.50 70.51 54.50 68.45 55.32 66.32 C 55.64 65.39 55.95 64.46 56.27 63.53 C 57.33 61.14 58.64 58.88 59.74 56.51 C 59.98 56.01 60.46 55.02 60.69 54.52 C 61.53 53.17 62.42 51.84 63.24 50.48 C 64.26 48.75 65.24 47.00 66.34 45.32 C 66.68 44.91 67.34 44.09 67.68 43.68 C 68.52 42.22 69.43 40.80 70.30 39.35 C 71.79 37.80 73.36 36.26 74.34 34.32 C 78.71 30.05 82.55 25.06 87.65 21.66 C 88.90 20.56 90.12 19.43 91.34 18.29 C 92.80 17.44 94.22 16.53 95.68 15.68 C 96.09 15.34 96.92 14.68 97.33 14.35 C 99.32 12.99 101.41 11.80 103.54 10.69 C 105.27 10.05 106.78 8.97 108.48 8.26 C 108.99 8.01 110.00 7.52 110.51 7.27 C 111.45 6.95 112.39 6.63 113.33 6.32 C 114.70 5.74 116.05 5.11 117.46 4.62 C 119.18 4.18 120.91 3.79 122.61 3.27 C 123.05 3.13 123.92 2.84 124.36 2.69 C 126.73 1.78 129.41 2.32 131.70 1.13 C 135.00 0.62 138.75 1.92 141.71 0.00 M 132.54 23.90 C 130.88 24.17 128.84 23.47 127.54 24.85 C 126.19 25.12 124.52 24.65 123.54 25.88 C 123.02 25.95 121.99 26.08 121.47 26.14 C 120.28 26.90 118.88 27.17 117.59 27.67 C 114.54 29.25 111.47 30.78 108.38 32.29 C 96.58 39.42 86.66 49.77 79.28 61.38 C 78.74 62.98 77.30 64.04 76.66 65.61 C 76.05 66.96 75.35 68.28 74.70 69.61 C 74.06 70.96 73.34 72.26 72.66 73.59 C 72.11 75.30 71.45 76.97 70.74 78.61 C 70.19 79.87 69.79 81.18 69.27 82.45 C 69.16 83.58 68.78 84.58 68.12 85.47 C 68.06 85.98 67.94 87.02 67.89 87.54 C 66.66 88.52 67.12 90.19 66.85 91.54 C 65.10 93.10 66.95 95.99 65.07 97.47 C 64.71 99.43 65.78 101.99 64.05 103.45 C 63.46 106.70 65.14 110.73 63.04 113.46 C 63.12 115.45 62.56 117.62 63.54 119.47 C 64.89 120.27 66.52 119.92 68.01 120.02 C 119.03 119.97 170.05 120.02 221.07 120.00 C 224.93 120.52 224.81 114.57 223.06 112.52 C 222.95 109.50 223.04 106.48 222.95 103.46 C 221.22 101.98 222.28 99.42 221.93 97.45 C 220.01 96.02 221.93 93.08 220.15 91.55 C 219.87 90.20 220.36 88.51 219.11 87.55 C 219.05 87.03 218.94 85.99 218.88 85.47 C 218.21 84.58 217.83 83.58 217.74 82.44 C 217.19 81.19 216.80 79.87 216.26 78.61 C 215.54 76.97 214.89 75.30 214.33 73.59 C 212.98 70.93 211.60 68.29 210.34 65.59 C 209.68 64.04 208.27 62.97 207.72 61.37 C 206.93 58.99 204.55 57.66 203.73 55.32 C 201.26 53.05 199.98 49.80 197.25 47.75 C 193.50 44.54 190.69 40.07 186.32 37.73 C 184.35 35.62 181.84 34.16 179.41 32.66 C 177.38 31.72 175.40 30.67 173.38 29.70 C 172.05 29.04 170.73 28.37 169.43 27.66 C 168.47 27.24 167.48 26.93 166.46 26.74 C 165.52 26.22 164.52 25.89 163.44 25.76 C 162.35 24.75 160.79 25.08 159.45 24.85 C 158.16 23.46 156.11 24.17 154.46 23.90 L 153.56 23.18 C 148.07 22.71 142.50 23.17 136.98 22.97 C 135.50 23.15 133.60 22.49 132.54 23.90 M 140.46 173.05 C 138.69 174.91 135.75 173.64 133.48 174.06 C 132.21 175.53 129.99 174.57 128.54 175.73 C 127.08 176.03 125.71 176.61 124.37 177.25 C 123.07 177.98 121.74 178.68 120.37 179.26 C 116.12 182.13 111.11 184.94 108.75 189.70 C 107.51 190.82 106.30 192.03 105.72 193.64 C 104.76 194.79 103.79 195.96 103.22 197.37 C 102.37 199.43 101.66 201.56 100.74 203.60 C 99.80 204.70 100.05 206.22 99.85 207.55 C 98.30 209.13 99.25 211.57 98.93 213.53 C 97.41 215.29 97.42 218.71 98.94 220.48 C 99.00 222.50 98.99 224.52 99.06 226.54 C 100.59 227.77 99.51 230.04 100.75 231.45 C 100.97 233.25 101.87 234.82 102.70 236.40 C 103.37 237.72 104.05 239.05 104.64 240.41 C 107.49 244.77 110.86 248.78 114.80 252.23 C 116.22 253.24 117.99 253.86 118.89 255.46 C 119.30 263.15 118.66 270.90 119.17 278.57 L 119.94 279.47 C 120.24 281.77 119.32 284.43 120.75 286.46 C 120.91 287.49 121.22 288.47 121.67 289.41 C 123.65 293.97 127.57 297.56 131.58 300.34 C 132.08 300.58 133.08 301.07 133.58 301.32 C 134.52 301.77 135.51 302.08 136.55 302.25 C 138.07 303.52 140.17 302.85 141.96 303.04 C 143.78 302.85 145.88 303.50 147.45 302.27 C 148.92 301.97 150.29 301.37 151.67 300.79 C 155.52 298.51 158.90 295.13 161.34 291.40 C 162.11 289.80 163.05 288.24 163.24 286.44 C 163.42 286.07 163.78 285.33 163.96 284.96 C 164.13 280.13 163.88 275.29 164.06 270.46 L 164.83 269.57 C 165.37 264.90 164.67 260.14 165.11 255.46 C 166.44 253.27 169.24 252.79 170.76 250.77 C 172.57 248.61 175.27 247.08 176.27 244.32 C 177.68 242.96 178.96 241.45 179.76 239.64 C 180.21 238.52 180.76 237.45 181.29 236.38 C 182.15 234.82 183.02 233.24 183.25 231.45 C 184.48 230.03 183.42 227.77 184.93 226.54 C 185.00 224.51 184.99 222.49 185.06 220.46 C 186.56 219.02 186.56 215.97 185.06 214.54 C 184.99 212.51 185.00 210.49 184.93 208.47 C 183.43 207.22 184.45 204.98 183.27 203.55 C 182.97 202.08 182.39 200.71 181.75 199.37 C 180.11 195.25 176.92 192.05 174.74 188.31 C 171.26 184.38 166.78 181.51 162.42 178.65 C 161.05 178.07 159.72 177.38 158.43 176.66 C 157.47 176.23 156.49 175.92 155.46 175.74 C 154.52 175.23 153.52 174.90 152.45 174.76 C 150.52 172.96 147.25 175.16 145.55 173.04 C 143.85 172.99 142.15 172.99 140.46 173.05 Z" />
	</g>
</svg>
