<?xml version="1.0" encoding="UTF-8"?>
<!DOCTYPE svg PUBLIC "-//W3C//DTD SVG 1.1//EN" "http://www.w3.org/Graphics/SVG/1.1/DTD/svg11.dtd">
<!-- Creator: CorelDRAW 2017 -->
<svg xmlns="http://www.w3.org/2000/svg" xml:space="preserve" width="22cm" height="19.9146cm" version="1.1" style="shape-rendering:geometricPrecision; text-rendering:geometricPrecision; image-rendering:optimizeQuality; fill-rule:evenodd; clip-rule:evenodd"
viewBox="0 0 94.66 85.68"
 xmlns:xlink="http://www.w3.org/1999/xlink">
 <g id="Warstwa_x0020_1">
  <metadata id="CorelCorpID_0Corel-Layer"/>
  <g id="_2574174548640">
   <path class="fil0 str0" d="M46.81 20.34c-0.13,-0.17 -0.34,-0.27 -0.56,-0.27l-12.67 0.38 -10.1 -5.82c-0.03,-0.01 -0.05,-0.01 -0.08,-0.03 -0.07,-0.03 -0.14,-0.05 -0.21,-0.06l-12.47 -0.91c-0.32,-0.03 -0.61,0.18 -0.7,0.48l-8.39 27.93c-0.06,0.2 -0.03,0.41 0.09,0.58 0.09,0.13 0.22,0.22 0.36,0.27 0.05,0.01 0.1,0.03 0.15,0.03l12.33 0.9 10.34 5.2c0.03,0.02 0.07,0.03 0.11,0.05 0.08,0.02 0.16,0.03 0.24,0.03 0,0 0,0 0.01,0l13.06 -1.03c0.28,-0.03 0.52,-0.22 0.6,-0.48l8 -26.63c0.06,-0.21 0.02,-0.43 -0.11,-0.61zm-35.64 -5.32l11.08 0.81 -7.99 26.6 -11.08 -0.81 7.99 -26.6zm12.38 1.22l9.06 5.22 -7.81 25.99 -9.23 -4.64 7.98 -26.56zm14.2 30.5l-11.6 0.92 7.76 -25.86 11.43 -0.34 -7.6 25.28z"/>
  </g>
  <path class="fil0" d="M27.91 9.11c2.84,-1.69 5.92,-3.05 9.2,-4.02 10.08,-2.97 20.72,-1.84 29.95,3.19 9.21,5.02 15.95,13.34 18.92,23.42l-3.88 -2.12c-0.85,-0.46 -1.88,-0.15 -2.35,0.69 -0.44,0.83 -0.15,1.88 0.68,2.34l0.02 0.01 7.55 4.11c0.4,0.22 0.87,0.27 1.32,0.14 0.44,-0.14 0.8,-0.43 1.03,-0.83l4.11 -7.55c0.45,-0.85 0.16,-1.91 -0.69,-2.35 -0.85,-0.45 -1.88,-0.15 -2.35,0.69l-2.12 3.88c-3.23,-10.97 -10.53,-20.01 -20.56,-25.48 -10.05,-5.45 -21.63,-6.71 -32.6,-3.47 -4.14,1.22 -8.05,3.04 -11.6,5.4l3.38 1.95z"/>
  <path class="fil0" d="M89.54 71.72l-11.33 -11.29c2.15,-2.76 3.47,-6.2 3.45,-9.97 -0.03,-8.85 -7.26,-15.98 -16.07,-15.95 -8.81,0.03 -16.03,7.26 -16,16.07 0.03,8.81 7.26,15.99 16.07,15.95 3.76,-0.01 7.2,-1.31 9.94,-3.52l11.38 11.29c0.37,0.36 0.83,0.55 1.28,0.54 0.46,0 0.92,-0.19 1.28,-0.55 0.73,-0.69 0.73,-1.88 -0.01,-2.57zm-36.27 -21.15c-0.03,-6.84 5.51,-12.36 12.3,-12.38 6.79,-0.03 12.36,5.51 12.38,12.3 0.03,6.79 -5.46,12.41 -12.3,12.43 -6.83,0.03 -12.36,-5.51 -12.38,-12.34z"/>
  <path class="fil0" d="M59.33 80.59c-20.81,6.13 -42.72,-5.82 -48.87,-26.61l3.88 2.12c0.85,0.45 1.88,0.15 2.35,-0.69 0.45,-0.84 0.15,-1.88 -0.67,-2.34l-0.02 -0.01 -7.55 -4.11 -0.83 -0.21c-0.61,0 -1.19,0.32 -1.52,0.9l-4.11 7.56c-0.44,0.83 -0.15,1.88 0.67,2.34l0.02 0c0.85,0.46 1.88,0.15 2.35,-0.68l2.12 -3.88c3.3,11.14 10.72,19.95 20.15,25.23 9.71,5.44 21.51,7.12 33,3.74 5.84,-1.72 11.2,-4.64 15.76,-8.54l-1.67 -3.1c-4.25,3.76 -9.35,6.62 -15.06,8.3z"/>
 </g>
</svg>
