<svg width="1025pt" height="1000pt" viewBox="0 0 1025 1000" version="1.1" xmlns="http://www.w3.org/2000/svg">
	<g>
		<path d=" M 352.80 0.00 L 358.31 0.00 C 364.47 0.81 370.69 1.85 376.25 4.79 C 467.80 53.33 559.41 101.78 650.99 150.26 C 740.20 113.62 829.41 76.96 918.62 40.31 C 924.23 37.97 929.93 35.50 936.06 34.90 C 946.50 33.56 957.30 36.15 966.16 41.80 C 978.99 49.88 986.96 64.85 986.90 79.97 C 986.91 217.99 986.90 356.01 986.91 494.03 C 986.73 506.67 981.06 519.19 971.44 527.44 C 961.12 536.60 946.49 540.67 932.94 537.93 C 915.15 534.80 900.17 519.91 896.95 502.14 C 895.73 496.52 896.12 490.76 896.08 485.06 C 896.07 372.60 896.09 260.13 896.07 147.67 C 828.71 175.39 761.36 203.13 694.00 230.86 C 694.00 306.90 693.98 382.94 694.01 458.97 C 693.95 470.99 689.03 482.99 680.31 491.31 C 674.22 497.41 666.28 501.61 657.84 503.34 C 643.06 506.61 626.71 501.71 616.25 490.74 C 607.82 482.50 603.14 470.73 603.09 458.99 C 603.10 381.93 603.09 304.88 603.09 227.82 C 535.77 192.16 468.42 156.54 401.09 120.90 C 401.06 332.67 401.13 544.44 401.06 756.22 C 431.97 769.58 462.95 782.78 493.89 796.08 C 508.85 802.14 519.71 816.84 521.47 832.85 C 523.34 848.57 516.20 864.99 503.38 874.28 C 490.97 883.71 473.55 886.02 459.18 879.92 C 424.01 864.91 388.86 849.83 353.71 834.77 C 258.23 866.55 162.76 898.37 67.29 930.17 C 61.99 931.90 56.73 933.99 51.15 934.61 C 38.15 936.34 24.55 931.93 14.92 923.06 C 5.44 914.81 0.13 902.31 0.00 889.82 L 0.00 148.27 C 0.10 129.62 12.79 111.93 30.41 105.85 C 135.03 70.95 239.67 36.11 344.29 1.20 C 347.07 0.51 349.97 0.43 352.80 0.00 M 90.88 181.61 C 90.99 396.60 90.90 611.59 90.93 826.57 C 164.02 802.21 237.12 777.89 310.20 753.50 C 310.17 538.49 310.19 323.48 310.18 108.47 C 237.09 132.87 163.93 157.09 90.88 181.61 Z" />
		<path d=" M 869.67 169.00 C 872.66 166.02 875.67 163.04 878.68 160.06 C 878.68 166.05 878.68 172.04 878.68 178.03 C 875.67 175.03 872.66 172.02 869.67 169.00 Z" />
		<path d=" M 679.24 553.34 C 710.89 536.84 746.33 527.73 782.01 526.85 C 819.70 525.80 857.63 533.88 891.54 550.40 C 947.80 577.46 992.35 627.72 1012.32 686.88 C 1026.25 727.58 1028.69 772.10 1019.49 814.12 C 1012.10 848.07 997.01 880.30 975.76 907.79 C 955.52 934.03 929.74 955.97 900.57 971.70 C 867.28 989.76 829.58 999.40 791.74 1000.00 L 788.16 1000.00 C 739.09 1000.06 690.16 984.38 650.38 955.63 C 607.83 925.19 575.80 880.29 561.18 830.02 C 548.82 787.99 548.48 742.50 560.16 700.27 C 568.46 670.14 582.88 641.72 602.23 617.17 C 623.00 590.76 649.43 568.83 679.24 553.34 M 877.76 664.74 C 874.36 669.20 875.17 675.97 879.29 679.70 C 884.13 684.14 889.11 688.44 894.00 692.83 C 880.01 692.87 866.02 692.78 852.03 692.88 C 826.20 693.48 799.95 704.24 783.39 724.50 C 774.07 735.84 768.37 750.29 768.40 765.04 C 768.51 775.10 763.90 784.84 756.79 791.82 C 746.92 801.64 732.88 806.69 719.07 806.66 C 697.38 806.67 675.69 806.67 654.01 806.65 C 649.92 806.51 645.73 807.04 642.07 808.95 C 636.79 811.52 632.65 817.00 632.94 823.05 C 633.09 829.24 637.76 834.52 643.33 836.78 C 647.30 838.56 651.73 838.57 656.00 838.49 C 677.33 838.47 698.66 838.50 719.99 838.47 C 744.22 838.24 768.81 829.37 786.12 812.12 C 796.65 801.68 804.14 787.90 805.91 773.08 C 806.58 768.43 806.05 763.68 806.98 759.07 C 808.42 751.17 812.65 743.92 818.43 738.40 C 828.14 729.07 841.71 724.40 855.04 724.30 C 868.03 724.27 881.02 724.30 894.01 724.29 C 888.98 728.83 883.80 733.20 878.88 737.85 C 874.72 741.93 874.55 749.11 878.51 753.39 C 884.74 760.42 896.53 760.47 903.42 754.34 C 917.36 741.97 931.29 729.58 945.20 717.16 C 950.14 713.04 950.44 704.81 945.67 700.43 C 931.63 687.79 917.45 675.29 903.35 662.71 C 896.28 656.17 883.55 656.84 877.76 664.74 M 635.22 703.20 C 632.47 707.25 632.12 712.83 634.63 717.08 C 638.07 723.11 645.24 726.20 652.00 726.07 C 674.02 726.08 696.03 726.06 718.05 726.08 C 731.69 726.14 745.39 731.32 755.15 740.97 C 759.32 730.30 765.86 720.68 773.84 712.50 C 757.85 701.40 738.52 695.29 719.06 695.08 C 696.72 695.03 674.38 695.07 652.04 695.05 C 645.59 694.92 638.82 697.69 635.22 703.20 M 873.82 780.82 C 871.08 785.29 872.31 791.40 876.20 794.79 C 880.67 798.81 885.21 802.76 889.74 806.73 C 877.16 806.73 864.58 806.74 852.00 806.73 C 838.25 806.73 824.43 801.51 814.58 791.83 C 810.45 802.54 803.75 812.04 795.95 820.38 C 811.77 831.26 830.77 837.39 849.98 837.71 C 863.58 837.79 877.20 837.72 890.81 837.75 C 885.91 842.19 880.93 846.54 876.05 851.01 C 872.78 853.97 871.36 858.92 873.03 863.08 C 877.32 873.60 892.63 874.79 900.26 867.26 C 912.78 856.10 925.29 844.93 937.81 833.78 C 940.06 831.73 942.67 829.83 943.83 826.91 C 945.78 822.60 944.37 817.27 940.87 814.20 C 928.66 803.36 916.40 792.59 904.17 781.78 C 901.01 779.11 898.14 775.82 894.09 774.51 C 887.00 771.94 877.78 774.04 873.82 780.82 Z" />
	</g>
</svg>
