<?xml version="1.0" encoding="UTF-8" ?>
<!DOCTYPE svg PUBLIC "-//W3C//DTD SVG 1.1//EN" "http://www.w3.org/Graphics/SVG/1.1/DTD/svg11.dtd">
<svg width="512pt" height="512pt" viewBox="0 0 512 512" version="1.1" xmlns="http://www.w3.org/2000/svg">
	<g>
		<path d=" M 0.00 0.00 L 0.11 0.00 C 0.08 0.03 0.03 0.10 0.00 0.13 L 0.00 0.00 Z" />
		<path d=" M 216.38 62.41 C 242.80 62.47 269.23 62.61 295.65 62.34 C 295.36 113.68 295.61 165.02 295.53 216.36 C 323.00 216.67 350.49 216.41 377.97 216.49 C 401.86 216.41 425.75 216.66 449.63 216.37 C 449.43 242.78 449.44 269.19 449.63 295.60 C 419.09 295.33 388.54 295.56 357.99 295.49 C 337.17 295.60 316.33 295.26 295.52 295.65 C 295.61 346.98 295.36 398.32 295.65 449.64 C 269.23 449.40 242.80 449.49 216.38 449.59 C 216.73 398.74 216.38 347.88 216.55 297.03 C 216.62 296.50 216.76 295.45 216.82 294.93 C 214.75 296.02 212.23 295.31 209.98 295.49 C 160.78 295.56 111.57 295.34 62.37 295.60 C 62.55 269.20 62.54 242.80 62.37 216.40 C 108.91 216.67 155.46 216.44 202.01 216.52 C 206.83 216.98 212.19 215.56 216.68 217.26 C 216.21 165.66 216.82 114.02 216.38 62.41 Z" />
	</g>
</svg>
