<?xml version="1.0" encoding="UTF-8" ?>
<!DOCTYPE svg PUBLIC "-//W3C//DTD SVG 1.1//EN" "http://www.w3.org/Graphics/SVG/1.1/DTD/svg11.dtd">
<svg width="1024pt" height="1138pt" viewBox="0 0 1024 1138" version="1.1" xmlns="http://www.w3.org/2000/svg">
	<g>
		<path d=" M 16.70 0.00 L 1007.14 0.00 C 1015.91 0.45 1023.43 7.94 1024.00 16.69 L 1024.00 306.38 C 1023.56 315.58 1015.25 323.47 1006.01 323.25 C 676.67 323.28 347.34 323.27 18.00 323.25 C 8.87 323.47 0.68 315.80 0.00 306.74 L 0.00 16.87 C 0.45 8.10 7.94 0.56 16.70 0.00 M 35.93 35.92 C 35.93 119.73 35.93 203.54 35.93 287.34 C 257.50 287.35 479.06 287.34 700.63 287.35 C 700.64 203.54 700.63 119.73 700.63 35.93 C 479.07 35.92 257.50 35.92 35.93 35.92 M 736.56 35.92 C 736.56 119.73 736.56 203.54 736.56 287.34 C 820.40 287.35 904.23 287.35 988.07 287.34 C 988.07 203.54 988.07 119.73 988.07 35.92 C 904.23 35.92 820.40 35.92 736.56 35.92 Z" />
		<path d=" M 812.19 80.00 C 827.62 71.95 845.98 69.79 862.90 73.83 C 876.71 77.04 889.45 84.49 899.17 94.79 C 910.80 106.95 917.99 123.24 919.07 140.04 C 920.17 154.90 916.56 170.04 908.92 182.83 C 921.46 195.37 934.01 207.90 946.55 220.44 C 950.71 224.40 952.84 230.39 951.93 236.08 C 951.05 242.55 946.31 248.28 940.15 250.40 C 933.85 252.68 926.36 251.04 921.63 246.29 C 908.89 233.63 896.24 220.88 883.50 208.22 C 869.95 216.35 853.74 219.85 838.04 218.13 C 820.56 216.37 803.90 207.94 792.03 195.01 C 772.52 174.47 767.05 142.23 778.43 116.33 C 785.02 100.79 797.20 87.74 812.19 80.00 M 837.48 108.69 C 827.23 110.99 818.15 117.87 813.10 127.08 C 807.85 136.46 807.00 148.14 810.76 158.21 C 813.83 166.59 820.03 173.75 827.85 178.03 C 836.64 182.92 847.44 183.95 857.02 180.96 C 866.79 177.98 875.12 170.74 879.58 161.57 C 883.93 152.70 884.51 142.08 881.22 132.76 C 877.95 123.38 870.75 115.46 861.75 111.27 C 854.25 107.72 845.56 106.86 837.48 108.69 Z" />
		<path d=" M 0.00 447.37 C 0.48 436.59 10.28 427.37 21.10 427.73 C 76.75 427.72 132.40 427.71 188.06 427.73 C 196.52 427.60 204.67 433.20 207.59 441.14 C 209.39 445.54 208.94 450.36 208.98 455.01 C 208.97 508.36 208.98 561.71 208.98 615.06 C 209.27 622.99 204.67 630.81 197.55 634.34 C 193.73 636.42 189.30 636.74 185.04 636.64 C 130.32 636.59 75.60 636.65 20.89 636.61 C 10.21 636.86 0.62 627.77 0.00 617.16 L 0.00 447.37 M 41.79 469.51 C 41.80 511.29 41.79 553.06 41.80 594.85 C 83.59 594.85 125.39 594.85 167.18 594.84 C 167.18 553.06 167.19 511.28 167.18 469.50 C 125.39 469.50 83.59 469.50 41.79 469.51 Z" />
		<path d=" M 250.84 475.00 C 251.33 464.26 261.25 455.17 271.99 455.57 C 515.65 455.56 759.31 455.55 1002.97 455.57 C 1013.66 455.26 1023.30 464.29 1024.00 474.92 L 1024.00 477.56 C 1023.60 488.35 1013.83 497.65 1003.01 497.33 C 761.34 497.36 519.67 497.33 278.00 497.35 C 273.36 497.32 268.53 497.71 264.14 495.93 C 255.77 492.82 250.06 483.91 250.84 475.00 Z" />
		<path d=" M 266.44 567.65 C 268.26 567.18 270.13 567.01 272.01 566.99 C 391.99 566.98 511.98 566.99 631.97 566.98 C 636.54 566.96 641.32 566.71 645.59 568.67 C 654.17 572.18 659.61 581.88 658.03 591.04 C 656.70 601.08 647.19 609.11 637.07 608.76 C 515.37 608.77 393.67 608.77 271.97 608.76 C 265.55 608.87 259.18 605.84 255.25 600.76 C 250.90 595.33 249.61 587.65 251.92 581.09 C 254.11 574.55 259.76 569.33 266.44 567.65 Z" />
		<path d=" M 0.00 698.35 C 0.31 687.83 9.54 678.56 20.10 678.45 C 75.76 678.35 131.43 678.45 187.09 678.40 C 198.87 677.59 209.66 688.19 208.98 700.00 C 208.95 755.69 209.04 811.39 208.94 867.08 C 208.90 878.04 198.93 887.61 187.99 887.30 C 132.34 887.32 76.68 887.32 21.02 887.30 C 10.20 887.62 0.44 878.34 0.00 867.57 L 0.00 698.35 M 41.80 720.19 C 41.79 761.97 41.80 803.75 41.79 845.53 C 83.59 845.53 125.39 845.54 167.19 845.52 C 167.18 803.74 167.19 761.96 167.18 720.19 C 125.39 720.19 83.59 720.18 41.80 720.19 Z" />
		<path d=" M 263.72 707.83 C 268.23 705.85 273.23 706.27 278.02 706.25 C 519.68 706.27 761.35 706.23 1003.01 706.27 C 1013.89 705.96 1023.72 715.37 1024.00 726.24 L 1024.00 728.35 C 1023.54 739.10 1013.78 748.34 1002.99 748.01 C 761.35 748.05 519.72 748.01 278.08 748.03 C 273.41 747.99 268.53 748.43 264.11 746.60 C 256.17 743.64 250.58 735.44 250.79 726.96 C 250.74 718.73 256.12 710.89 263.72 707.83 Z" />
		<path d=" M 265.39 818.64 C 269.13 817.42 273.10 817.68 276.97 817.67 C 396.98 817.68 517.00 817.67 637.02 817.68 C 643.34 817.55 649.65 820.44 653.59 825.41 C 658.39 831.17 659.62 839.60 656.70 846.51 C 653.26 855.45 643.39 860.50 634.07 859.46 C 513.37 859.44 392.67 859.47 271.97 859.45 C 260.84 859.87 250.70 850.08 250.79 838.94 C 250.48 829.92 256.76 821.23 265.39 818.64 Z" />
		<path d=" M 0.00 949.25 C 0.18 938.34 10.00 928.81 20.92 929.11 C 74.61 929.07 128.30 929.11 181.98 929.09 C 186.57 929.11 191.35 928.73 195.69 930.54 C 203.56 933.50 209.10 941.60 208.96 950.03 C 208.99 1005.69 208.99 1061.35 208.96 1117.01 C 209.26 1127.76 200.11 1137.46 189.40 1138.00 L 19.76 1138.00 C 9.46 1137.58 0.57 1128.71 0.00 1118.44 L 0.00 949.25 M 41.80 970.88 C 41.79 1012.66 41.79 1054.44 41.80 1096.22 C 83.59 1096.22 125.39 1096.22 167.18 1096.22 C 167.19 1054.44 167.19 1012.66 167.18 970.88 C 125.39 970.87 83.59 970.87 41.80 970.88 Z" />
		<path d=" M 253.85 966.96 C 257.58 960.72 264.74 956.80 271.99 956.96 C 513.00 956.95 754.01 956.96 995.02 956.96 C 1000.42 957.06 1006.14 956.32 1011.24 958.61 C 1018.37 961.51 1023.33 968.62 1024.00 976.24 L 1024.00 979.09 C 1023.50 989.80 1013.81 998.97 1003.07 998.72 C 759.37 998.75 515.67 998.73 271.98 998.73 C 265.29 998.82 258.66 995.54 254.77 990.09 C 249.85 983.49 249.47 973.92 253.85 966.96 Z" />
		<path d=" M 269.34 1068.51 C 325.56 1068.17 381.79 1068.46 438.02 1068.36 C 504.37 1068.37 570.71 1068.35 637.06 1068.37 C 644.43 1068.19 651.68 1072.27 655.38 1078.65 C 659.42 1085.33 659.19 1094.31 654.80 1100.78 C 650.96 1106.70 643.96 1110.32 636.91 1110.14 C 515.30 1110.14 393.70 1110.14 272.09 1110.13 C 261.42 1110.58 251.49 1101.66 250.86 1090.99 C 249.66 1080.10 258.45 1069.47 269.34 1068.51 Z" />
	</g>
</svg>
