<?xml version="1.0" encoding="UTF-8" ?>
<!DOCTYPE svg PUBLIC "-//W3C//DTD SVG 1.1//EN" "http://www.w3.org/Graphics/SVG/1.1/DTD/svg11.dtd">
<svg width="1024pt" height="1151pt" viewBox="0 0 1024 1151" version="1.1" xmlns="http://www.w3.org/2000/svg">
	<g>
		<path d=" M 16.63 0.00 L 1007.17 0.00 C 1015.91 0.47 1023.39 7.91 1024.00 16.62 L 1024.00 306.40 C 1023.55 315.61 1015.21 323.50 1005.96 323.25 C 676.64 323.27 347.32 323.28 18.00 323.25 C 8.94 323.47 0.86 315.94 0.00 307.00 L 0.00 16.79 C 0.50 8.07 7.93 0.60 16.63 0.00 M 35.93 35.92 C 35.93 119.73 35.93 203.54 35.93 287.34 C 257.50 287.35 479.06 287.34 700.63 287.35 C 700.64 203.54 700.63 119.73 700.63 35.92 C 479.07 35.92 257.50 35.92 35.93 35.92 M 736.56 35.92 C 736.56 119.73 736.56 203.54 736.56 287.34 C 820.40 287.35 904.23 287.35 988.07 287.34 C 988.07 203.54 988.07 119.73 988.07 35.92 C 904.23 35.92 820.40 35.92 736.56 35.92 Z" />
		<path d=" M 812.15 80.02 C 825.54 73.03 841.14 70.46 856.08 72.55 C 871.26 74.61 885.69 81.64 896.69 92.30 C 908.04 103.11 915.77 117.66 918.26 133.14 C 921.12 150.12 917.78 168.05 908.92 182.83 C 921.47 195.37 934.02 207.91 946.56 220.45 C 950.72 224.42 952.84 230.41 951.93 236.11 C 951.04 242.58 946.28 248.31 940.11 250.41 C 933.83 252.67 926.38 251.05 921.67 246.33 C 908.94 233.65 896.24 220.93 883.55 208.22 C 870.54 215.96 855.14 219.58 840.05 218.32 C 823.25 217.08 807.01 209.74 794.95 197.99 C 783.62 187.15 775.98 172.57 773.50 157.09 C 771.17 142.87 773.10 127.98 779.07 114.86 C 785.78 99.98 797.66 87.52 812.15 80.02 M 837.53 108.68 C 827.28 110.96 818.19 117.83 813.13 127.02 C 808.09 136.01 807.06 147.11 810.30 156.88 C 813.18 165.82 819.61 173.52 827.84 178.03 C 836.64 182.92 847.45 183.95 857.05 180.95 C 867.74 177.68 876.71 169.30 880.76 158.88 C 884.02 150.60 884.18 141.13 881.21 132.74 C 877.93 123.34 870.70 115.41 861.67 111.23 C 854.21 107.72 845.56 106.87 837.53 108.68 Z" />
		<path d=" M 0.00 423.90 C 0.54 414.64 8.70 406.61 18.03 406.56 C 66.67 406.44 115.32 406.57 163.97 406.50 C 168.12 406.42 172.49 406.58 176.20 408.66 C 182.52 411.87 186.50 418.91 186.19 425.98 C 186.16 475.33 186.21 524.69 186.16 574.04 C 186.42 583.80 177.81 592.62 168.04 592.61 C 118.34 592.68 68.64 592.62 18.94 592.63 C 9.33 593.01 0.60 584.94 0.00 575.38 L 0.00 423.90 M 37.23 443.75 C 37.24 480.98 37.22 518.20 37.24 555.43 C 74.48 555.42 111.71 555.43 148.95 555.42 C 148.95 518.20 148.95 480.97 148.95 443.75 C 111.71 443.75 74.47 443.74 37.23 443.75 Z" />
		<path d=" M 293.11 407.16 C 296.00 406.39 299.02 406.51 301.98 406.51 C 350.31 406.54 398.64 406.48 446.97 406.54 C 456.82 406.35 465.63 415.15 465.44 425.00 C 465.47 474.66 465.46 524.32 465.44 573.98 C 465.73 583.85 456.96 592.74 447.10 592.62 C 397.40 592.66 347.69 592.63 297.99 592.63 C 288.03 592.94 279.05 584.05 279.29 574.08 C 279.27 524.39 279.27 474.70 279.29 425.01 C 279.20 416.83 285.18 409.13 293.11 407.16 M 316.51 443.75 C 316.51 480.97 316.51 518.20 316.51 555.42 C 353.75 555.42 390.98 555.43 428.22 555.42 C 428.22 518.20 428.22 480.97 428.22 443.75 C 390.98 443.75 353.75 443.75 316.51 443.75 Z" />
		<path d=" M 572.16 407.21 C 574.39 406.59 576.72 406.50 579.03 406.50 C 628.33 406.57 677.63 406.44 726.92 406.57 C 736.51 406.72 744.86 415.38 744.71 424.96 C 744.76 472.98 744.71 521.00 744.73 569.02 C 744.72 572.90 745.00 576.93 743.52 580.62 C 740.92 587.72 733.65 592.74 726.08 592.63 C 676.38 592.64 626.67 592.66 576.96 592.62 C 567.07 592.78 558.27 583.86 558.56 573.98 C 558.54 524.32 558.53 474.65 558.56 424.99 C 558.48 416.90 564.35 409.27 572.16 407.21 M 595.78 443.75 C 595.78 480.97 595.78 518.20 595.78 555.42 C 633.02 555.43 670.25 555.42 707.49 555.42 C 707.49 518.20 707.49 480.97 707.49 443.75 C 670.25 443.75 633.02 443.75 595.78 443.75 Z" />
		<path d=" M 837.84 425.01 C 837.65 415.26 846.27 406.50 856.02 406.55 C 905.70 406.47 955.37 406.53 1005.05 406.52 C 1014.83 406.14 1023.73 414.53 1024.00 424.30 L 1024.00 575.21 C 1023.51 584.52 1015.27 592.58 1005.91 592.61 C 956.26 592.68 906.61 592.62 856.97 592.64 C 849.58 592.90 842.32 588.36 839.42 581.55 C 837.55 577.66 837.81 573.24 837.81 569.05 C 837.85 521.03 837.78 473.02 837.84 425.01 M 875.05 443.75 C 875.05 480.97 875.05 518.20 875.05 555.42 C 912.29 555.42 949.53 555.43 986.77 555.42 C 986.76 518.20 986.77 480.97 986.77 443.75 C 949.53 443.75 912.29 443.75 875.05 443.75 Z" />
		<path d=" M 0.00 703.02 C 0.57 693.40 9.38 685.27 19.04 685.71 C 68.68 685.72 118.33 685.66 167.97 685.74 C 177.65 685.67 186.27 694.32 186.15 704.01 C 186.21 753.67 186.18 803.33 186.17 852.98 C 186.53 862.81 177.94 871.79 168.09 871.79 C 118.38 871.89 68.68 871.78 18.98 871.80 C 9.33 872.22 0.56 864.08 0.00 854.48 L 0.00 703.02 M 37.23 722.92 C 37.23 760.15 37.23 797.37 37.24 834.60 C 74.47 834.59 111.70 834.59 148.94 834.60 C 148.96 797.37 148.94 760.15 148.95 722.92 C 111.71 722.92 74.47 722.92 37.23 722.92 Z" />
		<path d=" M 292.41 686.53 C 295.82 685.46 299.44 685.72 302.97 685.70 C 350.95 685.72 398.93 685.68 446.91 685.72 C 456.69 685.50 465.52 694.17 465.43 703.96 C 465.49 751.30 465.44 798.64 465.45 845.97 C 465.36 850.92 466.02 856.16 463.83 860.79 C 461.00 867.30 454.19 871.79 447.09 871.80 C 397.36 871.86 347.64 871.80 297.92 871.80 C 287.92 872.09 278.96 863.08 279.28 853.09 C 279.28 803.38 279.25 753.68 279.29 703.98 C 279.29 696.12 284.90 688.75 292.41 686.53 M 316.51 722.92 C 316.50 760.14 316.51 797.37 316.51 834.59 C 353.74 834.60 390.98 834.60 428.22 834.59 C 428.22 797.37 428.22 760.14 428.22 722.92 C 390.98 722.92 353.75 722.92 316.51 722.92 Z" />
		<path d=" M 571.47 686.59 C 574.87 685.47 578.49 685.72 582.02 685.70 C 630.00 685.72 677.98 685.69 725.97 685.71 C 735.79 685.39 744.74 694.03 744.70 703.88 C 744.76 753.61 744.72 803.34 744.72 853.07 C 745.04 863.06 736.12 872.06 726.12 871.81 C 679.09 871.86 632.06 871.79 585.03 871.81 C 579.96 871.66 574.63 872.46 569.85 870.32 C 563.04 867.49 558.37 860.33 558.55 852.96 C 558.55 803.30 558.52 753.65 558.57 703.99 C 558.56 696.20 564.06 688.90 571.47 686.59 M 595.78 722.92 C 595.78 760.14 595.78 797.37 595.78 834.59 C 633.02 834.60 670.26 834.60 707.49 834.59 C 707.49 797.37 707.50 760.14 707.49 722.92 C 670.25 722.92 633.02 722.92 595.78 722.92 Z" />
		<path d=" M 837.85 703.99 C 837.74 694.35 846.31 685.70 855.96 685.74 C 905.64 685.66 955.32 685.72 1004.99 685.71 C 1014.58 685.30 1023.29 693.29 1024.00 702.81 L 1024.00 854.35 C 1023.53 861.30 1018.99 867.80 1012.51 870.40 C 1007.91 872.36 1002.84 871.73 997.99 871.83 C 952.67 871.84 907.34 871.79 862.02 871.82 C 857.84 871.78 853.48 872.15 849.54 870.49 C 842.52 867.78 837.64 860.51 837.83 852.99 C 837.83 803.32 837.79 753.66 837.85 703.99 M 875.05 722.92 C 875.05 760.15 875.04 797.37 875.06 834.60 C 912.29 834.59 949.53 834.59 986.76 834.60 C 986.77 797.37 986.76 760.15 986.77 722.92 C 949.53 722.92 912.29 722.92 875.05 722.92 Z" />
		<path d=" M 0.00 982.12 C 0.63 972.55 9.37 964.48 19.00 964.88 C 68.67 964.89 118.34 964.83 168.01 964.92 C 177.60 964.88 186.16 973.40 186.14 983.00 C 186.23 1032.66 186.16 1082.32 186.18 1131.98 C 186.59 1141.55 178.63 1150.21 169.16 1151.00 L 17.52 1151.00 C 8.38 1150.55 0.50 1142.71 0.00 1133.57 L 0.00 982.12 M 37.23 1002.11 C 37.23 1039.33 37.23 1076.56 37.23 1113.78 C 74.47 1113.79 111.71 1113.78 148.94 1113.78 C 148.95 1076.56 148.95 1039.33 148.95 1002.11 C 111.71 1002.11 74.47 1002.10 37.23 1002.11 Z" />
		<path d=" M 279.30 983.05 C 279.26 973.20 288.20 964.59 298.02 964.89 C 347.33 964.86 396.65 964.89 445.96 964.88 C 453.24 964.54 460.47 968.76 463.58 975.38 C 465.92 979.89 465.42 985.10 465.46 990.02 C 465.45 1035.33 465.45 1080.64 465.46 1125.95 C 465.44 1130.85 465.90 1136.07 463.55 1140.57 C 460.75 1146.44 454.71 1150.39 448.28 1151.00 L 296.76 1151.00 C 287.44 1150.53 279.32 1142.29 279.31 1132.90 C 279.25 1082.95 279.26 1033.00 279.30 983.05 M 316.51 1002.11 C 316.51 1039.33 316.50 1076.56 316.51 1113.79 C 353.75 1113.78 390.98 1113.78 428.22 1113.78 C 428.23 1076.56 428.22 1039.33 428.22 1002.11 C 390.98 1002.11 353.75 1002.11 316.51 1002.11 Z" />
		<path d=" M 560.43 975.36 C 563.53 968.77 570.74 964.55 578.00 964.88 C 627.31 964.89 676.63 964.86 725.94 964.89 C 735.74 964.57 744.69 973.14 744.69 982.97 C 744.77 1032.67 744.72 1082.37 744.72 1132.07 C 745.09 1141.70 736.97 1150.43 727.39 1151.00 L 575.94 1151.00 C 569.42 1150.50 563.29 1146.50 560.46 1140.58 C 558.09 1136.07 558.56 1130.85 558.54 1125.94 C 558.55 1080.63 558.55 1035.32 558.54 990.01 C 558.57 985.10 558.08 979.87 560.43 975.36 M 595.78 1002.11 C 595.78 1039.33 595.78 1076.56 595.78 1113.78 C 633.02 1113.79 670.25 1113.78 707.49 1113.79 C 707.49 1076.56 707.49 1039.33 707.49 1002.11 C 670.25 1002.11 633.02 1002.10 595.78 1002.11 Z" />
		<path d=" M 837.86 983.07 C 837.80 973.42 846.41 964.84 856.05 964.91 C 905.69 964.83 955.34 964.89 1004.98 964.88 C 1014.54 964.48 1023.21 972.41 1024.00 981.89 L 1024.00 1133.49 C 1023.56 1142.62 1015.72 1150.47 1006.60 1151.00 L 855.08 1151.00 C 845.12 1150.38 836.99 1141.00 837.81 1131.05 C 837.86 1081.72 837.77 1032.39 837.86 983.07 M 875.05 1002.11 C 875.05 1039.33 875.05 1076.56 875.06 1113.78 C 912.29 1113.78 949.53 1113.78 986.77 1113.78 C 986.77 1076.56 986.76 1039.33 986.77 1002.11 C 949.53 1002.10 912.29 1002.11 875.05 1002.11 Z" />
	</g>
</svg>
