<?xml version="1.0" encoding="UTF-8" ?>
<!DOCTYPE svg PUBLIC "-//W3C//DTD SVG 1.1//EN" "http://www.w3.org/Graphics/SVG/1.1/DTD/svg11.dtd">
<svg width="225pt" height="225pt" viewBox="0 0 225 225" version="1.1" xmlns="http://www.w3.org/2000/svg">
	<g>
		<path d=" M 23.74 0.00 L 201.39 0.00 C 208.41 0.61 214.60 6.83 214.33 14.02 C 214.38 79.69 214.35 145.37 214.35 211.04 C 214.61 218.27 208.30 224.42 201.27 225.00 L 51.71 225.00 C 37.92 211.39 24.35 197.56 10.64 183.87 C 10.65 128.91 10.65 73.95 10.64 19.00 C 10.70 15.10 10.20 10.89 12.33 7.40 C 14.56 3.14 19.04 0.54 23.74 0.00 M 20.48 8.30 C 18.28 9.75 17.35 12.46 17.47 15.00 C 17.50 70.21 17.46 125.42 17.48 180.63 C 29.46 193.30 42.13 205.44 54.35 217.92 C 54.89 217.95 55.97 218.02 56.52 218.05 C 56.43 194.57 56.57 171.08 56.44 147.60 C 98.52 147.59 140.60 147.69 182.68 147.55 C 182.74 171.03 182.69 194.51 182.71 218.00 C 188.50 218.00 194.29 218.01 200.08 218.00 C 203.93 218.36 207.57 214.94 207.52 211.09 C 207.52 145.43 207.53 79.77 207.51 14.11 C 207.67 10.14 203.95 6.59 199.99 7.00 C 142.68 7.00 85.37 7.01 28.06 6.99 C 25.51 7.04 22.63 6.60 20.48 8.30 M 63.41 217.83 C 73.44 218.08 83.48 217.96 93.51 218.00 C 93.58 196.78 93.25 175.54 93.68 154.33 C 83.61 154.82 73.49 154.40 63.40 154.56 C 63.43 175.65 63.40 196.74 63.41 217.83 M 100.31 154.37 C 100.55 175.53 100.33 196.69 100.42 217.84 C 125.52 217.78 150.62 217.81 175.71 217.83 C 175.78 196.74 175.68 175.65 175.77 154.57 C 150.62 154.40 125.45 154.79 100.31 154.37 Z" />
		<path d=" M 49.34 27.97 C 93.80 27.97 138.27 27.97 182.73 27.97 C 182.71 58.41 182.63 88.85 182.77 119.30 C 138.28 119.32 93.79 119.26 49.29 119.32 C 49.40 88.87 49.30 58.42 49.34 27.97 M 56.14 35.04 C 56.12 60.84 56.17 86.64 56.11 112.45 C 96.05 112.45 135.99 112.49 175.93 112.43 C 175.82 86.63 175.91 60.83 175.89 35.03 C 135.97 35.03 96.05 35.02 56.14 35.04 Z" />
		<path d=" M 79.17 53.04 C 80.73 52.48 82.43 52.81 84.05 52.72 C 106.37 52.75 128.69 52.72 151.01 52.74 C 153.67 52.34 155.57 55.76 154.09 57.92 C 153.30 59.43 151.45 59.61 149.94 59.49 C 126.63 59.42 103.32 59.57 80.01 59.41 C 77.01 58.87 76.61 54.46 79.17 53.04 Z" />
		<path d=" M 79.24 81.04 C 94.15 80.56 109.13 80.97 124.06 80.84 C 128.16 80.27 128.86 87.26 124.73 87.58 C 109.92 87.65 95.10 87.64 80.29 87.58 C 77.05 87.20 76.50 82.54 79.24 81.04 Z" />
	</g>
</svg>
