<?xml version="1.0" encoding="UTF-8" ?>
<!DOCTYPE svg PUBLIC "-//W3C//DTD SVG 1.1//EN" "http://www.w3.org/Graphics/SVG/1.1/DTD/svg11.dtd">
<svg width="512pt" height="512pt" viewBox="0 0 512 512" version="1.1" xmlns="http://www.w3.org/2000/svg">
	<g>
		<path d=" M 200.36 0.00 L 207.35 0.00 C 241.02 0.89 274.53 10.14 303.53 27.37 C 335.49 46.23 361.92 74.34 378.67 107.46 C 395.33 140.18 402.43 177.59 399.34 214.14 C 396.39 250.27 383.43 285.50 362.32 314.97 C 370.99 323.67 379.70 332.34 388.37 341.04 C 391.13 338.46 393.72 334.55 398.01 334.92 C 401.21 334.92 403.38 337.48 405.44 339.56 C 425.41 359.58 445.43 379.55 465.40 399.57 C 468.52 402.35 468.56 407.67 465.50 410.50 C 462.64 413.43 457.48 413.33 454.73 410.30 C 435.68 391.30 416.68 372.25 397.66 353.22 C 382.85 368.00 368.06 382.80 353.28 397.61 C 381.49 425.79 409.66 454.00 437.86 482.19 C 442.22 486.47 446.30 491.34 452.02 493.88 C 463.63 499.55 478.53 496.81 487.51 487.57 C 496.59 478.77 499.47 464.27 494.23 452.73 C 491.36 445.77 485.23 441.09 480.18 435.79 C 477.54 433.05 473.69 430.34 474.24 426.02 C 474.44 420.29 482.00 416.91 486.37 420.67 C 490.69 424.65 494.72 428.96 498.91 433.09 C 506.90 441.10 511.52 452.19 512.00 463.47 L 512.00 467.17 C 511.40 479.47 505.88 491.45 496.72 499.71 C 488.78 507.10 478.20 511.40 467.39 512.00 L 463.04 512.00 C 451.90 511.39 440.99 506.76 433.09 498.84 C 401.25 467.03 369.44 435.18 337.61 403.36 C 334.97 401.06 334.13 396.94 335.95 393.89 C 337.35 391.76 339.35 390.13 341.11 388.32 C 332.42 379.66 323.76 370.97 315.08 362.30 C 291.34 379.35 263.90 391.21 235.17 396.60 C 197.36 403.78 157.43 400.05 121.82 385.33 C 86.63 370.91 55.97 345.87 34.45 314.55 C 12.59 282.99 0.73 244.85 0.00 206.51 L 0.00 199.48 C 0.49 174.83 5.29 150.24 14.55 127.37 C 30.93 86.50 61.09 51.38 98.85 28.77 C 129.35 10.41 164.78 0.45 200.36 0.00 M 187.55 15.80 C 168.18 17.39 149.05 21.97 131.10 29.45 C 96.48 43.73 66.52 68.79 45.92 100.03 C 28.26 126.70 17.72 158.00 15.61 189.92 C 13.27 223.61 20.21 257.97 36.01 287.85 C 53.51 321.14 81.60 348.75 115.20 365.65 C 145.94 381.19 181.15 387.45 215.39 384.12 C 246.72 381.18 277.21 370.05 303.10 352.16 C 325.58 336.57 344.83 316.24 358.77 292.67 C 374.18 266.74 383.13 237.01 384.64 206.89 C 386.41 173.22 378.82 139.06 362.60 109.48 C 345.63 78.35 319.28 52.42 287.85 35.99 C 257.24 19.89 221.99 12.94 187.55 15.80 M 327.14 352.91 C 335.36 361.14 343.60 369.36 351.82 377.59 C 360.44 368.99 369.04 360.37 377.65 351.77 C 369.43 343.53 361.19 335.30 352.96 327.07 C 345.14 336.42 336.48 345.07 327.14 352.91 Z" />
		<path d=" M 177.92 45.21 C 208.74 40.97 240.88 46.23 268.55 60.51 C 296.94 74.88 320.67 98.22 335.53 126.35 C 350.08 153.65 356.00 185.39 352.47 216.10 C 349.07 246.89 336.02 276.48 315.74 299.88 C 297.45 321.04 273.38 337.17 246.76 345.80 C 218.23 355.17 186.95 355.94 157.99 348.02 C 127.76 339.76 100.07 322.19 80.08 298.02 C 56.71 270.34 43.50 234.22 43.91 197.97 C 44.11 193.39 49.12 189.93 53.48 191.31 C 57.25 192.26 59.50 196.24 59.05 200.00 C 59.19 231.98 71.00 263.65 91.53 288.14 C 94.79 284.77 98.50 281.84 102.71 279.77 C 111.82 275.05 119.88 268.52 129.24 264.26 C 135.19 261.55 142.13 260.15 148.47 262.32 C 155.84 264.79 162.29 270.98 163.54 278.87 C 165.10 286.25 162.31 293.60 162.74 300.99 C 163.02 304.50 166.75 305.76 169.03 307.82 C 178.25 315.21 186.37 325.58 187.01 337.81 C 203.95 339.21 221.15 337.54 237.47 332.78 C 229.48 324.47 225.91 312.14 228.41 300.86 C 229.33 296.18 231.45 291.86 233.94 287.83 C 235.56 285.73 233.46 283.52 232.06 282.03 C 225.33 275.37 217.13 270.06 211.93 261.98 C 206.25 253.69 204.82 242.67 208.23 233.23 C 210.48 226.98 215.46 221.82 221.60 219.32 C 232.24 214.86 244.62 215.98 254.92 220.87 C 261.12 223.16 266.47 215.33 272.61 218.39 C 277.76 220.58 278.37 228.55 273.58 231.46 C 267.96 234.51 261.63 236.93 255.13 236.41 C 250.18 236.17 246.08 232.93 241.22 232.28 C 235.56 231.29 228.80 231.24 224.33 235.39 C 220.13 240.40 221.01 248.20 224.41 253.43 C 230.44 262.38 240.88 267.22 246.70 276.35 C 249.35 280.37 250.53 285.46 249.24 290.17 C 248.13 295.11 244.15 298.83 243.29 303.85 C 241.17 312.80 245.98 323.73 255.24 326.30 C 282.45 314.24 305.57 293.23 320.21 267.32 C 327.67 254.23 332.91 239.90 335.80 225.11 C 331.15 220.19 324.86 216.80 318.10 216.03 C 311.55 215.15 305.02 216.76 298.85 218.83 C 295.09 220.07 290.73 217.68 289.60 213.94 C 288.40 210.59 290.00 206.56 293.15 204.93 C 307.43 198.98 324.78 198.74 338.03 207.45 C 339.72 181.04 333.74 154.17 320.84 131.05 C 306.90 105.92 285.08 85.13 259.10 72.80 C 246.23 74.05 233.21 75.81 220.97 80.13 C 232.61 87.25 245.53 92.18 256.61 100.22 C 261.41 103.74 265.99 108.10 268.04 113.82 C 270.50 120.50 267.85 129.03 261.40 132.41 C 256.42 135.05 250.48 134.33 245.27 132.81 C 231.90 128.74 220.08 120.88 206.83 116.47 C 210.90 121.96 214.87 127.92 215.83 134.84 C 216.93 141.80 214.50 148.86 210.47 154.48 C 203.78 163.66 195.70 171.68 187.91 179.91 C 182.01 186.17 176.26 192.94 173.31 201.16 C 171.27 206.34 171.12 212.01 169.20 217.23 C 166.48 225.21 161.35 232.55 154.13 237.07 C 147.98 240.94 140.27 242.60 133.15 240.76 C 126.26 239.01 120.39 234.14 116.88 228.02 C 114.50 223.39 113.84 218.13 113.13 213.04 C 111.45 199.05 110.73 184.83 106.79 171.23 C 104.63 163.87 101.50 156.51 95.94 151.06 C 89.02 144.06 83.37 135.91 78.57 127.35 C 70.77 140.57 65.07 155.05 61.94 170.08 C 61.40 173.80 57.87 176.78 54.09 176.51 C 49.82 176.46 46.20 172.19 46.94 167.97 C 53.27 135.73 70.48 105.84 94.80 83.82 C 117.77 62.94 147.17 49.33 177.92 45.21 M 163.85 63.40 C 134.10 71.05 107.07 88.78 88.28 113.08 C 93.15 123.21 99.24 132.88 107.20 140.88 C 112.29 146.05 116.01 152.43 118.66 159.15 C 125.93 177.26 126.10 197.04 128.91 216.09 C 129.19 221.70 134.25 226.84 140.02 226.32 C 146.16 225.72 150.94 220.83 153.54 215.54 C 156.24 210.36 156.27 204.37 158.10 198.91 C 160.70 190.18 165.66 182.35 171.54 175.47 C 180.28 165.27 190.47 156.31 198.33 145.36 C 200.74 142.09 201.76 137.61 199.94 133.83 C 197.07 127.08 190.54 122.31 188.89 114.99 C 187.44 108.50 192.76 102.37 198.91 101.09 C 204.51 99.85 210.21 101.52 215.46 103.42 C 226.63 107.67 236.96 113.87 248.24 117.86 C 250.06 118.53 251.96 118.91 253.89 119.11 C 252.37 115.81 249.31 113.65 246.46 111.59 C 236.06 104.53 224.26 99.95 213.58 93.38 C 209.46 90.71 205.03 87.50 203.62 82.54 C 202.28 77.94 204.56 73.02 208.25 70.21 C 214.06 65.65 221.44 63.86 228.47 62.14 C 207.23 57.51 184.89 57.91 163.85 63.40 M 135.13 278.17 C 126.45 282.48 118.77 288.52 110.17 292.96 C 107.02 294.49 104.22 296.64 101.94 299.28 C 121.06 317.65 145.45 330.56 171.51 335.61 C 170.01 330.37 166.61 325.91 162.67 322.25 C 158.66 318.37 153.14 315.99 150.39 310.91 C 146.23 303.99 147.51 295.63 148.56 288.05 C 148.86 284.80 149.64 280.56 146.58 278.33 C 143.34 275.45 138.65 276.36 135.13 278.17 Z" />
	</g>
</svg>
