<?xml version="1.0" encoding="UTF-8"?>
<!DOCTYPE svg PUBLIC "-//W3C//DTD SVG 1.1//EN" "http://www.w3.org/Graphics/SVG/1.1/DTD/svg11.dtd">
<!-- Creator: CorelDRAW X8 -->
<svg xmlns="http://www.w3.org/2000/svg" xml:space="preserve" width="24px" height="24px" version="1.1" style="shape-rendering:geometricPrecision; text-rendering:geometricPrecision; image-rendering:optimizeQuality; fill-rule:evenodd; clip-rule:evenodd"
viewBox="0 0 78923 83721"
 xmlns:xlink="http://www.w3.org/1999/xlink">
 <g id="Warstwa_x0020_1">
  <metadata id="CorelCorpID_0Corel-Layer"/>
  <path d="M63937 53787c-4814,0 -9107,2294 -11854,5841l-22999 -12847c538,-1549 833,-3216 833,-4938 0,-1739 -295,-3390 -850,-4955l22981 -12828c2730,3563 7039,5874 11872,5874 8240,0 14967,-6708 14967,-14967 0,-8256 -6708,-14967 -14967,-14967 -8256,0 -14967,6711 -14967,14967 0,1739 296,3407 853,4955l-22966 12830c-2728,-3583 -7040,-5877 -11873,-5877 -8240,0 -14967,6711 -14967,14968 0,8258 6727,14967 14986,14967 4831,0 9143,-2311 11889,-5894l22981 12847c-555,1565 -867,3252 -867,4991 0,8240 6708,14967 14967,14967 8257,0 14967,-6711 14967,-14967 0,-8259 -6727,-14967 -14986,-14967zm0 25222c-5667,0 -10272,-4605 -10272,-10272 0,-5667 4605,-10274 10272,-10274 5669,0 10274,4607 10274,10274 0,5667 -4605,10272 -10274,10272zm-48953 -26892c-5667,0 -10272,-4607 -10272,-10274 0,-5668 4605,-10275 10272,-10275 5667,0 10274,4607 10274,10275 0,5667 -4624,10274 -10274,10274zm48953 -47405c5669,0 10274,4605 10274,10272 0,5667 -4605,10274 -10274,10274 -5667,0 -10272,-4607 -10272,-10274 0,-5667 4624,-10272 10272,-10272z"/>
 </g>
</svg>
