<svg width="1000pt" height="1000pt" viewBox="0 0 1000 1000" version="1.1" xmlns="http://www.w3.org/2000/svg">
	<g>
		<path d=" M 35.35 0.00 L 59.04 0.00 C 66.44 0.42 74.16 0.08 81.15 2.94 C 85.54 4.69 88.28 9.01 89.25 13.50 C 91.10 21.86 90.77 30.48 90.92 38.99 C 90.83 49.89 91.23 60.83 90.21 71.70 C 89.60 77.11 88.38 83.30 83.56 86.60 C 78.10 90.14 71.30 90.23 65.02 90.65 C 50.66 90.93 36.26 91.14 21.91 90.41 C 15.49 89.87 7.75 89.01 3.99 83.01 C -0.12 75.73 0.64 67.00 0.00 58.95 L 0.00 31.44 C 0.58 24.05 0.09 16.25 3.20 9.34 C 4.91 5.45 8.69 2.91 12.72 1.90 C 20.10 0.01 27.79 0.22 35.35 0.00 Z" />
		<path d=" M 216.39 0.00 L 236.66 0.00 C 245.22 0.31 254.10 -0.25 262.30 2.66 C 267.08 4.30 270.14 8.89 271.09 13.69 C 273.11 23.32 272.56 33.24 272.72 43.03 C 272.64 52.70 272.96 62.41 271.97 72.05 C 271.37 77.10 270.25 82.73 266.05 86.09 C 261.81 89.36 256.25 89.91 251.10 90.39 C 239.75 91.12 228.37 90.82 217.00 90.84 C 209.16 90.66 201.13 90.92 193.53 88.68 C 188.86 87.39 185.16 83.56 183.96 78.88 C 181.55 70.15 182.07 60.97 181.87 52.00 C 181.99 40.49 181.44 28.93 182.79 17.47 C 183.44 11.85 185.61 5.56 191.21 3.13 C 199.12 -0.23 207.97 0.38 216.39 0.00 Z" />
		<path d=" M 399.30 0.00 L 418.69 0.00 C 426.97 0.28 435.51 -0.16 443.50 2.42 C 448.11 3.84 451.48 7.88 452.59 12.50 C 454.73 20.82 454.34 29.52 454.51 38.04 C 454.43 49.07 454.83 60.13 453.87 71.14 C 453.29 76.63 452.21 82.93 447.43 86.41 C 442.36 89.92 435.92 90.15 429.99 90.58 C 417.67 91.04 405.34 90.89 393.02 90.76 C 386.15 90.44 378.92 90.54 372.57 87.53 C 367.38 85.06 365.32 79.15 364.64 73.82 C 363.24 62.61 363.79 51.28 363.66 40.01 C 363.83 31.03 363.38 21.90 365.44 13.10 C 366.48 8.32 369.79 3.98 374.55 2.48 C 382.50 -0.16 391.03 0.29 399.30 0.00 Z" />
		<path d=" M 580.38 0.00 L 601.47 0.00 C 608.76 0.21 616.17 0.06 623.31 1.80 C 627.30 2.77 631.17 5.13 632.99 8.94 C 635.84 14.86 635.84 21.62 636.17 28.04 C 636.37 40.69 636.47 53.34 636.05 65.99 C 635.60 72.06 635.43 78.67 631.81 83.85 C 628.51 88.35 622.62 89.52 617.42 90.13 C 607.65 91.12 597.81 90.79 588.02 90.87 C 578.98 90.77 569.88 91.10 560.93 89.62 C 556.40 88.86 551.60 86.93 549.24 82.73 C 546.19 77.35 546.07 70.94 545.69 64.93 C 545.34 52.83 545.42 40.72 545.59 28.62 C 545.89 22.22 545.91 15.55 548.49 9.57 C 550.14 5.65 553.87 3.03 557.89 1.97 C 565.21 0.03 572.86 0.23 580.38 0.00 Z" />
		<path d=" M 761.43 0.00 L 782.57 0.00 C 790.15 0.21 797.85 0.00 805.27 1.83 C 809.28 2.81 813.11 5.23 814.92 9.06 C 817.55 14.64 817.68 20.97 818.00 27.02 C 818.28 39.00 818.25 50.99 818.04 62.97 C 817.71 69.37 817.68 76.08 814.85 81.97 C 812.67 86.51 807.73 88.78 802.99 89.57 C 794.08 91.11 785.00 90.75 776.00 90.87 C 765.65 90.76 755.25 91.20 744.95 89.97 C 739.53 89.33 733.43 87.48 730.77 82.27 C 727.53 75.83 727.70 68.38 727.37 61.36 C 727.30 47.93 726.93 34.47 727.79 21.05 C 728.34 14.74 729.48 7.11 735.56 3.69 C 743.51 -0.35 752.79 0.46 761.43 0.00 Z" />
		<path d=" M 943.36 0.00 L 963.67 0.00 C 971.54 0.21 979.55 -0.06 987.25 1.88 C 991.73 2.94 995.80 6.03 997.35 10.47 C 1000.09 18.12 999.67 26.41 1000.00 34.41 L 1000.00 56.51 C 999.63 64.74 1000.17 73.35 997.05 81.14 C 995.10 86.04 990.02 88.70 985.06 89.52 C 974.79 91.30 964.31 90.72 953.94 90.87 C 944.70 90.79 935.41 91.10 926.23 89.91 C 921.68 89.24 916.74 87.93 913.79 84.13 C 910.72 80.11 910.10 74.90 909.60 70.03 C 908.81 59.05 909.13 48.02 909.08 37.02 C 909.25 28.74 908.92 20.29 911.09 12.22 C 912.25 7.67 915.67 3.76 920.22 2.39 C 927.67 -0.03 935.63 0.30 943.36 0.00 Z" />
		<path d=" M 13.77 183.43 C 22.70 181.52 31.91 181.98 40.98 181.81 C 51.59 181.91 62.24 181.49 72.81 182.65 C 77.95 183.30 83.69 184.70 86.72 189.29 C 90.23 194.82 90.30 201.67 90.71 207.99 C 91.03 220.64 91.01 233.29 90.73 245.94 C 90.34 252.33 90.31 259.18 86.98 264.87 C 84.09 269.64 78.28 271.21 73.09 271.86 C 63.09 273.03 53.01 272.63 42.97 272.74 C 33.71 272.60 24.36 273.01 15.20 271.43 C 10.39 270.63 5.39 268.25 3.28 263.58 C 0.03 256.48 0.57 248.44 0.00 240.83 L 0.00 215.56 C 0.47 207.61 -0.06 199.32 2.90 191.77 C 4.66 187.21 9.13 184.35 13.77 183.43 Z" />
		<path d=" M 181.86 181.81 C 393.97 181.80 606.08 181.80 818.19 181.81 C 818.20 393.92 818.19 606.03 818.19 818.14 C 606.08 818.14 393.97 818.14 181.86 818.14 C 181.86 606.03 181.86 393.92 181.86 181.81 Z" />
		<path d=" M 916.83 185.82 C 921.94 182.72 928.15 182.48 933.96 182.09 C 946.29 181.66 958.63 181.77 970.97 181.94 C 977.46 182.21 984.22 182.23 990.32 184.78 C 994.45 186.49 997.16 190.49 998.17 194.74 C 999.99 202.13 999.78 209.81 1000.00 217.37 L 1000.00 236.73 C 999.68 245.26 1000.24 254.10 997.35 262.27 C 995.78 266.79 991.60 269.88 987.04 270.92 C 979.17 272.84 970.99 272.57 962.95 272.72 C 952.32 272.69 941.69 272.94 931.08 272.29 C 925.68 271.78 919.76 271.28 915.41 267.67 C 911.43 264.24 910.40 258.75 909.80 253.79 C 908.81 243.90 909.14 233.94 909.06 224.02 C 909.17 215.33 908.86 206.58 910.20 197.96 C 910.91 193.35 912.65 188.39 916.83 185.82 Z" />
		<path d=" M 14.83 365.00 C 24.09 363.31 33.57 363.74 42.94 363.61 C 53.46 363.73 64.04 363.24 74.49 364.69 C 79.57 365.41 85.11 367.49 87.51 372.39 C 90.85 379.38 90.52 387.40 90.84 394.96 C 90.91 406.98 91.12 419.02 90.57 431.04 C 90.10 436.85 89.76 443.24 86.00 448.02 C 82.62 452.09 77.07 453.19 72.07 453.78 C 62.08 454.81 52.01 454.45 41.98 454.54 C 33.13 454.43 24.20 454.74 15.44 453.28 C 10.64 452.48 5.59 450.24 3.39 445.61 C 0.04 438.55 0.59 430.50 0.00 422.90 L 0.00 396.62 C 0.52 388.75 -0.04 380.47 3.13 373.06 C 5.12 368.37 10.02 365.82 14.83 365.00 Z" />
		<path d=" M 918.51 366.69 C 925.59 363.69 933.48 363.95 941.02 363.68 C 954.04 363.69 967.10 363.23 980.10 364.25 C 986.24 364.81 993.54 366.32 996.57 372.39 C 1000.35 380.48 999.57 389.73 1000.00 398.43 L 1000.00 418.67 C 999.82 425.82 999.95 433.05 998.53 440.10 C 997.72 444.06 995.94 448.13 992.43 450.40 C 988.16 453.14 982.95 453.64 978.03 454.08 C 968.70 454.70 959.35 454.49 950.02 454.54 C 941.73 454.45 933.39 454.66 925.18 453.40 C 920.84 452.69 916.21 451.17 913.54 447.45 C 910.54 443.24 910.01 437.89 909.54 432.90 C 908.85 422.61 909.12 412.29 909.07 401.99 C 909.21 393.79 908.93 385.48 910.67 377.41 C 911.58 372.94 914.16 368.55 918.51 366.69 Z" />
		<path d=" M 20.97 545.95 C 33.50 545.11 46.07 545.46 58.62 545.48 C 66.01 545.72 73.67 545.50 80.69 548.14 C 84.93 549.70 87.90 553.59 88.98 557.90 C 91.09 566.08 90.74 574.62 90.91 583.00 C 90.85 594.01 91.19 605.04 90.33 616.03 C 89.79 621.05 89.05 626.55 85.47 630.42 C 81.76 634.27 76.16 635.13 71.09 635.69 C 60.75 636.60 50.36 636.26 39.99 636.33 C 31.33 636.18 22.56 636.56 14.03 634.78 C 9.52 633.89 5.06 631.32 3.16 626.95 C 0.10 620.00 0.56 612.21 0.00 604.80 L 0.00 577.79 C 0.60 569.74 -0.11 561.11 3.72 553.74 C 7.11 547.67 14.68 546.50 20.97 545.95 Z" />
		<path d=" M 939.00 545.52 C 952.31 545.44 965.64 545.10 978.92 545.94 C 985.43 546.47 993.37 547.75 996.60 554.24 C 1000.27 562.09 999.56 571.05 1000.00 579.49 L 1000.00 600.63 C 999.58 609.61 1000.44 619.15 996.59 627.52 C 993.16 634.31 984.78 635.37 978.01 635.89 C 963.68 636.60 949.32 636.40 934.99 636.11 C 928.00 635.59 919.90 635.67 914.54 630.45 C 909.66 624.91 909.77 616.99 909.28 610.05 C 909.04 595.38 908.71 580.67 909.63 566.01 C 910.19 559.87 911.37 552.55 917.22 549.18 C 923.86 545.60 931.68 545.86 939.00 545.52 Z" />
		<path d=" M 13.72 728.84 C 21.36 727.17 29.23 727.35 37.01 727.23 C 47.33 727.25 57.66 727.03 67.97 727.60 C 73.24 728.05 78.87 728.45 83.43 731.43 C 87.59 734.16 89.19 739.25 89.87 743.93 C 91.12 752.56 90.82 761.31 90.92 770.01 C 90.83 780.06 91.20 790.17 90.06 800.19 C 89.41 805.37 87.90 811.18 83.17 814.12 C 77.45 817.53 70.53 817.55 64.09 817.95 C 50.69 818.20 37.29 818.32 23.90 817.81 C 17.00 817.27 8.57 816.90 4.23 810.62 C -0.20 803.25 0.67 794.23 0.00 785.99 L 0.00 761.37 C 0.49 753.22 -0.14 744.68 3.00 736.98 C 4.76 732.51 9.18 729.79 13.72 728.84 Z" />
		<path d=" M 936.02 727.40 C 949.98 727.17 963.97 726.94 977.92 727.66 C 984.54 728.19 992.69 729.11 996.32 735.54 C 1000.36 743.52 999.53 752.82 1000.00 761.50 L 1000.00 783.57 C 999.57 792.19 1000.32 801.35 996.57 809.37 C 993.34 815.74 985.58 817.05 979.15 817.59 C 965.11 818.48 951.01 818.13 936.95 817.98 C 929.98 817.56 922.36 817.73 916.29 813.77 C 910.47 809.49 909.98 801.61 909.44 795.02 C 908.86 780.68 908.94 766.31 909.35 751.97 C 909.87 745.18 909.99 737.21 915.42 732.27 C 921.19 727.71 929.04 727.87 936.02 727.40 Z" />
		<path d=" M 3.55 917.66 C 7.01 911.05 15.20 910.00 21.87 909.48 C 36.25 908.74 50.67 908.94 65.06 909.25 C 71.76 909.71 79.27 909.74 84.73 914.24 C 90.02 919.25 90.13 927.15 90.65 933.93 C 91.03 948.29 91.14 962.67 90.53 977.03 C 90.00 983.77 89.36 992.00 83.05 996.00 C 75.73 1000.14 66.95 999.35 58.85 1000.00 L 33.66 1000.00 C 24.49 999.24 13.98 1000.69 6.24 994.73 C -0.65 987.69 0.86 976.86 0.00 967.84 L 0.00 943.26 C 0.56 934.71 -0.30 925.58 3.55 917.66 Z" />
		<path d=" M 189.31 913.23 C 194.22 910.04 200.30 909.75 205.97 909.33 C 218.31 908.84 230.66 908.99 243.01 909.12 C 249.73 909.39 256.72 909.34 263.03 911.98 C 267.48 913.77 270.18 918.21 271.11 922.76 C 272.82 930.72 272.58 938.93 272.71 947.03 C 272.62 958.36 273.07 969.74 271.98 981.04 C 271.38 986.71 269.83 993.26 264.43 996.27 C 257.21 1000.05 248.76 999.38 240.88 1000.00 L 215.62 1000.00 C 207.45 999.48 198.83 1000.14 191.15 996.79 C 186.41 994.70 183.96 989.64 183.17 984.77 C 181.59 975.60 181.99 966.25 181.86 956.99 C 181.96 946.84 181.56 936.63 182.78 926.54 C 183.45 921.60 184.92 916.14 189.31 913.23 Z" />
		<path d=" M 378.98 910.30 C 387.58 908.81 396.34 909.13 405.03 909.01 C 415.00 909.09 425.00 908.77 434.94 909.68 C 440.34 910.27 446.50 911.33 449.98 915.97 C 453.67 921.21 453.82 927.92 454.26 934.08 C 454.62 948.36 454.73 962.66 454.14 976.94 C 453.60 983.62 453.03 991.78 446.86 995.86 C 439.88 1000.03 431.36 999.31 423.56 1000.00 L 397.52 1000.00 C 389.12 999.45 380.20 1000.22 372.40 996.51 C 365.71 993.06 364.64 984.78 364.12 978.06 C 363.38 964.38 363.65 950.66 363.81 936.97 C 364.18 930.33 364.12 923.25 367.38 917.25 C 369.70 913.05 374.46 911.06 378.98 910.30 Z" />
		<path d=" M 553.20 913.04 C 558.19 909.98 564.25 909.71 569.94 909.31 C 580.97 908.86 592.02 909.02 603.06 909.06 C 611.26 909.39 619.97 908.84 627.58 912.44 C 634.63 916.10 635.43 924.94 635.94 931.97 C 636.53 946.64 636.47 961.35 636.00 976.02 C 635.46 982.95 635.10 991.45 628.77 995.80 C 621.59 1000.11 612.82 999.32 604.80 1000.00 L 577.18 1000.00 C 569.58 999.42 561.53 999.95 554.46 996.64 C 549.28 994.21 547.16 988.38 546.48 983.07 C 545.14 973.09 545.57 962.98 545.46 952.94 C 545.56 943.68 545.22 934.36 546.59 925.18 C 547.32 920.57 549.03 915.62 553.20 913.04 Z" />
		<path d=" M 731.88 915.91 C 736.39 910.24 744.29 909.88 750.95 909.35 C 765.64 908.85 780.37 908.82 795.07 909.39 C 801.63 909.92 809.46 910.41 813.75 916.15 C 817.64 921.96 817.57 929.30 818.00 936.02 C 818.22 950.03 818.47 964.07 817.72 978.08 C 817.18 984.60 816.26 992.51 810.04 996.17 C 802.93 1000.03 794.52 999.35 786.72 1000.00 L 760.71 1000.00 C 752.28 999.41 743.23 1000.25 735.50 996.23 C 729.16 992.57 728.25 984.52 727.72 977.94 C 726.98 964.31 727.26 950.65 727.41 937.01 C 727.85 929.88 727.62 922.02 731.88 915.91 Z" />
		<path d=" M 916.36 913.34 C 922.42 909.41 930.02 909.58 936.97 909.17 C 951.05 909.02 965.17 908.68 979.24 909.57 C 985.78 910.10 993.75 911.59 996.79 918.24 C 1000.33 926.44 999.61 935.64 1000.00 944.37 L 1000.00 965.56 C 999.63 973.77 1000.16 982.35 997.08 990.13 C 995.24 994.77 990.57 997.52 985.85 998.42 C 979.93 999.71 973.85 999.64 967.84 1000.00 L 944.22 1000.00 C 937.45 999.72 930.62 999.87 923.94 998.57 C 919.43 997.76 914.76 995.60 912.58 991.35 C 909.41 985.10 909.53 977.85 909.19 971.03 C 909.07 957.64 908.78 944.23 909.53 930.86 C 910.07 924.64 910.83 917.28 916.36 913.34 Z" />
	</g>
</svg>
