<?xml version="1.0" encoding="UTF-8" ?>
<!DOCTYPE svg PUBLIC "-//W3C//DTD SVG 1.1//EN" "http://www.w3.org/Graphics/SVG/1.1/DTD/svg11.dtd">
<svg width="512pt" height="462pt" viewBox="0 0 512 462" version="1.1" xmlns="http://www.w3.org/2000/svg">
	<g>
		<path d=" M 412.49 0.00 L 423.40 0.00 C 443.98 1.64 464.18 9.48 479.68 23.27 C 496.57 37.94 508.02 58.79 511.02 80.98 C 511.31 83.50 511.67 86.01 512.00 88.52 L 512.00 99.47 C 510.49 119.37 503.14 138.90 490.20 154.20 C 476.34 170.97 456.50 182.68 435.09 186.59 C 416.86 190.02 397.61 187.93 380.61 180.48 C 365.61 173.99 352.42 163.45 342.62 150.38 C 322.54 159.27 302.72 168.74 282.74 177.84 C 250.39 192.86 217.91 207.59 185.64 222.77 C 188.68 234.42 188.79 246.57 187.14 258.44 C 237.87 277.75 288.48 297.40 339.19 316.80 C 350.48 299.77 367.04 286.18 386.34 279.29 C 408.53 271.20 433.79 272.14 455.40 281.64 C 471.46 288.59 485.43 300.20 495.36 314.60 C 505.22 328.65 510.62 345.48 512.00 362.52 L 512.00 373.45 C 510.63 389.26 505.96 404.90 497.29 418.27 C 486.13 435.84 469.04 449.57 449.41 456.52 C 441.07 459.60 432.26 461.04 423.46 462.00 L 412.53 462.00 C 396.45 460.72 380.56 455.90 367.01 447.04 C 346.59 433.97 331.51 412.75 326.14 389.08 C 323.36 377.30 323.04 365.00 324.97 353.07 C 274.29 333.47 223.55 314.04 172.84 294.54 C 162.50 309.91 148.04 322.63 130.94 329.93 C 109.17 339.45 83.74 340.00 61.51 331.68 C 39.47 323.57 20.75 306.90 10.18 285.93 C 4.19 274.36 1.06 261.51 0.00 248.56 L 0.00 237.57 C 0.97 229.28 2.25 220.96 5.06 213.07 C 13.09 189.37 31.01 169.27 53.61 158.56 C 73.81 148.82 97.57 146.72 119.16 152.77 C 139.07 158.21 156.93 170.60 169.28 187.10 C 171.71 186.36 174.01 185.26 176.29 184.15 C 226.28 161.07 276.29 138.02 326.28 114.93 C 318.67 84.45 328.46 50.68 350.50 28.46 C 366.68 11.63 389.28 1.65 412.49 0.00 M 411.15 39.29 C 395.26 41.12 380.49 50.37 371.74 63.73 C 363.53 75.97 360.64 91.59 363.86 105.96 C 366.70 119.00 374.47 130.87 385.28 138.70 C 397.60 147.85 413.88 151.39 428.90 148.23 C 442.07 145.57 454.12 137.87 462.12 127.09 C 471.08 115.29 474.84 99.73 472.35 85.13 C 470.05 70.78 461.72 57.56 449.88 49.17 C 438.81 41.18 424.70 37.58 411.15 39.29 M 87.48 188.61 C 73.07 190.31 59.50 198.01 50.62 209.48 C 41.64 220.78 37.49 235.75 39.29 250.07 C 41.01 264.93 49.16 278.89 61.21 287.76 C 72.71 296.41 87.70 300.23 101.94 298.12 C 118.27 295.89 133.29 285.83 141.62 271.62 C 147.82 261.30 150.46 248.90 149.00 236.95 C 147.31 221.99 139.09 207.96 126.96 199.06 C 115.78 190.69 101.34 186.88 87.48 188.61 M 407.43 313.65 C 391.98 316.54 378.06 326.43 370.16 340.01 C 362.54 352.83 360.54 368.81 364.72 383.12 C 368.21 395.34 376.08 406.23 386.57 413.39 C 398.46 421.67 413.72 424.89 427.95 422.18 C 443.07 419.44 456.79 410.00 464.82 396.91 C 472.93 384.01 475.23 367.65 471.05 353.00 C 467.18 339.08 457.59 326.87 444.97 319.82 C 433.72 313.38 420.15 311.18 407.43 313.65 Z" />
	</g>
</svg>
