<?xml version="1.0" encoding="UTF-8" ?>
<!DOCTYPE svg PUBLIC "-//W3C//DTD SVG 1.1//EN" "http://www.w3.org/Graphics/SVG/1.1/DTD/svg11.dtd">
<svg width="452pt" height="618pt" viewBox="0 0 452 618" version="1.1" xmlns="http://www.w3.org/2000/svg">
	<g>
		<path d=" M 185.77 3.79 C 219.48 -2.13 254.58 -0.65 287.54 8.73 C 338.63 23.02 383.97 56.19 413.46 100.24 C 432.58 128.70 445.15 161.60 449.60 195.61 C 451.73 210.47 451.84 225.51 451.35 240.48 C 449.39 264.23 443.96 287.75 434.26 309.56 C 422.27 337.56 404.69 362.74 385.68 386.39 C 363.96 413.30 340.25 438.54 318.25 465.22 C 302.95 483.38 289.08 502.69 276.15 522.58 C 259.19 548.96 243.86 576.44 231.36 605.22 C 229.61 609.44 227.47 613.52 226.41 618.00 L 225.89 618.00 C 225.84 617.94 225.74 617.81 225.69 617.74 C 218.66 599.12 209.68 581.27 200.34 563.71 C 185.35 536.47 168.57 510.21 149.84 485.39 C 120.28 446.49 85.45 411.93 56.06 372.90 C 34.78 344.87 16.55 313.84 7.38 279.63 C 3.22 264.51 1.00 248.87 0.36 233.21 C 0.01 214.04 1.57 194.78 5.87 176.07 C 12.22 147.82 24.18 120.84 40.70 97.06 C 54.76 77.06 71.97 59.23 91.58 44.63 C 119.24 23.93 151.81 9.99 185.77 3.79 M 213.32 52.49 C 170.50 55.54 129.21 75.49 100.24 107.16 C 81.55 127.27 67.90 152.01 60.74 178.51 C 53.35 205.80 52.89 234.92 59.37 262.44 C 66.84 294.31 83.69 323.96 107.39 346.56 C 141.61 379.91 190.39 397.62 238.04 393.90 C 264.30 392.20 290.12 384.17 312.75 370.77 C 350.41 348.78 379.02 311.82 390.70 269.78 C 397.86 244.74 399.02 218.07 394.41 192.45 C 389.02 162.62 375.44 134.32 355.56 111.42 C 340.32 93.58 321.19 79.11 300.07 68.91 C 273.26 55.87 243.02 50.43 213.32 52.49 Z" />
		<path d=" M 202.64 149.01 C 202.03 142.62 207.42 136.32 213.92 136.37 C 221.98 136.30 230.04 136.31 238.10 136.36 C 244.25 136.33 249.50 142.02 249.34 148.11 C 249.32 165.40 249.34 182.69 249.33 199.99 C 266.18 200.03 283.04 200.15 299.90 199.93 C 303.86 199.74 308.06 201.12 310.47 204.42 C 313.18 207.64 313.08 212.06 313.10 216.03 C 313.01 222.36 313.18 228.69 313.02 235.02 C 312.93 239.28 310.43 243.40 306.59 245.28 C 303.70 247.02 300.25 246.62 297.04 246.70 C 281.19 246.68 265.33 246.82 249.49 246.61 C 249.10 264.06 249.48 281.52 249.31 298.97 C 249.19 304.89 243.95 310.10 238.00 310.00 C 229.99 310.18 221.98 310.10 213.98 310.02 C 208.06 310.04 202.77 304.84 202.72 298.93 C 202.48 281.50 202.91 264.05 202.50 246.62 C 185.66 246.81 168.83 246.68 151.99 246.69 C 147.92 246.86 143.62 245.19 141.29 241.73 C 138.01 237.57 139.08 231.96 138.97 227.05 C 139.31 221.07 138.34 215.02 139.34 209.08 C 140.43 203.74 145.56 199.76 151.01 199.96 C 168.23 200.00 185.48 200.25 202.70 199.86 C 202.60 182.91 202.72 165.96 202.64 149.01 Z" />
		<path d=" M 225.69 617.74 C 225.74 617.81 225.84 617.94 225.89 618.00 L 225.63 618.00 L 225.69 617.74 Z" />
	</g>
</svg>
