<svg id="Слой_1" data-name="Слой 1" xmlns="http://www.w3.org/2000/svg" viewBox="0 0 512 645"><defs><style>.cls-1{fill:#fefefe;}</style></defs><g id="_fefefeff" data-name="#fefefeff"><path class="cls-1" d="M233.23,591.69c-15.3-.92-28.43-4.9-39-11.83-11.14-7.13-19.25-17.94-22.29-29.66l0-.18c-1.78-6.24-1.73-13-1.68-20.12,0-1.89,0-3.75,0-5.6,0-9.8,0-19.68,0-29.55q0-26.22,0-52.43v-.17a8.89,8.89,0,0,1,2.69-6.33,9.19,9.19,0,0,1,6.43-2.9H180a9.52,9.52,0,0,1,9.18,9.24v.19c.05,15.6,0,31.48,0,45.5v.56c0,16.17,0,32.89,0,49.45-.08,11.39,6.7,22.33,17.27,27.85,11.76,6.54,24.86,7.09,36.22,7.09,1.69,0,3.38,0,5.06,0l4.87,0H438.45l3,0c6.69,0,15.44-.4,23.77-3.53,9.4-3.41,16.72-10.1,20.08-18.36,2.8-6.59,2.72-13.41,2.64-19.43,0-1.7,0-3.29,0-4.85V149.37c0-.75,0-1.48,0-2.22v-.27a65.81,65.81,0,0,0-1-14.51,55.92,55.92,0,0,0-17.79-30.69c-7.41-6.44-16.37-10-25.24-10H237.61a41.39,41.39,0,0,0-20.32,5.62c-17.67,10.12-28.72,28.57-28.15,47,0,29.87,0,60.65,0,91.41V236a9.56,9.56,0,0,1-9.08,9.53h-.71c-4.59,0-9.14-4.46-9.14-9-.05-18.16,0-36.76,0-53.17V182q0-18.9,0-37.81v-.15c-.84-35.11,29-68.43,63.91-71.32H446.44A59.1,59.1,0,0,1,480.79,87a75.5,75.5,0,0,1,26.09,51.93V539.76c-.73,13.41-6.25,26-15.15,34.54-11.06,10.91-27.5,17.08-46.29,17.39H233.23Z"/><path class="cls-1" d="M279.25,449.11a9.69,9.69,0,0,1-7.12-3.57A9.56,9.56,0,0,1,269.7,438l.05-.31,0-.31c.18-3.28,3.23-6.26,6.45-9.43l1.25-1.23,26.16-26.61,4.33-4.41q23.13-23.52,46.24-47.06l10.68-10.88H34.78c-2.64,0-4.7-.16-6.19-1l-.21-.11a9.7,9.7,0,0,1-5.13-7.4v-1.85a9.86,9.86,0,0,1,9.33-8.65l.52,0H351.23l-11.23-11q-32.5-31.77-65-63.5l-.11-.11c-2.3-2.14-4.56-4.4-5-6.77l0-.18c-1-4.38,3-8.85,7-9.79l.17,0a8.79,8.79,0,0,1,2.12-.26,9.74,9.74,0,0,1,6.89,2.91l59.86,59.8,41.55,41.51.23.22a9.5,9.5,0,0,1,.18,13.14l-.12.12q-23.54,23.52-47.11,47L338,394.45q-25.09,25.05-50.08,50l-.17.18-.08.09c-1.67,1.87-4.3,4.14-7.29,4.3l-.23,0h-.12A7.32,7.32,0,0,1,279.25,449.11Z"/></g></svg>