<?xml version="1.0" encoding="UTF-8" ?>
<!DOCTYPE svg PUBLIC "-//W3C//DTD SVG 1.1//EN" "http://www.w3.org/Graphics/SVG/1.1/DTD/svg11.dtd">
<svg width="512pt" height="487pt" viewBox="0 0 512 487" version="1.1" xmlns="http://www.w3.org/2000/svg">
	<g>
		<path d=" M 255.44 0.00 L 256.53 0.00 C 255.89 1.48 257.08 3.02 257.34 4.48 C 276.98 65.12 296.54 125.79 316.14 186.44 C 379.10 186.35 442.06 186.20 505.02 186.08 C 507.35 185.97 509.67 186.11 512.00 186.34 L 512.00 186.61 C 511.43 186.88 510.30 187.41 509.73 187.67 C 457.57 225.40 405.43 263.16 353.28 300.91 C 373.54 362.95 393.98 424.93 414.14 487.00 L 414.11 487.00 C 361.47 448.42 308.66 410.06 255.94 371.59 C 204.02 409.44 152.13 447.34 100.20 485.19 C 99.74 485.64 98.83 486.55 98.38 487.00 L 98.28 487.00 C 98.16 485.04 98.96 483.23 99.58 481.43 C 119.28 421.25 138.99 361.08 158.68 300.90 C 108.28 264.42 57.87 227.93 7.47 191.45 C 5.01 189.72 2.69 187.77 0.00 186.40 L 0.00 186.40 C 2.97 185.82 6.00 186.14 9.00 186.08 C 71.28 186.19 133.56 186.36 195.83 186.44 C 215.06 126.75 234.34 67.08 253.57 7.40 C 254.34 4.98 255.36 2.58 255.44 0.00 Z" />
	</g>
</svg>
