<svg id="Слой_1" data-name="Слой 1" xmlns="http://www.w3.org/2000/svg" viewBox="0 0 512 645"><defs><style>.cls-1{fill:#fefefe;}</style></defs><g id="_fefefeff" data-name="#fefefeff"><path class="cls-1" d="M374.83,619.35h-.06a9.53,9.53,0,0,1-8.1-6.84q-4.67-15-9.29-30.13-3.48-11.32-7-22.67h-188q-3.22,10.45-6.43,20.89-4.9,16-9.86,32a9.64,9.64,0,0,1-7.83,6.71h-1.93a9.49,9.49,0,0,1-7.05-4.29,8.86,8.86,0,0,1-1.14-7.66c6.09-19.95,12.33-40.24,18.38-59.86q6-19.47,12-38.95H9.21A9.6,9.6,0,0,1,0,500.36V75.1A9.8,9.8,0,0,1,8.2,66.54h496a9.79,9.79,0,0,1,8.6,8.26V500a9.55,9.55,0,0,1-9.23,8.63,5.43,5.43,0,0,1-.57,0q-26.67,0-53.46,0h-95.3L368,553.3q8.28,26.9,16.54,53.79a9,9,0,0,1-.9,7.7,9.6,9.6,0,0,1-6.87,4.55h-2ZM226.61,541h118l-10-32.38H178.14q-5,16.19-10,32.38Zm267.5-51.12c0-82.64,0-183.42,0-277.71V85.28H18.71c0,60.86,0,131.57,0,202.28v202.3Z"/><path class="cls-1" d="M410,459.54h-.43a9.25,9.25,0,0,1-6.69-3,9.12,9.12,0,0,1-2.52-6.77v-49c0-55.41,0-103.26,0-162.72a9.33,9.33,0,0,1,8.13-9.23c4.42-.09,9.2-.12,15.1-.12h9.05l9,0H444a9.15,9.15,0,0,1,6.55,2.85,9,9,0,0,1,2.62,6.5c0,56.55,0,103.32,0,154.78v56.88a9.19,9.19,0,0,1-2.51,6.76,9,9,0,0,1-6.44,3q-6.88.06-13.78.05Zm24.42-18.75V247.47H419.12V440.79Z"/><path class="cls-1" d="M339.45,459.55q-7.62,0-15.24-.05a9,9,0,0,1-6.5-3,9.2,9.2,0,0,1-2.51-6.84V412.57c0-26.24,0-49,0-80.57a9.25,9.25,0,0,1,8.32-9.45c4.21-.07,8.61-.1,14.32-.1l8,0h12.94a9.29,9.29,0,0,1,6.64,2.94A9,9,0,0,1,368,332c0,45.26,0,72.59,0,117.9a9,9,0,0,1-2.54,6.67,9.21,9.21,0,0,1-6.66,3h-.44Zm9.82-18.76v-36c0-20.22,0-38.26,0-63.58H333.92v99.59Z"/><path class="cls-1" d="M62.16,379.53V360.81h1.26c70.18,0,142.85-22.68,204.63-63.86,57.11-37.83,105.38-90.56,139.74-152.6l-9,4.49c-5.47,2.75-11.13,5.59-16.72,8.34a8.61,8.61,0,0,1-3.8.86,9.45,9.45,0,0,1-8.44-5.15,9.39,9.39,0,0,1,4-12.53q25.62-12.84,51.28-25.64a8.49,8.49,0,0,1,4.07-1,9.41,9.41,0,0,1,9,6.58c5.58,16.69,11.37,34,17,51a9,9,0,0,1-.63,7.3,9.15,9.15,0,0,1-5.81,4.68,8.28,8.28,0,0,1-2.42.35,9.44,9.44,0,0,1-8.93-6.49q-3.12-9.21-6.18-18.48l-3.78-11.34c-34.27,64-82.78,119-140.37,159.25-67,47.05-146.33,73-223.46,73Z"/><path class="cls-1" d="M256.39,459.55q-8.53,0-17.08,0h-.2a9.42,9.42,0,0,1-9.11-9.77V428.2c0-14.53,0-25.54,0-45.35a9.36,9.36,0,0,1,6.25-8.75,13.17,13.17,0,0,1,4.34-.54h.85c3.35,0,6.68,0,10,0h12.06c3.29,0,6.59,0,9.88,0h.25a9.19,9.19,0,0,1,6.46,2.8,9.09,9.09,0,0,1,2.68,6.41c0,17.88,0,28.61,0,41.22,0,7.36,0,15.35,0,25.79a9.19,9.19,0,0,1-2.56,6.77,9.08,9.08,0,0,1-6.56,3h-.27C267.77,459.54,262.08,459.55,256.39,459.55Zm-1.31-18.75h9V416.55c0-6.69,0-13.38,0-24.23H248.74c0,12.22,0,19.16,0,26.77,0,5.91,0,12.21,0,21.7Z"/><path class="cls-1" d="M154,459.55a9.24,9.24,0,0,1-6.69-3,9.11,9.11,0,0,1-2.51-6.79c0-9,0-12.73,0-16.94,0-3.53,0-7.39,0-15a9.48,9.48,0,0,1,6.62-9.73l.08,0h.09c4.19-.31,8.63-.44,14.42-.44q4,0,8,0c2.65,0,5.29.06,7.94.06,1.86,0,3.72,0,5.58,0a6,6,0,0,1,.78,0,9.48,9.48,0,0,1,6.68,2.88,8.81,8.81,0,0,1,2.65,6.35c0,10.42,0,14,0,19.25,0,3.26,0,7.12,0,13.64a9.22,9.22,0,0,1-2.53,6.82,9,9,0,0,1-6.49,2.94q-7.05.06-14.1.05l-17,0H154Zm24.86-18.76v-14.4H163.54v14.4Z"/><path class="cls-1" d="M69,459.57a9.36,9.36,0,0,1-9.33-8.83c0-.79,0-1.94,0-1.94v-.05a9.45,9.45,0,0,1,5.13-7.58,12.25,12.25,0,0,1,6-1c3.34,0,6.68,0,10,0h22.43a9.38,9.38,0,0,1,9.22,9c0,.69,0,1.27,0,1.74a9.4,9.4,0,0,1-8.7,8.54l-9.16.06H69.67A6.66,6.66,0,0,1,69,459.57Z"/></g></svg>