<svg xmlns="http://www.w3.org/2000/svg" width="83" height="83" viewBox="0 0 83 83"><g transform="translate(-920 -429)"><circle cx="41.5" cy="41.5" r="41.5" transform="translate(920 429)" fill="#f0c740" opacity="0.19"/><g transform="translate(939 448)"><g transform="translate(0)"><path d="M22.716,0A22.716,22.716,0,1,0,45.432,22.716,22.742,22.742,0,0,0,22.716,0Zm0,43.457A20.741,20.741,0,1,1,43.457,22.716,20.763,20.763,0,0,1,22.716,43.457Z" fill="#e6b137"/><path d="M98.963,133.926A2.963,2.963,0,1,0,96,130.963,2.967,2.967,0,0,0,98.963,133.926Zm0-3.951a.988.988,0,1,1-.988.988A.989.989,0,0,1,98.963,129.975Z" transform="translate(-84.148 -112.198)" fill="#e6b137"/><path d="M226.963,128a2.963,2.963,0,1,0,2.963,2.963A2.967,2.967,0,0,0,226.963,128Zm0,3.951a.988.988,0,1,1,.988-.988A.989.989,0,0,1,226.963,131.951Z" transform="translate(-196.346 -112.198)" fill="#e6b137"/><path d="M116.741,224H96.988a.988.988,0,0,0,0,1.975h19.753a.988.988,0,1,0,0-1.975Z" transform="translate(-84.148 -196.346)" fill="#e6b137"/></g></g></g></svg>