<?xml version="1.0" encoding="UTF-8" ?>
<!DOCTYPE svg PUBLIC "-//W3C//DTD SVG 1.1//EN" "http://www.w3.org/Graphics/SVG/1.1/DTD/svg11.dtd">
<svg width="500pt" height="500pt" viewBox="0 0 500 500" version="1.1" xmlns="http://www.w3.org/2000/svg">
	<g>
		<path d=" M 222.00 134.05 C 224.98 130.69 229.47 128.97 233.92 129.01 C 284.96 129.00 336.01 128.98 387.06 129.02 C 393.84 129.82 400.89 128.81 407.40 131.33 C 422.40 136.16 433.10 151.20 432.95 166.93 C 433.07 213.62 432.95 260.30 433.01 306.99 C 433.09 313.54 432.10 320.21 429.10 326.10 C 423.78 337.32 412.47 345.42 400.14 346.86 C 395.76 347.44 391.34 347.22 386.95 347.25 C 362.89 347.25 338.82 347.25 314.76 347.25 C 314.74 357.58 314.75 367.91 314.76 378.24 C 321.18 378.29 327.60 378.20 334.03 378.27 C 342.29 378.62 348.97 386.79 348.14 394.94 C 347.72 402.66 340.77 409.48 332.94 409.26 C 280.98 409.23 229.02 409.26 177.05 409.25 C 168.33 409.24 161.11 400.49 162.39 391.93 C 163.07 384.67 169.58 378.31 176.94 378.24 C 184.96 378.24 192.98 378.26 200.99 378.25 C 201.00 367.91 201.02 357.58 200.98 347.24 C 171.00 347.25 141.01 347.26 111.03 347.24 C 102.40 347.22 93.80 344.31 87.11 338.84 C 78.15 331.72 73.13 320.37 72.99 309.02 C 73.02 300.65 72.98 292.28 73.00 283.90 C 72.84 276.89 78.21 270.38 85.02 268.96 C 91.63 267.26 99.19 270.57 102.31 276.67 C 104.13 279.81 104.29 283.52 104.31 287.06 C 104.69 294.72 104.40 302.39 104.52 310.05 C 104.48 313.00 107.12 315.53 109.97 315.87 C 112.63 316.15 115.32 315.97 118.00 316.00 C 210.01 316.01 302.03 315.99 394.04 316.01 C 396.39 316.12 398.97 315.41 400.40 313.41 C 402.18 310.97 401.68 307.81 401.77 304.99 C 401.73 259.31 401.76 213.62 401.75 167.94 C 401.83 165.44 400.78 162.65 398.46 161.47 C 395.85 160.09 392.80 160.58 389.98 160.49 C 344.98 160.52 299.97 160.49 254.97 160.50 C 248.30 160.62 241.64 160.03 234.96 160.28 C 230.58 160.58 226.05 159.28 222.84 156.20 C 216.57 150.71 216.12 139.98 222.00 134.05 M 232.25 347.25 C 232.25 357.58 232.25 367.91 232.25 378.24 C 249.33 378.26 266.41 378.25 283.49 378.25 C 283.50 367.91 283.51 357.58 283.49 347.25 C 266.41 347.26 249.33 347.24 232.25 347.25 Z" />
		<path d=" M 41.38 165.12 C 49.34 146.44 67.84 132.88 88.04 130.90 C 94.35 129.88 100.67 131.19 107.00 131.01 C 134.33 130.96 161.67 130.51 189.00 130.83 C 192.60 131.09 196.08 132.74 198.56 135.38 C 204.06 140.86 203.93 150.90 198.23 156.20 C 195.32 159.19 191.12 160.59 187.01 160.51 C 180.01 160.50 173.02 160.51 166.03 160.49 C 199.44 177.93 232.88 195.35 266.28 212.83 C 273.84 216.69 276.14 227.47 271.25 234.27 C 267.07 240.62 257.84 242.43 251.39 238.59 C 236.04 230.49 220.53 222.70 205.30 214.38 C 209.85 219.82 210.62 228.39 205.91 233.97 C 201.30 240.09 192.09 241.12 185.80 237.03 C 191.40 242.98 190.95 253.33 184.55 258.52 C 179.05 263.40 170.58 262.79 164.82 258.66 C 167.98 264.76 166.72 272.92 161.25 277.26 C 156.77 280.99 150.07 281.73 144.91 279.00 C 125.16 268.76 105.46 258.42 85.73 248.14 C 81.97 246.25 78.37 244.02 74.36 242.68 C 58.69 237.15 45.96 224.22 40.22 208.68 C 34.92 194.73 35.35 178.76 41.38 165.12 Z" />
	</g>
</svg>
