<svg id="Слой_1" data-name="Слой 1" xmlns="http://www.w3.org/2000/svg" viewBox="0 0 512 645"><defs><style>.cls-1{fill:#fff;}</style></defs><path class="cls-1" d="M256,176a59.44,59.44,0,1,1,59.43-59.43A59.5,59.5,0,0,1,256,176Zm0-100a40.57,40.57,0,1,0,40.57,40.57A40.62,40.62,0,0,0,256,76Z"/><path class="cls-1" d="M176,329.29a9.45,9.45,0,0,1-9.43-9.44v-40a89.43,89.43,0,1,1,178.86,0v40a9.45,9.45,0,0,1-9.43,9.44Zm80-120a70.64,70.64,0,0,0-70.57,70.56v30.57H326.57V279.85A70.64,70.64,0,0,0,256,209.29Z"/><path class="cls-1" d="M130,561.93a9.44,9.44,0,0,1-9.43-9.43V498.33L72.11,474.11A129.45,129.45,0,0,1,.57,358.34V222.5a39.43,39.43,0,0,1,78.86,0v80.57H80a39.17,39.17,0,0,1,27.88,11.55L135.26,342c15.65,15.63,44.9,20.15,56.75,21.36l.54.06c29.66,3.19,52.88,30.36,52.88,61.86V552.5a9.44,9.44,0,0,1-9.43,9.43Zm-90-360A20.6,20.6,0,0,0,19.43,222.5V358.34a110,110,0,0,0,61.12,98.89l53.67,26.83a9.37,9.37,0,0,1,5.21,8.44v50.57h87.14V425.28c0-22-15.83-40.93-36-43.1-25.06-3.38-50.73-9-68.61-26.84L94.54,328a20.58,20.58,0,0,0-21.28-4.9l-.24.09A20.67,20.67,0,0,0,59.43,342.5a20.42,20.42,0,0,0,6,14.54l51.21,51.22a9.43,9.43,0,0,1-13.34,13.34L52.12,370.38A39.17,39.17,0,0,1,40.57,342.5a39.57,39.57,0,0,1,19.71-34.15l.29-.16V222.5A20.6,20.6,0,0,0,40,201.93Z"/><circle class="cls-1" cx="459" cy="450.5" r="9.43"/><path class="cls-1" d="M276,561.93a9.44,9.44,0,0,1-9.43-9.43V425.28c0-31.5,23.23-58.67,52.88-61.86,1.61-.28,3.29-.56,5.07-.85,15.08-2.46,37.82-6.18,52.22-20.57l27.38-27.38A39.17,39.17,0,0,1,432,303.07h.57V222.5a39.43,39.43,0,0,1,78.86,0V358.34a129.79,129.79,0,0,1-15.71,61.81,9.42,9.42,0,0,1-12.79,3.78,9.43,9.43,0,0,1-3.78-12.79,110.88,110.88,0,0,0,13.42-52.8V222.5a20.57,20.57,0,0,0-41.14,0v85.69l.29.16a39.57,39.57,0,0,1,19.71,34.15,39.17,39.17,0,0,1-11.55,27.88L408.67,421.6a9.43,9.43,0,0,1-13.34-13.34L446.54,357A20.56,20.56,0,0,0,439,323.16l-.19-.07A20.57,20.57,0,0,0,417.46,328l-27.38,27.38c-17.87,17.86-43.49,23.45-68.51,26.83-20.26,2.18-36.14,21.11-36.14,43.11V543.07h87.14V492.5a9.39,9.39,0,0,1,5.21-8.44L416,464.94a9.22,9.22,0,0,1,4.21-1,9.43,9.43,0,0,1,4.23,17.87l-33.05,16.52V552.5a9.44,9.44,0,0,1-9.43,9.43Z"/></svg>