<?xml version="1.0" encoding="UTF-8" ?>
<!DOCTYPE svg PUBLIC "-//W3C//DTD SVG 1.1//EN" "http://www.w3.org/Graphics/SVG/1.1/DTD/svg11.dtd">
<svg width="512pt" height="512pt" viewBox="0 0 512 512" version="1.1" xmlns="http://www.w3.org/2000/svg">
	<g>
		<path d=" M 252.49 0.00 L 257.59 0.00 C 299.24 0.24 340.81 10.75 377.44 30.61 C 425.15 56.27 464.30 97.48 487.43 146.47 C 503.28 179.77 511.60 216.55 512.00 253.40 L 512.00 258.58 C 511.57 300.88 500.59 343.05 479.98 380.02 C 449.85 434.66 399.07 477.54 340.05 497.86 C 313.91 506.98 286.26 511.67 258.58 512.00 L 250.15 512.00 C 208.48 510.94 167.06 499.82 130.75 479.29 C 77.97 449.79 36.31 401.00 15.61 344.17 C 5.54 316.83 0.35 287.74 0.00 258.61 L 0.00 254.28 C 0.23 226.31 4.93 198.36 14.15 171.94 C 32.45 118.91 68.88 72.43 115.84 41.77 C 156.18 15.18 204.21 0.63 252.49 0.00 M 73.08 165.40 C 73.10 168.10 73.14 170.80 73.17 173.51 C 80.04 173.85 86.08 177.62 91.35 181.73 C 104.17 192.04 114.14 205.77 119.79 221.24 C 145.76 281.34 172.46 341.13 198.25 401.32 C 201.08 401.45 203.91 401.48 206.75 401.37 C 224.93 364.22 244.69 327.88 263.50 291.06 C 279.11 327.84 294.74 364.61 310.34 401.39 C 312.94 401.42 315.54 401.43 318.14 401.42 C 347.86 333.51 376.86 265.29 406.52 197.36 C 409.30 190.67 413.22 184.23 419.08 179.82 C 424.70 175.48 431.81 173.57 438.81 173.31 C 438.86 170.76 438.91 168.22 438.94 165.67 C 414.55 165.56 390.16 165.53 365.77 165.46 C 365.75 168.08 365.73 170.69 365.70 173.32 C 376.49 173.91 388.78 178.75 392.79 189.64 C 369.33 243.39 346.15 297.27 322.78 351.06 C 309.61 321.20 296.04 291.50 283.09 261.53 C 294.23 238.27 305.46 215.05 316.68 191.82 C 323.71 180.42 337.07 173.88 350.22 173.13 C 350.21 170.69 350.20 168.26 350.18 165.83 C 326.74 165.80 303.30 165.78 279.86 165.77 C 279.81 168.34 279.75 170.91 279.66 173.48 C 285.21 173.74 290.89 173.96 296.20 175.79 C 299.10 176.80 302.14 178.69 302.93 181.87 C 303.84 185.65 302.19 189.41 300.66 192.80 C 292.23 211.38 283.41 229.79 274.27 248.04 C 264.91 228.42 256.62 208.29 247.15 188.71 C 245.52 185.58 244.88 181.34 247.45 178.52 C 251.53 174.14 257.96 173.51 263.60 173.12 C 263.60 170.67 263.60 168.23 263.60 165.79 C 236.47 165.68 209.33 165.61 182.20 165.51 C 182.18 168.16 182.15 170.82 182.11 173.47 C 191.39 173.74 201.46 174.15 209.36 179.65 C 212.89 181.98 214.76 185.86 216.43 189.58 C 229.94 218.26 242.19 247.50 255.65 276.20 C 241.37 303.49 226.73 330.60 212.56 357.95 C 188.29 302.94 165.25 247.39 140.70 192.51 C 138.91 188.45 140.84 183.78 144.14 181.15 C 150.14 176.21 157.98 174.06 165.61 173.39 C 165.64 170.73 165.66 168.07 165.69 165.41 C 134.82 165.40 103.95 165.41 73.08 165.40 Z" />
	</g>
</svg>
