<?xml version="1.0" encoding="UTF-8" ?>
<!DOCTYPE svg PUBLIC "-//W3C//DTD SVG 1.1//EN" "http://www.w3.org/Graphics/SVG/1.1/DTD/svg11.dtd">
<svg width="504pt" height="504pt" viewBox="0 0 504 504" version="1.1" xmlns="http://www.w3.org/2000/svg">
<g>
<path fill="#ffffff" d=" M 124.37 35.31 C 159.61 14.40 200.07 2.40 241.00 0.68 C 248.65 0.94 256.31 1.02 263.96 0.66 C 302.23 2.41 340.10 13.01 373.63 31.58 C 395.14 43.42 414.87 58.46 432.03 76.01 C 433.14 77.12 434.32 78.21 435.07 79.62 C 416.55 92.86 398.29 106.44 379.86 119.79 C 373.16 124.83 366.21 129.53 359.66 134.75 C 346.24 123.06 331.32 112.91 314.86 106.01 C 286.43 93.70 254.34 90.18 223.88 95.71 C 191.32 101.52 160.75 117.93 137.91 141.86 C 113.34 167.14 97.66 200.88 94.26 235.98 C 91.13 266.37 97.00 297.64 111.09 324.75 C 126.55 354.87 151.96 379.76 182.36 394.65 C 209.65 408.10 240.85 413.33 271.05 409.72 C 296.90 406.72 321.96 397.14 343.25 382.17 C 375.93 359.43 399.69 323.97 407.59 284.90 L 407.41 284.10 C 366.64 284.46 325.85 284.22 285.07 284.22 C 284.80 253.34 285.14 222.45 284.90 191.57 C 353.93 191.37 422.97 191.58 492.00 191.46 C 493.58 191.42 495.17 191.46 496.74 191.75 C 499.94 206.01 502.33 220.45 503.37 235.03 C 502.78 246.69 502.93 258.37 503.22 270.03 C 500.42 310.39 487.63 350.02 466.26 384.38 C 448.15 413.63 423.97 439.11 395.70 458.72 C 362.70 481.73 324.06 496.58 284.14 501.57 C 277.80 502.42 271.40 502.80 265.03 503.42 C 257.37 503.24 249.69 502.86 242.03 503.32 C 194.22 501.64 147.06 485.63 107.96 458.09 C 56.13 422.02 18.76 365.77 6.05 303.88 C -5.58 249.19 1.70 190.65 26.66 140.59 C 48.07 96.99 82.55 59.98 124.37 35.31 Z" />
</g>
</svg>
