<?xml version="1.0" encoding="UTF-8" ?>
<!DOCTYPE svg PUBLIC "-//W3C//DTD SVG 1.1//EN" "http://www.w3.org/Graphics/SVG/1.1/DTD/svg11.dtd">
<svg width="610pt" height="583pt" viewBox="0 0 610 583" version="1.1" xmlns="http://www.w3.org/2000/svg">
<g>
<path fill="#ffffff" d=" M 27.20 14.36 C 41.59 4.25 59.52 0.05 76.94 0.56 C 93.69 1.11 110.75 6.20 123.70 17.14 C 137.06 28.18 145.10 44.92 146.62 62.06 C 146.71 69.02 147.32 76.14 145.56 82.96 C 142.64 97.91 134.20 111.76 122.08 121.02 C 107.96 132.04 89.67 136.70 71.96 136.44 C 55.87 136.51 39.54 131.95 26.49 122.38 C 12.73 112.30 3.19 96.45 1.03 79.51 L 0.00 78.90 L 0.00 67.17 C 0.16 46.60 10.19 26.16 27.20 14.36 Z" />
<path fill="#ffffff" d=" M 385.42 200.48 C 408.20 186.06 435.66 180.43 462.34 181.06 C 480.55 181.23 498.81 184.18 515.93 190.48 C 541.37 199.54 563.74 216.89 578.86 239.25 C 589.17 254.28 596.55 271.24 601.27 288.83 C 604.14 297.57 605.12 306.76 607.05 315.72 C 607.84 319.09 607.39 322.62 608.20 326.00 C 609.11 330.23 608.23 334.66 609.41 338.83 C 609.66 344.62 609.70 350.41 610.00 356.20 L 610.00 583.00 L 479.28 583.00 C 479.26 525.01 479.28 467.02 479.27 409.03 C 479.19 390.40 479.70 371.74 478.24 353.15 C 476.36 341.00 474.55 328.53 468.78 317.50 C 463.42 305.85 454.23 295.75 442.53 290.26 C 431.89 285.05 419.72 283.70 408.01 284.57 C 393.66 285.03 379.76 290.84 368.75 299.95 C 356.87 309.97 348.16 323.70 343.84 338.61 C 341.09 353.22 341.75 368.20 341.63 383.00 C 341.61 449.66 341.66 516.33 341.60 583.00 L 210.80 583.00 C 210.97 560.00 210.64 536.99 211.12 513.99 C 211.44 438.67 211.55 363.34 211.54 288.02 C 211.67 255.44 211.08 222.87 210.80 190.31 C 254.41 190.32 298.03 190.28 341.64 190.33 C 341.61 208.23 341.63 226.14 341.63 244.05 C 341.59 245.38 341.48 246.72 341.31 248.05 C 341.48 247.12 341.75 246.22 342.10 245.35 C 353.23 227.63 367.83 211.93 385.42 200.48 Z" />
<path fill="#ffffff" d=" M 7.57 190.45 C 51.20 190.16 94.84 190.32 138.47 190.36 C 138.37 321.24 138.49 452.12 138.42 583.00 L 7.43 583.00 C 7.96 573.34 7.50 563.62 7.65 553.94 C 7.60 432.77 7.77 311.61 7.57 190.45 Z" />
</g>
</svg>
