<?xml version="1.0" encoding="UTF-8" ?>
<!DOCTYPE svg PUBLIC "-//W3C//DTD SVG 1.1//EN" "http://www.w3.org/Graphics/SVG/1.1/DTD/svg11.dtd">
<svg width="169pt" height="169pt" viewBox="0 0 169 169" version="1.1" xmlns="http://www.w3.org/2000/svg">
<g>
<path fill="#ffffff" d=" M 26.72 5.76 C 39.77 -1.26 56.13 -1.40 69.38 5.20 C 84.67 2.29 100.80 3.70 115.16 9.81 C 134.44 17.64 150.38 33.26 158.60 52.38 C 165.13 67.13 166.80 83.83 163.82 99.65 C 168.66 109.11 169.61 120.11 167.62 130.46 C 164.45 144.38 155.01 156.77 142.25 163.25 C 129.20 170.27 112.85 170.40 99.61 163.80 C 84.32 166.68 68.17 165.30 53.81 159.18 C 34.54 151.34 18.60 135.72 10.39 116.60 C 3.89 101.88 2.18 85.21 5.19 69.43 C 0.38 59.91 -0.64 48.87 1.39 38.48 C 4.56 24.59 14.00 12.24 26.72 5.76 M 42.49 14.77 C 32.36 16.71 23.23 23.38 18.38 32.49 C 13.14 42.03 12.64 54.06 17.27 63.93 C 18.23 66.08 19.66 68.28 18.98 70.74 C 16.25 84.59 17.67 99.35 23.62 112.20 C 29.75 125.83 40.69 137.18 53.94 144.04 C 66.98 150.69 82.21 152.93 96.61 150.26 C 98.79 149.80 101.16 149.58 103.14 150.83 C 109.80 154.26 117.50 155.65 124.93 154.51 C 139.61 152.54 152.07 140.32 154.39 125.70 C 156.15 117.08 153.55 108.46 149.90 100.73 C 150.29 94.82 151.76 88.96 151.33 82.98 C 151.09 62.59 140.69 42.79 124.30 30.72 C 109.86 19.90 90.89 15.49 73.13 18.62 C 70.72 19.07 68.08 19.59 65.86 18.17 C 58.73 14.49 50.38 13.17 42.49 14.77 Z" />
<path fill="#ffffff" d=" M 74.06 37.21 C 86.51 35.21 99.98 37.27 110.41 44.66 C 114.83 47.84 118.92 53.00 117.93 58.77 C 116.51 64.57 108.55 66.69 103.98 63.26 C 100.39 60.44 97.95 56.26 93.77 54.16 C 88.31 51.43 81.86 51.19 75.95 52.32 C 71.10 53.31 66.51 57.64 67.10 62.91 C 67.39 66.87 71.35 69.05 74.73 70.12 C 83.82 72.82 93.22 74.30 102.35 76.83 C 109.52 78.89 116.51 83.30 119.66 90.31 C 123.68 99.65 122.07 111.50 114.84 118.85 C 110.14 123.61 103.71 126.37 97.22 127.65 C 85.88 129.80 73.87 129.21 63.06 125.02 C 56.49 122.25 49.97 117.57 47.78 110.46 C 46.60 106.95 47.13 102.54 50.22 100.16 C 53.64 97.64 58.91 97.92 61.99 100.88 C 65.32 104.05 67.58 108.30 71.53 110.81 C 76.95 114.39 83.84 114.52 90.07 113.75 C 94.59 112.81 99.22 110.15 100.92 105.65 C 103.57 99.59 97.98 93.83 92.16 93.10 C 83.89 90.98 75.53 89.18 67.29 86.91 C 59.76 84.86 51.97 80.60 49.04 72.94 C 46.08 64.47 47.10 54.16 53.23 47.30 C 58.55 41.40 66.38 38.51 74.06 37.21 Z" />
</g>
</svg>
