<?xml version="1.0" encoding="utf-8"?>
<!-- Generator: Adobe Illustrator 14.0.0, SVG Export Plug-In . SVG Version: 6.00 Build 43363)  -->
<!DOCTYPE svg PUBLIC "-//W3C//DTD SVG 1.1//EN" "http://www.w3.org/Graphics/SVG/1.1/DTD/svg11.dtd">
<svg id="dmp10" xmlns="http://www.w3.org/2000/svg" xmlns:xlink="http://www.w3.org/1999/xlink" width="80px" height="80px" viewBox="237 168 136 136">
	<g id="dmp10_facet">
		<title>DMP-10: Persistent and Resolvable Identifiers.
Data will be assigned appropriate persistent, unique and resolvable identifiers to enable documents to cite the data on which they are based and to enable data providers to receive acknowledgement for use of their data.</title>
		<a xlink:href="http://www.geolabel.info/Identifier.htm" target="_blank">
<rect fill="#FFF02B" x="240" y="171" stroke="#1D1D1B" width="130" height="130"/>
<path fill="#FFFFFF" d="M269.035,216.272c0-2.592-0.467-4.143-1.401-4.653l-0.748-0.399c-1.287-0.842-1.931-1.75-1.931-2.725
	c0-1.905,1.277-2.858,3.83-2.858h14.794c1.018,0,1.911,0.228,2.679,0.682c0.769,0.454,1.152,1.179,1.152,2.176
	s-0.633,1.905-1.9,2.725l-0.903,0.399c-0.934,0.643-1.401,2.194-1.401,4.653v39.746c0,2.349,0.467,3.844,1.401,4.486l0.903,0.533
	c1.267,0.863,1.9,1.727,1.9,2.591c0,1.906-1.277,2.858-3.831,2.858h-14.794c-2.553,0-3.83-0.952-3.83-2.858
	c0-0.687,0.141-1.168,0.42-1.446c0.281-0.275,0.784-0.659,1.511-1.145l0.748-0.533c0.934-0.509,1.401-2.004,1.401-4.486V216.272z"/>
<path d="M283.58,267.131h-14.794c-3.698,0-4.475-1.905-4.475-3.502c0-0.872,0.2-1.495,0.61-1.903
	c0.321-0.314,0.845-0.714,1.607-1.224l0.798-0.562c0.398-0.218,1.066-1.016,1.066-3.922v-39.746c0-3.05-0.668-3.871-1.066-4.088
	l-0.743-0.395c-1.524-0.994-2.272-2.093-2.272-3.294c0-1.597,0.777-3.501,4.475-3.501h14.794c1.128,0,2.14,0.26,3.005,0.771
	c0.961,0.568,1.469,1.513,1.469,2.73c0,1.225-0.738,2.324-2.194,3.266l-0.09,0.048l-0.842,0.372
	c-0.502,0.379-1.079,1.401-1.079,4.091v39.746c0,2.083,0.389,3.451,1.123,3.957l0.865,0.508c1.484,1.009,2.217,2.06,2.217,3.146
	C288.054,265.226,287.278,267.131,283.58,267.131 M267.978,261.049l-0.719,0.513c-0.868,0.581-1.257,0.907-1.433,1.08
	c-0.066,0.066-0.227,0.3-0.227,0.987c0,1.03,0.362,2.214,3.187,2.214h14.794c2.825,0,3.187-1.184,3.187-2.214
	c0-0.79-0.88-1.557-1.619-2.06l-0.867-0.51c-1.169-0.802-1.719-2.443-1.719-5.041v-39.746c0-2.709,0.55-4.405,1.68-5.183
	l0.106-0.059l0.855-0.377c1.038-0.682,1.564-1.407,1.564-2.158c0-0.769-0.266-1.284-0.836-1.622
	c-0.665-0.393-1.456-0.592-2.351-0.592h-14.794c-2.825,0-3.187,1.184-3.187,2.214c0,0.74,0.551,1.475,1.639,2.187l0.698,0.369
	c1.174,0.642,1.743,2.348,1.743,5.221v39.746C269.679,258.751,269.122,260.398,267.978,261.049"/>
<path fill="#FFFFFF" d="M317.653,215.279c4.713,0,8.845,0.387,12.395,1.16c3.55,0.775,6.862,2.261,9.935,4.461
	c6.81,4.681,10.216,11.244,10.216,19.688c0,3.637-0.654,7.081-1.962,10.334c-1.308,3.254-3.291,6.074-5.949,8.46
	c-5.17,4.736-12.531,7.104-22.082,7.104h-25.134c-2.554,0-3.83-0.802-3.83-2.405c0-0.579,0.14-0.983,0.419-1.217
	c0.282-0.233,0.785-0.554,1.511-0.964l0.873-0.447c0.934-0.541,1.401-1.8,1.401-3.777v-33.449c0-2.069-0.467-3.374-1.401-3.915
	l-0.873-0.335c-1.286-0.709-1.93-1.474-1.93-2.293c0-0.821,0.389-1.427,1.167-1.818c0.78-0.392,1.666-0.588,2.663-0.588H317.653z
	 M309.617,250.936c0,2.722,0.306,4.53,0.918,5.425c0.613,0.896,2.311,1.343,5.093,1.343c6.208,0,10.727-2.174,14.342-5.789
	c3.497-3.5,4.49-4.829,4.387-10.626c-0.038-2.137-0.104-3.41-1.6-6.599c-1.494-3.188-3.742-5.738-6.743-7.649
	c-3-1.911-6.639-2.867-10.916-2.867c-1.785,0-3.062,0.187-3.83,0.559c-0.769,0.374-1.235,0.938-1.401,1.693
	c-0.167,0.755-0.25,1.99-0.25,3.705V250.936z"/>
<path d="M320.206,267.13h-25.134c-3.698,0-4.474-1.658-4.474-3.049c0-0.774,0.219-1.35,0.65-1.71c0.318-0.263,0.844-0.6,1.608-1.032
	l0.895-0.459c0.688-0.399,1.051-1.482,1.051-3.204v-33.448c0-1.228-0.182-2.795-1.041-3.335l-0.899-0.352
	c-1.502-0.828-2.264-1.789-2.264-2.857c0-1.065,0.526-1.892,1.522-2.393c0.866-0.435,1.859-0.656,2.952-0.656h22.58
	c4.736,0,8.952,0.395,12.532,1.175c3.622,0.79,7.045,2.326,10.173,4.567c6.953,4.778,10.485,11.581,10.485,20.211
	c0,3.704-0.676,7.261-2.009,10.575c-1.338,3.33-3.396,6.257-6.116,8.698C337.454,264.684,329.878,267.13,320.206,267.13
	 M293.445,219.394l0.922,0.362c1.159,0.671,1.722,2.134,1.722,4.473v33.448c0,2.214-0.579,3.672-1.722,4.333l-0.901,0.464
	c-0.834,0.47-1.221,0.743-1.394,0.887c-0.119,0.098-0.187,0.361-0.187,0.721c0,0.482,0,1.761,3.187,1.761h25.134
	c9.34,0,16.623-2.333,21.647-6.934c2.577-2.314,4.521-5.08,5.786-8.225c1.271-3.161,1.916-6.557,1.916-10.095
	c0-8.181-3.343-14.627-9.936-19.158c-2.997-2.145-6.259-3.61-9.708-4.363c-3.491-0.76-7.616-1.146-12.259-1.146h-22.58
	c-0.89,0-1.689,0.175-2.374,0.52c-0.562,0.282-0.813,0.666-0.813,1.243C291.885,218.375,292.724,218.99,293.445,219.394
	 M315.628,258.346c-3.08,0-4.867-0.515-5.624-1.622c-0.694-1.014-1.031-2.907-1.031-5.789V230.13c0-1.777,0.087-3.035,0.264-3.843
	c0.21-0.953,0.798-1.671,1.749-2.133c0.865-0.42,2.21-0.624,4.112-0.624c4.381,0,8.17,0.998,11.262,2.968
	c3.091,1.969,5.439,4.633,6.979,7.918c1.529,3.259,1.621,4.593,1.661,6.86c0.107,6.092-1.092,7.607-4.576,11.093
	C326.402,256.392,321.562,258.346,315.628,258.346 M315.098,224.817c-2.091,0-3.084,0.269-3.55,0.495
	c-0.595,0.288-0.929,0.686-1.054,1.251c-0.155,0.707-0.234,1.907-0.234,3.567v20.805c0,3.21,0.439,4.525,0.806,5.062
	c0.272,0.397,1.225,1.062,4.562,1.062c5.576,0,10.118-1.831,13.886-5.6c3.41-3.413,4.299-4.537,4.199-10.16
	c-0.035-1.98-0.056-3.175-1.539-6.336c-1.434-3.061-3.623-5.544-6.505-7.38C322.786,225.749,319.23,224.817,315.098,224.817"/>
		</a>
	</g>
</svg>
