<?xml version="1.0" encoding="UTF-8"?>
<!DOCTYPE svg PUBLIC "-//W3C//DTD SVG 1.1//EN" "http://www.w3.org/Graphics/SVG/1.1/DTD/svg11.dtd">
<!-- Creator: CorelDRAW 2017 -->
<svg xmlns="http://www.w3.org/2000/svg" xml:space="preserve" width="3.1988cm" height="0.90556cm" version="1.1" style="shape-rendering:geometricPrecision; text-rendering:geometricPrecision; image-rendering:optimizeQuality; fill-rule:evenodd; clip-rule:evenodd"
viewBox="0 0 23.68 6.7"
 xmlns:xlink="http://www.w3.org/1999/xlink">
 <defs>
  <style type="text/css">
   <![CDATA[
    .fil0 {fill:#888888}
    .fil1 {fill:#888888;fill-rule:nonzero}
   ]]>
  </style>
 </defs>
 <g id="Warstwa_x0020_1">
  <metadata id="CorelCorpID_0Corel-Layer"/>
  <path class="fil0" d="M0.01 3.63c0.01,0.06 0.05,0.11 0.1,0.12 0.01,0 0.03,0.01 0.05,0 0.07,-0.01 0.13,-0.07 0.12,-0.15 -0.1,-1.19 0.48,-2.3 1.5,-2.91 0.71,-0.42 1.54,-0.54 2.33,-0.34 0.8,0.2 1.47,0.7 1.89,1.41l-0.34 -0.09c-0.07,-0.02 -0.15,0.02 -0.16,0.1 -0.02,0.07 0.02,0.15 0.1,0.16l0 0 0.65 0.17c0.03,0.01 0.07,0 0.1,-0.01 0.03,-0.02 0.05,-0.05 0.06,-0.08l0.17 -0.65c0.02,-0.07 -0.02,-0.15 -0.1,-0.16 -0.07,-0.02 -0.15,0.02 -0.16,0.1l-0.09 0.34c-0.46,-0.77 -1.18,-1.31 -2.05,-1.54 -0.87,-0.22 -1.77,-0.09 -2.54,0.36 -0.55,0.33 -0.99,0.8 -1.28,1.37 -0.28,0.56 -0.4,1.17 -0.35,1.79l0 0z"/>
  <path class="fil0" d="M4.92 6c-1.46,0.87 -3.35,0.38 -4.22,-1.08l0.34 0.09c0.07,0.02 0.15,-0.02 0.16,-0.1 0.02,-0.07 -0.02,-0.15 -0.1,-0.16l-0 -0 -0.65 -0.17c-0.07,-0.02 -0.15,0.02 -0.16,0.1l-0.17 0.65c-0.02,0.07 0.02,0.15 0.1,0.16l0 0c0.07,0.02 0.15,-0.02 0.16,-0.1l0.09 -0.34c0.46,0.78 1.2,1.31 2.01,1.53 0.84,0.23 1.77,0.13 2.58,-0.35 0.55,-0.33 0.99,-0.8 1.28,-1.37 0.28,-0.55 0.4,-1.17 0.35,-1.79 -0.01,-0.07 -0.07,-0.13 -0.15,-0.12 -0.07,0.01 -0.13,0.07 -0.12,0.15 0.1,1.18 -0.48,2.3 -1.5,2.9l-0 0z"/>
  <path class="fil0" d="M3.74 2.06c-0.04,0 -0.08,0.03 -0.08,0.08 0,0.04 0.03,0.08 0.08,0.08 0.04,0 0.08,-0.03 0.08,-0.08 0,-0.04 -0.03,-0.08 -0.08,-0.08z"/>
  <path class="fil0" d="M2.96 2.06c-0.04,0 -0.08,0.03 -0.08,0.08 0,0.04 0.03,0.08 0.08,0.08 0.04,0 0.08,-0.03 0.08,-0.08 0,-0.04 -0.03,-0.08 -0.08,-0.08z"/>
  <path class="fil0" d="M5.04 3.74c0.07,-0.1 0.1,-0.23 0.1,-0.33 0,-0.16 -0.07,-0.32 -0.2,-0.42 0.03,-0.07 0.04,-0.13 0.04,-0.2 0,-0.22 -0.13,-0.42 -0.31,-0.51 0.03,-0.24 -0.13,-0.45 -0.35,-0.51 -0.09,-0.21 -0.29,-0.35 -0.5,-0.35 -0.2,0 -0.37,0.11 -0.47,0.28 -0.1,-0.17 -0.27,-0.28 -0.47,-0.28 -0.21,0 -0.41,0.14 -0.5,0.35 -0.23,0.06 -0.38,0.27 -0.35,0.51 -0.19,0.09 -0.31,0.3 -0.31,0.51 0,0.07 0.01,0.14 0.04,0.2 -0.12,0.1 -0.2,0.25 -0.2,0.42 0,0.11 0.03,0.23 0.1,0.33 -0.06,0.09 -0.1,0.2 -0.1,0.31 0,0.14 0.06,0.28 0.16,0.39 -0.05,0.32 0.2,0.65 0.54,0.65 0,0 0,0 0.01,0 0.11,0.19 0.32,0.31 0.54,0.31 0.23,0 0.44,-0.14 0.54,-0.34 0.11,0.2 0.31,0.34 0.54,0.34 0.22,0 0.43,-0.12 0.54,-0.31 0,0 0,0 0.01,0 0.3,0 0.54,-0.26 0.54,-0.57 0,-0.03 -0,-0.05 -0.01,-0.08 0.1,-0.1 0.16,-0.24 0.16,-0.39 0,-0.11 -0.04,-0.22 -0.1,-0.31l0 0zm-1.77 -1.15c-0.05,-0.03 -0.1,-0.04 -0.16,-0.04 -0.04,0 -0.08,0.03 -0.08,0.08 0,0.04 0.03,0.08 0.08,0.08 0.09,0 0.16,0.07 0.16,0.16l0 1.48c-0.11,-0.13 -0.28,-0.21 -0.47,-0.21 -0.04,0 -0.08,0.03 -0.08,0.08 0,0.04 0.03,0.08 0.08,0.08 0.26,0 0.47,0.21 0.47,0.47 0,0.27 -0.21,0.49 -0.47,0.49 -0.18,0 -0.35,-0.11 -0.42,-0.27 -0.01,-0.03 -0.05,-0.05 -0.08,-0.04 -0.01,0 -0.01,0 -0.02,0 -0.22,0.03 -0.47,-0.22 -0.4,-0.5 0.01,-0.03 -0,-0.06 -0.03,-0.08 -0.09,-0.07 -0.14,-0.18 -0.14,-0.3 0,-0.07 0.02,-0.14 0.06,-0.2 0.09,0.08 0.21,0.12 0.33,0.12 0.04,0 0.08,-0.03 0.08,-0.08 0,-0.04 -0.03,-0.08 -0.08,-0.08 -0.21,0 -0.39,-0.19 -0.39,-0.41 0,-0.13 0.07,-0.26 0.18,-0.33 0.04,-0.02 0.05,-0.07 0.03,-0.1 -0.03,-0.06 -0.05,-0.13 -0.05,-0.19 0,-0.21 0.17,-0.41 0.39,-0.41 0.21,0 0.39,0.19 0.39,0.41 0,0.04 0.03,0.08 0.08,0.08 0.04,0 0.08,-0.03 0.08,-0.08 0,-0.31 -0.25,-0.57 -0.54,-0.57 -0.03,0 -0.05,0 -0.08,0.01 0,-0 -0,-0 -0,-0.01 0,-0.17 0.14,-0.31 0.31,-0.31 0.08,0 0.16,0.03 0.22,0.09 0.03,0.03 0.08,0.03 0.11,0 0.03,-0.03 0.03,-0.08 0,-0.11 -0.07,-0.07 -0.16,-0.12 -0.26,-0.13 0.07,-0.1 0.18,-0.18 0.32,-0.18 0.21,0 0.39,0.19 0.39,0.41l0 0.61 -0 -0zm1.32 1.38c0.12,0 0.24,-0.05 0.33,-0.12 0.04,0.06 0.06,0.13 0.06,0.2 0,0.11 -0.05,0.22 -0.14,0.3 -0.02,0.02 -0.03,0.05 -0.03,0.08 0.01,0.03 0.01,0.06 0.01,0.09 0,0.24 -0.22,0.44 -0.42,0.41 -0.01,-0 -0.01,-0 -0.02,-0 -0.03,-0 -0.07,0.01 -0.08,0.04 -0.08,0.16 -0.24,0.27 -0.42,0.27 -0.25,0 -0.47,-0.22 -0.47,-0.49 0,-0.26 0.21,-0.47 0.47,-0.47 0.04,0 0.08,-0.03 0.08,-0.08 0,-0.04 -0.03,-0.08 -0.08,-0.08 -0.19,0 -0.35,0.08 -0.47,0.21l0 -1.48c0,-0.09 0.07,-0.16 0.16,-0.16 0.04,0 0.08,-0.03 0.08,-0.08 0,-0.04 -0.03,-0.08 -0.08,-0.08 -0.06,0 -0.11,0.02 -0.16,0.04l0 -0.61c0,-0.22 0.18,-0.41 0.39,-0.41 0.13,0 0.25,0.08 0.32,0.18 -0.1,0.02 -0.19,0.06 -0.26,0.13 -0.03,0.03 -0.03,0.08 0,0.11 0.03,0.03 0.08,0.03 0.11,0 0.06,-0.06 0.14,-0.09 0.22,-0.09 0.17,0 0.31,0.14 0.31,0.31 0,0 -0,0 -0,0.01 -0.03,-0 -0.05,-0.01 -0.08,-0.01 -0.3,0 -0.54,0.26 -0.54,0.57 0,0.04 0.03,0.08 0.08,0.08 0.04,0 0.08,-0.03 0.08,-0.08 0,-0.22 0.18,-0.41 0.39,-0.41 0.22,0 0.39,0.2 0.39,0.41 0,0.07 -0.02,0.13 -0.05,0.19 -0.02,0.04 -0.01,0.08 0.03,0.1 0.11,0.07 0.18,0.19 0.18,0.33 0,0.22 -0.18,0.41 -0.39,0.41 -0.04,0 -0.08,0.03 -0.08,0.08 0,0.04 0.03,0.08 0.08,0.08l-0 -0z"/>
  <path class="fil0" d="M3.1 3.08c-0.03,-0.03 -0.08,-0.03 -0.11,-0.01 -0.25,0.22 -0.65,0.04 -0.65,-0.29 0,-0.04 -0.03,-0.08 -0.08,-0.08 -0.04,0 -0.08,0.03 -0.08,0.08 0,0.27 0.2,0.49 0.46,0.54 -0.03,0.09 -0.12,0.16 -0.22,0.16 -0.04,0 -0.08,0.03 -0.08,0.08 0,0.04 0.03,0.08 0.08,0.08 0.19,0 0.35,-0.14 0.38,-0.32 0.11,-0.01 0.21,-0.06 0.29,-0.13 0.03,-0.03 0.03,-0.08 0.01,-0.11l-0 0z"/>
  <path class="fil0" d="M2.26 4.45c-0.04,0 -0.08,0.03 -0.08,0.08 0,0.04 0.03,0.08 0.08,0.08 0.21,0 0.39,0.19 0.39,0.41 0,0.04 0.03,0.08 0.08,0.08 0.04,0 0.08,-0.03 0.08,-0.08 0,-0.31 -0.25,-0.57 -0.54,-0.57z"/>
  <path class="fil0" d="M2.89 3.82c-0.26,0 -0.49,0.14 -0.61,0.35 -0.02,0.04 -0.01,0.08 0.03,0.11 0.04,0.02 0.08,0.01 0.11,-0.03 0.09,-0.16 0.27,-0.28 0.47,-0.28 0.04,0 0.08,-0.03 0.08,-0.08 0,-0.04 -0.03,-0.08 -0.08,-0.08l0 -0z"/>
  <path class="fil0" d="M4.29 3.49c-0.1,0 -0.19,-0.07 -0.22,-0.16 0.26,-0.04 0.46,-0.27 0.46,-0.54 0,-0.04 -0.03,-0.08 -0.08,-0.08 -0.04,0 -0.08,0.03 -0.08,0.08 0,0.21 -0.17,0.39 -0.39,0.39 -0.1,0 -0.19,-0.04 -0.26,-0.1 -0.03,-0.03 -0.08,-0.03 -0.11,0.01 -0.03,0.03 -0.03,0.08 0.01,0.11 0.08,0.07 0.18,0.12 0.29,0.13 0.03,0.18 0.19,0.32 0.38,0.32 0.04,0 0.08,-0.03 0.08,-0.08 0,-0.04 -0.03,-0.08 -0.08,-0.08l-0 -0z"/>
  <path class="fil0" d="M4.44 4.45c-0.3,0 -0.54,0.26 -0.54,0.57 0,0.04 0.03,0.08 0.08,0.08 0.04,0 0.08,-0.03 0.08,-0.08 0,-0.22 0.18,-0.41 0.39,-0.41 0.04,0 0.08,-0.03 0.08,-0.08 0,-0.04 -0.03,-0.08 -0.08,-0.08z"/>
  <path class="fil0" d="M4.43 4.18c-0.12,-0.21 -0.34,-0.35 -0.61,-0.35 -0.04,0 -0.08,0.03 -0.08,0.08 0,0.04 0.03,0.08 0.08,0.08 0.2,0 0.38,0.11 0.47,0.28 0.02,0.04 0.07,0.05 0.11,0.03 0.04,-0.02 0.05,-0.07 0.03,-0.11l0 0z"/>
  <path class="fil1" d="M9.97 4.37l-0.55 -0.99 0.52 -0.91c0.02,-0.03 -0.01,-0.05 -0.04,-0.05l-0.31 0c-0.03,0 -0.05,0.03 -0.07,0.05l-0.52 0.91 0.55 0.99c0.01,0.03 0.04,0.05 0.07,0.05l0.32 0c0.03,0 0.05,-0.03 0.04,-0.05zm-0.98 0l0 -1.9c0,-0.03 -0.02,-0.05 -0.05,-0.05l-0.27 0c-0.03,0 -0.05,0.02 -0.05,0.05l0 1.9c0,0.03 0.02,0.05 0.05,0.05l0.27 0c0.03,0 0.05,-0.02 0.05,-0.05zm2.56 0l0 -1.9c0,-0.03 -0.02,-0.05 -0.05,-0.05l-0.27 0c-0.03,0 -0.05,0.02 -0.05,0.05l0 1.14 -0.59 -1.14c-0.01,-0.03 -0.03,-0.05 -0.07,-0.05l-0.29 0c-0.03,0 -0.05,0.02 -0.05,0.05l0 1.9c0,0.03 0.02,0.05 0.05,0.05l0.27 0c0.03,0 0.05,-0.02 0.05,-0.05l0 -1.14 0.59 1.14c0.01,0.03 0.03,0.05 0.07,0.05l0.29 0c0.03,0 0.05,-0.02 0.05,-0.05zm1.72 -0.65l0 -0.59c0,-0.47 -0.24,-0.74 -0.69,-0.74 -0.45,0 -0.69,0.27 -0.69,0.74l0 0.59c0,0.47 0.24,0.74 0.69,0.74 0.45,0 0.69,-0.27 0.69,-0.74zm-0.38 -0.03c0,0.23 -0.07,0.41 -0.31,0.41 -0.24,0 -0.31,-0.18 -0.31,-0.41l0 -0.54c0,-0.23 0.07,-0.41 0.31,-0.41 0.24,0 0.31,0.18 0.31,0.41l0 0.54zm3.1 -1.21c0.01,-0.03 -0.01,-0.06 -0.04,-0.06l-0.32 0c-0.03,0 -0.05,0.02 -0.05,0.05l-0.28 1.41 -0.35 -1.41c-0.01,-0.03 -0.03,-0.05 -0.06,-0.05l-0.31 0c-0.03,0 -0.05,0.02 -0.06,0.05l-0.35 1.41 -0.28 -1.41c-0.01,-0.03 -0.02,-0.05 -0.05,-0.05l-0.32 0c-0.03,0 -0.05,0.03 -0.04,0.06l0.4 1.89c0.01,0.03 0.03,0.05 0.06,0.05l0.38 0c0.04,0 0.06,-0.02 0.07,-0.05l0.35 -1.26 0.34 1.26c0.01,0.03 0.03,0.05 0.07,0.05l0.38 0c0.03,0 0.06,-0.02 0.06,-0.05l0.4 -1.89zm1.38 1.89l0 -0.25c0,-0.03 -0.02,-0.05 -0.05,-0.05l-0.71 0 0 -1.6c0,-0.03 -0.02,-0.05 -0.05,-0.05l-0.27 0c-0.03,0 -0.05,0.02 -0.05,0.05l0 1.9c0,0.03 0.02,0.05 0.05,0.05l1.04 0c0.03,0 0.05,-0.02 0.05,-0.05zm1.43 0l0 -0.25c0,-0.03 -0.02,-0.05 -0.05,-0.05l-0.71 0 0 -0.49 0.65 0c0.03,0 0.05,-0.02 0.05,-0.05l0 -0.25c0,-0.03 -0.02,-0.05 -0.05,-0.05l-0.65 0 0 -0.45 0.71 0c0.03,0 0.05,-0.02 0.05,-0.05l0 -0.25c0,-0.03 -0.02,-0.05 -0.05,-0.05l-1.04 0c-0.03,0 -0.05,0.02 -0.05,0.05l0 1.9c0,0.03 0.02,0.05 0.05,0.05l1.04 0c0.03,0 0.05,-0.02 0.05,-0.05zm1.67 -0.68l0 -0.54c0,-0.47 -0.24,-0.74 -0.69,-0.74l-0.64 0c-0.03,0 -0.05,0.02 -0.05,0.05l0 1.9c0,0.03 0.02,0.05 0.05,0.05l0.64 0c0.45,0 0.69,-0.27 0.69,-0.74zm-0.38 -0.03c0,0.23 -0.07,0.41 -0.31,0.41l-0.31 0 0 -1.3 0.31 0c0.24,0 0.31,0.18 0.31,0.41l0 0.48zm2.11 0.64l0 -0.96c0,-0.03 -0.02,-0.05 -0.05,-0.05l-0.61 0c-0.03,0 -0.05,0.02 -0.05,0.05l0 0.25c0,0.03 0.02,0.05 0.05,0.05l0.29 0 0 0.42c0,0 -0.13,0.05 -0.3,0.05 -0.23,0 -0.32,-0.15 -0.32,-0.41l0 -0.51c0,-0.27 0.1,-0.44 0.38,-0.44 0.19,0 0.51,0.07 0.51,0.07 0.04,0.01 0.06,-0.01 0.06,-0.05l0 -0.24c0,-0.03 -0.02,-0.05 -0.05,-0.06 0,0 -0.22,-0.08 -0.53,-0.08 -0.49,0 -0.75,0.29 -0.75,0.79l0 0.54c0,0.47 0.22,0.74 0.69,0.74 0.39,0 0.69,-0.16 0.69,-0.16zm1.48 0.07l0 -0.25c0,-0.03 -0.02,-0.05 -0.05,-0.05l-0.71 0 0 -0.49 0.65 0c0.03,0 0.05,-0.02 0.05,-0.05l0 -0.25c0,-0.03 -0.02,-0.05 -0.05,-0.05l-0.65 0 0 -0.45 0.71 0c0.03,0 0.05,-0.02 0.05,-0.05l0 -0.25c0,-0.03 -0.02,-0.05 -0.05,-0.05l-1.04 0c-0.03,0 -0.05,0.02 -0.05,0.05l0 1.9c0,0.03 0.02,0.05 0.05,0.05l1.04 0c0.03,0 0.05,-0.02 0.05,-0.05z"/>
 </g>
</svg>
