<?xml version="1.0" encoding="UTF-8" ?>
<!DOCTYPE svg PUBLIC "-//W3C//DTD SVG 1.1//EN" "http://www.w3.org/Graphics/SVG/1.1/DTD/svg11.dtd">
<svg width="201pt" height="135pt" viewBox="0 0 201 135" version="1.1" xmlns="http://www.w3.org/2000/svg">
<g id="#ffffffff">
</g>
<g id="#00a097ff">
<path fill="#00a097" opacity="1.00" d=" M 3.18 0.00 L 145.90 0.00 C 147.29 1.36 148.89 2.88 148.68 5.02 C 148.74 17.87 148.79 30.72 148.62 43.57 C 145.55 43.13 142.47 42.77 139.38 42.53 C 139.39 39.59 139.39 36.65 139.36 33.72 C 96.24 33.64 53.13 33.69 10.01 33.69 C 9.99 64.25 10.01 94.81 10.00 125.36 C 52.65 125.39 95.30 125.48 137.95 125.31 C 141.13 123.24 145.01 123.22 148.63 122.60 C 148.52 126.82 150.02 132.19 145.88 135.00 L 3.05 135.00 C 1.68 133.24 0.41 131.28 0.70 128.93 C 0.72 87.98 0.72 47.02 0.70 6.07 C 0.38 3.67 1.67 1.70 3.18 0.00 M 93.15 11.24 C 88.88 13.51 88.92 20.54 93.37 22.61 C 97.32 24.95 102.68 21.51 102.56 17.03 C 103.01 12.30 97.19 8.64 93.15 11.24 M 111.39 11.36 C 107.54 13.61 107.32 19.64 111.03 22.13 C 114.83 25.30 121.18 21.88 120.95 17.05 C 121.44 12.25 115.39 8.51 111.39 11.36 M 130.07 11.19 C 125.43 13.59 125.89 21.35 130.94 22.92 C 135.25 24.85 140.16 20.49 139.36 16.01 C 138.96 11.73 133.82 8.90 130.07 11.19 Z" />
<path fill="#00a097" opacity="1.00" d=" M 139.36 69.11 C 142.75 69.09 146.00 70.15 148.75 72.12 C 148.68 78.41 148.72 84.70 148.74 90.99 C 149.75 96.14 143.02 97.08 139.33 97.00 C 139.45 87.70 139.41 78.41 139.36 69.11 Z" />
</g>
<g id="#eb6b21ff">
<path fill="#eb6b21" opacity="1.00" d=" M 93.15 11.24 C 97.19 8.64 103.01 12.30 102.56 17.03 C 102.68 21.51 97.32 24.95 93.37 22.61 C 88.92 20.54 88.88 13.51 93.15 11.24 Z" />
<path fill="#eb6b21" opacity="1.00" d=" M 111.39 11.36 C 115.39 8.51 121.44 12.25 120.95 17.05 C 121.18 21.88 114.83 25.30 111.03 22.13 C 107.32 19.64 107.54 13.61 111.39 11.36 Z" />
<path fill="#eb6b21" opacity="1.00" d=" M 130.07 11.19 C 133.82 8.90 138.96 11.73 139.36 16.01 C 140.16 20.49 135.25 24.85 130.94 22.92 C 125.89 21.35 125.43 13.59 130.07 11.19 Z" />
<path fill="#eb6b21" opacity="1.00" d=" M 111.31 68.19 C 116.47 57.37 128.02 49.91 140.05 49.96 C 151.82 49.86 163.20 56.91 168.61 67.33 C 172.46 74.56 173.36 83.21 171.52 91.15 C 170.87 93.83 169.48 96.29 169.02 99.01 C 169.69 99.65 170.39 100.26 171.11 100.85 C 173.38 100.41 175.90 99.52 178.05 100.82 C 183.61 104.24 188.93 108.06 194.44 111.58 C 196.37 112.92 198.58 114.08 199.90 116.12 C 200.02 118.63 200.17 121.19 199.76 123.69 C 197.83 126.99 193.04 128.15 189.92 125.81 C 183.59 121.65 177.23 117.50 170.98 113.21 C 168.56 111.72 168.07 108.77 167.55 106.22 C 166.52 105.78 165.50 105.35 164.47 104.92 C 159.36 111.01 151.94 115.11 144.04 116.02 C 133.60 117.45 122.72 113.06 115.92 105.07 C 107.19 95.17 105.33 79.95 111.31 68.19 M 135.36 62.42 C 127.55 64.34 121.18 71.09 119.80 79.03 C 117.92 88.08 122.63 98.12 130.99 102.19 C 137.71 105.73 146.36 104.92 152.38 100.32 C 159.45 95.13 162.65 85.33 160.01 76.97 C 157.25 66.66 145.79 59.64 135.36 62.42 Z" />
<path fill="#eb6b21" opacity="1.00" d=" M 20.98 53.13 C 36.92 53.15 52.86 53.14 68.81 53.14 C 68.85 54.76 68.88 56.38 68.93 57.99 C 52.93 58.01 36.94 58.00 20.95 58.00 C 20.96 56.38 20.97 54.75 20.98 53.13 Z" />
<path fill="#eb6b21" opacity="1.00" d=" M 21.09 69.24 C 46.37 69.35 71.65 69.32 96.93 69.25 C 96.99 70.86 97.05 72.48 97.11 74.10 C 71.70 74.11 46.30 74.13 20.89 74.08 C 20.95 72.47 21.02 70.85 21.09 69.24 Z" />
<path fill="#eb6b21" opacity="1.00" d=" M 21.10 85.27 C 46.37 85.35 71.64 85.36 96.91 85.27 C 96.99 86.88 97.06 88.48 97.13 90.09 C 71.72 90.12 46.31 90.12 20.90 90.09 C 20.96 88.48 21.03 86.88 21.10 85.27 Z" />
<path fill="#eb6b21" opacity="1.00" d=" M 21.17 101.31 C 46.41 101.48 71.65 101.42 96.89 101.34 C 96.97 102.92 97.05 104.50 97.11 106.08 C 71.69 106.14 46.27 106.12 20.85 106.09 C 20.95 104.50 21.06 102.90 21.17 101.31 Z" />
</g>
</svg>
