<?xml version="1.0" encoding="UTF-8" ?>
<!DOCTYPE svg PUBLIC "-//W3C//DTD SVG 1.1//EN" "http://www.w3.org/Graphics/SVG/1.1/DTD/svg11.dtd">
<svg width="478pt" height="512pt" viewBox="0 0 478 512" version="1.1" xmlns="http://www.w3.org/2000/svg">
<g id="#fefefeff">
<path fill="#fefefe" opacity="1.00" d=" M 40.58 0.00 L 316.56 0.00 C 318.66 0.32 320.66 1.23 322.13 2.81 C 349.14 29.81 376.14 56.82 403.15 83.82 C 405.70 86.54 409.32 88.94 409.65 92.99 C 410.37 98.28 405.24 103.24 399.98 102.32 C 396.32 101.92 394.06 98.74 391.59 96.39 C 365.12 69.94 338.70 43.44 312.19 17.03 C 222.47 17.11 132.75 17.03 43.03 17.06 C 32.46 16.81 22.24 23.82 18.69 33.78 C 16.72 38.61 17.06 43.91 17.07 49.01 C 17.07 187.00 17.07 325.00 17.07 462.99 C 17.06 468.10 16.72 473.41 18.70 478.24 C 22.25 488.19 32.46 495.18 43.01 494.93 C 116.69 494.93 190.37 494.92 264.04 494.93 C 269.01 494.51 273.61 499.07 273.10 504.06 C 272.92 508.12 269.49 511.44 265.55 512.00 L 40.75 512.00 C 30.20 511.43 19.89 506.96 12.46 499.41 C 5.02 492.03 0.60 481.83 0.00 471.39 L 0.00 40.74 C 0.55 30.69 4.61 20.84 11.55 13.53 C 18.99 5.46 29.64 0.62 40.58 0.00 Z" />
<path fill="#fefefe" opacity="1.00" d=" M 307.29 51.04 C 307.23 46.45 311.47 42.42 316.05 42.68 C 320.43 42.70 324.35 46.61 324.30 51.01 C 324.41 65.90 324.21 80.80 324.40 95.70 C 325.06 108.37 336.38 119.28 349.07 119.44 C 377.72 119.52 406.37 119.44 435.02 119.48 C 439.06 119.28 442.91 122.32 443.65 126.30 C 443.95 128.51 443.79 130.75 443.82 132.98 C 443.82 187.99 443.82 243.00 443.82 298.00 C 444.04 301.35 442.22 304.73 439.21 306.24 C 435.57 308.21 430.65 307.01 428.33 303.60 C 426.24 300.86 426.82 297.24 426.75 294.04 C 426.76 241.54 426.74 189.03 426.75 136.53 C 401.14 136.52 375.53 136.54 349.92 136.53 C 339.03 136.58 328.24 132.20 320.42 124.64 C 312.13 116.76 307.24 105.43 307.28 93.98 C 307.27 79.67 307.25 65.35 307.29 51.04 Z" />
<path fill="#fefefe" opacity="1.00" d=" M 91.09 154.08 C 92.67 153.50 94.39 153.63 96.04 153.59 C 112.37 153.64 128.69 153.58 145.02 153.62 C 149.58 153.44 153.74 157.51 153.62 162.08 C 153.65 179.07 153.63 196.06 153.63 213.05 C 153.90 217.71 149.76 222.01 145.09 221.84 C 128.02 221.87 110.95 221.87 93.88 221.84 C 89.20 221.99 85.06 217.67 85.36 213.00 C 85.36 196.00 85.33 179.00 85.38 162.00 C 85.35 158.49 87.78 155.19 91.09 154.08 M 102.43 204.79 C 113.81 204.80 125.18 204.80 136.56 204.79 C 136.55 193.42 136.57 182.04 136.55 170.67 C 125.18 170.67 113.81 170.67 102.44 170.67 C 102.42 182.04 102.44 193.42 102.43 204.79 Z" />
<path fill="#fefefe" opacity="1.00" d=" M 193.18 154.20 C 194.71 153.54 196.41 153.63 198.05 153.60 C 226.04 153.65 254.03 153.56 282.01 153.64 C 286.38 153.67 290.21 157.61 290.20 161.97 C 290.39 166.48 286.44 170.66 281.91 170.64 C 253.31 170.69 224.70 170.68 196.09 170.65 C 191.92 170.67 188.17 167.15 187.82 163.02 C 187.37 159.31 189.69 155.52 193.18 154.20 Z" />
<path fill="#fefefe" opacity="1.00" d=" M 194.07 205.10 C 211.67 204.40 229.38 204.99 247.02 204.80 C 251.61 204.45 255.94 208.32 256.04 212.93 C 256.43 217.82 251.92 222.23 247.06 221.86 C 230.03 221.84 212.99 221.90 195.96 221.83 C 191.78 221.80 188.05 218.19 187.81 214.03 C 187.40 210.05 190.20 206.08 194.07 205.10 Z" />
<path fill="#fefefe" opacity="1.00" d=" M 278.29 205.49 C 279.75 204.80 281.39 204.81 282.97 204.78 C 305.33 204.83 327.70 204.76 350.06 204.82 C 354.47 204.74 358.43 208.64 358.47 213.05 C 358.76 217.66 354.67 221.94 350.05 221.84 C 327.34 221.88 304.62 221.86 281.91 221.85 C 277.92 222.05 274.09 219.06 273.32 215.14 C 272.39 211.27 274.62 206.99 278.29 205.49 Z" />
<path fill="#fefefe" opacity="1.00" d=" M 137.89 259.98 C 139.72 257.02 143.44 255.40 146.85 256.18 C 150.89 256.94 153.95 260.95 153.62 265.05 C 153.55 267.56 151.97 269.61 150.64 271.62 C 139.81 287.80 129.04 304.04 118.21 320.23 C 115.60 324.74 108.72 325.65 105.09 321.89 C 99.39 316.29 93.77 310.59 88.11 304.95 C 84.84 302.05 84.42 296.63 87.26 293.30 C 90.10 289.57 96.13 289.03 99.52 292.30 C 102.95 295.58 106.25 299.00 109.63 302.34 C 119.07 288.23 128.46 274.09 137.89 259.98 Z" />
<path fill="#fefefe" opacity="1.00" d=" M 193.36 256.53 C 199.47 255.36 205.82 256.31 212.02 255.99 C 216.12 255.52 220.42 258.01 221.55 262.07 C 223.24 267.01 219.31 272.82 214.09 273.00 C 208.04 273.12 201.99 273.08 195.94 273.02 C 192.05 273.01 188.52 269.84 187.91 266.02 C 187.12 262.08 189.58 257.85 193.36 256.53 Z" />
<path fill="#fefefe" opacity="1.00" d=" M 244.40 256.59 C 245.87 255.97 247.48 256.01 249.04 255.99 C 277.03 256.04 305.02 255.96 333.01 256.02 C 336.98 255.97 340.62 259.12 341.27 263.02 C 342.32 267.96 338.12 273.14 333.06 273.04 C 304.70 273.09 276.35 273.05 247.99 273.06 C 244.14 273.32 240.37 270.67 239.33 266.96 C 238.00 262.87 240.38 258.07 244.40 256.59 Z" />
<path fill="#fefefe" opacity="1.00" d=" M 195.21 307.28 C 218.15 307.06 241.12 307.25 264.07 307.19 C 267.60 306.99 271.10 309.11 272.45 312.40 C 275.31 318.42 269.38 325.46 262.97 324.28 C 240.66 324.22 218.35 324.32 196.05 324.23 C 190.55 324.32 186.27 318.18 188.21 313.03 C 189.21 310.01 192.02 307.62 195.21 307.28 Z" />
<path fill="#fefefe" opacity="1.00" d=" M 297.29 307.33 C 314.87 307.02 332.48 307.24 350.07 307.21 C 354.66 307.14 358.74 311.39 358.47 315.99 C 358.44 320.43 354.44 324.35 350.00 324.24 C 333.00 324.28 316.00 324.27 299.01 324.25 C 294.05 324.57 289.63 319.86 290.23 314.95 C 290.52 311.21 293.58 307.88 297.29 307.33 Z" />
<path fill="#fefefe" opacity="1.00" d=" M 404.47 334.47 C 410.83 328.03 419.87 324.18 428.96 324.63 C 437.10 324.92 444.92 328.62 450.65 334.35 C 456.49 340.18 462.34 346.00 468.16 351.87 C 473.80 357.56 477.59 365.21 478.00 373.28 L 478.00 376.57 C 477.38 387.00 470.72 395.57 463.22 402.26 C 427.73 437.76 392.22 473.24 356.74 508.76 C 355.24 510.37 353.31 511.50 351.16 512.00 L 297.89 512.00 C 293.50 511.52 289.91 507.51 290.20 503.06 C 290.18 486.34 290.20 469.63 290.20 452.92 C 290.07 450.33 291.05 447.77 292.93 445.99 C 330.10 408.81 367.29 371.64 404.47 334.47 M 419.27 344.24 C 414.33 348.26 410.16 353.14 405.55 357.53 C 418.60 370.57 431.64 383.62 444.69 396.65 C 449.08 392.08 453.90 387.89 457.96 383.02 C 462.21 377.80 461.62 369.86 457.06 365.04 C 450.69 358.38 444.12 351.91 437.54 345.47 C 432.70 340.80 424.64 340.05 419.27 344.24 M 393.47 369.60 C 368.77 394.32 344.03 419.01 319.33 443.73 C 323.84 448.25 328.34 452.76 332.86 457.26 C 357.58 432.53 382.37 407.87 407.01 383.06 C 402.45 378.62 398.01 374.06 393.47 369.60 M 344.94 469.35 C 349.47 473.84 353.95 478.38 358.48 482.87 C 383.19 458.15 407.91 433.44 432.62 408.72 C 428.11 404.21 423.61 399.69 419.10 395.19 C 394.38 419.91 369.63 444.60 344.94 469.35 M 307.27 455.81 C 307.27 468.84 307.27 481.88 307.26 494.92 C 320.31 494.93 333.35 494.93 346.40 494.92 C 333.37 481.87 320.32 468.84 307.27 455.81 Z" />
<path fill="#fefefe" opacity="1.00" d=" M 92.39 358.54 C 109.92 358.24 127.48 358.48 145.02 358.42 C 149.61 358.22 153.76 362.35 153.62 366.93 C 153.65 383.95 153.64 400.98 153.62 418.01 C 153.82 422.60 149.71 426.79 145.11 426.64 C 128.07 426.67 111.04 426.66 94.00 426.64 C 89.36 426.85 85.17 422.65 85.37 418.01 C 85.35 400.99 85.34 383.97 85.37 366.95 C 85.26 362.93 88.42 359.16 92.39 358.54 M 102.43 375.47 C 102.43 386.84 102.43 398.22 102.43 409.59 C 113.81 409.59 125.18 409.59 136.56 409.59 C 136.56 398.22 136.57 386.84 136.56 375.47 C 125.18 375.47 113.81 375.47 102.43 375.47 Z" />
<path fill="#fefefe" opacity="1.00" d=" M 195.37 358.48 C 217.60 358.30 239.83 358.48 262.07 358.39 C 266.09 357.90 270.69 359.40 272.36 363.40 C 275.00 368.60 270.76 375.49 264.93 375.43 C 242.32 375.52 219.70 375.44 197.08 375.47 C 192.68 375.88 188.38 372.52 187.86 368.12 C 187.09 363.54 190.73 358.81 195.37 358.48 Z" />
<path fill="#fefefe" opacity="1.00" d=" M 297.48 358.51 C 303.61 358.28 309.77 358.45 315.91 358.42 C 320.83 358.29 325.02 363.14 324.27 367.99 C 323.83 372.06 320.11 375.48 315.99 375.44 C 310.01 375.47 304.02 375.54 298.05 375.41 C 293.36 375.23 289.57 370.53 290.26 365.92 C 290.65 362.20 293.76 358.95 297.48 358.51 Z" />
<path fill="#fefefe" opacity="1.00" d=" M 193.19 410.19 C 194.70 409.54 196.37 409.60 197.99 409.58 C 220.32 409.64 242.65 409.53 264.99 409.63 C 269.74 409.66 273.71 414.35 273.08 419.05 C 272.70 423.46 268.47 426.98 264.06 426.66 C 241.39 426.63 218.71 426.69 196.03 426.63 C 191.88 426.63 188.17 423.11 187.82 419.01 C 187.37 415.30 189.70 411.50 193.19 410.19 Z" />
</g>
</svg>
