<svg xmlns="http://www.w3.org/2000/svg" xmlns:xlink="http://www.w3.org/1999/xlink" width="628" height="344" viewBox="0 0 628 344"><defs><clipPath id="a"><rect width="628" height="344" transform="translate(3946 4927)" fill="#fff"/></clipPath></defs><g transform="translate(-960 -227)"><path d="M0,0H628V344H0Z" transform="translate(960 227)" fill="#fff"/><g transform="translate(-2986 -4700)" clip-path="url(#a)"><g transform="translate(117 52)"><g transform="translate(3903.126 4751.247)" opacity="0.61"><g transform="translate(457.16 308.975)"><path d="M440.892,157.359a16.78,16.78,0,1,1-12.582-20.12A16.781,16.781,0,0,1,440.892,157.359Z" transform="translate(-398.75 -136.806)" fill="#dcdcdc"/><g transform="translate(0 7.864)"><path d="M422.524,161.209c-14.611-3.367-25.167-9.865-24.361-13.357s12.856-3.488,27.469-.121,25.447,8.642,24.643,12.133S437.135,164.577,422.524,161.209Zm2.914-12.641c-12.663-2.919-23.958-2.792-24.581-.094s9.5,7.652,22.166,10.571,23.934,2.9,24.556.2S438.1,151.486,425.438,148.568Z" transform="translate(-398.12 -145.22)" fill="#aeaeae" stroke="#aeaeae" stroke-linecap="round" stroke-linejoin="round" stroke-width="2"/></g><path d="M425.108,152.694a125.558,125.558,0,0,0,16.174,2.816,16.778,16.778,0,0,0-32.409-7.727C414.339,149.23,419.625,151.3,425.108,152.694Z" transform="translate(-398.823 -136.806)" fill="#dcdcdc"/></g><g transform="translate(33.123 387.438)"><path d="M352.834,356.942a15.342,15.342,0,1,1-18.8-10.832A15.34,15.34,0,0,1,352.834,356.942Z" transform="translate(-322.673 -345.58)" fill="#c4c4c4"/><g transform="translate(2.036 2.378)"><path d="M332.259,358.287a3.768,3.768,0,1,1-4.616-2.662A3.768,3.768,0,0,1,332.259,358.287Z" transform="translate(-324.851 -348.607)" fill="#9b9b9a" opacity="0.9"/><path d="M344.132,349.32a1.615,1.615,0,1,1-1.979-1.139A1.615,1.615,0,0,1,344.132,349.32Z" transform="translate(-325.905 -348.125)" fill="#9b9b9a" opacity="0.6"/><path d="M339.171,363.406A2.422,2.422,0,1,1,336.2,361.7,2.422,2.422,0,0,1,339.171,363.406Z" transform="translate(-325.476 -349.007)" fill="#9b9b9a" opacity="0.8"/><path d="M352.188,355.775a1.077,1.077,0,1,1-1.32-.76A1.076,1.076,0,0,1,352.188,355.775Z" transform="translate(-326.501 -348.573)" fill="#9b9b9a" opacity="0.8"/><path d="M331.269,368.583a1.615,1.615,0,1,1-1.979-1.14A1.615,1.615,0,0,1,331.269,368.583Z" transform="translate(-325.063 -349.385)" fill="#9b9b9a" opacity="0.6"/><path d="M346.145,370.24a1.884,1.884,0,1,1-2.308-1.331A1.883,1.883,0,0,1,346.145,370.24Z" transform="translate(-326.002 -349.48)" fill="#9b9b9a"/><g transform="translate(9.407 9.542)"><path d="M335.747,359.66a.673.673,0,0,0-.35-1.3.673.673,0,0,0,.35,1.3Z" transform="translate(-334.916 -358.334)" fill="#9b9b9a"/></g><g transform="translate(21.466 21.063)" opacity="0.8"><path d="M349.065,372.652a1.01,1.01,0,0,0-.524-1.95,1.01,1.01,0,0,0,.524,1.95Z" transform="translate(-347.82 -370.662)" fill="#9b9b9a"/></g><g transform="translate(26.19 9.841)"><path d="M353.5,359.648a.5.5,0,0,0-.261-.974.5.5,0,0,0,.261.974Z" transform="translate(-352.874 -358.655)" fill="#9b9b9a"/></g><g transform="translate(0.023 16.108)"><path d="M325.706,366.684a.672.672,0,0,0-.349-1.3.672.672,0,0,0,.349,1.3Z" transform="translate(-324.876 -365.36)" fill="#9b9b9a"/></g><g transform="translate(15.85 25.037)"><path d="M342.557,376.107a.606.606,0,0,0-.314-1.169.606.606,0,0,0,.314,1.169Z" transform="translate(-341.811 -374.914)" fill="#9b9b9a"/></g></g></g><g transform="translate(-39.794 160.684)"><path d="M126.068,404.21A18.459,18.459,0,1,1,102.5,392.98,18.458,18.458,0,0,1,126.068,404.21Z" transform="translate(-90.206 -391.914)" fill="#c1c1c1"/><g transform="translate(0.292 0.117)"><path d="M121.238,404.45a5.563,5.563,0,0,0-1.111.507.338.338,0,0,1-.212.14l-.021,0-.021.012a.3.3,0,0,1-.336,0,1.273,1.273,0,0,1-.942-.788c-.3-.549-.6-1.61-1.521-1.432-.884.172-.941.641-1.252,1.28-.863,1.768-2.586,1.416-4.194.983a4,4,0,0,0-2.417-.222c-1.168.5-.982,1.082-1.313,2.006a2.448,2.448,0,0,1-2.106,1.623,5.319,5.319,0,0,0-2.316.858,3.529,3.529,0,0,0-.66.566q-.035,1.626,1.367,1.453c1.164-.221,2.093-1.02,3.222-1.347a1.714,1.714,0,0,1,1.721.457c.426.611.145,1.321.458,1.931.552,1.08,2.66.2,3.031-.6.173-.374.3-.757.437-1.144a3.747,3.747,0,0,1,1.44-2.082,1.921,1.921,0,0,1,1.976-.2c.493.351.731,1.1,1.412,1.179,1.156.141,1.537-.558,2.163-1.258a6.067,6.067,0,0,1,2.108-1.485c.714-.342,1.65-.876.708-2.012A1.471,1.471,0,0,0,121.238,404.45Z" transform="translate(-91.323 -392.748)" fill="#e9e9e9"/><path d="M97.511,402.157a30.6,30.6,0,0,1,2.918-1.528c1.138-.432,2.338-.6,3.508-.927a9.785,9.785,0,0,0,3.663-1.718,7.427,7.427,0,0,1,2.557-1.6c.936-.262,1.914.1,2.872-.223,1.3-.44.2-1.235-.593-1.39a13.7,13.7,0,0,0-1.68-.28c-2.243-.154-3.034.868-4.4,2.316a5.145,5.145,0,0,1-2.1,1.481c-1.037.363-2.193.081-3.257.227a6.969,6.969,0,0,0-2.52.979c-1.514.855-3.953,2.622-5.9,2.19a18.481,18.481,0,0,0-.815,1.683C93.656,403.965,95.833,403.011,97.511,402.157Z" transform="translate(-90.601 -392.198)" fill="#e9e9e9"/><path d="M123.588,414.317a9.244,9.244,0,0,1-4.508,2.678c-2.708.618-5.525-.049-8.244.453-1.573.29-3.011,1-4.565,1.362-.619.144-1.258.234-1.863.427-.657.211-1.679,1.242-.549,1.649,1.935.694,4.459-.681,6.3-1.231,2.525-.751,5.171-.22,7.752-.42a8.969,8.969,0,0,0,4.849-1.574c1.006-.765,1.888-1.7,2.926-2.417a4.875,4.875,0,0,1,2.108-.88,18.479,18.479,0,0,0,.2-2.412C126.6,411.471,124.528,413.468,123.588,414.317Z" transform="translate(-91.358 -393.337)" fill="#e9e9e9"/><path d="M120.429,399.153a6.746,6.746,0,0,0,1.831-.571c.523-.237,1.031-.507,1.539-.776q-.593-.608-1.238-1.158c-.977.588-2.3.886-3,1.656C119,398.917,119.893,399.226,120.429,399.153Z" transform="translate(-92.407 -392.34)" fill="#e9e9e9"/><path d="M111.057,427.286a40.233,40.233,0,0,0,4.565-1.612,4.55,4.55,0,0,0,.833-.454q-.024-1.026-1.1-.621a8.5,8.5,0,0,0-1.762.423c-1.285.461-2.533,1.01-3.86,1.345-1.079.271-2.246.108-3.274.615-1.483.733-2.157,2.134-3.42,2.81a18.533,18.533,0,0,0,2.16.662c.98-.558,1.6-1.4,2.586-1.978A15.347,15.347,0,0,1,111.057,427.286Z" transform="translate(-91.338 -394.161)" fill="#e9e9e9"/><path d="M124.839,422.321c-.6.182-2.008.533-1.9,1.4.091.743.657.772,1.266.6a9.554,9.554,0,0,0,.948-.357,18.573,18.573,0,0,0,1.475-2.108C126.029,422.03,125.4,422.148,124.839,422.321Z" transform="translate(-92.639 -393.989)" fill="#e9e9e9"/><path d="M104.811,405.1c.252-.327.5-.653.766-.967a5.888,5.888,0,0,1,2.318-1.508,9.6,9.6,0,0,1,3.05-.459,3.549,3.549,0,0,0,1.937-.371c.4-.287,1.567-1.2.092-1.261a.317.317,0,0,1-.108-.025c-3.27,1.128-7.689.977-9.789,4.142C102.3,405.82,104.191,405.9,104.811,405.1Z" transform="translate(-91.328 -392.593)" fill="#e9e9e9"/><path d="M95.692,413.931c.824-.233,1.647-.482,2.451-.78.4-.149.813-.294,1.2-.481.116-.055,1.566-.956.2-.893a13.672,13.672,0,0,0-4.169,1.415c-.728.287-1.554-.065-2.258.22-.971.393-1.682,1.078-2.594,1.494.084.471.185.941.307,1.409.75-.5,1.327-1.327,2.12-1.8S94.835,414.172,95.692,413.931Z" transform="translate(-90.519 -393.33)" fill="#e9e9e9"/><path d="M111.086,422.869c-1.91-.951-4.676.7-6.489,1.25-2.5.761-4.729,1.279-6.758,2.831.362.279.733.547,1.111.8C101.59,423.963,107.461,425.451,111.086,422.869Z" transform="translate(-90.998 -394.037)" fill="#e9e9e9"/><path d="M105.536,393.472c.571-.486,1.079-.993,1.654-1.433a18.552,18.552,0,0,0-8.023,2.889C101.411,395.076,103.834,394.92,105.536,393.472Z" transform="translate(-91.085 -392.039)" fill="#e9e9e9"/><path d="M121.273,412.206c-1.145.293-2.3.536-3.441.86-.293.085-3.051,1.041-1.786,1.229a11.534,11.534,0,0,0,6.5-1.57c2.1-1.243,3.861-2.993,6.137-3.369q-.079-.7-.211-1.4C125.644,408.3,124.047,411.495,121.273,412.206Z" transform="translate(-92.167 -393.08)" fill="#e9e9e9"/><path d="M98.873,407.156a.291.291,0,0,1-.33.174,1.745,1.745,0,0,1-1.283.374c-.5-.031-1.246-.249-1.629.2-.6.7-.147,1.189.6,1.335a4.654,4.654,0,0,0,2.62-.32,2.686,2.686,0,0,0,1.188-.779C100.755,407.131,99.448,405.9,98.873,407.156Z" transform="translate(-90.835 -392.993)" fill="#e9e9e9"/><path d="M96.181,419.331a6.68,6.68,0,0,1,1.625-.781c.707-.239,1.429-.459,2.111-.763.3-.131,2.6-1.529,1.1-1.678a10.627,10.627,0,0,0-4.919.683c-1.61.782-2.554,2.228-4.236,2.546q.371.85.815,1.644A12.309,12.309,0,0,0,96.181,419.331Z" transform="translate(-90.607 -393.611)" fill="#e9e9e9"/></g></g></g><g transform="translate(3887.82 4792.102)"><path d="M166,160.333c1.667,2.834,4.5,5,6.667,7.5" fill="none" stroke="#fff" stroke-miterlimit="10" stroke-width="0.25"/><path d="M173.667,160.5c-3,2.333-5.333,5-8.833,6.667" fill="none" stroke="#fff" stroke-miterlimit="10" stroke-width="0.25"/><path d="M170,159.5c-1,3.167-1.833,6.5-2.666,9.667" fill="none" stroke="#fff" stroke-miterlimit="10" stroke-width="0.25"/><path d="M163.667,163.667c3.833.166,7.667.833,11.333.833" fill="none" stroke="#fff" stroke-miterlimit="10" stroke-width="0.25"/><path d="M465.5,297a79.305,79.305,0,0,0,6.667,6.334" fill="none" stroke="#fff" stroke-miterlimit="10" stroke-width="0.25"/><path d="M472.5,296.167a25.114,25.114,0,0,1-8,7.667" fill="none" stroke="#fff" stroke-miterlimit="10" stroke-width="0.25"/><path d="M468.667,295.834a64.21,64.21,0,0,1-.167,9.833" fill="none" stroke="#fff" stroke-miterlimit="10" stroke-width="0.25"/><path d="M463.334,300.5H474.5" fill="none" stroke="#fff" stroke-miterlimit="10" stroke-width="0.25"/><path d="M245.5,392a33.256,33.256,0,0,0,7.333,7.166" fill="none" stroke="#fff" stroke-miterlimit="10" stroke-width="0.25"/><path d="M252.333,392.337a31.86,31.86,0,0,1-8.833,6" fill="none" stroke="#fff" stroke-miterlimit="10" stroke-width="0.25"/><path d="M248.666,390.837c0,3.167-1,6.167-1,9.167" fill="none" stroke="#fff" stroke-miterlimit="10" stroke-width="0.25"/><path d="M243.5,394.837c3.5.667,6.833.167,10.166,1" fill="none" stroke="#fff" stroke-miterlimit="10" stroke-width="0.25"/><path d="M49.166,367.671A50.171,50.171,0,0,0,57,374.337" fill="none" stroke="#fff" stroke-miterlimit="10" stroke-width="0.25"/><path d="M56.5,367.171c-2.167,3-4.334,6-7.334,8.166" fill="none" stroke="#fff" stroke-miterlimit="10" stroke-width="0.25"/><path d="M52.166,366.671a49.467,49.467,0,0,1,1.167,9.833" fill="none" stroke="#fff" stroke-miterlimit="10" stroke-width="0.25"/><path d="M48,372c3.333-.5,6.833-.5,10.166-1" fill="none" stroke="#fff" stroke-miterlimit="10" stroke-width="0.25"/><path d="M369.166,57.005c1.833,2.833,5.166,4.5,7.666,6.5" fill="none" stroke="#fff" stroke-miterlimit="10" stroke-width="0.25"/><path d="M375.5,56.672a22.469,22.469,0,0,1-5.833,6.666" fill="none" stroke="#fff" stroke-miterlimit="10" stroke-width="0.25"/><path d="M372.332,55.672A87.155,87.155,0,0,1,372.666,65" fill="none" stroke="#fff" stroke-miterlimit="10" stroke-width="0.25"/><path d="M367.666,60.672c3.333,0,6.666.333,9.833-.167" fill="none" stroke="#fff" stroke-miterlimit="10" stroke-width="0.25"/><path d="M115.666,81.673c2,2.166,5,3.833,7.5,5.166" fill="none" stroke="#fff" stroke-miterlimit="10" stroke-width="0.25"/><path d="M122,80.673a48.906,48.906,0,0,1-6.667,7.666" fill="none" stroke="#fff" stroke-miterlimit="10" stroke-width="0.25"/><path d="M118.833,80.173a75.4,75.4,0,0,1,.333,8.666" fill="none" stroke="#fff" stroke-miterlimit="10" stroke-width="0.25"/><path d="M114.833,85.173c3,.166,6-.667,8.833-.5" fill="none" stroke="#fff" stroke-miterlimit="10" stroke-width="0.25"/></g><g transform="translate(3887.82 4792.102)"><path d="M222.859,126.692l-1.133-2.072-2.072-1.133,2.072-1.133,1.133-2.072,1.133,2.072,2.072,1.133-2.072,1.133Z" fill="#e2e2e2"/><path d="M175.334,308.743l-2.189-2.033-2.939-.53,2.032-2.188.531-2.939,2.189,2.033,2.939.53-2.032,2.189Z" transform="translate(-27 -76)" fill="#e2e2e2"/><path d="M479.18,249l-1.322-2.418-2.42-1.323,2.42-1.323,1.322-2.419,1.322,2.419,2.42,1.323-2.42,1.323Z" transform="translate(47 137)" fill="#e2e2e2"/><path d="M16.36,439.513,15,437.027l-2.486-1.359L15,434.308l1.359-2.486,1.36,2.485,2.486,1.359-2.486,1.36Z" fill="#e2e2e2"/><path d="M388.154,18.359,386.38,16.1l-2.713-.945,2.26-1.774.945-2.713,1.774,2.26,2.713.945-2.26,1.774Z" transform="translate(34 117)" fill="#e2e2e2"/><path d="M26.616,301.052,23.9,299.393l-2.908,1.3.738-3.1L19.6,295.229l3.174-.255,1.589-2.76,1.224,2.939,3.116.659-2.418,2.072Z" transform="translate(29 93)" fill="#e2e2e2"/><path d="M380.462,405.986,379.2,403.43l-2.821-.41,2.042-1.99-.482-2.81,2.524,1.326,2.524-1.326-.482,2.81,2.042,1.99-2.821.41Z" fill="#e2e2e2"/><path d="M380.462,405.986,379.2,403.43l-2.821-.41,2.042-1.99-.482-2.81,2.524,1.326,2.524-1.326-.482,2.81,2.042,1.99-2.821.41Z" transform="translate(-266 -96)" fill="#e2e2e2"/><path d="M479.18,183.1l-2.087-1.344-2.29.958.633-2.4-1.618-1.882,2.478-.14,1.29-2.121.9,2.313,2.415.571-1.923,1.57Z" fill="#e2e2e2"/><path d="M226.064,46.564l-3.039-1.349-2.834,1.739.344-3.307-2.529-2.157,3.251-.7,1.271-3.073,1.666,2.877,3.314.258-2.222,2.474Z" transform="translate(-36 314)" fill="#e2e2e2"/><path d="M297.77,315.834l-1.58-1.28-1.951.577.729-1.9-1.152-1.677,2.032.105,1.239-1.613.527,1.965,1.917.681-1.706,1.108Z" fill="#e2e2e2"/><path d="M193.689,457.462l-.754-1.527-1.685-.245,1.221-1.189-.289-1.679,1.508.793,1.508-.793-.289,1.679,1.221,1.189-1.686.245Z" fill="#e2e2e2"/><path d="M273.41,184.128l-1.13-2.29-2.527-.367,1.829-1.783-.432-2.518,2.26,1.189,2.262-1.189-.432,2.518,1.828,1.783-2.527.367Z" transform="translate(93 63)" fill="#e2e2e2"/><path d="M273.41,184.128l-1.13-2.29-2.527-.367,1.829-1.783-.432-2.518,2.26,1.189,2.262-1.189-.432,2.518,1.828,1.783-2.527.367Z" transform="translate(-225 44)" fill="#e2e2e2"/><path d="M49.693,143.359l-2.139-1.793-2.689.746,1.044-2.588L44.37,137.4l2.784.194,1.738-2.184.676,2.707,2.614.978-2.366,1.48Z" transform="translate(-7 -32)" fill="#e2e2e2"/><path d="M49.693,143.359l-2.139-1.793-2.689.746,1.044-2.588L44.37,137.4l2.784.194,1.738-2.184.676,2.707,2.614.978-2.366,1.48Z" transform="translate(-79 63)" fill="#e2e2e2"/></g><path d="M133.964,154.577" transform="translate(3788.344 4754.5)" stroke="#000" stroke-miterlimit="10" stroke-width="0.5"/><path d="M121.143,177.013" transform="translate(3788.344 4754.5)" stroke="#000" stroke-miterlimit="10" stroke-width="0.5"/><path d="M108.323,267.4" transform="translate(3788.344 4754.5)" stroke="#000" stroke-miterlimit="10" stroke-width="0.5"/><path d="M123.066,294.962" transform="translate(3788.344 4754.5)" stroke="#000" stroke-miterlimit="10" stroke-width="0.5"/><path d="M163.451,144.961" transform="translate(3788.344 4754.5)" stroke="#000" stroke-miterlimit="10" stroke-width="0.5"/><path d="M99.989,160.346" transform="translate(3788.344 4754.5)" stroke="#000" stroke-miterlimit="10" stroke-width="0.4"/><path d="M99.989,198.167" transform="translate(3788.344 4754.5)" stroke="#000" stroke-miterlimit="10" stroke-width="0.4"/><path d="M134.6,276.372" transform="translate(3788.344 4754.5)" stroke="#000" stroke-miterlimit="10" stroke-width="0.4"/><path d="M151.271,162.91" transform="translate(3788.344 4754.5)" stroke="#000" stroke-miterlimit="10" stroke-width="0.3"/><path d="M115.375,148.167" transform="translate(3788.344 4754.5)" stroke="#000" stroke-miterlimit="10" stroke-width="0.3"/><path d="M96.784,181.5" transform="translate(3788.344 4754.5)" stroke="#000" stroke-miterlimit="10" stroke-width="0.3"/><path d="M106.4,287.91" transform="translate(3788.344 4754.5)" stroke="#000" stroke-miterlimit="10" stroke-width="0.3"/><path d="M116.656,167.4" transform="translate(3788.344 4754.5)" stroke="#000" stroke-miterlimit="10" stroke-width="0.6"/><path d="M99.348,271.885" transform="translate(3788.344 4754.5)" stroke="#000" stroke-miterlimit="10" stroke-width="0.6"/><path d="M139.733,293.68" transform="translate(3788.344 4754.5)" stroke="#000" stroke-miterlimit="10" stroke-width="0.6"/><path d="M152.553,139.192" transform="translate(3788.344 4754.5)" stroke="#000" stroke-miterlimit="10" stroke-width="0.6"/><path d="M139.091,141.115" transform="translate(3788.344 4754.5)" stroke="#000" stroke-miterlimit="10" stroke-width="0.25"/><path d="M135.886,175.731" transform="translate(3788.344 4754.5)" stroke="#000" stroke-miterlimit="10" stroke-width="0.25"/><path d="M118.58,280.859" transform="translate(3788.344 4754.5)" stroke="#000" stroke-miterlimit="10" stroke-width="0.25"/><path d="M149.99,152.654" transform="translate(3788.344 4754.5)" stroke="#000" stroke-miterlimit="10" stroke-width="0.4"/><path d="M99.989,171.885" transform="translate(3788.344 4754.5)" stroke="#000" stroke-miterlimit="10" stroke-width="0.4"/><path d="M132.681,285.987" transform="translate(3788.344 4754.5)" stroke="#000" stroke-miterlimit="10" stroke-width="0.4"/><path d="M139.733,162.269" transform="translate(3788.344 4754.5)" stroke="#000" stroke-miterlimit="10" stroke-width="0.4"/><path d="M164.733,126.372" transform="translate(3788.344 4754.5)" stroke="#000" stroke-miterlimit="10" stroke-width="0.4"/><path d="M155.118,128.295" transform="translate(3788.344 4754.5)" stroke="#000" stroke-miterlimit="10" stroke-width="0.3"/><path d="M128.2,168.039" transform="translate(3788.344 4754.5)" stroke="#000" stroke-miterlimit="10" stroke-width="0.3"/><path d="M108.323,280.859" transform="translate(3788.344 4754.5)" stroke="#000" stroke-miterlimit="10" stroke-width="0.3"/><path d="M147.425,300.09" transform="translate(3788.344 4754.5)" stroke="#000" stroke-miterlimit="10" stroke-width="0.3"/><path d="M109.605,185.346" transform="translate(3788.344 4754.5)" stroke="#000" stroke-miterlimit="10" stroke-width="0.3"/><path d="M102.553,259.064" transform="translate(3788.344 4754.5)" stroke="#000" stroke-miterlimit="10" stroke-width="0.3"/><path d="M160.886,136.628" transform="translate(3788.344 4754.5)" stroke="#000" stroke-miterlimit="10" stroke-width="0.2"/><path d="M121.785,156.5" transform="translate(3788.344 4754.5)" stroke="#000" stroke-miterlimit="10" stroke-width="0.2"/><path d="M96.784,193.039" transform="translate(3788.344 4754.5)" stroke="#000" stroke-miterlimit="10" stroke-width="0.2"/><path d="M122.425,271.243" transform="translate(3788.344 4754.5)" stroke="#000" stroke-miterlimit="10" stroke-width="0.2"/><path d="M97.425,283.423" transform="translate(3788.344 4754.5)" stroke="#000" stroke-miterlimit="10" stroke-width="0.2"/><path d="M135.246,301.372" transform="translate(3788.344 4754.5)" stroke="#000" stroke-miterlimit="10" stroke-width="0.2"/><path d="M167.3,117.4" transform="translate(3788.344 4754.5)" stroke="#000" stroke-miterlimit="10" stroke-width="0.2"/><path d="M155.758,306.5" transform="translate(3788.344 4754.5)" stroke="#000" stroke-miterlimit="10" stroke-width="0.2"/><path d="M465.375,34.705" transform="translate(3788.344 4754.5)" stroke="#000" stroke-miterlimit="10" stroke-width="0.5"/><path d="M501.913,42.4" transform="translate(3788.344 4754.5)" stroke="#000" stroke-miterlimit="10" stroke-width="0.5"/><path d="M492.938,71.244" transform="translate(3788.344 4754.5)" stroke="#000" stroke-miterlimit="10" stroke-width="0.5"/><path d="M496.143,102.013" transform="translate(3788.344 4754.5)" stroke="#000" stroke-miterlimit="10" stroke-width="0.5"/><path d="M453.836,98.808" transform="translate(3788.344 4754.5)" stroke="#000" stroke-miterlimit="10" stroke-width="0.5"/><path d="M430.118,120.6" transform="translate(3788.344 4754.5)" stroke="#000" stroke-miterlimit="10" stroke-width="0.5"/><path d="M385.886,105.859" transform="translate(3788.344 4754.5)" stroke="#000" stroke-miterlimit="10" stroke-width="0.5"/><path d="M369.861,137.91" transform="translate(3788.344 4754.5)" stroke="#000" stroke-miterlimit="10" stroke-width="0.5"/><path d="M479.476,48.167" transform="translate(3788.344 4754.5)" stroke="#000" stroke-miterlimit="10" stroke-width="0.4"/><path d="M516.015,62.91" transform="translate(3788.344 4754.5)" stroke="#000" stroke-miterlimit="10" stroke-width="0.4"/><path d="M473.066,85.987" transform="translate(3788.344 4754.5)" stroke="#000" stroke-miterlimit="10" stroke-width="0.4"/><path d="M471.785,116.756" transform="translate(3788.344 4754.5)" stroke="#000" stroke-miterlimit="10" stroke-width="0.4"/><path d="M419.861,96.244" transform="translate(3788.344 4754.5)" stroke="#000" stroke-miterlimit="10" stroke-width="0.4"/><path d="M404.476,130.859" transform="translate(3788.344 4754.5)" stroke="#000" stroke-miterlimit="10" stroke-width="0.4"/><path d="M356.4,114.834" transform="translate(3788.344 4754.5)" stroke="#000" stroke-miterlimit="10" stroke-width="0.4"/><path d="M483.964,30.859" transform="translate(3788.344 4754.5)" stroke="#000" stroke-miterlimit="10" stroke-width="0.3"/><path d="M506.4,80.218" transform="translate(3788.344 4754.5)" stroke="#000" stroke-miterlimit="10" stroke-width="0.3"/><path d="M473.707,102.013" transform="translate(3788.344 4754.5)" stroke="#000" stroke-miterlimit="10" stroke-width="0.3"/><path d="M436.528,95.6" transform="translate(3788.344 4754.5)" stroke="#000" stroke-miterlimit="10" stroke-width="0.3"/><path d="M404.476,116.756" transform="translate(3788.344 4754.5)" stroke="#000" stroke-miterlimit="10" stroke-width="0.3"/><path d="M349.99,131.5" transform="translate(3788.344 4754.5)" stroke="#000" stroke-miterlimit="10" stroke-width="0.3"/><path d="M492.3,46.244" transform="translate(3788.344 4754.5)" stroke="#000" stroke-miterlimit="10" stroke-width="0.6"/><path d="M494.22,90.474" transform="translate(3788.344 4754.5)" stroke="#000" stroke-miterlimit="10" stroke-width="0.6"/><path d="M443.58,112.269" transform="translate(3788.344 4754.5)" stroke="#000" stroke-miterlimit="10" stroke-width="0.6"/><path d="M405.118,107.141" transform="translate(3788.344 4754.5)" stroke="#000" stroke-miterlimit="10" stroke-width="0.6"/><path d="M369.861,124.449" transform="translate(3788.344 4754.5)" stroke="#000" stroke-miterlimit="10" stroke-width="0.6"/><path d="M351.271,146.244" transform="translate(3788.344 4754.5)" stroke="#000" stroke-miterlimit="10" stroke-width="0.6"/><path d="M501.271,59.064" transform="translate(3788.344 4754.5)" stroke="#000" stroke-miterlimit="10" stroke-width="0.25"/><path d="M484.605,87.91" transform="translate(3788.344 4754.5)" stroke="#000" stroke-miterlimit="10" stroke-width="0.25"/><path d="M459.605,115.474" transform="translate(3788.344 4754.5)" stroke="#000" stroke-miterlimit="10" stroke-width="0.25"/><path d="M425.631,104.577" transform="translate(3788.344 4754.5)" stroke="#000" stroke-miterlimit="10" stroke-width="0.25"/><path d="M383.323,125.09" transform="translate(3788.344 4754.5)" stroke="#000" stroke-miterlimit="10" stroke-width="0.25"/><path d="M368.58,107.141" transform="translate(3788.344 4754.5)" stroke="#000" stroke-miterlimit="10" stroke-width="0.25"/><path d="M392.3,116.115" transform="translate(3788.344 4754.5)" stroke="#000" stroke-miterlimit="10" stroke-width="0.7"/><path d="M492.3,58.423" transform="translate(3788.344 4754.5)" stroke="#000" stroke-miterlimit="10" stroke-width="0.7"/><path d="M474.348,26.372" transform="translate(3788.344 4754.5)" stroke="#000" stroke-miterlimit="10" stroke-width="0.7"/><path d="M417.938,114.834" transform="translate(3788.344 4754.5)" stroke="#000" stroke-miterlimit="10" stroke-width="0.4"/><path d="M480.118,37.91" transform="translate(3788.344 4754.5)" stroke="#000" stroke-miterlimit="10" stroke-width="0.4"/><path d="M483.323,108.423" transform="translate(3788.344 4754.5)" stroke="#000" stroke-miterlimit="10" stroke-width="0.4"/><path d="M437.81,105.218" transform="translate(3788.344 4754.5)" stroke="#000" stroke-miterlimit="10" stroke-width="0.4"/><path d="M359.605,134.705" transform="translate(3788.344 4754.5)" stroke="#000" stroke-miterlimit="10" stroke-width="0.4"/><path d="M493.58,35.987" transform="translate(3788.344 4754.5)" stroke="#000" stroke-miterlimit="10" stroke-width="0.3"/><path d="M494.861,81.5" transform="translate(3788.344 4754.5)" stroke="#000" stroke-miterlimit="10" stroke-width="0.3"/><path d="M483.323,101.372" transform="translate(3788.344 4754.5)" stroke="#000" stroke-miterlimit="10" stroke-width="0.3"/><path d="M458.323,105.218" transform="translate(3788.344 4754.5)" stroke="#000" stroke-miterlimit="10" stroke-width="0.3"/><path d="M376.912,113.551" transform="translate(3788.344 4754.5)" stroke="#000" stroke-miterlimit="10" stroke-width="0.3"/><path d="M344.22,143.68" transform="translate(3788.344 4754.5)" stroke="#000" stroke-miterlimit="10" stroke-width="0.3"/><path d="M503.836,68.68" transform="translate(3788.344 4754.5)" stroke="#000" stroke-miterlimit="10" stroke-width="0.2"/><path d="M467.938,97.525" transform="translate(3788.344 4754.5)" stroke="#000" stroke-miterlimit="10" stroke-width="0.2"/><path d="M429.476,112.269" transform="translate(3788.344 4754.5)" stroke="#000" stroke-miterlimit="10" stroke-width="0.2"/><path d="M386.528,134.064" transform="translate(3788.344 4754.5)" stroke="#000" stroke-miterlimit="10" stroke-width="0.2"/><path d="M359.605,124.449" transform="translate(3788.344 4754.5)" stroke="#000" stroke-miterlimit="10" stroke-width="0.2"/><path d="M341.015,134.064" transform="translate(3788.344 4754.5)" stroke="#000" stroke-miterlimit="10" stroke-width="0.2"/><path d="M464.733,26.372" transform="translate(3788.344 4754.5)" stroke="#000" stroke-miterlimit="10" stroke-width="0.2"/><path d="M334.605,144.961" transform="translate(3788.344 4754.5)" stroke="#000" stroke-miterlimit="10" stroke-width="0.2"/><path d="M342.938,156.5" transform="translate(3788.344 4754.5)" stroke="#000" stroke-miterlimit="10" stroke-width="0.2"/><path d="M329.476,160.346" transform="translate(3788.344 4754.5)" stroke="#000" stroke-miterlimit="10" stroke-width="0.2"/><path d="M457.041,21.244" transform="translate(3788.344 4754.5)" stroke="#000" stroke-miterlimit="10" stroke-width="0.2"/><path d="M510.246,94.32" transform="translate(3788.344 4754.5)" stroke="#000" stroke-miterlimit="10" stroke-width="0.2"/><path d="M521.143,78.936" transform="translate(3788.344 4754.5)" stroke="#000" stroke-miterlimit="10" stroke-width="0.2"/><path d="M435.886,268.038" transform="translate(3788.344 4754.5)" stroke="#000" stroke-miterlimit="10" stroke-width="0.5"/><path d="M453.836,294.32" transform="translate(3788.344 4754.5)" stroke="#000" stroke-miterlimit="10" stroke-width="0.5"/><path d="M438.451,317.4" transform="translate(3788.344 4754.5)" stroke="#000" stroke-miterlimit="10" stroke-width="0.5"/><path d="M471.143,335.987" transform="translate(3788.344 4754.5)" stroke="#000" stroke-miterlimit="10" stroke-width="0.5"/><path d="M462.17,360.346" transform="translate(3788.344 4754.5)" stroke="#000" stroke-miterlimit="10" stroke-width="0.5"/><path d="M504.476,362.91" transform="translate(3788.344 4754.5)" stroke="#000" stroke-miterlimit="10" stroke-width="0.5"/><path d="M499.348,389.833" transform="translate(3788.344 4754.5)" stroke="#000" stroke-miterlimit="10" stroke-width="0.5"/><path d="M523.066,408.423" transform="translate(3788.344 4754.5)" stroke="#000" stroke-miterlimit="10" stroke-width="0.5"/><path d="M489.733,425.09" transform="translate(3788.344 4754.5)" stroke="#000" stroke-miterlimit="10" stroke-width="0.5"/><path d="M476.913,446.885" transform="translate(3788.344 4754.5)" stroke="#000" stroke-miterlimit="10" stroke-width="0.5"/><path d="M434.605,434.7" transform="translate(3788.344 4754.5)" stroke="#000" stroke-miterlimit="10" stroke-width="0.5"/><path d="M435.246,459.064" transform="translate(3788.344 4754.5)" stroke="#000" stroke-miterlimit="10" stroke-width="0.5"/><path d="M428.2,293.68" transform="translate(3788.344 4754.5)" stroke="#000" stroke-miterlimit="10" stroke-width="0.4"/><path d="M467.938,316.115" transform="translate(3788.344 4754.5)" stroke="#000" stroke-miterlimit="10" stroke-width="0.4"/><path d="M446.785,346.243" transform="translate(3788.344 4754.5)" stroke="#000" stroke-miterlimit="10" stroke-width="0.4"/><path d="M492.938,348.808" transform="translate(3788.344 4754.5)" stroke="#000" stroke-miterlimit="10" stroke-width="0.4"/><path d="M478.2,377.013" transform="translate(3788.344 4754.5)" stroke="#000" stroke-miterlimit="10" stroke-width="0.4"/><path d="M526.271,386.628" transform="translate(3788.344 4754.5)" stroke="#000" stroke-miterlimit="10" stroke-width="0.4"/><path d="M499.348,410.346" transform="translate(3788.344 4754.5)" stroke="#000" stroke-miterlimit="10" stroke-width="0.4"/><path d="M514.091,441.115" transform="translate(3788.344 4754.5)" stroke="#000" stroke-miterlimit="10" stroke-width="0.4"/><path d="M455.758,421.885" transform="translate(3788.344 4754.5)" stroke="#000" stroke-miterlimit="10" stroke-width="0.4"/><path d="M454.476,454.577" transform="translate(3788.344 4754.5)" stroke="#000" stroke-miterlimit="10" stroke-width="0.4"/><path d="M414.733,450.73" transform="translate(3788.344 4754.5)" stroke="#000" stroke-miterlimit="10" stroke-width="0.4"/><path d="M449.348,278.936" transform="translate(3788.344 4754.5)" stroke="#000" stroke-miterlimit="10" stroke-width="0.3"/><path d="M449.348,328.936" transform="translate(3788.344 4754.5)" stroke="#000" stroke-miterlimit="10" stroke-width="0.3"/><path d="M483.323,352.654" transform="translate(3788.344 4754.5)" stroke="#000" stroke-miterlimit="10" stroke-width="0.3"/><path d="M500.631,380.218" transform="translate(3788.344 4754.5)" stroke="#000" stroke-miterlimit="10" stroke-width="0.3"/><path d="M512.17,428.3" transform="translate(3788.344 4754.5)" stroke="#000" stroke-miterlimit="10" stroke-width="0.3"/><path d="M467.938,430.859" transform="translate(3788.344 4754.5)" stroke="#000" stroke-miterlimit="10" stroke-width="0.3"/><path d="M444.861,446.885" transform="translate(3788.344 4754.5)" stroke="#000" stroke-miterlimit="10" stroke-width="0.3"/><path d="M441.015,293.68" transform="translate(3788.344 4754.5)" stroke="#000" stroke-miterlimit="10" stroke-width="0.6"/><path d="M463.451,341.757" transform="translate(3788.344 4754.5)" stroke="#000" stroke-miterlimit="10" stroke-width="0.6"/><path d="M494.22,368.038" transform="translate(3788.344 4754.5)" stroke="#000" stroke-miterlimit="10" stroke-width="0.6"/><path d="M514.733,404.577" transform="translate(3788.344 4754.5)" stroke="#000" stroke-miterlimit="10" stroke-width="0.6"/><path d="M491.656,437.91" transform="translate(3788.344 4754.5)" stroke="#000" stroke-miterlimit="10" stroke-width="0.6"/><path d="M451.913,434.7" transform="translate(3788.344 4754.5)" stroke="#000" stroke-miterlimit="10" stroke-width="0.6"/><path d="M425.631,450.09" transform="translate(3788.344 4754.5)" stroke="#000" stroke-miterlimit="10" stroke-width="0.6"/><path d="M451.271,312.27" transform="translate(3788.344 4754.5)" stroke="#000" stroke-miterlimit="10" stroke-width="0.25"/><path d="M476.913,364.192" transform="translate(3788.344 4754.5)" stroke="#000" stroke-miterlimit="10" stroke-width="0.25"/><path d="M514.733,380.859" transform="translate(3788.344 4754.5)" stroke="#000" stroke-miterlimit="10" stroke-width="0.25"/><path d="M504.476,421.243" transform="translate(3788.344 4754.5)" stroke="#000" stroke-miterlimit="10" stroke-width="0.25"/><path d="M464.091,443.68" transform="translate(3788.344 4754.5)" stroke="#000" stroke-miterlimit="10" stroke-width="0.25"/><path d="M434.605,445.6" transform="translate(3788.344 4754.5)" stroke="#000" stroke-miterlimit="10" stroke-width="0.25"/><path d="M461.528,327.013" transform="translate(3788.344 4754.5)" stroke="#000" stroke-miterlimit="10" stroke-width="0.7"/><path d="M512.81,393.038" transform="translate(3788.344 4754.5)" stroke="#000" stroke-miterlimit="10" stroke-width="0.7"/><path d="M478.836,424.448" transform="translate(3788.344 4754.5)" stroke="#000" stroke-miterlimit="10" stroke-width="0.7"/><path d="M438.451,305.218" transform="translate(3788.344 4754.5)" stroke="#000" stroke-miterlimit="10" stroke-width="0.4"/><path d="M453.836,266.757" transform="translate(3788.344 4754.5)" stroke="#000" stroke-miterlimit="10" stroke-width="0.4"/><path d="M472.425,353.3" transform="translate(3788.344 4754.5)" stroke="#000" stroke-miterlimit="10" stroke-width="0.4"/><path d="M507.041,374.448" transform="translate(3788.344 4754.5)" stroke="#000" stroke-miterlimit="10" stroke-width="0.4"/><path d="M501.913,429.577" transform="translate(3788.344 4754.5)" stroke="#000" stroke-miterlimit="10" stroke-width="0.4"/><path d="M475.631,439.192" transform="translate(3788.344 4754.5)" stroke="#000" stroke-miterlimit="10" stroke-width="0.4"/><path d="M421.143,437.91" transform="translate(3788.344 4754.5)" stroke="#000" stroke-miterlimit="10" stroke-width="0.4"/><path d="M424.99,462.27" transform="translate(3788.344 4754.5)" stroke="#000" stroke-miterlimit="10" stroke-width="0.4"/><path d="M513.451,418.038" transform="translate(3788.344 4754.5)" stroke="#000" stroke-miterlimit="10" stroke-width="0.4"/><path d="M441.015,280.218" transform="translate(3788.344 4754.5)" stroke="#000" stroke-miterlimit="10" stroke-width="0.3"/><path d="M458.323,310.346" transform="translate(3788.344 4754.5)" stroke="#000" stroke-miterlimit="10" stroke-width="0.3"/><path d="M456.4,341.757" transform="translate(3788.344 4754.5)" stroke="#000" stroke-miterlimit="10" stroke-width="0.3"/><path d="M489.733,360.346" transform="translate(3788.344 4754.5)" stroke="#000" stroke-miterlimit="10" stroke-width="0.3"/><path d="M506.4,404.577" transform="translate(3788.344 4754.5)" stroke="#000" stroke-miterlimit="10" stroke-width="0.3"/><path d="M501.913,442.4" transform="translate(3788.344 4754.5)" stroke="#000" stroke-miterlimit="10" stroke-width="0.3"/><path d="M462.17,437.27" transform="translate(3788.344 4754.5)" stroke="#000" stroke-miterlimit="10" stroke-width="0.3"/><path d="M441.656,440.475" transform="translate(3788.344 4754.5)" stroke="#000" stroke-miterlimit="10" stroke-width="0.3"/><path d="M444.22,262.91" transform="translate(3788.344 4754.5)" stroke="#000" stroke-miterlimit="10" stroke-width="0.2"/><path d="M447.425,305.218" transform="translate(3788.344 4754.5)" stroke="#000" stroke-miterlimit="10" stroke-width="0.2"/><path d="M439.733,332.782" transform="translate(3788.344 4754.5)" stroke="#000" stroke-miterlimit="10" stroke-width="0.2"/><path d="M482.041,341.115" transform="translate(3788.344 4754.5)" stroke="#000" stroke-miterlimit="10" stroke-width="0.2"/><path d="M516.656,368.038" transform="translate(3788.344 4754.5)" stroke="#000" stroke-miterlimit="10" stroke-width="0.2"/><path d="M524.99,425.09" transform="translate(3788.344 4754.5)" stroke="#000" stroke-miterlimit="10" stroke-width="0.2"/><path d="M468.58,420.6" transform="translate(3788.344 4754.5)" stroke="#000" stroke-miterlimit="10" stroke-width="0.2"/><path d="M414.733,460.346" transform="translate(3788.344 4754.5)" stroke="#000" stroke-miterlimit="10" stroke-width="0.2"/><path d="M451.913,256.5" transform="translate(3788.344 4754.5)" stroke="#000" stroke-miterlimit="10" stroke-width="0.2"/><path d="M441.015,253.295" transform="translate(3788.344 4754.5)" stroke="#000" stroke-miterlimit="10" stroke-width="0.2"/><path d="M448.066,245.6" transform="translate(3788.344 4754.5)" stroke="#000" stroke-miterlimit="10" stroke-width="0.2"/><path d="M405.758,453.3" transform="translate(3788.344 4754.5)" stroke="#000" stroke-miterlimit="10" stroke-width="0.2"/><path d="M413.451,471.885" transform="translate(3788.344 4754.5)" stroke="#000" stroke-miterlimit="10" stroke-width="0.2"/><path d="M400.631,466.757" transform="translate(3788.344 4754.5)" stroke="#000" stroke-miterlimit="10" stroke-width="0.2"/><path d="M214.091,353.3" transform="translate(3788.344 4754.5)" stroke="#000" stroke-miterlimit="10" stroke-width="0.5"/><path d="M227.553,381.5" transform="translate(3788.344 4754.5)" stroke="#000" stroke-miterlimit="10" stroke-width="0.5"/><path d="M199.348,407.782" transform="translate(3788.344 4754.5)" stroke="#000" stroke-miterlimit="10" stroke-width="0.5"/><path d="M211.528,439.192" transform="translate(3788.344 4754.5)" stroke="#000" stroke-miterlimit="10" stroke-width="0.5"/><path d="M174.348,444.962" transform="translate(3788.344 4754.5)" stroke="#000" stroke-miterlimit="10" stroke-width="0.5"/><path d="M148.707,464.833" transform="translate(3788.344 4754.5)" stroke="#000" stroke-miterlimit="10" stroke-width="0.5"/><path d="M110.887,444.32" transform="translate(3788.344 4754.5)" stroke="#000" stroke-miterlimit="10" stroke-width="0.5"/><path d="M228.836,368.68" transform="translate(3788.344 4754.5)" stroke="#000" stroke-miterlimit="10" stroke-width="0.4"/><path d="M203.2,385.346" transform="translate(3788.344 4754.5)" stroke="#000" stroke-miterlimit="10" stroke-width="0.4"/><path d="M224.348,416.115" transform="translate(3788.344 4754.5)" stroke="#000" stroke-miterlimit="10" stroke-width="0.4"/><path d="M192.3,429.577" transform="translate(3788.344 4754.5)" stroke="#000" stroke-miterlimit="10" stroke-width="0.4"/><path d="M191.656,463.552" transform="translate(3788.344 4754.5)" stroke="#000" stroke-miterlimit="10" stroke-width="0.4"/><path d="M141.015,446.243" transform="translate(3788.344 4754.5)" stroke="#000" stroke-miterlimit="10" stroke-width="0.4"/><path d="M119.22,471.243" transform="translate(3788.344 4754.5)" stroke="#000" stroke-miterlimit="10" stroke-width="0.4"/><path d="M212.81,370.6" transform="translate(3788.344 4754.5)" stroke="#000" stroke-miterlimit="10" stroke-width="0.3"/><path d="M219.861,403.3" transform="translate(3788.344 4754.5)" stroke="#000" stroke-miterlimit="10" stroke-width="0.3"/><path d="M198.707,450.09" transform="translate(3788.344 4754.5)" stroke="#000" stroke-miterlimit="10" stroke-width="0.3"/><path d="M160.246,452.013" transform="translate(3788.344 4754.5)" stroke="#000" stroke-miterlimit="10" stroke-width="0.3"/><path d="M125.631,461.628" transform="translate(3788.344 4754.5)" stroke="#000" stroke-miterlimit="10" stroke-width="0.3"/><path d="M216.015,388.552" transform="translate(3788.344 4754.5)" stroke="#000" stroke-miterlimit="10" stroke-width="0.6"/><path d="M203.836,423.167" transform="translate(3788.344 4754.5)" stroke="#000" stroke-miterlimit="10" stroke-width="0.6"/><path d="M178.2,455.859" transform="translate(3788.344 4754.5)" stroke="#000" stroke-miterlimit="10" stroke-width="0.6"/><path d="M124.99,452.013" transform="translate(3788.344 4754.5)" stroke="#000" stroke-miterlimit="10" stroke-width="0.6"/><path d="M96.784,459.064" transform="translate(3788.344 4754.5)" stroke="#000" stroke-miterlimit="10" stroke-width="0.6"/><path d="M208.323,401.372" transform="translate(3788.344 4754.5)" stroke="#000" stroke-miterlimit="10" stroke-width="0.25"/><path d="M187.81,444.32" transform="translate(3788.344 4754.5)" stroke="#000" stroke-miterlimit="10" stroke-width="0.25"/><path d="M167.3,462.91" transform="translate(3788.344 4754.5)" stroke="#000" stroke-miterlimit="10" stroke-width="0.25"/><path d="M139.091,456.5" transform="translate(3788.344 4754.5)" stroke="#000" stroke-miterlimit="10" stroke-width="0.25"/><path d="M109.605,460.346" transform="translate(3788.344 4754.5)" stroke="#000" stroke-miterlimit="10" stroke-width="0.25"/><path d="M216.656,425.73" transform="translate(3788.344 4754.5)" stroke="#000" stroke-miterlimit="10" stroke-width="0.7"/><path d="M149.99,455.859" transform="translate(3788.344 4754.5)" stroke="#000" stroke-miterlimit="10" stroke-width="0.7"/><path d="M221.785,364.833" transform="translate(3788.344 4754.5)" stroke="#000" stroke-miterlimit="10" stroke-width="0.4"/><path d="M211.528,414.833" transform="translate(3788.344 4754.5)" stroke="#000" stroke-miterlimit="10" stroke-width="0.4"/><path d="M199.99,440.475" transform="translate(3788.344 4754.5)" stroke="#000" stroke-miterlimit="10" stroke-width="0.4"/><path d="M151.912,445.6" transform="translate(3788.344 4754.5)" stroke="#000" stroke-miterlimit="10" stroke-width="0.4"/><path d="M137.17,468.68" transform="translate(3788.344 4754.5)" stroke="#000" stroke-miterlimit="10" stroke-width="0.4"/><path d="M102.553,450.73" transform="translate(3788.344 4754.5)" stroke="#000" stroke-miterlimit="10" stroke-width="0.4"/><path d="M228.2,356.5" transform="translate(3788.344 4754.5)" stroke="#000" stroke-miterlimit="10" stroke-width="0.3"/><path d="M209.6,380.218" transform="translate(3788.344 4754.5)" stroke="#000" stroke-miterlimit="10" stroke-width="0.3"/><path d="M226.912,397.525" transform="translate(3788.344 4754.5)" stroke="#000" stroke-miterlimit="10" stroke-width="0.3"/><path d="M176.271,469.962" transform="translate(3788.344 4754.5)" stroke="#000" stroke-miterlimit="10" stroke-width="0.3"/><path d="M123.707,441.115" transform="translate(3788.344 4754.5)" stroke="#000" stroke-miterlimit="10" stroke-width="0.3"/><path d="M103.836,474.448" transform="translate(3788.344 4754.5)" stroke="#000" stroke-miterlimit="10" stroke-width="0.3"/><path d="M222.425,350.09" transform="translate(3788.344 4754.5)" stroke="#000" stroke-miterlimit="10" stroke-width="0.2"/><path d="M224.99,393.68" transform="translate(3788.344 4754.5)" stroke="#000" stroke-miterlimit="10" stroke-width="0.2"/><path d="M180.758,434.7" transform="translate(3788.344 4754.5)" stroke="#000" stroke-miterlimit="10" stroke-width="0.2"/><path d="M207.041,456.5" transform="translate(3788.344 4754.5)" stroke="#000" stroke-miterlimit="10" stroke-width="0.2"/><path d="M223.066,338.552" transform="translate(3788.344 4754.5)" stroke="#000" stroke-miterlimit="10" stroke-width="0.2"/><path d="M97.425,113.551" transform="translate(3788.344 4754.5)" stroke="#000" stroke-miterlimit="10" stroke-width="0.5"/><path d="M123.066,112.269" transform="translate(3788.344 4754.5)" stroke="#000" stroke-miterlimit="10" stroke-width="0.4"/><path d="M101.272,101.372" transform="translate(3788.344 4754.5)" stroke="#000" stroke-miterlimit="10" stroke-width="0.3"/><path d="M111.528,110.346" transform="translate(3788.344 4754.5)" stroke="#000" stroke-miterlimit="10" stroke-width="0.3"/><path d="M105.118,112.269" transform="translate(3788.344 4754.5)" stroke="#000" stroke-miterlimit="10" stroke-width="0.4"/><path d="M327.554,7.141" transform="translate(3788.344 4754.5)" stroke="#000" stroke-miterlimit="10" stroke-width="0.6"/><path d="M343.58,43.68" transform="translate(3788.344 4754.5)" stroke="#000" stroke-miterlimit="10" stroke-width="0.6"/><path d="M325.631,63.551" transform="translate(3788.344 4754.5)" stroke="#000" stroke-miterlimit="10" stroke-width="0.6"/><path d="M327.554,35.346" transform="translate(3788.344 4754.5)" stroke="#000" stroke-miterlimit="10" stroke-width="0.5"/><path d="M335.246,20.6" transform="translate(3788.344 4754.5)" stroke="#000" stroke-miterlimit="10" stroke-width="0.4"/><path d="M336.528,61.628" transform="translate(3788.344 4754.5)" stroke="#000" stroke-miterlimit="10" stroke-width="0.4"/><path d="M321.144,82.782" transform="translate(3788.344 4754.5)" stroke="#000" stroke-miterlimit="10" stroke-width="0.4"/><path d="M323.066,21.244" transform="translate(3788.344 4754.5)" stroke="#000" stroke-miterlimit="10" stroke-width="0.3"/><path d="M328.836,50.731" transform="translate(3788.344 4754.5)" stroke="#000" stroke-miterlimit="10" stroke-width="0.3"/><path d="M333.965,73.167" transform="translate(3788.344 4754.5)" stroke="#000" stroke-miterlimit="10" stroke-width="0.3"/><path d="M317.3,75.731" transform="translate(3788.344 4754.5)" stroke="#000" stroke-miterlimit="10" stroke-width="0.3"/><path d="M337.81,10.346" transform="translate(3788.344 4754.5)" stroke="#000" stroke-miterlimit="10" stroke-width="0.2"/><path d="M319.861,30.859" transform="translate(3788.344 4754.5)" stroke="#000" stroke-miterlimit="10" stroke-width="0.2"/><path d="M344.861,35.987" transform="translate(3788.344 4754.5)" stroke="#000" stroke-miterlimit="10" stroke-width="0.2"/><path d="M324.99,44.32" transform="translate(3788.344 4754.5)" stroke="#000" stroke-miterlimit="10" stroke-width="0.2"/><path d="M344.861,53.936" transform="translate(3788.344 4754.5)" stroke="#000" stroke-miterlimit="10" stroke-width="0.2"/><path d="M335.887,44.32" transform="translate(3788.344 4754.5)" stroke="#000" stroke-miterlimit="10" stroke-width="0.2"/><path d="M336.528,30.859" transform="translate(3788.344 4754.5)" stroke="#000" stroke-miterlimit="10" stroke-width="0.2"/><path d="M319.861,9.064" transform="translate(3788.344 4754.5)" stroke="#000" stroke-miterlimit="10" stroke-width="0.2"/><path d="M342.939,19.961" transform="translate(3788.344 4754.5)" stroke="#000" stroke-miterlimit="10" stroke-width="0.2"/><path d="M341.015,68.039" transform="translate(3788.344 4754.5)" stroke="#000" stroke-miterlimit="10" stroke-width="0.2"/><path d="M321.785,55.859" transform="translate(3788.344 4754.5)" stroke="#000" stroke-miterlimit="10" stroke-width="0.2"/><path d="M326.271,75.09" transform="translate(3788.344 4754.5)" stroke="#000" stroke-miterlimit="10" stroke-width="0.2"/><path d="M330.118,87.269" transform="translate(3788.344 4754.5)" stroke="#000" stroke-miterlimit="10" stroke-width="0.2"/><path d="M316.656,92.4" transform="translate(3788.344 4754.5)" stroke="#000" stroke-miterlimit="10" stroke-width="0.2"/><path d="M335.246,53.936" transform="translate(3788.344 4754.5)" stroke="#000" stroke-miterlimit="10" stroke-width="0.3"/><path d="M313.886,340.5" transform="translate(3788.344 4754.5)" stroke="#000" stroke-miterlimit="10" stroke-width="0.75"/><path d="M278.631,328.32" transform="translate(3788.344 4754.5)" stroke="#000" stroke-miterlimit="10" stroke-width="0.6"/><path d="M321.58,362.936" transform="translate(3788.344 4754.5)" stroke="#000" stroke-miterlimit="10" stroke-width="0.6"/><path d="M345.3,397.552" transform="translate(3788.344 4754.5)" stroke="#000" stroke-miterlimit="10" stroke-width="4"/><path d="M292.092,356.525" transform="translate(3788.344 4754.5)" stroke="#000" stroke-miterlimit="10" stroke-width="0.5"/><path d="M343.375,374.475" transform="translate(3788.344 4754.5)" stroke="#000" stroke-miterlimit="10" stroke-width="4"/><path d="M292.092,339.859" transform="translate(3788.344 4754.5)" stroke="#000" stroke-miterlimit="10" stroke-width="0.4"/><path d="M315.81,374.475" transform="translate(3788.344 4754.5)" stroke="#000" stroke-miterlimit="10" stroke-width="4"/><path d="M363.246,402.68" transform="translate(3788.344 4754.5)" stroke="#000" stroke-miterlimit="10" stroke-width="4"/><path d="M360.682,424.475" transform="translate(3788.344 4754.5)" stroke="#000" stroke-miterlimit="10" stroke-width="0.4"/><path d="M290.17,320.628" transform="translate(3788.344 4754.5)" stroke="#000" stroke-miterlimit="10" stroke-width="0.3"/><path d="M281.836,344.346" transform="translate(3788.344 4754.5)" stroke="#000" stroke-miterlimit="10" stroke-width="0.3"/><path d="M306.836,349.475" transform="translate(3788.344 4754.5)" stroke="#000" stroke-miterlimit="10" stroke-width="0.3"/><path d="M303.631,369.987" transform="translate(3788.344 4754.5)" stroke="#000" stroke-miterlimit="10" stroke-width="4"/><path d="M333.759,385.372" transform="translate(3788.344 4754.5)" stroke="#000" stroke-miterlimit="10" stroke-width="4"/><path d="M333.759,364.218" transform="translate(3788.344 4754.5)" stroke="#000" stroke-miterlimit="10" stroke-width="4"/><path d="M354.271,389.218" transform="translate(3788.344 4754.5)" stroke="#000" stroke-miterlimit="10" stroke-width="4"/><path d="M347.861,412.3" transform="translate(3788.344 4754.5)" stroke="#000" stroke-miterlimit="10" stroke-width="0.3"/><path d="M367.092,417.423" transform="translate(3788.344 4754.5)" stroke="#000" stroke-miterlimit="10" stroke-width="0.3"/><path d="M359.4,435.372" transform="translate(3788.344 4754.5)" stroke="#000" stroke-miterlimit="10" stroke-width="0.3"/><path d="M281.836,311.013" transform="translate(3788.344 4754.5)" stroke="#000" stroke-miterlimit="10" stroke-width="0.3"/><path d="M287.605,330.885" transform="translate(3788.344 4754.5)" stroke="#000" stroke-miterlimit="10" stroke-width="0.2"/><path d="M312.605,366.141" transform="translate(3788.344 4754.5)" stroke="#000" stroke-miterlimit="10" stroke-width="4"/><path d="M324.785,388.577" transform="translate(3788.344 4754.5)" stroke="#000" stroke-miterlimit="10" stroke-width="4"/><path d="M351.708,379.6" transform="translate(3788.344 4754.5)" stroke="#000" stroke-miterlimit="10" stroke-width="4"/><path d="M333.759,402.038" transform="translate(3788.344 4754.5)" stroke="#000" stroke-miterlimit="10" stroke-width="4"/><path d="M371.58,411.013" transform="translate(3788.344 4754.5)" stroke="#000" stroke-miterlimit="10" stroke-width="0.2"/><path d="M352.349,427.68" transform="translate(3788.344 4754.5)" stroke="#000" stroke-miterlimit="10" stroke-width="0.2"/><path d="M301.708,333.448" transform="translate(3788.344 4754.5)" stroke="#000" stroke-miterlimit="10" stroke-width="0.2"/><path d="M275.425,319.987" transform="translate(3788.344 4754.5)" stroke="#000" stroke-miterlimit="10" stroke-width="0.2"/><path d="M286.965,303.962" transform="translate(3788.344 4754.5)" stroke="#000" stroke-miterlimit="10" stroke-width="0.2"/><path d="M297.861,350.757" transform="translate(3788.344 4754.5)" stroke="#000" stroke-miterlimit="10" stroke-width="0.3"/><path d="M328.631,377.68" transform="translate(3788.344 4754.5)" stroke="#000" stroke-miterlimit="10" stroke-width="4"/><path d="M356.836,399.475" transform="translate(3788.344 4754.5)" stroke="#000" stroke-miterlimit="10" stroke-width="4"/><path d="M358.118,416.782" transform="translate(3788.344 4754.5)" stroke="#000" stroke-miterlimit="10" stroke-width="0.3"/><path d="M308.759,359.09" transform="translate(3788.344 4754.5)" stroke="#000" stroke-miterlimit="10" stroke-width="0.4"/><path d="M342.092,387.3" transform="translate(3788.344 4754.5)" stroke="#000" stroke-miterlimit="10" stroke-width="4"/><path d="M319.015,353.32" transform="translate(3788.344 4754.5)" stroke="#000" stroke-miterlimit="10" stroke-width="0.3"/><path d="M369.656,428.32" transform="translate(3788.344 4754.5)" stroke="#000" stroke-miterlimit="10" stroke-width="0.25"/><path d="M365.81,442.423" transform="translate(3788.344 4754.5)" stroke="#000" stroke-miterlimit="10" stroke-width="0.25"/></g><g transform="translate(4127.801 5155.564)"><g transform="translate(0.724 0.424)"><path d="M79.1,6.663a119.88,119.88,0,0,1,68.914-2.232c3.45,1.975,6.854,4.025,10.327,5.962-2.088.893-4.819,1.611-5.107,4.3-.537,4.032,2.338,7.482,4.335,10.72,4.116.787,8.224,2.663,10.8,6.067a27.491,27.491,0,0,1,.492,4.789c-4.744-1.059-9.464-2.481-13.391-5.462.56,2.36.613,5.054,2.277,6.975,2.55,1.914,6.506,1.513,8.451,4.35a66.7,66.7,0,0,0,5.878,7.006c-2.376.492-4.728,1.044-7.081,1.627.469,3.291.643,6.688,1.869,9.812.9,1.506,2.413,2.489,3.684,3.647,1.763-.053,3.525-.106,5.3-.136-.1.325-.3.984-.386,1.309-1.778,1.831-3.775,3.631-4.751,6.045-.416,2.149-.182,4.373-.552,6.529-1.173,2.186-3.412,3.722-4.078,6.2a45.081,45.081,0,0,0-1.634,8.186c-.363,4.07,1.914,7.8,1.816,11.855a26.574,26.574,0,0,0,.166,5.205c3.525,7.293,10.6,11.757,17.348,15.706,1.453.862,3.125.045,4.57-.393,4.66-1.74,9.419-4.312,14.563-3.525,2.353.749,3.7,3.087,5.371,4.759,1.1-1.1,2.247-2.164,3.367-3.246.1,2.232.409,4.554-.439,6.7-.62,2-1.785,3.972-1.384,6.136a128.543,128.543,0,0,1,1.634,18.187c-.023,2.043-1.279,3.76-2.126,5.538a31.761,31.761,0,0,0-2.436,6.809c-1.975,7.1-4.448,14.057-6.854,21.024-1.233,2.731.424,5.447,1.483,7.921a120.261,120.261,0,0,1-47.882,29.588,118.945,118.945,0,0,1-75.927-1.067,116.263,116.263,0,0,1-54.721-40.46A113.764,113.764,0,0,1,19.884,52.3c-.318,4.638-2.413,8.965-2.338,13.648-.083,7.036-.053,14.079-.424,21.108-.113,2.845-.151,6.1,2.012,8.277,2.118,2.708,5.523,3.624,8.383,5.243,4.116,3.177,6.083,8.178,7.649,12.96,1.188,4.456,7.27,3.518,9.487,7.119,1.347,2.2.5,4.88,0,7.2a64.955,64.955,0,0,0-1.9,14.442,11.785,11.785,0,0,0,1.218,6.34A67.958,67.958,0,0,0,61.343,170.5c1.021,1.006,2.519,1.906,2.542,3.51.711,7.853.537,15.8,1.906,23.6,1.188,6.816,5.205,12.642,9.169,18.157a23.6,23.6,0,0,0,9.427,7.974c1.725.923,3.48-.3,5.054-.923-2.436-1.967-5.318-3.473-7.308-5.939a18.81,18.81,0,0,1-.144-9.328c3.367-2.2,7.217-3.7,10-6.733,4.38-2.882,10.13-4.963,12.052-10.35.953-2.474.083-6.589,3.314-7.482,4.645-1.445,10.773-2.58,12.566-7.823.991-4.834,2.376-9.691,5.129-13.852,1.248-1.748,3.2-2.928,4.214-4.842.741-2.784.348-6.173-1.891-8.2-1.9-1.695-4.456-2.277-6.809-3.041-5.371-1.536-10.463-3.949-15.94-5.16-1.664-.5-3.578-.734-4.895-1.967-2.141-2.754-1.46-7-4.38-9.245-2.481-2.277-6.083-1.468-9.086-2.285-2.126-2.186-3.344-5.152-5.81-7.043-2.777-2.429-6.673-2.376-10.017-3.51-3.578-1.021-6.809-3.162-10.524-3.684-3.4.469-6.279,2.784-9.737,3-2.292.091-4.592-.129-6.885-.235-2.164-4.063-1.536-8.738-1.589-13.156a26.55,26.55,0,0,1-3.586-2.164c-.522-2.565.28-5.144.741-7.649-3.677-.953-7.346.023-10.811,1.294A72.635,72.635,0,0,1,29.916,79.79c.885-3.957,4.91-6.067,8.405-7.338a16.4,16.4,0,0,1,9.9,1.384c1.3,2.777.734,6.317,2.9,8.678.726-.363,1.785-.492,2.118-1.354,1.18-3.177-.159-6.892,1.377-9.941,3.291-3.253,7.845-5.213,10.38-9.23,1.165-1.566,1.891-3.677,3.8-4.5,3.094-1.392,6.446-2.436,8.95-4.842,2.02-1.967,4.759-3.979,4.751-7.089.106-.984.182-1.967.235-2.958,4.2.575,8.715,1.611,12.786-.091,3.011-1.271,3.2-5.364,1.884-7.936-.961-2.1-3.2-3-5.122-3.987-2.05-.915-3.813-2.338-5.848-3.276-2.648-.5-5.75.083-7.512,2.277a32.774,32.774,0,0,1-8.473,7.376,79.153,79.153,0,0,1-.984-12.037C73.387,22.86,77.775,21.15,82.3,21.68c3.571.409,6.65,2.519,10.168,3.079,4.169-.847,8.723-3.669,9.638-8.118.673-1.695-1.339-2.512-2.5-3.193-7.407-3.964-16.031-1.49-23.975-1.437C76.791,10.233,77.964,8.463,79.1,6.663Z" transform="translate(-0.724 -0.424)" fill="#dcdcdc"/><path d="M238.463,65.092c.983-.878,2.406-.386,3.5-.023,3.011,1.089,5.334,3.473,8.33,4.585,1.551-.522,3-1.332,4.554-1.831,1.99.628,3.631,2.012,5.606,2.678,1.959.386,3.957-.159,5.9-.431,2.943,1.944,3.843,5.334,4.123,8.662a72.425,72.425,0,0,0-9.964,4.9c-3.246-1-7.286-1.256-9.336-4.343-1.158-1.165-1.793-3.525-3.813-3.223-4.7.635-8.98,2.92-13.5,4.274-.439-.318-.862-.651-1.263-1.006C237.639,76.417,234.983,69.116,238.463,65.092Z" transform="translate(-57.176 -16.048)" fill="#dcdcdc"/></g><g transform="translate(17.081 4.431)"><path d="M195.41,5.72a115.982,115.982,0,0,1,71.637,55.424c8.163,14.284,12.687,30.413,14.3,46.732v17.612c-.31,2.262-.651,4.517-.893,6.786a112.824,112.824,0,0,1-31.533,64.034c-1.059-2.474-2.716-5.19-1.483-7.921,2.406-6.968,4.88-13.92,6.854-21.024a31.762,31.762,0,0,1,2.436-6.809c.847-1.778,2.1-3.5,2.126-5.538a128.54,128.54,0,0,0-1.634-18.187c-.4-2.164.764-4.138,1.385-6.136.847-2.141.537-4.464.439-6.7-1.12,1.082-2.27,2.141-3.367,3.246-1.672-1.672-3.019-4.01-5.371-4.759-5.145-.787-9.9,1.785-14.563,3.525-1.445.439-3.117,1.256-4.57.393-6.748-3.949-13.822-8.413-17.348-15.706a26.571,26.571,0,0,1-.166-5.205c.1-4.055-2.179-7.785-1.816-11.855a45.078,45.078,0,0,1,1.634-8.186c.666-2.474,2.905-4.01,4.078-6.2.371-2.156.136-4.38.552-6.529.976-2.413,2.973-4.214,4.751-6.045.091-.325.287-.984.386-1.309-1.778.03-3.541.083-5.3.136-1.271-1.158-2.784-2.141-3.684-3.647-1.226-3.125-1.4-6.521-1.869-9.812,2.353-.583,4.706-1.135,7.081-1.627a66.694,66.694,0,0,1-5.878-7.006c-1.944-2.837-5.9-2.436-8.451-4.35-1.664-1.922-1.717-4.615-2.277-6.975,3.926,2.981,8.647,4.4,13.391,5.462a27.489,27.489,0,0,0-.492-4.789c-2.572-3.4-6.68-5.281-10.8-6.067-2-3.238-4.872-6.688-4.335-10.72.287-2.686,3.019-3.4,5.107-4.3-3.473-1.937-6.877-3.987-10.327-5.962m34,45.037c-3.48,4.025-.825,11.325-5.863,14.246.4.356.825.688,1.263,1.006,4.517-1.354,8.8-3.639,13.5-4.274,2.02-.3,2.655,2.058,3.813,3.223,2.05,3.087,6.09,3.344,9.336,4.343a72.423,72.423,0,0,1,9.964-4.9c-.28-3.329-1.18-6.718-4.123-8.662-1.944.272-3.942.817-5.9.431-1.975-.666-3.616-2.05-5.606-2.678-1.558.5-3,1.309-4.554,1.831-3-1.112-5.319-3.5-8.33-4.585C231.815,50.371,230.393,49.879,229.409,50.757Z" transform="translate(-64.478 -5.72)" fill="#b5b5b5"/><path d="M27.523,50.6C41.6,31.283,61.591,16.152,84.363,8.67c-1.135,1.8-2.307,3.571-3.473,5.349,7.944-.053,16.568-2.527,23.975,1.437,1.165.681,3.177,1.5,2.5,3.193-.915,4.448-5.47,7.27-9.638,8.118-3.518-.56-6.6-2.671-10.168-3.079-4.524-.53-8.912,1.18-12.846,3.246A79.153,79.153,0,0,0,75.7,38.97a32.774,32.774,0,0,0,8.473-7.376c1.763-2.194,4.865-2.777,7.512-2.277,2.035.938,3.8,2.36,5.848,3.276,1.922.984,4.161,1.891,5.122,3.987,1.316,2.572,1.127,6.665-1.884,7.936-4.07,1.7-8.587.666-12.786.091-.053.991-.129,1.975-.235,2.958.008,3.109-2.731,5.122-4.751,7.089-2.5,2.406-5.856,3.45-8.95,4.842-1.906.825-2.633,2.935-3.8,4.5-2.534,4.017-7.089,5.977-10.38,9.23-1.536,3.049-.2,6.763-1.377,9.941-.333.862-1.392.991-2.118,1.354-2.164-2.36-1.6-5.9-2.9-8.678a16.4,16.4,0,0,0-9.9-1.384c-3.5,1.271-7.52,3.382-8.405,7.338A72.634,72.634,0,0,0,33.311,95.43c3.465-1.271,7.134-2.247,10.811-1.294-.461,2.5-1.263,5.084-.741,7.649a26.55,26.55,0,0,0,3.586,2.164c.053,4.418-.575,9.094,1.589,13.156,2.292.106,4.592.325,6.885.235,3.457-.219,6.34-2.534,9.737-3,3.715.522,6.945,2.663,10.524,3.684,3.344,1.135,7.24,1.082,10.017,3.51,2.466,1.891,3.684,4.857,5.81,7.043,3,.817,6.6.008,9.086,2.285,2.92,2.247,2.239,6.491,4.38,9.245,1.316,1.233,3.23,1.468,4.895,1.967,5.477,1.21,10.569,3.624,15.94,5.16,2.353.764,4.91,1.347,6.809,3.041,2.239,2.028,2.633,5.417,1.891,8.2-1.014,1.914-2.966,3.094-4.214,4.842-2.754,4.161-4.138,9.018-5.129,13.852-1.793,5.243-7.921,6.378-12.566,7.823-3.23.893-2.36,5.008-3.314,7.482-1.922,5.387-7.671,7.467-12.052,10.35-2.784,3.034-6.635,4.532-10,6.733a18.81,18.81,0,0,0,.144,9.328c1.99,2.466,4.872,3.972,7.308,5.939-1.574.628-3.329,1.846-5.054.923a23.6,23.6,0,0,1-9.427-7.974c-3.964-5.515-7.982-11.341-9.169-18.157-1.369-7.792-1.2-15.744-1.906-23.6-.023-1.6-1.521-2.5-2.542-3.51a67.958,67.958,0,0,1-17.37-21.864,11.785,11.785,0,0,1-1.218-6.34,64.955,64.955,0,0,1,1.9-14.442c.5-2.323,1.347-5,0-7.2-2.217-3.6-8.3-2.663-9.487-7.119-1.566-4.781-3.533-9.782-7.649-12.96-2.86-1.619-6.264-2.534-8.383-5.243-2.164-2.179-2.126-5.432-2.012-8.277.371-7.028.34-14.072.424-21.108-.076-4.683,2.02-9.01,2.338-13.648A40.528,40.528,0,0,1,27.523,50.6Z" transform="translate(-22.344 -6.438)" fill="#b5b5b5"/></g></g></g><g transform="translate(1235.239 282.023) rotate(22)" opacity="0.5"><path d="M49.8,14l1.58,1.58,3.68-3.68v8.478h2.235V9.664l.79-.79L56.5,7.293l-.79.79H45v2.235h8.478Z" transform="translate(5.059 0.623)" fill="#c2c2c2"/><path d="M58.471,10.941a4.471,4.471,0,1,1,4.471-4.471A4.475,4.475,0,0,1,58.471,10.941Zm0-6.706a2.235,2.235,0,1,0,2.235,2.235A2.238,2.238,0,0,0,58.471,4.235Z" transform="translate(6.117)" fill="#a7a7a7"/><path d="M42.588,18,37,23.588l4.471,4.471,5.588-5.588" transform="translate(4.117 1.882)" fill="#c2c2c2"/><path d="M0,0H4.742V12.645H0Z" transform="translate(20.995 24.353) rotate(-45)" fill="#c2c2c2"/><path d="M0,0H4.742V12.645H0Z" transform="translate(38.873 42.235) rotate(-45)" fill="#c2c2c2"/><path d="M0,0,30.041,0V17.388L0,17.386Z" transform="translate(16.516 42.239) rotate(-45)" fill="#818181"/><g transform="translate(2 2)"><path d="M0,8.64C0,.168,4.007,0,4.007,0V17.386S0,17.112,0,8.64Z" transform="translate(11.69 43.065) rotate(-45)" fill="#a7a7a7"/><path d="M30.823,23l3.353,3.353-7.823,7.823L23,30.823" transform="translate(0.47 0.47)" fill="#a7a7a7"/><path d="M42.176,34.353,38.823,31,31,38.823l3.353,3.353" transform="translate(1.412 1.412)" fill="#a7a7a7"/><path d="M16.529,26.588l7.823-2.235,2.235-7.823L9.823,2,2,9.823Z" transform="translate(-2 -2)" fill="#a7a7a7"/><path d="M40,50.059l2.235-7.823L50.059,40,64.588,56.765l-7.823,7.823Z" transform="translate(2.47 2.47)" fill="#a7a7a7"/></g><path d="M43.6,5.222,60.987,22.608A12.294,12.294,0,1,1,43.6,5.222Z" transform="translate(4.47 0.379)" fill="#818181"/><path d="M40.546,10.1A13.413,13.413,0,0,0,57.24,18.925l-13.7-13.7A12.291,12.291,0,0,0,40.546,10.1Z" transform="translate(4.535 0.379)" fill="#a7a7a7"/><path d="M20.575,18.995l4.136-4.136-1.693-1.467-4.024,4.024-5.126-5.126,3.657-3.657L15.833,7.165l-3.544,3.544L6.373,4.793l-1.58,1.58,5.916,5.916L7.165,15.833l1.467,1.693,3.657-3.657,5.126,5.126-4.024,4.024,1.467,1.693,4.136-4.136,3.8,3.8,1.229-.351.351-1.229Z" transform="translate(0.329 0.329)" fill="#818181"/><path d="M45.521,47.1l-4.136,4.136,1.693,1.467L47.1,48.682l5.126,5.126L48.57,57.465l1.693,1.467,3.544-3.544L59.723,61.3l1.58-1.58-5.916-5.916,3.544-3.544L57.465,48.57l-3.657,3.657L48.682,47.1l4.024-4.024-1.467-1.693L47.1,45.521l-3.8-3.8-1.229.351L41.721,43.3Z" transform="translate(4.633 4.633)" fill="#818181"/></g></g></svg>