<svg id="Слой_1" data-name="Слой 1" xmlns="http://www.w3.org/2000/svg" viewBox="0 0 512 645"><defs><style>.cls-1{fill:#fefefe;}</style></defs><g id="_fefefeff" data-name="#fefefeff"><path class="cls-1" d="M91.61,612.49A87,87,0,0,1,7.66,529.3V115A87,87,0,0,1,91.58,31.53H457.33a9.5,9.5,0,0,1,8.6,8.92v1.2A9.5,9.5,0,0,1,457,50.06H94.18a68.06,68.06,0,0,0-.44,136.12l121.63,0H335l121.41,0h.48c4.36,0,8.6,4,9.08,8.45V603.59a9.47,9.47,0,0,1-8.38,8.9H91.61ZM294,594H447.28V204.85H93.81a87.2,87.2,0,0,1-56-20.94l-11.63-10v15.34q0,101.66,0,203.33V525.4A68.15,68.15,0,0,0,94.05,594H294Z"/><path class="cls-1" d="M253.72,128.86l-154.41,0H99a9.4,9.4,0,0,1-8.89-9.11v-.34a9.43,9.43,0,0,1,8-9c35.38-.07,72.8-.1,121.37-.1H405.14l.45,0a9.2,9.2,0,0,1,6.45,2.91,8.76,8.76,0,0,1,2.66,6.17v.35a9.35,9.35,0,0,1-8.79,9.11h-.22Z"/><path class="cls-1" d="M248.53,330.52a12.8,12.8,0,0,1-12.3-9.65l-.07-.25a9.25,9.25,0,0,1,.57-5.83,12.21,12.21,0,0,1,6.26-6.72l.27-.1.27-.13a10.64,10.64,0,0,1,4.54-1A12.58,12.58,0,0,1,260,315.62l.09.28c1.35,4.13-1.26,9.77-4.5,12.05l-.25.17-.24.19A10.44,10.44,0,0,1,248.53,330.52Z"/><path class="cls-1" d="M248.11,490.45a18,18,0,0,1-9.39-2.41,6,6,0,0,1-1.14-.87l-.24-.24v-.34q0-18.85,0-37.72v-1.61q0-33.17,0-66.25v-.38l.3-.25a11,11,0,0,1,4.37-1.87,33.45,33.45,0,0,1,6.5-.67,21.1,21.1,0,0,1,9.81,2.14,6.4,6.4,0,0,1,.92.6l.29.25v.38c0,19.86,0,40.57,0,57.21v2q0,21.75,0,43.41v2.83l-.23.23a13.74,13.74,0,0,1-6.1,3A23.2,23.2,0,0,1,248.11,490.45Z"/></g></svg>