<svg id="ESA_Logo" xmlns="http://www.w3.org/2000/svg" width="75.58" height="27.197" viewBox="0 0 75.58 27.197">
  <path id="Path_653" data-name="Path 653" d="M25.889,21.284" transform="translate(-2.418 -1.99)" fill="#101010"/>
  <g id="Group_5348" data-name="Group 5348" transform="translate(30.986 6.115)">
    <path id="Path_654" data-name="Path 654" d="M59.212,12.94c-1.167-.216-2.506-.259-3.2-1.036a1.285,1.285,0,0,1-.131-1.3A2.712,2.712,0,0,1,58.649,9.44a2.464,2.464,0,0,1,2.289,1.383,3.268,3.268,0,0,1,.259,1.124h3.2A4.844,4.844,0,0,0,63.139,8.58,7.394,7.394,0,0,0,56.92,6.894,5.189,5.189,0,0,0,52.6,10.049a4.071,4.071,0,0,0,1.167,4.536c1.469,1.124,4.234,1.427,5.358,1.687,1.3.255,1.944.432,2.159,1.165a1.655,1.655,0,0,1-.212,1.426c-.822,1.079-2.506,1.167-3.846.778a2.737,2.737,0,0,1-1.814-2.465H52.041a4.949,4.949,0,0,0,.907,2.81A5.488,5.488,0,0,0,56.879,22.4a9.044,9.044,0,0,0,5.444-.607,6.329,6.329,0,0,0,1.771-1.6,4.721,4.721,0,0,0,.215-4.924C63.359,13.632,61.2,13.286,59.212,12.94Z" transform="translate(-35.85 -6.747)" fill="#101010"/>
    <path id="Path_655" data-name="Path 655" d="M46.394,8.921a6.927,6.927,0,0,0-6.22-2.075,6.759,6.759,0,0,0-4.8,3.285,9.725,9.725,0,0,0-1.124,3.2,7.947,7.947,0,0,0,5.014,8.77,7.52,7.52,0,0,0,6.956-.993,6.842,6.842,0,0,0,2.419-4.02H44.8a3.048,3.048,0,0,1-1.123,1.729,3.553,3.553,0,0,1-4.1-.17c-1.167-.864-1.554-2.289-1.6-4.321A5.359,5.359,0,0,1,39.179,10.7,3.569,3.569,0,0,1,42.55,10a3.153,3.153,0,0,1,2.117,3.024H39.222v2.719h9.422a10.293,10.293,0,0,0-.259-2.852,10.1,10.1,0,0,0-1.991-3.973Z" transform="translate(-34.18 -6.745)" fill="#101010"/>
    <path id="Path_656" data-name="Path 656" d="M81.455,18.372V13.706a19.081,19.081,0,0,0-.3-3.543C80.894,9.039,79.9,7.182,76.7,6.792c-.595-.042-1.232-.042-1.87-.042H74.8a10.168,10.168,0,0,0-3.081.56,4.769,4.769,0,0,0-2.854,4.581h3.455a2.245,2.245,0,0,1,1.34-2.159,3.1,3.1,0,0,1,1.166-.22h0a3.156,3.156,0,0,1,2.3.737,1.511,1.511,0,0,1,.391,1.469c-.217.908-1.21,1.209-2.719,1.426v0c-.51.085-1.1.127-1.74.212-1.814.216-4.407,1.123-5.014,3.759a4.334,4.334,0,0,0,1.554,4.19,6.227,6.227,0,0,0,3.759,1.168,7.785,7.785,0,0,0,1.47-.13v-.008a7.17,7.17,0,0,0,3.036-1.548,4.779,4.779,0,0,0,.432,1.253h3.631a8.7,8.7,0,0,1-.478-3.67Zm-3.889-.561a3.093,3.093,0,0,1-2.765,1.77v.005a2.738,2.738,0,0,1-.833.037,2.047,2.047,0,0,1-1.9-1.079,1.749,1.749,0,0,1,.085-1.685c.518-.907,1.426-1.079,2.68-1.338v0a8.7,8.7,0,0,0,1.265-.255,3.436,3.436,0,0,0,1.641-.734,17.231,17.231,0,0,1-.172,3.283Z" transform="translate(-37.34 -6.747)" fill="#101010"/>
  </g>
  <path id="Path_657" data-name="Path 657" d="M18.557,22.266a8.8,8.8,0,0,1-5.73-11.745,7.122,7.122,0,0,1,10.564-3.16c3.706,2.657,3.314,7.756,3.314,7.756h-9.5V12.4h5.512a2.6,2.6,0,0,0-.765-2.07,3.342,3.342,0,0,0-4.117-.675c-1.068.566-2.44,2.919-1.634,6.3a5.266,5.266,0,0,0,5.328,3.581h0c3.22,0,5.658-2.242,5.662-5.913A13.6,13.6,0,1,0,23.955,22.4,8.69,8.69,0,0,1,18.557,22.266ZM6.524,15.308a1.551,1.551,0,1,1,1.548-1.551,1.551,1.551,0,0,1-1.548,1.551Z" transform="translate(0.004 0)" fill="#101010"/>
</svg>
