<svg xmlns="http://www.w3.org/2000/svg" width="116.74" height="125.079" viewBox="0 0 116.74 125.079">
  <g id="Group_6979" data-name="Group 6979" transform="translate(-5658 -11289)">
    <g id="Subtraction_5" data-name="Subtraction 5" transform="translate(5658 11289)" fill="none">
      <path d="M25.014,108.552h0L10.274,93.809,21.73,82.353A43.28,43.28,0,0,1,16.4,70.879H0V50.032H15.381A43.138,43.138,0,0,1,21.73,34.387L10.274,22.931,25.015,8.19,36.978,20.152a43.258,43.258,0,0,1,10.97-4.317V0H68.794V15.835a43.324,43.324,0,0,1,10.968,4.317L91.725,8.19l14.739,14.741L95.01,34.387a43.119,43.119,0,0,1,6.351,15.646H116.74V70.879H100.346A43.283,43.283,0,0,1,95.01,82.353l11.454,11.456-14.738,14.74L79.762,96.588a43.353,43.353,0,0,1-6.718,3.052L70.038,89.619a33.353,33.353,0,1,0-23.335,0L43.7,99.64a43.343,43.343,0,0,1-6.718-3.052L25.015,108.551Z" stroke="none"/>
      <path d="M 25.01384162902832 105.7234268188477 L 36.63560104370117 94.10166168212891 L 37.95740127563477 94.84429931640625 C 39.39019775390625 95.64929962158203 40.87803649902344 96.371337890625 42.40015029907227 97.00098419189453 L 44.26448059082031 90.78789520263672 C 31.48136138916016 85.20182037353516 23.01706695556641 72.40453338623047 23.01706695556641 58.37003326416016 C 23.01706695556641 38.8763313293457 38.87633514404297 23.01706504821777 58.37003326416016 23.01706504821777 C 77.86475372314453 23.01706504821777 93.72486877441406 38.8763313293457 93.72486877441406 58.37003326416016 C 93.72486877441406 72.4046630859375 85.26028442382812 85.20194244384766 72.47690582275391 90.78780364990234 L 74.34061431884766 97.00070953369141 C 75.86248779296875 96.37112426757812 77.35015106201172 95.64915466308594 78.78263092041016 94.84431457519531 L 80.10426330566406 94.10174560546875 L 91.72609710693359 105.720703125 L 103.6359634399414 93.80928039550781 L 92.44405364990234 82.61553192138672 L 93.33895111083984 81.2545166015625 C 95.56678009033203 77.86627960205078 97.27918243408203 74.18391418457031 98.42855072021484 70.30971527099609 L 98.85313415527344 68.87854766845703 L 114.7400665283203 68.87854766845703 L 114.7400665283203 52.03226089477539 L 99.708251953125 52.03223037719727 L 99.39679718017578 50.40911483764648 C 98.36973571777344 45.05654907226562 96.33163452148438 40.03559875488281 93.33910369873047 35.48576354980469 L 92.44388580322266 34.12468338012695 L 103.6359634399414 22.93076515197754 L 91.72478485107422 11.01806354522705 L 80.10489654541016 22.63794898986816 L 78.78334808349609 21.89614868164062 C 75.50086975097656 20.05366516113281 71.98101806640625 18.66824913024902 68.32154846191406 17.77838134765625 L 66.79411315917969 17.4069652557373 L 66.79411315917969 1.999998569488525 L 49.94781494140625 1.999998569488525 L 49.94781494140625 17.40768241882324 L 48.41949844360352 17.7785816192627 C 44.7640495300293 18.66569900512695 41.24385070800781 20.05104827880859 37.95668411254883 21.89614868164062 L 36.63515090942383 22.63794898986816 L 25.01518440246582 11.01798248291016 L 13.10243129730225 22.93074798583984 L 24.29601669311523 34.12436676025391 L 23.40114974975586 35.48546600341797 C 20.40976715087891 40.03541564941406 18.37223243713379 45.05646514892578 17.34514999389648 50.40914916992188 L 17.03369903564453 52.03226470947266 L 1.99999988079071 52.0322380065918 L 1.99999988079071 68.87854766845703 L 17.88881683349609 68.87854766845703 L 18.31340026855469 70.30971527099609 C 19.46376609802246 74.18731689453125 21.17551612854004 77.86968231201172 23.4011173248291 81.25453186035156 L 24.29606628417969 82.61564636230469 L 13.10228157043457 93.80946350097656 L 25.01384162902832 105.7234268188477 M 25.01371574401855 108.5519638061523 L 25.01223373413086 108.5505142211914 L 10.27400016784668 93.80931854248047 L 21.72998237609863 82.35331726074219 C 19.39609909057617 78.80376434326172 17.60156631469727 74.94221496582031 16.39599990844727 70.87854766845703 L -6.917318273735873e-08 70.87854766845703 L -6.917318273735873e-08 50.03223037719727 L 15.38098335266113 50.03226470947266 C 16.45786666870117 44.42006683349609 18.59468269348145 39.15559768676758 21.72998237609863 34.38674926757812 L 10.27400016784668 22.93074798583984 L 25.01518249511719 8.189548492431641 L 36.97774887084961 20.15211486816406 C 40.42513275146484 18.21708106994629 44.11685180664062 16.76471519470215 47.94781494140625 15.83499813079834 L 47.94781494140625 -1.430257157153392e-06 L 68.79411315917969 -1.430257157153392e-06 L 68.79411315917969 15.83501529693604 C 72.63186645507812 16.76823234558105 76.3226318359375 18.22139930725098 79.76229858398438 20.15211486816406 L 91.72486877441406 8.189548492431641 L 106.4641799926758 22.93074798583984 L 95.01006317138672 34.3867301940918 C 98.14783477783203 39.15738296508789 100.2845001220703 44.42216491699219 101.360969543457 50.03223037719727 L 116.7400665283203 50.03226470947266 L 116.7400665283203 70.87854766845703 L 100.345947265625 70.87854766845703 C 99.14056396484375 74.94155120849609 97.34466552734375 78.80271148681641 95.01006317138672 82.35331726074219 L 106.4641799926758 93.80929565429688 L 91.72636413574219 108.5490341186523 L 79.76229858398438 96.58795166015625 C 77.61751556396484 97.79299926757812 75.35641479492188 98.81983184814453 73.04434967041016 99.64022827148438 L 70.03829956054688 89.61916351318359 C 83.01021575927734 84.75961303710938 91.72486877441406 72.20258331298828 91.72486877441406 58.37003326416016 C 91.72486877441406 39.97914886474609 76.76194763183594 25.01706504821777 58.37003326416016 25.01706504821777 C 39.97914886474609 25.01706504821777 25.01706695556641 39.97914886474609 25.01706695556641 58.37003326416016 C 25.01706695556641 72.20161437988281 33.73204803466797 84.759765625 46.70321655273438 89.61934661865234 L 43.69625091552734 99.64041900634766 C 41.37653350830078 98.81732940673828 39.11701583862305 97.78986358642578 36.97774887084961 96.58795166015625 L 25.01371574401855 108.5519638061523 Z" stroke="none" fill="#fff"/>
    </g>
    <g id="Union_14" data-name="Union 14" transform="translate(5699.693 11324.964)" fill="none">
      <path d="M19.8,73.956H13.55v15.16a12.418,12.418,0,0,1-3.126-22.822V31.613A16.68,16.68,0,0,1,12.509,0V20.321h8.338V0a16.68,16.68,0,0,1,2.084,31.613v34.68A12.418,12.418,0,0,1,19.8,89.115Z" stroke="none"/>
      <path d="M 21.80315208435059 86.18627166748047 C 25.06700325012207 84.37660217285156 27.18595314025879 80.9200439453125 27.18595314025879 77.06622314453125 C 27.18595314025879 75.20658111572266 26.68565940856934 73.37998199462891 25.73916625976562 71.78390502929688 C 24.81771278381348 70.23007965087891 23.50110054016113 68.93038177490234 21.93165969848633 68.02536773681641 L 20.93075370788574 67.44819641113281 L 20.93075370788574 30.26618385314941 L 22.17841911315918 29.75965118408203 C 24.85555267333984 28.67277145385742 27.13980674743652 26.83313179016113 28.78423309326172 24.43962478637695 C 30.46594047546387 21.99185180664062 31.3548469543457 19.12607765197754 31.3548469543457 16.15209197998047 C 31.3548469543457 10.35104560852051 27.96242332458496 5.191003799438477 22.84630012512207 2.826980113983154 L 22.84630012512207 22.32097053527832 L 10.5085391998291 22.32097053527832 L 10.5085391998291 2.826498746871948 C 5.392584323883057 5.189697265625 2.000006437301636 10.34998321533203 2.000006437301636 16.15209197998047 C 2.000006437301636 19.12607765197754 2.888912916183472 21.99186515808105 4.570606231689453 24.43963813781738 C 6.215033054351807 26.83314514160156 8.499286651611328 28.67278480529785 11.17641925811768 29.75966453552246 L 12.42408657073975 30.26619720458984 L 12.42408657073975 67.44815826416016 L 11.42319297790527 68.02534484863281 C 9.853753089904785 68.93037414550781 8.537126541137695 70.23006439208984 7.615686416625977 71.78390502929688 C 6.669179439544678 73.37998199462891 6.168886184692383 75.20658111572266 6.168886184692383 77.06622314453125 C 6.168886184692383 80.91966247558594 8.287094116210938 84.37599182128906 11.54981994628906 86.18585968017578 L 11.54981994628906 71.95552062988281 L 21.80315208435059 71.95552062988281 L 21.80315208435059 86.18627166748047 M 19.80315208435059 89.11508941650391 L 19.80315208435059 73.95552062988281 L 13.54981994628906 73.95552062988281 L 13.54981994628906 89.11508941650391 C 8.026326179504395 87.70045471191406 4.168886184692383 82.74543762207031 4.168886184692383 77.06622314453125 C 4.168886184692383 72.46975708007812 6.687899589538574 68.44728088378906 10.42408657073975 66.29277038574219 L 10.42408657073975 31.61277198791504 C 4.317739486694336 29.1336784362793 6.329142252070596e-06 23.13715744018555 6.329142252070596e-06 16.15209197998047 C 6.329142252070596e-06 8.538531303405762 5.144499778747559 1.894944667816162 12.5085391998291 -1.958414713953971e-06 L 12.5085391998291 20.32097053527832 L 20.84630012512207 20.32097053527832 L 20.84630012512207 -1.958414713953971e-06 C 28.21221923828125 1.896824717521667 33.3548469543457 8.538531303405762 33.3548469543457 16.15209197998047 C 33.3548469543457 23.13715744018555 29.03709983825684 29.13366508483887 22.93075370788574 31.61275863647461 L 22.93075370788574 66.29280090332031 C 26.66693878173828 68.44728088378906 29.18595314025879 72.46975708007812 29.18595314025879 77.06622314453125 C 29.18595314025879 82.74543762207031 25.32851219177246 87.70045471191406 19.80315208435059 89.11508941650391 Z" stroke="none" fill="#fff"/>
    </g>
  </g>
</svg>
