<?xml version="1.0" encoding="UTF-8"?>
<!DOCTYPE svg PUBLIC "-//W3C//DTD SVG 1.1//EN" "http://www.w3.org/Graphics/SVG/1.1/DTD/svg11.dtd">
<!-- Creator: CorelDRAW X8 -->
<svg xmlns="http://www.w3.org/2000/svg" xml:space="preserve" width="135.922mm" height="135.922mm" version="1.1" style="shape-rendering:geometricPrecision; text-rendering:geometricPrecision; image-rendering:optimizeQuality; fill-rule:evenodd; clip-rule:evenodd"
viewBox="0 0 12744 12744"
 xmlns:xlink="http://www.w3.org/1999/xlink">
 <defs>
  <style type="text/css">
   <![CDATA[
    .str0 {stroke:#FEFEFE;stroke-width:70.3206}
    .fil1 {fill:#FEFEFE}
    .fil0 {fill:#00A651}
   ]]>
  </style>
 </defs>
 <g id="Warstwa_x0020_1">
  <metadata id="CorelCorpID_0Corel-Layer"/>
  <path class="fil0" d="M6372 0c3519,0 6372,2853 6372,6372 0,3519 -2853,6372 -6372,6372 -3519,0 -6372,-2853 -6372,-6372 0,-3519 2853,-6372 6372,-6372z"/>
  <path class="fil1 str0" d="M8595 2260c-145,-61 -308,-51 -446,29 -551,316 -983,710 -1285,1172 -242,370 -401,784 -471,1230 -70,438 -41,818 -2,1064 -24,-3 -48,-5 -73,-3 -196,-758 -83,-1301 -81,-1308 14,-64 -26,-127 -90,-142 -64,-14 -127,27 -141,90 -5,21 -87,406 -4,988 -382,-447 -726,-639 -744,-649 -57,-32 -129,-11 -161,46 -31,57 -10,129 47,161 1,1 135,75 323,238 158,136 386,363 606,687 -18,17 -33,36 -46,57 -160,-192 -425,-465 -801,-702 -381,-241 -796,-395 -1235,-458 -545,-78 -1127,-14 -1728,191 -151,51 -266,166 -316,316 -49,148 -28,307 60,436l1034 1520c202,298 559,437 899,367 -29,59 -49,117 -63,169 -61,225 -39,479 60,696 485,1074 1340,1435 1806,1555 1142,294 1138,-1703 1112,-2311 -4,-80 -22,-157 -55,-230l-78 -171c45,-3 90,-13 133,-33 43,-19 80,-46 112,-78l77 172c33,72 79,137 136,192 440,423 1937,1744 2470,692 218,-429 511,-1310 25,-2383 -98,-218 -274,-402 -483,-505 -48,-24 -105,-47 -169,-64 277,-210 409,-569 319,-917l-459 -1781c-39,-151 -144,-272 -288,-333zm-5358 4830l-1034 -1520c-46,-68 -57,-151 -32,-228 27,-79 88,-140 168,-167 393,-134 776,-204 1143,-210 -47,59 -82,126 -106,203 -97,320 28,790 372,1396 164,289 337,538 439,678l-158 72c-284,128 -617,34 -792,-224zm3381 619c19,429 109,2310 -816,2072 -425,-109 -1205,-440 -1650,-1423 -75,-166 -92,-367 -47,-538 57,-212 201,-372 430,-475l61 -28c2,196 19,492 94,659 220,485 1200,1142 1242,1170 34,23 77,26 114,9 1,0 2,0 3,0 37,-18 63,-55 67,-96 41,-437 147,-1451 238,-2000l230 508 0 0c20,45 32,93 34,142zm-429 -1016c-106,368 -239,1628 -290,2142 -327,-236 -860,-662 -993,-957 -66,-145 -76,-484 -74,-668l1321 -597 36 80zm-134 -296l-1647 745c-320,-426 -955,-1415 -805,-1905 37,-123 125,-206 269,-253 27,3 53,6 79,10 405,57 788,198 1140,419 571,358 877,815 912,870l52 114zm613 130c0,0 0,0 0,0l156 345c31,67 1,147 -67,178 -67,30 -147,0 -177,-67l-156 -345c0,0 0,-1 0,-1l-209 -460c-30,-67 0,-147 67,-177 0,0 0,0 0,0 0,0 0,0 0,0 0,0 0,0 0,0 1,0 1,0 1,0 67,-31 146,-1 177,67l208 460 0 0zm11 -550c-18,-63 -158,-586 -52,-1249 65,-412 212,-795 436,-1138 15,-24 32,-47 48,-71 130,-77 251,-88 368,-35 240,108 473,475 676,1060 116,334 191,652 223,803l-1647 744 -52 -114zm149 330l1321 -597c140,120 387,351 453,497 133,294 101,976 62,1377 -419,-300 -1453,-1033 -1799,-1196l-37 -81zm2632 -350c444,984 178,1788 -21,2179 -432,852 -1785,-458 -2095,-755 -35,-35 -64,-75 -84,-120l-230 -508c473,294 1305,884 1660,1142 33,24 78,29 116,13 0,-1 1,-1 2,-1 37,-17 63,-52 68,-93 7,-49 161,-1219 -58,-1705 -75,-166 -287,-375 -433,-506l61 -28c229,-103 444,-106 641,-8 158,78 297,224 373,390zm-807 -3305l460 1781c78,301 -72,614 -356,742l-158 72c-38,-169 -110,-464 -219,-778 -228,-659 -498,-1063 -803,-1201 -73,-33 -147,-51 -222,-54 247,-272 552,-513 912,-720 73,-42 159,-48 236,-15 75,31 130,94 150,173z"/>
  <g id="_2231298201584">
  </g>
  <g id="_2231298201456">
  </g>
  <g id="_2231298201680">
  </g>
  <g id="_2231298202736">
  </g>
  <g id="_2231298203312">
  </g>
  <g id="_2231298203760">
  </g>
  <g id="_2231298201776">
  </g>
  <g id="_2231298202224">
  </g>
  <g id="_2231298202256">
  </g>
  <g id="_2231298201968">
  </g>
  <g id="_2231298204240">
  </g>
  <g id="_2231298203920">
  </g>
  <g id="_2231298204464">
  </g>
  <g id="_2231298204560">
  </g>
  <g id="_2231298205008">
  </g>
 </g>
</svg>
