<?xml version="1.0" encoding="UTF-8"?>
<!DOCTYPE svg PUBLIC "-//W3C//DTD SVG 1.1//EN" "http://www.w3.org/Graphics/SVG/1.1/DTD/svg11.dtd">
<!-- Creator: CorelDRAW X8 -->
<svg xmlns="http://www.w3.org/2000/svg" xml:space="preserve" width="135.922mm" height="135.922mm" version="1.1" style="shape-rendering:geometricPrecision; text-rendering:geometricPrecision; image-rendering:optimizeQuality; fill-rule:evenodd; clip-rule:evenodd"
viewBox="0 0 5882 5882"
 xmlns:xlink="http://www.w3.org/1999/xlink">
 <defs>
  <style type="text/css">
   <![CDATA[
    .fil1 {fill:#FEFEFE}
    .fil0 {fill:#E38525}
   ]]>
  </style>
 </defs>
 <g id="Warstwa_x0020_1">
  <metadata id="CorelCorpID_0Corel-Layer"/>
  <path class="fil0" d="M2941 0c1624,0 2941,1317 2941,2941 0,1624 -1317,2941 -2941,2941 -1624,0 -2941,-1317 -2941,-2941 0,-1624 1317,-2941 2941,-2941z"/>
  <path class="fil1" d="M2945 4217c-14,0 -28,-9 -34,-24 -8,-20 0,-43 19,-52l2112 -1016c35,-16 74,1 89,38 15,37 -1,79 -35,95l-2136 956c-5,2 -10,3 -15,3l0 0z"/>
  <path class="fil1" d="M3018 4413c-14,0 -28,-9 -34,-24 -8,-20 1,-44 20,-52l2111 -1016c35,-16 75,1 90,38 14,36 -1,79 -36,95l-2136 956c-5,2 -10,3 -15,3l0 0z"/>
  <path class="fil1" d="M4319 2517c0,0 0,-1 0,-2 0,0 0,0 0,0 -2,-151 -153,-287 -426,-385 -40,-14 -82,-27 -126,-40 -23,-21 -46,-42 -70,-63 -221,-183 -484,-280 -760,-280 -276,0 -539,97 -760,281 -24,20 -46,40 -68,61 -46,13 -89,26 -130,41 -275,98 -426,236 -426,388 0,8 0,15 1,23 12,711 629,1280 1383,1280 760,0 1379,-582 1382,-1300 0,-1 0,-2 0,-3 0,0 0,0 0,-1zm-111 1c0,47 -30,95 -84,141 -50,-146 -120,-281 -209,-401 186,77 293,171 293,260zm-179 207c-234,132 -647,213 -1093,213 -445,0 -856,-81 -1091,-212 163,-521 598,-868 1092,-868 494,0 928,346 1092,867zm-2069 -468c-90,120 -161,256 -211,404 -55,-47 -85,-95 -85,-143 0,-90 108,-185 296,-261z"/>
 </g>
</svg>
