<?xml version="1.0" encoding="UTF-8"?>
<!DOCTYPE svg PUBLIC "-//W3C//DTD SVG 1.1//EN" "http://www.w3.org/Graphics/SVG/1.1/DTD/svg11.dtd">
<!-- Creator: CorelDRAW X8 -->
<svg xmlns="http://www.w3.org/2000/svg" xml:space="preserve" width="135.922mm" height="135.922mm" version="1.1" style="shape-rendering:geometricPrecision; text-rendering:geometricPrecision; image-rendering:optimizeQuality; fill-rule:evenodd; clip-rule:evenodd"
viewBox="0 0 1333 1333"
 xmlns:xlink="http://www.w3.org/1999/xlink">
 <defs>
  <style type="text/css">
   <![CDATA[
    .str0 {stroke:#C5158A;stroke-width:24.5121;stroke-linecap:round;stroke-linejoin:round}
    .fil2 {fill:none}
    .fil1 {fill:#FEFEFE}
    .fil0 {fill:#C5158A}
   ]]>
  </style>
 </defs>
 <g id="Warstwa_x0020_1">
  <metadata id="CorelCorpID_0Corel-Layer"/>
  <path class="fil0" d="M666 0c368,0 667,298 667,666 0,368 -299,667 -667,667 -368,0 -666,-299 -666,-667 0,-368 298,-666 666,-666z"/>
  <path class="fil1" d="M753 744l0 0c6,-2 11,-5 16,-8 16,-10 27,-21 30,-32 -10,-2 -20,-6 -30,-13 -27,-20 -40,-53 -27,-74 13,-22 51,-21 80,5 27,23 33,48 33,74 0,19 -6,52 -42,80 -17,-13 -37,-24 -60,-32zm37 -117c-8,0 -14,6 -14,14 0,8 6,14 14,14 7,0 13,-6 13,-14 0,-8 -6,-14 -13,-14z"/>
  <path class="fil1" d="M511 622c29,-26 66,-27 80,-5 13,21 0,54 -27,74 -10,7 -20,11 -30,13 3,11 14,22 29,32 15,9 23,11 86,32 22,7 50,16 86,28 52,18 82,52 82,93 0,29 -15,51 -35,67 -13,-13 -29,-24 -48,-34 22,-11 28,-19 28,-33 0,-10 -15,-26 -43,-36 -9,-3 -17,-5 -25,-8l0 59 -55 -24 0 -35c-8,3 -16,5 -25,8 -29,10 -43,26 -43,36 0,25 21,31 95,64 43,19 50,22 64,31 0,0 0,0 0,0 23,16 35,36 35,60 0,13 -2,30 -26,47l0 0c-1,1 -3,2 -5,2 -4,0 -8,-4 -8,-8 0,-1 1,-3 1,-4l0 0c16,-32 -1,-48 -33,-61l0 46c0,15 -13,27 -28,27 -15,0 -27,-12 -27,-27l0 -46c-32,13 -51,32 -34,61l0 0c1,1 1,3 1,4 0,5 -3,8 -8,8 -2,0 -3,-1 -5,-2l0 0c-23,-17 -25,-32 -25,-47 0,-22 12,-44 36,-60 -47,-17 -88,-45 -88,-95 0,-34 21,-64 59,-83 -18,-7 -26,-11 -38,-18 -52,-31 -59,-71 -59,-92 0,-26 6,-51 33,-74zm32 33c8,0 14,-6 14,-14 0,-8 -6,-14 -14,-14 -7,0 -14,6 -14,14 0,8 7,14 14,14z"/>
  <path class="fil1" d="M769 526c-8,-11 -24,-13 -34,-3l-14 14 0 -91 55 -56 0 0c20,-22 50,-37 82,-37l192 0c0,27 -13,51 -33,66l10 0c0,40 -28,73 -66,81 -15,42 -55,73 -103,73 -37,0 -70,-19 -89,-47z"/>
  <path class="fil1" d="M283 353l192 0c32,0 61,15 81,37l0 0 83 84 0 -46c-17,-9 -28,-28 -27,-48 0,-29 23,-52 51,-54 32,-2 58,24 58,55 0,20 -11,38 -27,47l0 297 -55 -18 0 -142 -41 -42c-10,-10 -26,-8 -34,3 -20,28 -52,47 -89,47 -48,0 -89,-31 -104,-73 -37,-8 -66,-41 -66,-81l10 0c-20,-15 -32,-39 -32,-66z"/>
  <line class="fil2 str0" x1="289" y1="419" x2="475" y2= "419" />
  <line class="fil2 str0" x1="289" y1="495" x2="430" y2= "495" />
  <line class="fil2 str0" x1="1051" y1="419" x2="865" y2= "419" />
  <line class="fil2 str0" x1="1051" y1="495" x2="910" y2= "495" />
 </g>
</svg>
