<?xml version="1.0" encoding="UTF-8" ?>
<!DOCTYPE svg PUBLIC "-//W3C//DTD SVG 1.1//EN" "http://www.w3.org/Graphics/SVG/1.1/DTD/svg11.dtd">
<svg width="512pt" height="414pt" viewBox="0 0 512 414" version="1.1" xmlns="http://www.w3.org/2000/svg">
<g id="#018b7bff">
<path fill="#018b7b" opacity="1.00" d=" M 255.27 0.00 L 256.69 0.00 C 280.45 0.22 304.14 7.04 324.14 19.90 C 345.87 33.67 363.18 54.28 373.04 78.04 C 382.32 99.97 384.98 124.58 381.02 148.04 C 377.39 170.44 367.34 191.68 352.67 208.96 C 408.29 234.18 453.30 280.07 480.72 334.32 C 493.91 359.63 501.84 387.17 512.00 413.73 L 512.00 414.00 L 0.00 414.00 L 0.00 414.00 C 6.47 396.40 12.48 378.63 19.20 361.12 C 26.51 342.68 35.52 324.90 46.29 308.24 C 73.74 265.50 112.95 230.05 159.32 208.97 C 146.25 193.49 136.84 174.91 132.38 155.13 C 126.32 128.57 128.99 100.04 140.22 75.20 C 150.13 52.81 166.74 33.45 187.37 20.25 C 207.46 7.20 231.33 0.23 255.27 0.00 M 247.10 66.23 C 235.52 67.85 224.48 72.99 215.70 80.70 C 202.96 91.71 195.13 108.19 194.75 125.03 C 194.23 140.02 199.52 155.14 209.31 166.51 C 219.14 178.31 233.62 186.03 248.86 187.79 C 256.61 188.35 264.54 188.25 272.06 186.06 C 287.01 182.09 300.17 172.12 308.22 158.94 C 316.11 146.33 319.00 130.74 316.35 116.12 C 313.56 99.43 303.24 84.25 289.00 75.19 C 276.71 67.30 261.54 63.99 247.10 66.23 M 161.40 282.48 C 135.76 299.31 114.41 322.31 98.42 348.41 C 203.48 348.44 308.54 348.44 413.60 348.41 C 394.81 317.73 368.52 291.30 336.72 274.20 C 312.30 261.19 284.73 253.48 256.96 253.90 C 223.13 253.09 189.55 264.00 161.40 282.48 Z" />
</g>
</svg>
