<?xml version="1.0" encoding="UTF-8" ?>
<!DOCTYPE svg PUBLIC "-//W3C//DTD SVG 1.1//EN" "http://www.w3.org/Graphics/SVG/1.1/DTD/svg11.dtd">
<svg width="512pt" height="427pt" viewBox="0 0 512 427" version="1.1" xmlns="http://www.w3.org/2000/svg">
<g id="#018b7bff">
<path fill="#018b7b" opacity="1.00" d=" M 7.51 0.00 L 504.25 0.00 C 508.30 0.27 511.61 3.49 512.00 7.53 L 512.00 308.57 C 511.56 312.55 508.20 315.99 504.10 315.92 C 483.98 316.08 463.85 315.93 443.72 315.99 C 443.69 350.01 443.74 384.03 443.70 418.05 C 443.97 422.57 440.07 425.76 436.12 427.00 L 433.88 427.00 C 430.01 426.54 427.94 423.07 425.64 420.39 C 396.11 385.59 366.59 350.78 337.05 315.99 C 327.10 315.97 317.14 315.99 307.19 315.98 C 307.19 310.29 307.18 304.61 307.19 298.93 C 318.82 298.97 330.46 298.82 342.09 298.99 C 346.13 298.89 348.37 302.64 350.68 305.34 C 375.98 335.35 401.28 365.36 426.61 395.35 C 426.62 366.23 426.61 337.11 426.62 307.98 C 426.09 303.22 430.05 298.65 434.92 298.96 C 454.91 298.87 474.91 298.96 494.90 298.92 C 494.90 204.98 494.91 111.05 494.90 17.11 C 335.62 17.11 176.34 17.11 17.06 17.11 C 17.06 111.05 17.06 204.98 17.06 298.92 C 28.43 298.93 39.81 298.91 51.18 298.93 C 51.19 304.61 51.18 310.29 51.18 315.98 C 36.74 315.94 22.29 316.07 7.85 315.92 C 3.92 315.99 0.72 312.83 0.00 309.09 L 0.00 7.47 C 0.35 3.50 3.59 0.40 7.51 0.00 Z" />
<path fill="#018b7b" opacity="1.00" d=" M 68.25 59.82 C 193.35 59.74 318.45 59.94 443.54 59.72 C 443.85 65.42 443.59 71.14 443.68 76.85 C 318.54 76.86 193.39 76.86 68.25 76.85 C 68.25 71.17 68.24 65.50 68.25 59.82 Z" />
<path fill="#018b7b" opacity="1.00" d=" M 68.25 111.05 C 193.39 111.04 318.54 111.04 443.68 111.06 C 443.67 116.74 443.68 122.43 443.67 128.12 C 318.53 128.13 193.39 128.13 68.25 128.12 C 68.24 122.43 68.25 116.74 68.25 111.05 Z" />
<path fill="#018b7b" opacity="1.00" d=" M 238.07 162.27 C 306.60 162.28 375.14 162.26 443.68 162.27 C 443.67 167.96 443.69 173.65 443.66 179.35 C 375.13 179.34 306.60 179.35 238.06 179.34 C 238.06 173.65 238.05 167.96 238.07 162.27 Z" />
</g>
<g id="#e8b012ff">
<path fill="#e8b012" opacity="1.00" d=" M 168.70 145.37 C 178.90 176.95 189.07 208.54 199.26 240.12 C 232.41 240.07 265.57 240.00 298.73 239.94 C 271.88 259.42 245.01 278.87 218.16 298.34 C 228.46 329.88 238.79 361.41 249.08 392.95 C 222.29 373.40 195.50 353.85 168.70 334.30 C 141.90 353.84 115.11 373.41 88.31 392.95 C 98.62 361.41 108.93 329.88 119.24 298.34 C 92.38 278.87 65.49 259.43 38.64 239.94 C 71.81 240.00 104.97 240.06 138.14 240.13 C 148.33 208.55 158.50 176.95 168.70 145.37 Z" />
</g>
</svg>
