<?xml version="1.0" encoding="UTF-8" ?>
<!DOCTYPE svg PUBLIC "-//W3C//DTD SVG 1.1//EN" "http://www.w3.org/Graphics/SVG/1.1/DTD/svg11.dtd">
<svg width="512pt" height="512pt" viewBox="0 0 512 512" version="1.1" xmlns="http://www.w3.org/2000/svg">
<g id="#018b7bff">
<path fill="#018b7b" opacity="1.00" d=" M 29.58 0.00 L 397.11 0.00 C 408.34 1.05 418.86 8.08 423.58 18.41 C 426.27 23.84 426.85 29.99 426.64 35.97 C 426.64 98.63 426.59 161.29 426.67 223.95 C 419.54 224.11 412.41 224.00 405.28 224.02 C 405.25 160.02 405.32 96.01 405.25 32.01 C 405.44 26.08 399.94 20.96 394.06 21.36 C 275.71 21.35 157.35 21.36 39.00 21.36 C 36.12 21.38 33.24 21.21 30.37 21.52 C 25.33 22.15 21.28 26.91 21.38 31.99 C 21.32 115.64 21.39 199.30 21.35 282.96 C 21.42 286.41 20.90 290.17 22.75 293.29 C 24.72 296.90 28.86 298.94 32.92 298.69 C 78.82 298.68 124.72 298.70 170.63 298.68 C 170.68 305.79 170.64 312.89 170.65 320.00 C 163.55 320.03 156.44 320.00 149.33 320.02 C 149.33 334.24 149.33 348.46 149.33 362.68 C 163.55 362.70 177.76 362.68 191.97 362.69 C 191.98 369.80 191.98 376.90 191.97 384.01 C 163.55 384.02 135.12 384.02 106.69 384.01 C 106.68 376.90 106.68 369.80 106.69 362.70 C 113.80 362.68 120.90 362.69 128.00 362.69 C 128.02 348.46 128.02 334.24 128.00 320.02 C 97.01 320.02 66.02 320.00 35.02 320.03 C 29.52 320.17 23.89 319.56 18.86 317.19 C 8.32 312.58 1.02 301.94 0.00 290.54 L 0.00 29.56 C 0.79 21.78 4.20 14.24 9.93 8.87 C 15.20 3.72 22.32 0.82 29.58 0.00 Z" />
<path fill="#018b7b" opacity="1.00" d=" M 132.12 59.01 C 138.70 46.91 153.59 40.23 167.00 43.45 C 179.93 46.20 190.36 57.71 191.74 70.86 C 192.55 76.92 191.32 83.07 188.89 88.62 C 199.58 99.19 210.09 109.94 220.83 120.45 C 229.45 116.43 239.77 116.34 248.38 120.44 C 259.18 110.06 269.52 99.20 280.29 88.79 C 275.88 78.53 276.25 66.07 282.79 56.78 C 290.73 44.58 307.50 39.31 320.97 44.89 C 334.42 49.91 343.22 64.77 341.01 78.99 C 339.37 92.80 327.71 104.57 313.93 106.36 C 307.78 107.25 301.36 106.36 295.75 103.64 C 284.81 114.08 274.18 124.89 263.61 135.71 C 270.24 149.17 265.69 166.80 253.34 175.32 C 240.96 184.63 222.02 182.87 211.55 171.47 C 202.40 162.22 200.11 147.30 205.71 135.61 C 195.16 124.92 184.45 114.39 173.90 103.70 C 165.13 107.57 154.87 107.70 146.14 103.64 C 131.99 117.81 117.75 131.89 103.71 146.17 C 98.41 141.41 93.60 136.14 88.49 131.18 C 102.68 116.98 116.85 102.76 131.08 88.60 C 126.79 79.28 126.95 67.95 132.12 59.01 M 156.52 64.63 C 152.55 65.95 149.57 69.79 149.36 73.98 C 148.83 79.57 153.42 84.95 159.01 85.32 C 165.27 86.12 171.22 80.35 170.64 74.07 C 170.49 67.27 162.88 62.17 156.52 64.63 M 306.40 64.45 C 302.14 65.61 298.84 69.63 298.64 74.06 C 298.13 79.86 303.16 85.33 308.97 85.37 C 315.08 85.74 320.59 79.99 319.96 73.91 C 319.68 67.41 312.60 62.46 306.40 64.45 M 231.17 139.27 C 227.46 140.52 224.61 143.95 224.09 147.84 C 223.03 153.78 227.96 159.78 233.96 160.01 C 240.37 160.63 246.23 154.44 245.22 148.07 C 244.64 141.56 237.30 136.92 231.17 139.27 Z" />
</g>
<g id="#e8b012ff">
<path fill="#e8b012" opacity="1.00" d=" M 262.08 201.43 C 287.09 190.58 315.97 189.09 341.99 197.18 C 368.21 205.15 391.27 222.84 405.85 246.03 C 420.09 268.40 426.16 295.78 422.86 322.09 C 420.24 343.99 411.11 365.02 397.01 381.98 C 404.50 389.46 411.95 396.97 419.47 404.41 C 423.01 401.23 425.82 397.05 430.12 394.84 C 434.26 392.96 439.38 394.23 442.39 397.58 C 464.40 419.60 486.41 441.63 508.44 463.64 C 510.55 465.60 511.77 468.32 512.00 471.19 L 512.00 471.78 C 511.79 474.67 510.59 477.45 508.46 479.43 C 499.46 488.46 490.42 497.44 481.46 506.49 C 479.09 509.07 476.32 511.52 472.71 512.00 L 470.34 512.00 C 467.74 511.54 465.31 510.36 463.51 508.42 C 441.38 486.26 419.22 464.13 397.11 441.96 C 393.33 438.40 392.81 432.00 396.11 427.96 C 398.64 424.93 401.67 422.35 404.36 419.46 C 396.86 412.01 389.41 404.51 381.92 397.05 C 365.22 410.86 344.64 419.95 323.14 422.77 C 298.95 426.02 273.77 421.43 252.37 409.66 C 227.04 395.93 207.22 372.39 198.06 345.06 C 188.64 317.37 190.22 286.11 202.52 259.56 C 214.31 233.72 235.95 212.57 262.08 201.43 M 298.54 213.82 C 282.44 215.36 266.78 221.18 253.55 230.49 C 236.25 242.60 223.18 260.63 217.20 280.90 C 210.62 302.84 212.37 327.17 222.14 347.91 C 231.90 368.93 249.69 386.08 271.07 395.03 C 294.81 405.15 322.75 404.90 346.28 394.30 C 365.91 385.62 382.35 369.98 392.06 350.85 C 403.19 329.23 405.38 303.26 398.17 280.06 C 391.40 257.81 376.04 238.36 356.03 226.52 C 338.89 216.25 318.41 211.83 298.54 213.82 M 434.32 419.72 C 429.42 424.60 424.54 429.50 419.64 434.38 C 436.94 451.67 454.20 469.00 471.54 486.25 C 476.40 481.34 481.29 476.47 486.18 471.60 C 468.92 454.27 451.60 437.02 434.32 419.72 Z" />
</g>
</svg>
