<?xml version="1.0" encoding="UTF-8" ?>
<!DOCTYPE svg PUBLIC "-//W3C//DTD SVG 1.1//EN" "http://www.w3.org/Graphics/SVG/1.1/DTD/svg11.dtd">
<svg width="221pt" height="228pt" viewBox="0 0 221 228" version="1.1" xmlns="http://www.w3.org/2000/svg">
<g id="#ffffffff">
</g>
<g id="#000000ff">
<path fill="#000000" opacity="1.00" d=" M 110.42 0.00 L 110.78 0.00 C 113.25 4.49 116.72 8.31 119.43 12.64 C 128.78 25.34 137.76 38.31 147.12 51.00 C 140.12 51.00 133.11 51.00 126.11 51.00 C 126.17 66.67 126.14 82.33 126.15 98.00 C 140.80 98.00 155.45 98.00 170.10 98.00 C 170.09 91.05 170.15 84.10 170.05 77.16 C 185.92 88.53 201.78 99.92 217.60 111.35 C 218.71 112.05 219.70 113.03 221.00 113.36 L 221.00 113.63 C 203.98 125.81 187.01 138.06 170.00 150.26 C 170.20 143.26 170.08 136.25 170.09 129.25 C 155.45 129.31 140.80 129.24 126.16 129.28 C 126.17 145.19 126.19 161.09 126.15 177.00 C 133.16 177.00 140.17 177.01 147.18 176.99 C 134.91 193.91 122.61 210.84 110.69 228.00 L 110.24 228.00 C 109.78 226.77 109.06 225.68 108.29 224.63 C 96.79 208.83 85.59 192.81 74.03 177.05 C 81.01 176.94 87.99 177.02 94.97 177.00 C 94.94 161.24 94.96 145.48 94.92 129.72 C 80.28 129.70 65.64 129.73 51.00 129.71 C 50.99 136.67 51.02 143.64 50.99 150.62 C 35.91 139.85 20.89 129.02 5.85 118.20 C 3.95 116.92 2.21 115.21 0.00 114.51 L 0.00 113.47 C 2.60 112.88 4.47 110.86 6.60 109.42 C 21.42 98.82 36.16 88.10 51.02 77.55 C 50.95 84.57 50.69 91.60 51.06 98.62 C 65.66 98.42 80.27 98.54 94.87 98.55 C 94.97 82.70 94.84 66.85 94.94 51.00 C 87.94 50.98 80.95 51.04 73.96 50.97 C 86.20 34.05 98.50 17.14 110.42 0.00 Z" />
</g>
</svg>
