<?xml version="1.0" encoding="UTF-8"?>
<!DOCTYPE svg PUBLIC "-//W3C//DTD SVG 1.1//EN" "http://www.w3.org/Graphics/SVG/1.1/DTD/svg11.dtd">
<!-- Creator: CorelDRAW X8 -->
<svg xmlns="http://www.w3.org/2000/svg" xml:space="preserve" width="4366.11mm" height="4366.11mm" version="1.1" style="shape-rendering:geometricPrecision; text-rendering:geometricPrecision; image-rendering:optimizeQuality; fill-rule:evenodd; clip-rule:evenodd"
viewBox="0 0 83058 83058"
 xmlns:xlink="http://www.w3.org/1999/xlink">
	<g>
		<metadata id="CorelCorpID_0Corel-Layer"/>
		<path d="M41529 0c22936,0 41529,18593 41529,41529 0,22936 -18593,41529 -41529,41529 -22936,0 -41529,-18593 -41529,-41529 0,-22936 18593,-41529 41529,-41529zm0 8242c18385,0 33287,14902 33287,33287 0,18385 -14902,33287 -33287,33287 -18385,0 -33287,-14902 -33287,-33287 0,-18385 14902,-33287 33287,-33287z"/>
		<g id="_1474597565040">
			<path d="M34327 50684c296,-459 502,-983 558,-1563 112,-1155 -356,-2227 -1155,-2953 505,-547 852,-1247 930,-2043 111,-1155 -356,-2228 -1155,-2953 505,-547 866,-1392 944,-2189 188,-1941 -1225,-3818 -3165,-4006l-7746 -751c-1941,-188 -3687,1383 -3876,3324 -111,1154 350,2299 1149,3025 -505,548 -856,1284 -933,2081 -112,1154 354,2244 1153,2969 -505,548 -853,1257 -930,2053 -169,1741 965,3308 2599,3751 -93,238 -167,488 -193,754 -150,1553 990,2940 2543,3091l7745 751c1552,150 2938,-990 3088,-2544 118,-1198 -539,-2290 -1556,-2797z"/>
			<path d="M51376 37671l-161 1663c-3697,-359 -4367,-1846 -4367,-1846 -2858,-5251 -5912,-5791 -7106,-12769 -378,-2205 475,-4928 -1636,-5133 -1556,-151 -3151,1179 -3863,3179 -977,2748 1156,10061 1020,11469 -137,1409 -192,2010 -205,2112 -9,-1 -18,-1 -28,-2 599,814 916,1838 811,2920 -70,716 -316,1374 -689,1936 667,834 1027,1916 916,3061 -70,717 -316,1373 -690,1936 669,833 1027,1916 916,3061 -43,445 -155,867 -322,1258 902,722 1442,1850 1322,3084 -77,796 -406,1329 -925,2025 0,0 1074,104 5299,513 4223,410 5087,-1603 8046,-1316l-202 2077 12573 1218 1863 -19227 -12572 -1219zm8037 17201l-6656 -645 1291 -13311 6655 645 -1290 13311z"/>
			<path d="M58403 52111c113,-1166 -741,-2203 -1907,-2317 -1167,-113 -2205,741 -2316,1907 -114,1168 740,2205 1906,2317 1166,113 2203,-741 2317,-1907z"/>
		</g>
	</g>
</svg>
