<?xml version="1.0" encoding="UTF-8"?>
<!DOCTYPE svg PUBLIC "-//W3C//DTD SVG 1.1//EN" "http://www.w3.org/Graphics/SVG/1.1/DTD/svg11.dtd">
<!-- Creator: CorelDRAW X8 -->
<svg xmlns="http://www.w3.org/2000/svg" xml:space="preserve" width="4366.11mm" height="4366.11mm" version="1.1" style="shape-rendering:geometricPrecision; text-rendering:geometricPrecision; image-rendering:optimizeQuality; fill-rule:evenodd; clip-rule:evenodd"
viewBox="0 0 181830 181830"
 xmlns:xlink="http://www.w3.org/1999/xlink">
 <g id="Warstwa_x0020_1">
  <metadata id="CorelCorpID_0Corel-Layer"/>
  <g id="_1474597572176">
   <path d="M90915 0c50212,0 90915,40704 90915,90915 0,50212 -40703,90915 -90915,90915 -50211,0 -90915,-40703 -90915,-90915 0,-50211 40704,-90915 90915,-90915zm0 18044c40248,0 72871,32624 72871,72871 0,40248 -32623,72871 -72871,72871 -40247,0 -72871,-32623 -72871,-72871 0,-40247 32624,-72871 72871,-72871z"/>
   <path d="M90914 39507c-19483,0 -35235,15752 -35235,35373 0,5113 1105,9811 2901,14233l30400 59002c829,1658 3040,1658 3869,0l30399 -59002c1935,-4284 2902,-9120 2902,-14233 0,-19621 -15752,-35373 -35236,-35373zm0 63700c-15752,0 -28603,-12850 -28603,-28603 0,-15752 12851,-28603 28603,-28603 15753,0 28603,12851 28603,28603 0,15753 -12850,28603 -28603,28603z"/>
   <polygon points="87252,88698 87252,77920 76336,77920 76336,70458 87252,70458 87252,59681 94576,59681 94576,70458 105492,70458 105492,77920 94576,77920 94576,88698 "/>
  </g>
 </g>
</svg>
