<svg width="1000pt" height="1000pt" viewBox="0 0 1000 1000" version="1.1" xmlns="http://www.w3.org/2000/svg">
	<g>
		<path d=" M 491.79 0.00 L 506.95 0.00 C 583.83 1.27 660.47 19.94 728.86 55.19 C 794.69 88.92 852.68 137.67 897.58 196.41 C 934.08 244.08 961.76 298.45 978.91 355.99 C 992.25 400.33 999.04 446.53 1000.00 492.81 L 1000.00 506.82 C 999.08 553.23 992.28 599.56 978.90 644.03 C 958.00 714.28 921.26 779.75 872.19 834.19 C 825.98 885.68 769.04 927.54 705.91 955.89 C 642.87 984.34 573.87 999.28 504.73 1000.00 L 494.35 1000.00 C 431.08 999.21 367.95 986.60 309.41 962.53 C 251.35 938.76 197.92 903.79 152.80 860.20 C 102.04 811.37 61.75 751.68 35.70 686.22 C 12.90 629.25 0.91 568.05 0.00 506.71 L 0.00 492.39 C 1.09 428.03 14.36 363.86 39.48 304.57 C 71.94 227.44 124.45 158.99 190.14 107.20 C 247.69 61.65 315.51 29.22 387.06 12.85 C 421.40 4.88 456.58 0.87 491.79 0.00 M 489.14 63.29 C 437.29 64.54 385.67 75.07 337.51 94.33 C 271.36 120.66 212.09 163.73 166.16 218.09 C 120.90 271.40 88.88 335.82 73.69 404.08 C 60.75 461.74 59.65 522.01 70.45 580.10 C 82.76 646.90 111.01 710.70 152.28 764.66 C 194.87 820.46 250.90 866.02 314.54 895.73 C 373.25 923.30 438.18 937.38 503.03 936.88 C 559.86 936.50 616.61 924.98 669.02 902.97 C 709.87 885.87 748.04 862.43 781.82 833.81 C 841.90 783.10 888.11 716.03 913.38 641.53 C 934.68 579.27 941.61 512.19 933.61 446.89 C 926.23 385.91 905.81 326.53 873.96 274.00 C 834.80 209.32 778.63 155.02 712.56 118.23 C 644.79 80.34 566.73 61.28 489.14 63.29 Z" />
		<path d=" M 480.55 151.50 C 484.67 147.68 489.96 145.66 495.11 143.63 C 501.22 141.64 508.15 142.30 513.81 145.34 C 516.84 147.02 520.50 146.25 523.68 147.43 C 525.40 148.20 526.75 149.56 528.09 150.85 C 551.26 174.04 574.45 197.21 597.62 220.40 C 604.75 227.55 608.11 238.20 606.43 248.16 C 604.72 259.35 596.57 269.24 585.94 273.13 C 575.18 277.27 562.27 275.00 553.62 267.36 C 547.62 261.77 542.05 255.75 536.08 250.13 C 536.08 297.43 536.08 344.74 536.08 392.04 C 536.24 397.72 536.12 403.58 533.78 408.88 C 529.08 421.15 516.35 430.26 503.00 429.22 C 487.26 428.71 473.47 414.74 473.24 398.97 C 473.15 349.34 473.24 299.71 473.19 250.08 C 467.77 255.38 462.48 260.82 457.07 266.14 C 450.00 273.07 439.62 276.36 429.85 274.81 C 418.08 273.17 407.68 264.39 404.10 253.06 C 400.33 241.94 403.29 228.87 411.56 220.52 C 434.54 197.49 457.56 174.51 480.55 151.50 Z" />
		<path d=" M 220.69 406.73 C 232.29 395.12 252.86 394.90 264.68 406.31 C 276.97 417.08 278.62 437.44 268.17 450.02 C 262.37 456.49 255.97 462.40 249.91 468.64 C 298.96 466.96 348.01 465.47 397.06 463.88 C 406.47 463.58 415.84 467.91 421.84 475.15 C 428.94 483.47 431.33 495.77 427.05 505.96 C 422.65 517.77 410.90 526.86 398.08 526.72 C 348.72 526.76 299.35 526.72 249.99 526.74 C 255.92 532.87 262.22 538.65 267.94 544.97 C 278.54 557.47 277.12 577.90 264.89 588.81 C 253.22 600.25 232.79 600.32 221.05 588.94 C 197.98 566.01 175.05 542.93 152.01 519.97 C 148.35 516.47 146.46 511.67 144.49 507.12 C 141.39 500.56 141.92 492.62 145.21 486.24 C 146.40 483.23 147.31 479.98 149.73 477.68 C 173.36 454.01 197.01 430.35 220.69 406.73 Z" />
		<path d=" M 747.91 400.17 C 759.00 396.49 771.97 399.47 780.26 407.73 C 802.29 429.70 824.27 451.73 846.28 473.72 C 853.14 479.82 857.29 488.80 857.89 497.93 C 858.71 501.87 858.21 506.14 856.66 509.84 C 854.05 514.02 853.55 519.31 849.79 522.78 C 826.15 546.47 802.51 570.17 778.78 593.76 C 766.91 605.10 746.38 604.88 734.74 593.31 C 722.79 582.41 721.43 562.31 731.78 549.89 C 737.53 543.48 743.91 537.66 749.89 531.47 C 700.27 531.45 650.65 531.51 601.03 531.44 C 584.65 531.24 570.31 516.39 570.68 500.01 C 570.31 483.66 584.65 468.85 600.99 468.62 C 650.62 468.49 700.26 468.71 749.88 468.51 C 744.77 463.47 739.72 458.36 734.66 453.26 C 727.70 446.20 724.39 435.78 725.94 425.99 C 727.58 414.13 736.47 403.70 747.91 400.17 Z" />
		<path d=" M 467.73 600.98 C 467.78 586.38 479.02 571.81 493.89 570.10 C 510.86 568.42 527.13 582.99 527.44 600.02 C 527.53 649.73 527.48 699.44 527.47 749.16 C 533.76 743.23 539.53 736.74 546.00 731.02 C 558.37 720.81 578.22 722.10 589.13 733.85 C 600.85 745.39 601.18 765.98 589.88 777.92 C 568.97 799.01 547.90 819.93 526.92 840.96 C 522.64 845.11 518.76 849.99 513.11 852.36 C 509.02 853.94 505.45 857.04 500.92 857.25 C 496.67 857.96 492.20 857.27 488.22 855.71 C 484.52 853.76 480.06 853.10 477.16 849.82 C 453.82 826.50 430.48 803.17 407.16 779.83 C 400.18 772.91 396.71 762.68 398.03 752.94 C 399.37 741.51 407.41 731.22 418.14 727.08 C 429.34 722.53 443.00 725.00 451.78 733.34 C 457.16 738.55 462.35 743.95 467.72 749.17 C 467.72 699.78 467.70 650.38 467.73 600.98 Z" />
	</g>
</svg>
