<?xml version="1.0" encoding="UTF-8"?>
<!DOCTYPE svg PUBLIC "-//W3C//DTD SVG 1.1//EN" "http://www.w3.org/Graphics/SVG/1.1/DTD/svg11.dtd">
<!-- Creator: CorelDRAW 2017 -->
<svg xmlns="http://www.w3.org/2000/svg" xml:space="preserve" width="68.6944cm" height="55.1297cm" version="1.1" style="shape-rendering:geometricPrecision; text-rendering:geometricPrecision; image-rendering:optimizeQuality; fill-rule:evenodd; clip-rule:evenodd"
viewBox="0 0 6691.51 5370.17"
 xmlns:xlink="http://www.w3.org/1999/xlink">
 <defs>
  <style type="text/css">
   <![CDATA[
    .fil0 {fill:#FEFEFE;fill-rule:nonzero}
   ]]>
  </style>
 </defs>
 <g id="Warstwa_x0020_1">
  <metadata id="CorelCorpID_0Corel-Layer"/>
  <g id="_1745317204400">
   <path class="fil0" d="M6583.02 0.06l-4635.17 0c-28.66,-0.83 -56.39,10.32 -76.6,30.74 -20.14,20.43 -30.91,48.33 -29.65,77.05l0 342.05 -353.58 0c-62.1,0 -110.33,55.68 -110.33,117.79l0 346.11 -349.52 0c-62.77,0.44 -113.61,51.02 -114.39,113.78l0 350.12 -345.5 0c-62.11,0 -118.4,47.62 -118.4,109.71l0 354.2 -341.45 0c-28.66,-1.43 -56.67,9.22 -77.2,29.27 -20.53,20.04 -31.85,47.71 -31.19,76.43l0 3314.95c-0.78,28.94 10.43,56.89 30.97,77.26 20.48,20.43 48.48,31.46 77.43,30.58l4635.17 0c28.66,0.76 56.44,-10.37 76.6,-30.81 20.14,-20.43 30.91,-48.32 29.7,-77.04l0 -342 353.53 0c62.11,0 110.38,-55.74 110.38,-117.84l0 -346.06 349.52 0c62.71,-0.49 113.56,-51.07 114.39,-113.84l0 -350.07 345.45 0c62.11,0 118.45,-47.67 118.45,-109.78l0 -354.13 341.39 0c28.72,1.36 56.67,-9.22 77.21,-29.32 20.59,-20.05 31.91,-47.73 31.25,-76.45l0 -3314.93c0.72,-28.95 -10.48,-56.89 -31.03,-77.26 -20.48,-20.43 -48.48,-31.48 -77.43,-30.53zm-116.47 224.92l0 1979.29 -1203.92 -854.24c-44.03,-31.46 -104.38,-26.58 -142.83,11.53l-916.78 901.62 -1064.48 -518.88c-32.57,-16.42 -71.29,-14.98 -102.52,3.78l-969.5 564.24 0 -2087.36 4400.03 0zm-4400.03 3078.65l0 -731.29 1030.66 -599.59 937.65 454.35 -896.74 876.53 -1071.57 0zm2558.46 1841.56l-4400.03 0 0 -3078.65 224.93 0 0 2735.88c2.36,64.3 54.09,115.8 118.4,117.84l4056.7 0 0 224.93zm463.91 -449.85l-4414.09 0 0 -3092.71 238.98 0 0 2739.89c0.78,62.77 51.62,113.35 114.39,113.84l4060.72 0 0 238.98zm463.9 -463.91l-4414.08 0 0 -3092.7 238.98 0 0 2743.95c-0.38,29.33 11.15,57.55 31.9,78.26 20.82,20.64 49.1,32.01 78.43,31.52l4064.78 0 0 238.98zm463.91 -463.9l-4414.08 0 0 -3092.71 238.98 0 0 2747.96c-1.15,28.51 9.71,56.13 29.93,76.22 20.2,20.1 47.88,30.81 76.32,29.55l4068.85 0 0 238.98zm-2557.74 -463.9l1750.46 -1719.06 1257.13 895.35 0 823.7 -3007.59 0z"/>
   <path class="fil0" d="M4017.76 1669.59c262.69,0 475.71,-212.96 475.71,-475.72 0,-262.71 -212.96,-475.66 -475.71,-475.66 -262.72,0 -475.72,212.95 -475.72,475.72 0.32,262.58 213.12,475.38 475.72,475.66zm0 -726.45c138.48,0 250.79,112.24 250.79,250.74 0,138.54 -112.31,250.79 -250.79,250.79 -138.5,0 -250.79,-112.25 -250.79,-250.73 0.17,-138.44 112.35,-250.64 250.79,-250.79z"/>
  </g>
 </g>
</svg>
