<?xml version="1.0" encoding="UTF-8" ?>
<!DOCTYPE svg PUBLIC "-//W3C//DTD SVG 1.1//EN" "http://www.w3.org/Graphics/SVG/1.1/DTD/svg11.dtd">
<svg width="800pt" height="800pt" viewBox="0 0 800 800" version="1.1" xmlns="http://www.w3.org/2000/svg">
<g id="#000000fe">
<path fill="#000000" opacity="1.00" d=" M 116.56 0.00 L 305.44 0.00 C 326.95 1.39 344.99 14.82 360.99 28.10 C 373.08 38.36 384.55 49.35 395.74 60.59 C 384.49 60.65 373.24 60.53 361.99 60.65 C 348.75 60.78 335.75 63.69 323.04 67.17 C 319.33 64.00 315.08 60.76 309.99 60.61 C 247.33 60.59 184.67 60.61 122.01 60.60 C 100.29 60.11 78.90 72.37 68.42 91.41 C 63.33 100.38 60.63 110.66 60.62 120.97 C 60.62 262.63 60.61 404.29 60.63 545.96 C 60.63 561.76 67.24 577.39 78.51 588.47 C 89.63 599.64 105.28 606.08 121.05 606.06 C 151.40 606.09 181.76 606.05 212.11 606.07 C 212.11 626.27 212.14 646.46 212.10 666.66 C 181.72 666.67 151.34 666.67 120.97 666.66 C 102.82 666.64 84.70 662.43 68.39 654.48 C 39.32 640.43 16.33 614.34 6.23 583.65 C 2.54 572.94 0.68 561.68 0.00 550.39 L 0.00 116.67 C 1.21 86.46 14.05 56.87 35.60 35.62 C 56.83 14.09 86.37 1.24 116.56 0.00 Z" />
<path fill="#000000" opacity="1.00" d=" M 349.50 91.74 C 356.30 90.89 363.15 90.91 369.99 90.89 C 427.98 90.91 485.98 90.88 543.97 90.91 C 552.28 90.75 560.55 92.56 568.17 95.86 C 580.20 101.02 590.81 108.88 600.85 117.18 C 623.61 136.31 643.82 158.17 664.94 179.04 C 679.82 192.81 693.94 207.36 708.33 221.64 C 721.88 234.76 735.24 248.09 748.09 261.90 C 759.14 273.98 770.01 286.44 778.18 300.70 C 783.97 310.82 788.02 322.24 787.88 334.02 C 787.89 437.99 787.88 541.96 787.89 645.93 C 787.77 661.29 788.72 676.85 785.19 691.95 C 778.72 722.63 759.71 750.37 733.55 767.63 C 713.98 780.68 690.56 787.85 667.04 787.87 C 565.35 787.86 463.66 787.89 361.97 787.86 C 327.61 787.58 293.90 771.61 271.69 745.45 C 252.63 723.38 241.86 694.22 242.50 665.03 C 242.50 514.66 242.50 364.30 242.50 213.93 C 242.03 192.73 247.50 171.47 257.91 153.01 C 276.41 119.58 311.49 95.96 349.50 91.74 M 352.41 152.55 C 338.26 155.15 325.21 163.03 316.26 174.29 C 307.71 184.89 303.05 198.44 302.99 212.03 C 303.01 363.71 302.99 515.39 303.00 667.06 C 303.07 684.17 310.75 701.08 323.71 712.28 C 334.69 721.98 349.31 727.41 363.96 727.26 C 463.32 727.26 562.67 727.25 662.03 727.26 C 669.54 727.44 677.15 726.94 684.36 724.64 C 704.09 718.80 720.15 702.16 725.25 682.22 C 727.89 673.05 727.16 663.44 727.26 654.02 C 727.25 547.03 727.27 440.04 727.25 333.05 C 727.26 326.33 725.48 319.26 720.72 314.30 C 715.19 308.51 707.17 306.02 699.48 304.73 C 686.42 302.67 673.15 303.06 659.97 303.00 C 641.64 302.98 623.31 303.03 604.98 302.98 C 589.67 302.80 576.06 289.27 575.81 273.95 C 575.66 248.96 575.87 223.97 575.69 198.99 C 575.43 187.95 575.11 176.53 570.82 166.19 C 567.79 158.80 561.09 152.48 552.97 151.52 C 489.96 151.47 426.95 151.52 363.94 151.49 C 360.07 151.49 356.21 151.86 352.41 152.55 Z" />
<path fill="#000000" opacity="1.00" d=" M 542.03 387.94 C 562.86 367.60 596.04 360.30 622.97 372.12 C 641.25 380.00 655.61 396.23 661.71 415.13 C 668.52 436.02 663.35 459.42 651.17 477.30 C 645.75 485.64 638.26 492.27 631.34 499.31 C 610.99 519.65 590.67 540.00 570.31 560.32 C 558.19 572.27 542.07 580.18 525.10 581.93 C 506.45 584.04 486.87 578.71 472.39 566.64 C 468.29 563.30 464.19 559.38 462.94 554.04 C 460.57 545.74 464.86 536.27 472.61 532.52 C 479.77 528.69 489.12 530.47 494.67 536.31 C 503.55 545.07 517.64 546.47 528.97 542.13 C 536.62 539.52 542.89 534.20 548.38 528.42 C 570.64 506.33 593.08 484.41 615.32 462.29 C 622.51 454.76 627.07 444.45 626.86 433.96 C 626.45 418.24 612.66 404.21 596.98 403.43 C 585.50 402.87 574.31 408.32 566.49 416.51 C 561.39 421.88 556.30 427.25 551.24 432.66 C 544.45 427.41 535.81 425.49 527.50 424.21 C 519.59 423.33 511.00 422.90 503.82 426.93 C 516.68 414.06 529.21 400.86 542.03 387.94 Z" />
<path fill="#000000" opacity="1.00" d=" M 465.26 467.20 C 479.21 457.02 496.70 451.45 514.00 452.87 C 530.44 454.05 546.57 461.07 558.10 472.94 C 562.16 477.10 564.00 483.27 562.97 488.99 C 561.97 495.14 557.60 500.60 551.84 502.96 C 545.11 505.85 536.68 504.75 531.21 499.80 C 528.55 497.35 525.74 495.00 522.42 493.50 C 511.88 488.43 499.08 490.34 489.34 496.34 C 483.15 499.95 478.58 505.57 473.36 510.35 C 454.14 529.47 434.73 548.40 415.48 567.49 C 408.06 574.98 403.36 585.37 403.42 595.97 C 403.62 611.70 417.28 625.87 432.94 626.83 C 443.56 627.51 454.04 622.91 461.76 615.80 C 466.15 611.53 470.11 606.83 474.33 602.40 C 481.98 608.15 491.72 610.10 501.03 611.14 C 507.99 611.65 515.51 611.74 521.70 608.04 C 513.75 616.32 505.66 624.47 497.71 632.75 C 492.74 637.73 488.07 643.07 482.47 647.37 C 466.96 659.62 446.58 665.64 426.90 663.44 C 395.94 660.42 369.39 633.80 365.97 602.97 C 363.44 580.40 372.84 557.53 388.50 541.45 C 408.14 522.08 427.76 502.70 447.43 483.37 C 453.16 477.75 458.66 471.82 465.26 467.20 Z" />
</g>
</svg>
