<?xml version="1.0" encoding="UTF-8" ?>
<!DOCTYPE svg PUBLIC "-//W3C//DTD SVG 1.1//EN" "http://www.w3.org/Graphics/SVG/1.1/DTD/svg11.dtd">
<svg width="634pt" height="534pt" viewBox="0 0 634 534" version="1.1" xmlns="http://www.w3.org/2000/svg">
<g id="#ffffffff">
</g>
<g id="#000000ff">
<path fill="#000000" opacity="1.00" d=" M 314.15 0.00 L 320.84 0.00 C 340.48 0.07 360.05 2.41 379.29 6.28 C 379.26 39.31 379.15 72.35 379.34 105.38 C 394.58 109.40 409.00 115.85 423.00 122.99 C 446.43 99.84 469.66 76.48 492.97 53.22 C 517.66 69.91 540.00 90.06 559.34 112.72 C 567.05 121.49 573.58 131.18 580.46 140.58 C 556.87 163.68 533.78 187.31 510.50 210.73 C 518.17 224.51 524.03 239.21 528.48 254.33 C 561.51 254.13 594.54 254.34 627.56 254.22 C 629.29 264.98 631.02 275.75 632.15 286.59 C 634.90 317.03 633.60 348.13 627.22 377.96 C 589.57 378.05 551.92 377.98 514.27 377.99 C 515.44 373.40 516.86 368.88 517.92 364.26 C 550.63 364.24 583.34 364.26 616.05 364.24 C 620.95 332.43 621.03 299.82 616.05 268.01 C 583.34 267.98 550.64 268.02 517.93 267.99 C 515.38 257.51 511.91 247.30 508.01 237.26 C 503.48 227.43 498.70 217.71 493.24 208.35 C 516.26 185.22 539.57 162.37 562.60 139.25 C 549.18 120.69 533.60 103.73 516.44 88.58 C 509.61 82.21 501.78 77.05 494.58 71.13 C 471.69 94.25 448.34 116.93 425.53 140.13 C 420.81 138.23 416.58 135.32 412.07 132.99 C 397.17 125.56 381.64 119.22 365.36 115.54 C 365.77 82.83 365.24 50.09 365.63 17.38 C 333.71 12.73 301.13 12.59 269.22 17.44 C 269.34 50.11 269.13 82.78 269.33 115.45 C 248.26 120.66 228.20 129.46 209.47 140.35 C 186.46 117.21 163.18 94.35 140.20 71.18 C 132.89 76.83 125.54 82.44 118.55 88.48 C 107.32 98.54 96.82 109.39 86.74 120.59 C 81.76 126.69 77.12 133.07 72.18 139.20 C 95.31 162.21 118.49 185.17 141.53 208.28 C 130.33 226.75 122.04 246.90 116.86 267.86 C 85.57 268.17 54.27 267.93 22.98 267.98 C 21.61 268.16 19.92 267.61 18.72 268.30 C 15.00 290.32 14.50 312.76 15.52 335.03 C 15.78 344.87 17.40 354.60 18.65 364.34 C 51.39 364.12 84.13 364.33 116.87 364.24 C 117.89 368.87 119.29 373.41 120.53 377.98 C 82.77 378.00 45.01 378.03 7.26 377.97 C 3.33 355.86 0.66 333.44 1.33 310.94 C 1.20 291.86 4.09 272.95 7.20 254.17 C 40.22 254.36 73.24 254.19 106.26 254.26 C 110.93 239.16 116.98 224.54 124.13 210.47 C 100.65 187.42 77.90 163.62 54.37 140.62 C 77.64 106.33 107.28 76.25 141.80 53.23 C 165.20 76.42 188.45 99.78 211.80 123.02 C 225.67 115.56 240.28 109.39 255.50 105.28 C 255.46 72.27 255.60 39.26 255.43 6.25 C 274.76 2.39 294.42 0.06 314.15 0.00 Z" />
<path fill="#000000" opacity="1.00" d=" M 289.01 195.56 C 322.33 188.20 359.01 193.94 386.97 214.03 C 412.31 231.25 430.93 258.17 437.95 288.01 C 444.54 318.22 440.58 351.08 424.69 377.84 C 419.21 378.21 413.71 377.89 408.23 378.01 C 427.13 351.07 432.32 315.39 422.62 284.04 C 417.96 269.25 410.27 255.42 400.12 243.69 C 387.24 229.03 370.47 217.78 351.91 211.70 C 322.47 202.18 288.86 205.18 262.15 221.07 C 232.94 237.71 212.54 268.64 208.24 301.93 C 206.70 318.89 207.46 336.45 213.54 352.54 C 216.60 361.62 221.20 370.10 226.58 378.01 C 221.13 377.99 215.67 378.00 210.21 378.00 C 194.15 351.28 190.21 318.31 196.81 288.08 C 207.04 243.26 244.20 205.91 289.01 195.56 Z" />
<path fill="#000000" opacity="1.00" d=" M 288.18 269.21 C 308.10 269.43 328.02 269.28 347.94 269.28 C 347.95 319.60 347.93 369.91 347.95 420.22 C 368.50 420.18 389.05 420.35 409.60 420.14 C 380.58 448.73 352.00 477.78 323.05 506.45 C 381.70 506.36 440.35 506.46 499.00 506.40 C 498.92 515.59 499.46 524.84 498.72 534.00 L 141.40 534.00 C 141.32 524.76 141.57 515.51 141.27 506.28 C 198.59 506.62 255.93 506.28 313.26 506.45 C 284.29 477.76 255.69 448.68 226.66 420.06 C 247.19 420.45 267.73 420.13 288.27 420.22 C 288.22 369.89 288.39 319.55 288.18 269.21 Z" />
</g>
</svg>
