<?xml version="1.0" encoding="UTF-8" ?>
<!DOCTYPE svg PUBLIC "-//W3C//DTD SVG 1.1//EN" "http://www.w3.org/Graphics/SVG/1.1/DTD/svg11.dtd">
<svg width="521pt" height="515pt" viewBox="0 0 521 515" version="1.1" xmlns="http://www.w3.org/2000/svg">
<g id="#fefefeff">
<path d=" M 75.07 0.00 L 96.57 0.00 C 100.08 1.22 103.22 3.83 104.42 7.43 C 105.45 10.76 105.65 14.27 106.18 17.71 C 110.75 19.11 115.10 21.10 119.44 23.09 C 123.72 19.79 128.19 15.19 134.12 16.05 C 139.51 16.46 142.81 21.18 146.40 24.61 C 149.84 28.25 154.64 31.53 155.10 36.97 C 156.04 43.02 151.21 47.44 148.03 51.91 C 150.21 56.10 152.02 60.47 153.45 64.96 C 157.64 65.75 162.25 65.55 166.01 67.83 C 169.40 69.97 171.60 73.87 171.57 77.89 C 171.63 82.94 171.66 88.00 171.56 93.05 C 171.52 98.25 167.62 103.12 162.55 104.27 C 159.56 104.96 156.50 105.24 153.46 105.67 C 152.01 110.17 150.22 114.55 148.03 118.74 C 151.09 123.08 155.73 127.25 155.15 133.07 C 155.01 138.64 150.22 142.14 146.69 145.77 C 142.94 149.30 139.57 154.27 133.95 154.62 C 128.00 155.41 123.67 150.69 119.27 147.54 C 115.05 149.69 110.67 151.52 106.16 152.97 C 105.30 158.18 105.57 164.40 101.11 168.09 C 97.02 171.98 91.07 171.01 85.95 171.10 C 80.86 170.96 74.94 172.04 70.80 168.30 C 66.08 164.66 66.37 158.21 65.43 152.91 C 60.91 151.53 56.57 149.65 52.35 147.53 C 48.06 150.67 43.83 155.24 38.01 154.64 C 32.30 154.46 28.85 149.46 25.10 145.90 C 21.52 142.19 16.61 138.68 16.49 133.01 C 15.96 127.22 20.57 123.07 23.62 118.75 C 21.44 114.55 19.64 110.17 18.19 105.67 C 13.28 104.81 7.53 105.14 3.75 101.32 C 1.61 99.48 0.80 96.67 0.01 94.08 L 0.00 96.52 L 0.00 76.91 C 0.56 73.95 1.73 70.99 4.09 69.01 C 7.90 65.49 13.44 65.86 18.20 64.97 C 19.64 60.47 21.45 56.10 23.62 51.90 C 20.44 47.46 15.67 43.06 16.54 37.06 C 16.92 31.73 21.54 28.47 24.93 24.93 C 28.73 21.33 32.20 16.23 37.96 16.01 C 43.80 15.37 48.04 20.01 52.38 23.11 C 56.60 20.96 60.98 19.15 65.49 17.69 C 66.03 14.21 66.19 10.63 67.29 7.26 C 68.53 3.74 71.62 1.22 75.07 0.00 M 80.48 13.94 C 79.70 18.56 80.01 23.90 76.58 27.56 C 73.55 31.18 68.54 31.47 64.49 33.30 C 60.01 34.94 55.99 38.62 50.92 37.89 C 46.14 37.46 42.82 33.63 39.09 31.06 C 36.59 33.57 34.09 36.08 31.56 38.58 C 34.23 42.47 38.29 45.98 38.44 51.04 C 38.84 55.84 35.41 59.62 33.85 63.88 C 31.98 67.95 31.71 72.98 28.10 76.05 C 24.41 79.52 19.07 79.18 14.41 80.00 C 14.41 83.55 14.41 87.10 14.41 90.65 C 19.11 91.51 24.58 91.14 28.24 94.74 C 31.76 97.85 32.01 102.82 33.89 106.86 C 35.48 111.18 38.97 115.04 38.42 119.92 C 38.12 124.85 34.19 128.26 31.56 132.06 C 34.07 134.57 36.59 137.08 39.09 139.60 C 42.84 137.01 46.17 133.17 50.97 132.75 C 56.01 132.05 59.99 135.71 64.44 137.33 C 68.57 139.20 73.71 139.50 76.73 143.27 C 80.03 146.93 79.67 152.19 80.50 156.74 C 84.05 156.75 87.60 156.75 91.15 156.75 C 91.97 152.10 91.63 146.74 95.10 143.07 C 98.17 139.44 103.22 139.16 107.30 137.30 C 111.52 135.75 115.24 132.37 119.98 132.70 C 125.10 132.80 128.66 136.87 132.55 139.60 C 135.06 137.09 137.58 134.58 140.09 132.06 C 137.51 128.30 133.63 124.96 133.25 120.14 C 132.56 115.11 136.23 111.15 137.83 106.70 C 139.68 102.64 139.96 97.63 143.59 94.58 C 147.26 91.13 152.62 91.47 157.24 90.65 C 157.25 87.10 157.25 83.55 157.24 80.00 C 152.68 79.16 147.41 79.53 143.73 76.20 C 139.86 73.04 139.65 67.69 137.62 63.45 C 136.05 59.32 132.73 55.60 133.22 50.91 C 133.43 45.92 137.43 42.44 140.08 38.59 C 137.57 36.07 135.06 33.54 132.52 31.06 C 128.68 33.80 125.13 37.79 120.08 37.95 C 115.15 38.32 111.32 34.73 106.90 33.20 C 103.00 31.47 98.22 31.15 95.25 27.75 C 91.64 24.09 91.97 18.62 91.15 13.91 C 87.59 13.90 84.03 13.90 80.48 13.94 Z" />
<path d=" M 78.47 55.62 C 93.04 51.66 109.46 60.41 114.48 74.59 C 119.91 88.19 113.75 104.95 100.93 111.93 C 88.50 119.32 71.17 116.10 62.21 104.76 C 52.99 94.00 52.95 76.79 62.13 65.99 C 66.27 60.90 72.10 57.20 78.47 55.62 M 80.28 69.27 C 74.01 71.37 69.32 77.41 68.89 84.02 C 67.87 93.59 76.37 102.68 85.98 102.32 C 95.88 102.51 104.35 92.71 102.64 82.93 C 101.52 72.71 89.91 65.57 80.28 69.27 Z" />
<path d=" M 190.84 114.61 C 196.68 112.06 204.10 114.06 207.75 119.30 C 210.33 123.11 212.46 127.21 214.86 131.14 C 222.16 130.33 229.53 130.34 236.83 131.13 C 240.94 125.08 243.30 116.47 251.09 114.17 C 257.67 111.84 263.80 116.13 269.76 118.29 C 275.59 121.11 283.16 122.28 286.43 128.57 C 290.56 135.74 286.09 143.69 284.67 150.96 C 290.38 155.55 295.62 160.73 300.17 166.49 C 305.47 165.37 310.61 163.24 316.05 162.95 C 321.59 163.04 326.87 166.67 328.90 171.84 C 331.47 178.01 334.04 184.19 336.57 190.38 C 339.17 196.32 336.99 203.88 331.58 207.46 C 327.83 209.91 323.89 212.05 320.03 214.33 C 320.89 221.69 320.71 229.11 320.12 236.49 C 324.03 238.62 327.91 240.84 331.65 243.26 C 336.88 246.78 339.09 254.06 336.72 259.90 C 334.17 266.26 331.49 272.58 328.86 278.91 C 326.49 284.97 319.58 288.81 313.19 287.46 C 308.82 286.53 304.54 285.27 300.22 284.17 C 295.63 289.91 290.40 295.12 284.67 299.71 C 285.84 304.81 287.74 309.79 288.22 315.02 C 288.36 320.71 284.72 326.24 279.44 328.36 C 273.06 330.99 266.71 333.69 260.30 336.26 C 254.50 338.55 247.32 336.37 243.81 331.20 C 241.29 327.43 239.15 323.42 236.82 319.54 C 229.52 320.34 222.14 320.33 214.84 319.54 C 212.42 323.52 210.27 327.67 207.65 331.52 C 204.01 336.56 196.80 338.57 191.07 336.15 C 184.91 333.65 178.78 331.07 172.63 328.53 C 167.45 326.60 163.70 321.47 163.46 315.95 C 163.58 310.33 165.91 305.07 166.96 299.60 C 161.18 295.13 156.04 289.87 151.47 284.17 C 146.33 285.32 141.32 287.27 136.05 287.72 C 130.45 287.83 125.02 284.27 122.89 279.09 C 120.21 272.73 117.56 266.35 114.97 259.96 C 113.02 255.13 114.10 249.32 117.55 245.44 C 121.55 241.48 126.95 239.36 131.64 236.33 C 130.84 229.02 130.84 221.64 131.63 214.32 C 127.67 211.98 123.59 209.81 119.77 207.23 C 114.71 203.67 112.63 196.54 114.94 190.81 C 117.52 184.42 120.18 178.06 122.83 171.69 C 125.20 165.79 131.90 161.98 138.18 163.16 C 142.65 164.05 147.02 165.40 151.44 166.51 C 156.05 160.79 161.25 155.55 167.00 150.97 C 165.90 146.61 164.61 142.29 163.70 137.89 C 162.39 131.51 166.26 124.66 172.29 122.30 C 178.46 119.70 184.65 117.16 190.84 114.61 M 178.73 135.97 C 179.74 140.32 181.10 144.57 182.02 148.94 C 183.05 154.06 180.78 159.55 176.61 162.65 C 171.62 166.59 167.10 171.11 163.15 176.10 C 160.15 180.12 154.95 182.39 149.96 181.60 C 145.40 180.74 140.98 179.25 136.45 178.24 C 134.12 183.99 131.72 189.71 129.34 195.44 C 134.77 199.31 142.20 201.22 145.39 207.56 C 148.23 213.03 145.82 219.18 146.14 224.98 C 145.69 231.09 148.38 237.61 145.27 243.34 C 142.01 249.46 134.80 251.45 129.38 255.12 C 131.63 260.94 134.10 266.67 136.49 272.43 C 143.10 271.30 149.78 267.38 156.56 269.72 C 162.41 271.67 165.03 277.76 169.41 281.62 C 173.38 286.19 179.84 288.88 181.62 295.10 C 183.59 301.76 179.84 308.22 178.74 314.70 C 184.48 317.08 190.22 319.45 195.95 321.83 C 198.25 318.11 200.31 314.26 202.64 310.57 C 205.44 306.26 210.76 303.77 215.87 304.44 C 222.25 305.15 228.71 305.24 235.09 304.49 C 239.07 303.91 243.28 304.96 246.37 307.57 C 250.57 311.49 252.51 317.14 255.71 321.82 C 261.46 319.47 267.19 317.07 272.94 314.71 C 271.93 310.42 270.63 306.20 269.69 301.90 C 268.58 296.74 270.84 291.18 275.04 288.03 C 280.06 284.07 284.61 279.52 288.57 274.49 C 291.45 270.71 296.28 268.47 301.04 268.98 C 305.84 269.74 310.45 271.37 315.18 272.44 C 317.59 266.71 319.94 260.96 322.33 255.22 C 317.01 251.44 309.83 249.56 306.51 243.53 C 303.26 237.79 305.97 231.15 305.53 224.99 C 305.85 219.13 303.38 212.86 306.38 207.38 C 309.62 201.17 316.94 199.27 322.32 195.46 C 319.96 189.71 317.57 183.98 315.20 178.24 C 308.79 179.33 302.41 183.02 295.81 181.18 C 289.47 179.46 286.71 172.94 282.10 168.89 C 278.24 164.47 272.05 161.86 270.17 155.93 C 267.91 149.18 271.83 142.55 272.93 135.97 C 267.12 133.67 261.46 131.00 255.56 128.95 C 251.94 134.39 249.90 141.58 243.77 144.81 C 238.23 147.79 231.92 145.29 226.02 145.63 C 219.83 145.23 213.11 147.96 207.39 144.53 C 201.56 141.11 199.67 134.10 195.96 128.84 C 190.22 131.23 184.47 133.59 178.73 135.97 Z" />
<path d=" M 216.50 174.70 C 230.75 171.96 246.03 175.74 257.44 184.67 C 268.43 193.15 275.66 206.27 277.05 220.07 C 278.52 233.48 274.33 247.35 265.84 257.81 C 257.15 268.62 243.90 275.54 230.09 276.68 C 214.93 278.02 199.33 272.13 188.81 261.13 C 179.54 251.57 174.23 238.32 174.34 225.00 C 174.37 212.90 178.90 200.88 186.81 191.73 C 194.39 182.89 205.06 176.81 216.50 174.70 M 218.53 189.70 C 208.70 191.70 199.83 197.94 194.68 206.55 C 186.17 220.11 188.33 239.09 199.55 250.49 C 210.44 262.25 229.37 265.21 243.31 257.25 C 259.00 249.11 266.51 228.64 259.78 212.28 C 253.91 196.04 235.40 185.85 218.53 189.70 Z" />
<path d=" M 435.98 329.20 C 460.63 324.22 485.29 319.32 509.94 314.38 C 514.39 313.08 518.88 315.60 521.00 319.52 L 521.00 472.78 C 519.39 476.26 515.86 478.75 511.94 478.49 C 492.64 478.48 473.33 478.57 454.04 478.44 C 443.48 478.19 434.16 470.80 430.07 461.29 C 397.07 476.85 363.50 491.38 328.93 503.11 C 312.49 508.47 295.76 513.52 278.46 515.00 L 271.23 515.00 C 253.19 513.29 235.89 507.41 219.01 501.11 C 176.40 484.95 135.96 463.79 94.92 444.12 C 91.13 442.10 86.16 441.14 84.08 436.97 C 82.29 433.20 83.22 428.83 84.14 424.95 C 87.03 414.46 95.94 406.78 105.60 402.51 C 121.25 395.61 139.04 395.01 155.67 398.15 C 174.49 401.44 192.97 406.37 211.34 411.57 C 212.03 407.33 213.11 403.07 215.41 399.39 C 219.88 391.91 227.33 386.81 235.00 383.03 C 245.54 377.91 256.91 374.79 268.26 372.08 C 278.13 369.72 288.25 368.25 297.82 364.76 C 313.72 359.45 327.96 350.19 343.92 345.03 C 351.36 342.65 359.16 341.37 366.98 341.47 C 383.28 341.58 399.51 344.20 415.24 348.42 C 418.15 338.94 426.12 331.07 435.98 329.20 M 443.92 346.20 C 440.98 346.84 437.66 347.07 435.40 349.30 C 433.04 351.42 432.07 354.77 432.65 357.85 C 437.14 389.26 441.61 420.68 446.12 452.09 C 446.53 456.49 450.51 460.21 454.95 460.19 C 471.07 460.27 487.19 460.20 503.30 460.21 C 503.31 418.26 503.32 376.30 503.30 334.34 C 483.51 338.30 463.72 342.27 443.92 346.20 M 329.09 371.16 C 316.60 377.30 303.72 382.88 290.11 386.03 C 273.58 389.69 256.61 392.74 241.28 400.25 C 235.60 403.19 228.99 407.86 229.25 415.03 C 229.31 419.18 233.80 420.94 237.14 422.00 C 247.17 424.73 257.74 423.96 267.98 423.01 C 292.23 420.30 315.96 414.21 339.38 407.54 C 343.14 406.61 347.05 404.51 350.96 405.92 C 355.40 407.32 358.16 412.45 356.82 416.93 C 355.97 420.42 352.88 422.93 349.45 423.66 C 323.19 431.26 296.59 438.28 269.34 441.15 C 256.32 442.31 242.82 442.87 230.21 438.88 C 226.11 437.66 222.48 435.40 219.09 432.87 C 200.58 427.38 181.94 422.20 163.05 418.15 C 150.94 415.64 138.44 413.20 126.09 415.50 C 117.42 417.04 107.82 419.78 102.62 427.48 C 139.62 445.38 176.23 464.18 214.33 479.69 C 230.86 486.26 247.61 492.73 265.18 495.86 C 278.44 498.37 291.79 494.86 304.55 491.50 C 327.37 485.06 349.48 476.41 371.39 467.41 C 389.91 459.69 408.27 451.55 426.33 442.82 C 422.73 417.73 419.17 392.64 415.58 367.56 C 399.22 362.66 382.20 359.63 365.09 359.77 C 352.22 359.88 340.43 365.70 329.09 371.16 Z" />
</g>
</svg>
