<?xml version="1.0" encoding="UTF-8" ?>
<!DOCTYPE svg PUBLIC "-//W3C//DTD SVG 1.1//EN" "http://www.w3.org/Graphics/SVG/1.1/DTD/svg11.dtd">
<svg width="525pt" height="521pt" viewBox="0 0 525 521" version="1.1" xmlns="http://www.w3.org/2000/svg">
<g id="#fefefeff">
<path d=" M 37.57 0.00 L 488.22 0.00 C 502.50 1.27 515.70 10.66 521.41 23.84 C 524.15 29.82 525.05 36.45 524.87 42.98 C 524.84 75.99 524.85 108.99 524.86 142.00 C 524.92 147.75 523.91 153.54 521.60 158.82 C 516.60 170.71 505.55 179.61 493.00 182.38 C 503.83 188.04 514.53 195.35 520.73 206.18 C 522.94 210.45 524.88 215.09 524.88 219.97 C 524.80 299.99 524.91 380.01 524.83 460.03 C 523.57 470.45 516.90 479.42 508.93 485.89 C 496.98 495.52 482.62 501.56 468.16 506.33 C 439.81 515.40 410.09 519.23 380.48 521.00 L 337.33 521.00 C 321.57 519.91 305.80 518.58 290.24 515.82 C 287.51 515.33 284.77 514.89 282.00 514.88 C 202.00 514.91 121.99 514.89 41.99 514.89 C 30.74 515.09 19.54 510.32 11.92 502.04 C 4.87 494.56 0.95 484.29 1.13 474.02 C 1.15 439.68 1.10 405.34 1.16 371.00 C 1.26 359.09 7.32 347.70 16.55 340.32 C 7.17 332.80 1.06 321.16 1.15 309.05 C 1.12 274.67 1.13 240.29 1.14 205.91 C 1.02 193.74 7.11 182.00 16.56 174.48 C 7.13 166.92 1.01 155.20 1.14 143.03 C 1.12 108.66 1.12 74.30 1.14 39.94 C 1.12 29.51 5.44 19.20 12.80 11.82 C 19.35 5.13 28.30 1.02 37.57 0.00 M 38.44 17.57 C 27.45 18.76 18.43 28.95 18.60 40.01 C 18.60 74.65 18.53 109.31 18.64 143.96 C 18.83 155.60 29.30 165.79 40.93 165.71 C 117.97 165.76 195.00 165.71 272.04 165.74 C 276.93 165.56 281.63 163.92 286.46 163.25 C 334.55 154.91 384.11 154.92 432.18 163.37 C 437.45 164.10 442.59 166.04 447.97 165.77 C 460.64 165.67 473.31 165.86 485.98 165.68 C 497.63 165.27 507.66 154.64 507.39 142.97 C 507.41 108.66 507.42 74.35 507.38 40.03 C 507.63 28.07 497.02 17.31 485.06 17.39 C 337.69 17.31 190.33 17.39 42.96 17.35 C 41.45 17.37 39.94 17.39 38.44 17.57 M 326.62 175.87 C 301.36 177.75 276.12 181.89 252.06 189.98 C 240.56 193.96 229.11 198.90 219.65 206.71 C 215.13 210.58 210.61 215.67 210.64 221.98 C 211.07 228.17 215.65 233.01 220.21 236.75 C 229.91 244.41 241.51 249.17 253.09 253.18 C 277.34 261.25 302.76 265.24 328.19 267.19 C 363.19 269.62 398.57 268.15 433.06 261.49 C 451.11 257.83 469.14 252.98 485.61 244.56 C 492.90 240.63 500.34 236.07 504.99 229.02 C 507.71 224.99 508.22 219.55 505.81 215.25 C 502.00 208.23 495.07 203.65 488.33 199.75 C 472.95 191.30 455.93 186.40 438.89 182.58 C 402.09 174.70 364.10 173.26 326.62 175.87 M 18.64 204.99 C 18.53 239.66 18.59 274.33 18.61 309.00 C 18.40 320.94 28.99 331.64 40.93 331.56 C 91.68 331.60 142.43 331.63 193.19 331.55 C 193.12 294.36 193.20 257.17 193.14 219.99 C 192.96 215.88 194.66 212.01 196.19 208.30 C 201.70 196.92 212.43 189.26 223.21 183.30 C 162.47 183.09 101.72 183.23 40.97 183.23 C 29.32 183.15 18.84 193.33 18.64 204.99 M 210.62 251.41 C 210.69 267.92 210.50 284.44 210.77 300.94 C 211.45 306.54 215.31 311.08 219.44 314.63 C 226.18 320.25 234.11 324.22 242.15 327.61 C 260.05 334.99 279.04 339.33 298.11 342.35 C 328.82 347.03 360.07 347.93 391.04 345.65 C 414.95 343.77 438.84 340.01 461.75 332.77 C 473.71 328.87 485.64 324.18 495.90 316.77 C 501.11 312.85 506.39 307.76 507.25 300.97 C 507.47 284.46 507.33 267.94 507.38 251.42 C 491.89 262.98 473.34 269.46 454.85 274.44 C 424.89 282.12 393.91 285.37 363.03 285.75 C 327.43 285.91 291.57 282.46 257.22 272.80 C 240.79 268.01 224.41 261.78 210.62 251.41 M 210.63 329.98 C 210.67 346.31 210.57 362.63 210.76 378.96 C 211.64 387.94 219.61 393.86 226.64 398.37 C 245.93 409.84 268.06 415.39 289.92 419.53 C 335.18 427.38 381.83 427.42 427.11 419.70 C 447.71 415.94 468.36 410.73 486.99 400.92 C 494.17 396.89 501.64 392.18 505.65 384.71 C 508.05 380.53 507.06 375.61 507.39 371.03 C 507.43 357.35 507.40 343.67 507.40 329.99 C 497.96 337.00 487.31 342.23 476.31 346.31 C 459.70 352.49 442.34 356.43 424.86 359.24 C 397.14 363.56 368.98 365.12 340.95 363.91 C 314.44 362.75 287.92 359.50 262.22 352.78 C 244.03 347.88 225.87 341.33 210.63 329.98 M 18.63 371.02 C 18.53 405.35 18.62 439.68 18.59 474.01 C 18.53 478.29 19.57 482.59 21.78 486.27 C 25.85 493.28 33.85 497.64 41.94 497.45 C 103.85 497.46 165.75 497.44 227.66 497.46 C 214.88 491.03 202.04 482.44 195.75 469.10 C 195.10 469.08 193.81 469.05 193.17 469.04 C 193.16 429.04 193.17 389.05 193.16 349.05 C 142.45 349.06 91.73 349.01 41.01 349.08 C 29.28 348.97 18.73 359.27 18.63 371.02 M 210.73 408.63 C 210.74 424.75 210.79 440.87 210.78 456.99 C 210.66 462.29 214.22 466.72 217.85 470.19 C 226.01 477.66 236.17 482.48 246.36 486.49 C 265.50 493.77 285.68 497.97 305.92 500.67 C 331.21 503.90 356.79 504.66 382.23 503.37 C 407.42 501.99 432.61 498.62 456.88 491.62 C 469.24 487.92 481.54 483.44 492.45 476.44 C 497.77 472.92 503.04 468.73 505.94 462.91 C 507.54 459.85 507.48 456.34 507.42 452.99 C 507.38 438.18 507.42 423.36 507.40 408.55 C 494.20 418.37 478.73 424.58 463.08 429.30 C 441.93 435.57 420.04 439.10 398.10 441.11 C 372.10 443.48 345.89 443.44 319.89 441.10 C 298.42 439.12 277.01 435.68 256.26 429.69 C 240.18 424.96 224.26 418.71 210.73 408.63 Z" />
<path d=" M 86.57 52.76 C 95.88 51.26 105.69 53.24 113.65 58.29 C 122.44 63.79 128.92 72.88 131.12 83.03 C 133.08 91.70 131.95 101.03 127.97 108.98 C 123.37 118.31 114.91 125.67 105.00 128.87 C 94.86 132.25 83.36 131.20 74.00 126.03 C 63.58 120.40 55.96 109.83 54.06 98.11 C 52.30 87.97 54.77 77.18 60.78 68.82 C 66.78 60.31 76.28 54.38 86.57 52.76 M 88.21 70.22 C 78.61 72.14 71.07 81.18 70.98 90.99 C 70.50 101.43 78.61 111.37 88.93 113.01 C 98.94 115.04 109.70 108.87 113.18 99.30 C 116.18 91.62 114.29 82.35 108.51 76.46 C 103.43 71.05 95.46 68.62 88.21 70.22 Z" />
<path d=" M 294.33 70.49 C 298.62 68.43 304.24 70.66 305.96 75.08 C 307.97 79.51 305.43 85.20 300.82 86.69 C 296.29 88.46 290.77 85.58 289.53 80.91 C 288.25 76.86 290.44 72.15 294.33 70.49 Z" />
<path d=" M 329.38 70.43 C 335.37 67.53 342.85 73.41 341.44 79.91 C 340.65 86.19 332.35 89.47 327.51 85.38 C 322.26 81.71 323.38 72.69 329.38 70.43 Z" />
<path d=" M 364.34 70.41 C 370.36 67.53 377.84 73.50 376.33 80.00 C 375.50 86.20 367.30 89.43 362.48 85.42 C 357.14 81.78 358.28 72.64 364.34 70.41 Z" />
<path d=" M 399.31 70.40 C 405.31 67.56 412.70 73.49 411.26 79.95 C 410.46 86.11 402.37 89.42 397.51 85.51 C 392.05 81.90 393.15 72.61 399.31 70.40 Z" />
<path d=" M 435.18 70.06 C 441.53 67.91 448.23 74.82 445.89 81.11 C 444.23 87.21 435.55 89.28 431.33 84.56 C 426.68 80.23 428.98 71.53 435.18 70.06 Z" />
<path d=" M 312.37 96.45 C 316.85 94.66 322.40 97.42 323.71 102.06 C 325.21 106.48 322.45 111.69 317.98 112.98 C 313.44 114.55 308.07 111.58 306.94 106.94 C 305.68 102.72 308.21 97.87 312.37 96.45 Z" />
<path d=" M 347.35 96.42 C 353.65 93.82 360.85 100.53 358.69 107.00 C 357.24 113.22 348.51 115.55 344.16 110.87 C 339.55 106.72 341.43 98.24 347.35 96.42 Z" />
<path d=" M 383.13 96.16 C 389.54 94.28 395.97 101.37 393.43 107.57 C 391.54 113.70 382.61 115.41 378.62 110.38 C 374.26 105.82 376.97 97.38 383.13 96.16 Z" />
<path d=" M 418.14 96.14 C 424.52 94.34 430.85 101.40 428.35 107.54 C 426.49 113.67 417.61 115.41 413.58 110.44 C 409.14 105.87 411.89 97.30 418.14 96.14 Z" />
<path d=" M 451.45 96.68 C 457.47 93.62 465.08 99.57 463.63 106.12 C 462.83 112.47 454.34 115.71 449.54 111.43 C 444.49 107.73 445.63 98.98 451.45 96.68 Z" />
<path d=" M 86.48 218.63 C 96.34 217.01 106.80 219.30 115.00 225.03 C 124.25 231.32 130.58 241.74 131.80 252.87 C 132.93 262.33 130.45 272.16 124.93 279.93 C 118.91 288.55 109.32 294.60 98.92 296.19 C 88.53 297.88 77.53 295.13 69.17 288.75 C 61.26 282.82 55.70 273.82 54.08 264.05 C 52.34 254.17 54.60 243.65 60.28 235.38 C 66.24 226.53 75.93 220.29 86.48 218.63 M 86.37 236.55 C 76.52 239.41 69.66 249.87 71.14 260.06 C 72.19 270.03 80.94 278.46 90.95 279.13 C 100.83 280.15 110.74 273.46 113.58 263.97 C 116.17 256.09 113.71 246.88 107.53 241.35 C 101.98 236.16 93.63 234.25 86.37 236.55 Z" />
<path d=" M 85.51 384.64 C 95.92 382.65 107.09 385.10 115.66 391.35 C 124.32 397.51 130.30 407.33 131.69 417.88 C 133.04 427.38 130.72 437.33 125.30 445.25 C 119.52 453.82 110.25 459.98 100.06 461.83 C 90.35 463.69 79.94 461.72 71.64 456.32 C 62.50 450.52 55.96 440.79 54.12 430.12 C 52.22 419.71 54.78 408.59 61.08 400.09 C 66.89 392.11 75.79 386.45 85.51 384.64 M 87.22 402.15 C 76.53 404.76 69.11 416.27 71.32 427.09 C 73.07 438.39 84.81 446.84 96.09 444.79 C 107.95 443.28 116.84 430.77 114.19 419.06 C 112.17 407.07 98.92 398.70 87.22 402.15 Z" />
</g>
</svg>
