<?xml version="1.0" encoding="UTF-8" ?>
<!DOCTYPE svg PUBLIC "-//W3C//DTD SVG 1.1//EN" "http://www.w3.org/Graphics/SVG/1.1/DTD/svg11.dtd">
<svg width="557pt" height="626pt" viewBox="0 0 557 626" version="1.1" xmlns="http://www.w3.org/2000/svg">
<g id="#ffffffff">
</g>
<g id="#000000ff">
<path fill="#000000" opacity="1.00" d=" M 72.69 0.00 L 379.08 0.00 L 376.41 0.35 C 379.56 1.18 382.33 3.00 384.42 5.47 C 422.53 48.98 460.61 92.52 498.72 136.03 C 502.27 140.04 506.90 144.12 506.68 149.99 C 506.91 174.57 506.73 199.16 506.77 223.75 C 514.75 224.65 522.90 223.37 530.80 225.10 C 539.53 227.42 547.41 233.10 551.99 240.94 C 555.69 246.39 556.68 253.06 557.00 259.49 L 557.00 442.74 C 556.59 452.10 552.53 461.29 545.44 467.49 C 540.52 472.09 534.06 474.69 527.56 476.09 C 520.89 476.98 514.14 476.27 507.44 476.61 C 506.49 477.87 506.86 479.52 506.75 480.98 C 506.83 520.01 506.75 559.03 506.79 598.05 C 506.77 602.69 506.78 607.53 504.70 611.80 C 500.86 619.85 492.46 625.64 483.50 626.00 L 75.76 626.00 C 67.10 625.28 59.10 619.67 55.33 611.87 C 53.59 608.19 53.20 604.07 53.21 600.05 C 53.24 560.02 53.19 519.98 53.24 479.95 C 53.19 478.65 53.48 475.87 51.24 476.54 C 45.45 476.38 39.64 476.84 33.87 476.26 C 23.67 474.77 13.76 469.23 8.41 460.20 C 3.07 452.58 2.94 442.93 2.78 433.99 C 2.79 430.33 2.78 426.66 2.80 423.00 C 2.80 420.00 2.79 417.00 2.80 414.00 C 2.79 405.67 2.76 397.33 2.81 389.00 C 2.77 357.00 2.78 325.00 2.81 293.00 C 2.77 283.02 2.78 273.04 2.79 263.05 C 3.18 255.97 3.47 248.49 7.22 242.23 C 11.83 233.85 19.93 227.38 29.25 225.09 C 37.14 223.43 45.25 224.57 53.22 223.79 C 53.22 157.85 53.22 91.90 53.22 25.96 C 53.20 22.92 53.60 19.90 54.06 16.91 C 53.52 15.87 53.43 14.79 54.88 14.38 C 56.67 11.75 58.44 9.06 60.68 6.78 C 64.08 3.59 68.46 1.79 72.69 0.00 M 77.40 24.50 C 77.35 90.95 77.41 157.40 77.37 223.84 C 92.91 224.53 108.49 223.96 124.04 224.15 C 228.35 224.15 332.66 224.15 436.97 224.15 C 452.18 223.95 467.42 224.53 482.62 223.84 C 482.59 203.37 482.68 182.89 482.58 162.42 C 446.05 162.15 409.52 162.48 373.00 162.26 C 370.29 161.47 367.43 160.70 365.44 158.56 C 362.49 155.91 361.82 151.75 361.82 147.99 C 361.78 106.82 361.89 65.65 361.77 24.49 C 266.98 24.53 172.19 24.50 77.40 24.50 M 203.32 256.39 C 201.56 256.55 199.81 256.73 198.06 256.93 C 197.28 257.21 196.50 257.48 195.72 257.74 C 195.76 317.92 195.71 378.09 195.75 438.26 C 209.38 438.40 223.02 438.22 236.66 438.36 C 237.05 416.52 236.60 394.67 236.89 372.83 C 242.25 372.58 247.58 373.60 252.94 373.31 C 261.38 372.65 269.96 372.86 278.18 370.55 C 284.27 368.79 290.52 367.27 296.08 364.11 C 306.47 359.14 315.44 351.00 320.74 340.71 C 323.59 336.19 324.11 330.80 325.84 325.85 C 326.96 322.45 326.68 318.81 327.38 315.34 C 327.76 309.47 327.70 303.53 326.26 297.80 C 324.86 293.58 323.77 289.22 321.76 285.23 C 319.20 280.33 316.07 275.79 312.13 271.90 C 309.88 269.77 307.46 267.81 305.08 265.84 C 297.28 261.03 288.70 257.32 279.55 256.26 L 279.43 255.79 C 268.41 253.79 257.19 253.27 246.00 253.46 C 231.73 253.51 217.43 254.19 203.32 256.39 M 421.49 255.71 L 421.39 256.13 C 415.74 257.10 410.12 258.55 404.79 260.67 C 403.82 261.10 402.85 261.52 401.88 261.93 C 381.47 269.94 363.73 285.60 354.74 305.75 C 354.15 306.83 353.56 307.90 352.98 308.99 C 351.65 312.98 350.32 316.97 348.93 320.94 C 345.78 333.03 345.23 345.62 345.91 358.04 C 346.40 369.44 349.41 380.69 354.17 391.02 C 356.89 397.22 360.56 402.93 364.74 408.24 C 364.96 408.51 365.41 409.04 365.63 409.31 C 368.85 412.80 372.17 416.19 375.85 419.20 C 377.98 421.12 380.37 422.71 382.75 424.30 C 385.73 426.43 389.05 427.99 392.30 429.68 C 393.46 430.25 394.64 430.81 395.83 431.37 C 399.43 432.85 403.15 434.01 406.90 435.03 C 409.21 435.84 411.55 436.53 413.92 437.17 C 435.35 441.04 457.44 440.49 478.87 436.94 C 479.96 436.71 481.05 436.49 482.14 436.28 C 489.09 434.34 496.24 433.26 503.15 431.15 C 504.54 430.56 505.93 429.95 507.31 429.32 C 507.29 397.40 507.25 365.48 507.33 333.57 L 506.29 333.76 L 506.38 332.75 C 484.13 332.79 461.88 332.84 439.64 332.72 C 439.42 333.20 438.98 334.15 438.77 334.62 C 438.85 344.93 438.71 355.23 438.84 365.53 C 448.22 365.50 457.61 365.59 466.99 365.48 C 467.02 378.38 467.53 391.34 466.71 404.21 C 465.42 404.42 464.15 404.65 462.88 404.91 C 452.84 407.25 442.24 406.68 432.13 405.02 C 429.81 404.25 427.48 403.53 425.17 402.76 C 424.62 402.64 423.51 402.41 422.95 402.29 C 420.62 401.13 418.16 400.18 416.04 398.63 C 415.79 398.61 415.28 398.59 415.02 398.57 C 410.56 395.20 406.00 391.84 402.50 387.43 C 395.87 379.72 392.37 369.91 390.20 360.13 C 389.10 349.77 388.55 339.14 390.98 328.93 C 392.96 322.70 394.91 316.27 398.85 310.96 C 408.12 296.97 424.92 288.84 441.46 288.25 L 441.47 287.67 C 447.02 287.39 452.56 287.29 458.11 287.64 C 467.69 288.47 477.27 289.75 486.49 292.62 L 486.55 293.11 C 487.70 293.41 488.83 293.80 489.93 294.29 C 490.58 294.42 491.89 294.69 492.54 294.82 C 493.68 290.84 494.37 286.75 495.62 282.81 C 497.62 275.87 499.47 268.88 500.82 261.78 C 499.49 261.25 498.19 260.73 496.86 260.23 C 491.94 257.85 486.37 257.64 481.30 255.68 C 478.95 255.42 476.62 255.05 474.31 254.65 C 456.81 252.30 438.84 252.18 421.49 255.71 M 120.15 255.22 C 120.19 287.15 120.12 319.08 120.17 351.01 C 119.74 361.94 120.75 372.99 118.85 383.81 C 117.69 389.08 116.09 394.41 112.69 398.71 C 108.14 403.60 101.57 406.28 94.93 406.43 C 87.75 406.62 80.51 405.98 73.55 404.18 L 73.52 403.58 C 72.81 403.56 71.40 403.52 70.69 403.50 C 69.93 407.26 69.53 411.08 68.77 414.84 C 68.04 422.29 66.20 429.67 66.29 437.17 C 80.54 440.88 95.43 441.39 110.06 440.20 C 116.72 438.80 123.70 438.18 129.79 434.90 C 139.22 431.04 146.63 423.53 151.98 415.03 C 153.77 411.39 155.35 407.65 156.84 403.88 C 159.67 395.60 160.24 386.83 161.32 378.23 C 161.47 337.23 161.33 296.22 161.39 255.21 C 147.64 255.09 133.89 255.05 120.15 255.22 M 77.38 594.64 C 212.46 594.71 347.54 594.71 482.61 594.63 C 482.60 555.28 482.66 515.93 482.58 476.58 C 347.52 476.52 212.46 476.51 77.40 476.58 C 77.35 515.93 77.39 555.28 77.38 594.64 Z" />
<path fill="#000000" opacity="1.00" d=" M 237.16 286.37 C 248.55 284.51 260.99 283.43 271.82 288.22 C 277.04 290.35 281.05 294.39 283.84 299.21 C 287.61 308.09 287.28 318.86 282.36 327.24 C 281.27 328.81 280.10 330.33 278.87 331.80 C 278.63 332.08 278.13 332.65 277.89 332.93 C 266.61 342.23 251.09 342.38 237.30 340.62 C 236.91 338.43 236.74 336.20 236.85 333.98 C 236.79 330.65 236.74 327.33 236.94 324.01 C 236.86 311.47 236.45 298.89 237.16 286.37 Z" />
</g>
</svg>
