<?xml version="1.0" encoding="UTF-8" ?>
<!DOCTYPE svg PUBLIC "-//W3C//DTD SVG 1.1//EN" "http://www.w3.org/Graphics/SVG/1.1/DTD/svg11.dtd">
<svg width="557pt" height="626pt" viewBox="0 0 557 626" version="1.1" xmlns="http://www.w3.org/2000/svg">
<g id="#ffffffff">
</g>
<g id="#000000ff">
<path fill="#000000" opacity="1.00" d=" M 70.31 0.00 L 373.24 0.00 C 379.07 0.57 382.49 5.77 386.11 9.72 C 424.73 53.82 463.34 97.94 501.98 142.03 C 504.54 145.07 504.78 149.21 504.79 153.00 C 504.77 176.59 504.79 200.18 504.78 223.76 C 512.76 224.68 520.92 223.33 528.83 225.12 C 537.82 227.39 545.77 233.46 550.36 241.53 C 554.51 247.87 554.79 255.69 555.22 263.02 C 555.21 290.70 555.22 318.37 555.22 346.05 C 555.10 351.03 555.50 356.03 554.95 361.00 C 555.41 365.98 555.34 371.01 554.99 376.00 C 555.46 396.64 555.08 417.32 555.22 437.98 C 554.78 443.25 554.76 448.69 552.85 453.71 C 549.06 464.27 539.83 472.30 529.10 475.32 C 521.14 477.37 512.87 476.18 504.77 476.64 C 504.77 518.39 504.83 560.15 504.74 601.91 C 505.20 614.58 493.80 625.66 481.36 626.00 L 73.80 626.00 C 61.76 625.12 50.89 614.40 51.26 602.06 C 51.17 560.25 51.21 518.45 51.24 476.64 C 44.06 476.22 36.80 477.14 29.68 475.88 C 23.97 474.44 18.11 472.46 13.66 468.44 C 9.66 465.36 6.83 461.07 4.40 456.71 C 1.24 450.63 1.17 443.66 0.77 436.99 C 0.88 398.99 0.63 360.98 0.90 322.99 C 0.76 315.33 0.64 307.65 0.96 300.00 C 0.56 286.65 0.89 273.29 0.87 259.94 C 1.36 257.09 1.34 254.18 1.86 251.34 C 4.22 239.61 13.37 229.73 24.59 225.83 C 33.21 223.04 42.38 224.77 51.22 223.76 C 51.20 159.51 51.23 95.27 51.21 31.02 C 51.25 25.83 50.88 20.45 52.76 15.50 C 53.81 12.29 56.08 9.72 58.25 7.22 C 61.52 3.71 66.17 2.15 70.31 0.00 M 75.39 24.49 C 75.35 90.94 75.42 157.39 75.36 223.84 C 76.55 223.99 77.74 224.10 78.94 224.15 C 212.80 224.13 346.66 224.16 480.52 224.14 C 480.73 203.56 480.62 182.98 480.57 162.41 C 444.03 162.13 407.48 162.54 370.95 162.21 C 369.10 161.32 366.87 161.47 365.27 160.04 C 361.52 157.74 359.82 153.32 359.90 149.06 C 359.75 107.53 359.99 65.99 359.77 24.46 C 264.98 24.56 170.19 24.51 75.39 24.49 M 135.91 259.67 C 134.85 261.94 133.40 263.99 131.67 265.80 C 130.79 268.02 129.17 269.87 127.80 271.80 C 125.21 274.99 123.60 278.88 120.71 281.83 C 119.87 283.81 118.46 285.47 117.31 287.28 C 112.91 293.56 108.64 299.91 104.28 306.22 C 101.03 311.03 97.75 315.80 94.73 320.75 C 92.61 324.36 90.32 327.88 88.19 331.49 C 87.79 331.53 86.98 331.61 86.58 331.65 C 86.68 307.64 86.74 283.62 86.55 259.61 C 74.51 259.60 62.47 259.69 50.43 259.57 L 50.63 260.66 L 49.61 260.36 C 49.75 314.71 49.76 369.07 49.61 423.42 C 50.14 423.63 51.19 424.04 51.72 424.24 C 63.35 424.22 74.98 424.25 86.60 424.23 C 86.70 407.48 86.65 390.73 86.63 373.98 C 86.70 372.68 86.45 371.32 87.00 370.10 C 91.47 365.16 95.39 359.76 99.82 354.78 C 100.42 354.28 100.85 353.66 101.14 352.93 C 101.93 355.06 102.83 357.18 104.35 358.91 C 108.20 366.43 112.63 373.75 116.76 381.17 C 120.05 387.16 123.67 392.98 126.77 399.09 C 128.96 402.07 130.33 405.55 132.32 408.66 C 135.44 413.79 137.96 419.27 141.35 424.25 C 155.59 424.19 169.83 424.30 184.08 424.19 C 183.61 422.70 182.95 421.29 182.23 419.92 C 176.32 410.73 170.63 401.36 165.16 391.93 C 159.46 383.13 154.32 373.97 148.66 365.16 C 143.12 355.73 137.47 346.36 131.64 337.11 C 130.06 334.79 129.13 332.03 127.19 329.99 C 131.22 324.72 135.32 319.56 139.34 314.28 C 140.65 312.60 142.00 310.95 143.25 309.23 C 146.85 304.51 150.53 299.88 154.26 295.27 C 157.34 290.72 161.16 286.74 164.17 282.14 C 169.83 275.49 174.76 268.30 180.43 261.63 C 180.48 261.10 180.59 260.03 180.64 259.50 C 165.73 259.83 150.82 259.48 135.91 259.67 M 319.69 259.65 C 317.58 265.67 316.38 272.01 313.77 277.85 C 311.91 284.20 310.13 290.60 307.75 296.79 C 306.35 300.78 305.62 305.02 303.90 308.87 C 301.61 315.63 299.85 322.56 298.30 329.52 L 297.64 329.56 C 297.63 331.01 297.32 332.38 296.72 333.68 C 295.26 339.51 293.79 345.34 292.23 351.15 C 290.18 358.14 288.68 365.29 287.18 372.41 C 286.78 372.46 285.96 372.56 285.55 372.61 C 285.46 371.92 285.27 370.53 285.18 369.83 C 281.69 353.86 278.47 337.74 273.79 322.06 C 272.84 317.29 271.48 312.63 270.26 307.93 C 267.24 299.86 265.71 291.32 262.72 283.24 C 261.58 279.05 260.38 274.88 259.34 270.67 C 258.80 269.45 258.39 268.18 258.11 266.88 C 257.07 264.57 256.52 262.08 255.92 259.64 C 239.47 259.59 223.03 259.65 206.59 259.61 C 205.57 267.64 205.95 275.85 204.75 283.80 C 204.58 287.59 204.33 291.37 204.21 295.16 C 204.08 295.58 203.83 296.41 203.70 296.83 C 203.83 304.93 202.49 312.95 202.43 321.05 C 201.70 332.04 201.08 343.04 200.53 354.05 C 200.42 360.91 199.00 367.68 199.41 374.56 L 198.64 374.48 C 198.87 379.06 198.41 383.62 198.16 388.18 C 197.34 392.39 197.72 396.72 197.38 400.98 C 196.66 408.71 196.25 416.46 196.12 424.23 C 207.22 424.22 218.32 424.28 229.41 424.21 C 229.66 424.03 230.16 423.67 230.41 423.49 C 231.39 413.62 231.30 403.71 231.88 393.81 C 232.77 385.57 232.24 377.24 233.07 368.98 C 233.74 354.00 234.16 339.00 234.71 324.01 C 235.56 314.91 235.65 305.74 235.72 296.60 C 235.93 296.61 236.37 296.64 236.59 296.65 C 236.69 295.70 236.80 294.76 236.93 293.83 C 237.24 295.91 237.48 298.01 237.83 300.10 C 239.58 306.35 240.52 312.81 241.77 319.19 C 243.87 327.44 245.92 335.74 247.82 344.05 C 250.07 350.25 251.00 356.82 252.81 363.15 C 255.71 371.33 257.19 379.91 259.87 388.16 C 261.24 392.06 261.99 396.15 263.02 400.16 C 265.87 401.42 263.60 404.78 265.14 406.89 C 266.51 411.69 267.76 416.53 268.78 421.42 C 278.62 421.66 288.47 421.61 298.31 421.45 C 299.57 416.98 300.62 412.45 302.30 408.12 C 304.67 401.93 305.76 395.32 308.30 389.19 C 310.22 383.52 311.40 377.62 313.60 372.04 C 315.81 366.19 316.65 359.88 319.29 354.19 C 320.98 348.53 322.25 342.73 324.43 337.24 C 327.89 325.58 331.21 313.89 334.08 302.08 C 334.58 300.36 335.06 298.64 335.56 296.93 C 336.77 296.02 336.62 294.32 337.04 293.01 C 337.51 298.66 337.27 304.33 337.41 309.98 C 337.42 337.00 338.78 363.99 339.55 390.99 C 339.69 401.85 340.86 412.67 340.60 423.54 C 342.02 423.97 343.47 424.33 344.98 424.25 C 355.73 424.21 366.48 424.26 377.24 424.22 C 376.41 404.39 375.18 384.60 374.29 364.79 C 373.07 359.58 374.05 354.05 373.25 348.74 C 372.07 341.70 372.85 334.47 371.94 327.39 C 370.65 304.81 370.04 282.20 368.28 259.66 C 352.08 259.59 335.89 259.62 319.69 259.65 M 402.63 259.63 C 402.36 269.95 402.47 280.29 402.58 290.61 C 425.96 290.66 449.34 290.69 472.72 290.59 C 472.95 290.93 473.40 291.60 473.62 291.94 C 471.20 293.77 470.18 296.88 468.21 299.17 C 460.49 310.13 452.97 321.24 445.22 332.18 C 439.98 340.01 434.38 347.55 429.24 355.44 C 418.41 370.55 407.95 385.98 397.30 401.23 C 395.62 402.67 394.98 404.85 395.13 407.02 C 395.25 412.76 394.82 418.53 395.44 424.25 C 436.99 424.21 478.54 424.25 520.08 424.24 C 521.26 424.23 522.38 423.96 523.44 423.42 C 523.11 413.46 523.36 403.49 523.31 393.53 C 497.41 393.21 471.50 393.47 445.60 393.40 C 445.57 392.99 445.52 392.16 445.49 391.75 C 447.59 389.98 448.52 387.31 450.20 385.20 C 454.06 379.99 457.59 374.54 461.26 369.20 C 463.80 366.01 465.72 362.39 468.29 359.22 C 469.56 357.19 470.93 355.22 472.22 353.20 C 474.84 350.06 476.60 346.33 479.31 343.25 C 480.59 341.21 481.89 339.18 483.24 337.18 C 493.34 322.94 503.05 308.41 513.07 294.10 C 516.04 289.41 519.68 285.14 522.22 280.16 C 522.23 273.64 522.13 267.12 522.28 260.60 L 521.30 260.65 C 521.33 260.38 521.39 259.84 521.41 259.57 C 481.82 259.70 442.22 259.58 402.63 259.63 M 75.38 594.62 C 210.46 594.71 345.54 594.72 480.62 594.62 C 480.60 555.27 480.68 515.92 480.58 476.57 C 345.52 476.55 210.46 476.48 75.40 476.60 C 75.35 515.94 75.39 555.28 75.38 594.62 Z" />
</g>
</svg>
