<?xml version="1.0" encoding="UTF-8" ?>
<!DOCTYPE svg PUBLIC "-//W3C//DTD SVG 1.1//EN" "http://www.w3.org/Graphics/SVG/1.1/DTD/svg11.dtd">
<svg width="557pt" height="626pt" viewBox="0 0 557 626" version="1.1" xmlns="http://www.w3.org/2000/svg">
<g>
<path fill="#000000" opacity="1.00" d=" M 72.46 0.00 L 373.87 0.00 C 376.74 0.79 379.49 1.97 382.18 3.26 C 401.97 25.01 420.96 47.51 440.51 69.50 C 460.07 91.91 479.67 114.29 499.28 136.65 C 501.78 139.64 504.99 142.32 506.13 146.20 C 506.97 149.73 506.76 153.40 506.80 157.00 C 506.77 179.27 506.79 201.53 506.78 223.80 C 514.13 224.52 521.54 223.61 528.86 224.72 C 544.35 227.48 557.11 242.05 556.76 257.97 C 556.89 316.30 556.77 374.65 556.82 432.99 C 556.76 440.46 557.37 448.25 554.28 455.27 C 550.53 463.61 543.69 470.73 534.99 473.86 C 526.22 477.77 516.44 476.27 507.14 476.50 C 506.52 481.31 506.84 486.16 506.79 490.99 C 506.74 528.00 506.86 565.02 506.73 602.04 C 507.16 614.61 495.81 625.57 483.50 626.00 L 75.75 626.00 C 63.72 625.07 52.84 614.36 53.26 601.99 C 53.19 560.21 53.21 518.42 53.24 476.63 C 47.16 476.37 41.07 476.76 34.99 476.37 C 24.17 475.21 13.61 469.30 8.11 459.72 C 3.34 452.77 3.12 444.10 2.77 436.00 C 2.85 419.33 2.68 402.67 2.86 386.00 C 2.73 379.97 2.76 373.94 2.85 367.91 C 2.76 358.28 2.72 348.64 2.87 339.00 C 2.69 330.64 2.84 322.27 2.84 313.91 C 2.77 303.28 2.72 292.64 2.86 282.00 C 2.73 275.66 2.79 269.33 2.79 262.99 C 3.18 255.92 3.48 248.44 7.24 242.19 C 11.75 234.05 19.53 227.69 28.55 225.26 C 36.64 223.33 45.02 224.63 53.22 223.78 C 53.21 158.17 53.23 92.56 53.21 26.95 C 53.17 23.06 53.85 19.20 53.78 15.32 C 55.64 12.67 57.78 10.23 59.82 7.73 C 63.10 3.86 68.05 2.18 72.46 0.00 M 77.40 24.50 C 77.34 90.94 77.43 157.39 77.36 223.83 C 78.90 223.98 80.46 224.14 82.02 224.15 C 211.69 224.13 341.36 224.15 471.03 224.14 C 474.90 224.12 478.79 224.33 482.64 223.82 C 482.57 203.35 482.69 182.89 482.58 162.42 C 446.06 162.13 409.53 162.52 373.01 162.23 C 366.95 161.41 361.75 156.30 361.90 149.99 C 361.66 108.16 361.95 66.32 361.76 24.48 C 266.97 24.54 172.19 24.51 77.40 24.50 M 437.92 261.88 C 433.21 263.15 428.44 264.16 423.82 265.71 C 419.47 267.78 414.90 269.38 410.66 271.68 C 407.77 273.39 404.91 275.16 402.00 276.83 C 401.27 277.49 400.54 278.13 399.81 278.78 C 389.97 285.57 382.12 295.18 376.75 305.81 C 374.75 309.02 373.45 312.57 372.25 316.14 C 371.23 318.32 370.46 320.60 369.87 322.93 C 365.89 339.35 365.45 356.62 369.04 373.15 C 370.42 379.81 373.33 386.02 375.82 392.32 L 376.27 392.51 C 381.18 402.52 388.76 411.06 397.53 417.86 C 405.61 424.17 415.15 428.10 424.83 431.23 C 440.21 435.04 456.24 436.35 472.05 435.10 C 481.68 434.05 491.43 433.30 500.85 430.81 C 501.92 430.59 503.01 430.37 504.09 430.14 C 508.83 428.81 513.57 427.39 518.38 426.34 C 519.81 423.79 519.14 420.81 519.28 418.04 C 519.33 390.48 519.15 362.92 519.37 335.36 C 517.93 335.02 516.47 334.71 515.00 334.77 C 494.84 334.82 474.68 334.78 454.53 334.79 C 454.62 345.00 454.42 355.22 454.63 365.43 C 463.54 365.48 472.44 365.31 481.35 365.52 C 481.33 377.42 481.32 389.33 481.35 401.24 C 471.92 404.26 461.81 404.11 452.07 403.04 C 447.05 401.90 441.69 401.37 437.20 398.72 C 433.59 396.73 429.58 395.36 426.78 392.19 C 422.80 389.83 420.43 385.83 417.46 382.42 C 411.62 373.28 408.18 362.49 408.27 351.61 L 407.61 351.47 C 407.56 348.49 407.61 345.51 407.67 342.54 L 408.33 342.48 C 408.14 334.77 410.16 327.15 413.06 320.06 C 413.63 319.01 414.22 317.97 414.80 316.93 C 416.47 314.01 418.61 311.45 420.78 308.90 C 421.92 307.59 423.09 306.32 424.35 305.13 L 424.53 304.77 C 427.68 302.78 430.59 300.42 433.85 298.59 C 438.01 296.55 442.29 294.73 446.85 293.81 C 448.20 293.52 449.53 293.17 450.84 292.72 C 461.95 290.54 473.28 291.47 484.43 292.71 L 484.53 293.30 C 486.36 293.32 488.20 293.51 489.96 294.08 C 495.08 295.34 500.19 296.69 505.06 298.77 C 505.71 296.21 506.42 293.67 507.16 291.14 C 507.46 290.10 507.78 289.06 508.11 288.03 C 509.61 282.75 510.35 277.24 512.31 272.10 C 512.64 270.38 512.75 268.63 512.57 266.90 C 511.37 266.67 510.22 266.30 509.12 265.80 C 497.19 261.77 484.59 259.35 471.96 259.33 C 460.58 258.59 449.04 259.27 437.92 261.88 M 75.50 260.34 C 72.36 260.60 69.14 260.24 66.07 261.12 C 63.67 261.34 61.26 261.49 58.87 261.83 C 55.44 262.69 51.86 262.55 48.40 263.31 C 48.51 320.15 48.35 376.99 48.48 433.82 C 61.40 433.66 74.34 434.06 87.25 433.62 C 87.14 413.17 87.27 392.72 87.18 372.27 C 98.51 372.94 109.91 372.84 121.16 371.18 C 135.98 368.07 151.38 362.19 160.72 349.62 C 164.05 346.81 164.80 342.33 167.47 339.06 C 167.45 338.70 167.42 337.99 167.40 337.63 L 168.33 337.48 C 169.61 331.53 172.19 325.77 171.68 319.56 L 172.32 319.50 C 173.10 309.18 171.65 298.38 166.74 289.17 C 163.33 281.77 157.50 275.82 150.96 271.10 C 148.68 269.70 146.28 268.51 143.93 267.24 C 138.43 265.01 132.80 262.89 126.88 262.15 C 125.18 261.44 123.34 261.33 121.53 261.31 L 121.51 260.67 C 106.22 258.99 90.83 259.47 75.50 260.34 M 197.56 260.63 C 197.36 318.33 197.54 376.05 197.47 433.76 C 209.48 433.81 221.49 433.91 233.49 433.70 C 233.45 401.98 233.42 370.25 233.31 338.53 L 232.63 338.53 C 232.86 330.00 232.27 321.49 232.18 312.97 C 231.63 310.92 231.64 308.81 231.69 306.71 C 232.91 307.40 233.68 308.56 234.39 309.74 C 236.03 313.88 238.01 317.88 239.74 321.99 C 241.75 325.55 243.10 329.43 244.93 333.09 C 246.74 336.32 248.03 339.82 249.88 343.05 C 252.13 346.58 253.56 350.56 255.76 354.13 C 259.51 361.37 263.25 368.63 267.33 375.71 C 268.55 377.80 269.72 379.93 270.74 382.13 C 272.92 385.68 274.94 389.32 276.83 393.03 C 280.96 400.01 284.64 407.24 288.72 414.24 C 290.81 417.85 292.59 421.62 294.77 425.19 C 296.30 427.85 297.85 430.53 298.90 433.44 C 302.92 434.10 307.00 433.71 311.05 433.80 C 320.91 433.73 330.77 433.96 340.62 433.67 C 340.41 375.99 340.73 318.31 340.47 260.63 C 328.75 260.59 317.03 260.75 305.32 260.54 L 305.57 261.57 L 304.51 261.36 C 304.74 285.97 304.24 310.60 304.90 335.20 C 303.61 343.77 305.41 352.48 305.44 361.11 C 305.29 367.20 307.22 373.11 306.96 379.22 C 306.12 378.28 304.44 376.40 303.60 375.46 C 302.23 371.87 300.68 368.36 299.25 364.80 C 299.01 364.32 298.53 363.36 298.28 362.88 C 296.26 359.08 295.28 354.81 293.03 351.13 C 291.26 348.12 289.83 344.95 288.27 341.84 C 285.99 338.53 284.71 334.68 282.71 331.21 C 280.62 327.89 279.30 324.18 277.24 320.84 C 273.18 314.39 269.83 307.50 265.76 301.04 C 264.49 298.67 263.24 296.30 261.95 293.95 C 259.49 290.06 257.47 285.92 255.13 281.97 C 253.11 278.87 251.63 275.48 249.65 272.37 C 247.05 268.55 245.61 264.01 242.55 260.51 C 227.56 260.79 212.55 260.57 197.56 260.63 M 77.38 594.64 C 212.46 594.70 347.54 594.73 482.62 594.62 C 482.59 555.27 482.67 515.92 482.58 476.58 C 347.52 476.52 212.46 476.51 77.40 476.58 C 77.35 515.93 77.39 555.28 77.38 594.64 Z" />
<path fill="#000000" opacity="1.00" d=" M 87.24 290.65 C 95.07 289.18 103.16 289.03 111.08 289.84 C 119.54 290.81 127.99 295.57 131.58 303.57 C 135.58 314.07 133.81 327.46 124.95 334.99 C 122.99 336.39 120.98 337.70 118.95 338.98 C 108.97 343.07 97.75 343.31 87.23 341.51 C 87.20 324.56 87.18 307.60 87.24 290.65 Z" />
</g>
<g>
<path fill="#000000" opacity="1.00" d=" M 373.87 0.00 L 379.06 0.00 L 377.76 0.01 C 379.25 1.05 380.80 2.06 382.18 3.26 C 379.49 1.97 376.74 0.79 373.87 0.00 Z" />
</g>
<g>
<path fill="#000000" opacity="1.00" d=" M 305.44 361.11 C 305.41 352.48 303.61 343.77 304.90 335.20 C 305.98 340.70 305.23 346.33 305.74 351.89 C 306.27 357.58 306.63 363.29 306.94 369.00 C 307.15 374.17 308.26 379.28 307.98 384.48 C 306.21 381.63 304.74 378.61 303.60 375.46 C 304.44 376.40 306.12 378.28 306.96 379.22 C 307.22 373.11 305.29 367.20 305.44 361.11 Z" />
</g>
</svg>
