<?xml version="1.0" encoding="UTF-8" ?>
<!DOCTYPE svg PUBLIC "-//W3C//DTD SVG 1.1//EN" "http://www.w3.org/Graphics/SVG/1.1/DTD/svg11.dtd">
<svg width="225pt" height="225pt" viewBox="0 0 225 225" version="1.1" xmlns="http://www.w3.org/2000/svg">
	<g>
		<path d=" M 84.54 0.79 C 103.18 0.60 121.83 0.54 140.46 0.81 C 140.44 28.72 140.46 56.64 140.45 84.55 C 159.14 84.52 177.83 84.59 196.52 84.52 C 168.44 112.44 140.53 140.51 112.49 168.47 C 84.48 140.49 56.55 112.44 28.48 84.52 C 47.17 84.59 65.86 84.52 84.55 84.55 C 84.54 56.63 84.56 28.71 84.54 0.79 Z" />
		<path d=" M 0.00 196.68 C 46.32 196.42 92.66 196.64 138.98 196.57 C 167.65 196.69 196.34 196.32 225.00 196.75 L 225.00 225.00 L 0.00 225.00 L 0.00 196.68 Z" />
	</g>
</svg>
