<!-- Generated by IcoMoon.io -->
<svg version="1.1" xmlns="http://www.w3.org/2000/svg" width="32" height="32" viewBox="0 0 32 32">
<title>resource-editor--star</title>
<path d="M29.569 10.447l-7.806-0.561c-0.163-0.013-0.306-0.111-0.365-0.267l-2.974-7.238c-0.411-0.998-1.337-1.617-2.419-1.617s-2.002 0.619-2.419 1.624l-2.98 7.245c-0.065 0.15-0.202 0.254-0.365 0.267l-7.793 0.561c-1.056 0.059-1.956 0.75-2.302 1.767-0.352 1.030-0.059 2.113 0.776 2.824l6.032 4.982c0.124 0.104 0.183 0.274 0.143 0.43l-1.839 7.525c-0.215 0.782-0.065 1.591 0.411 2.224 0.489 0.639 1.252 1.024 2.054 1.024 0.496 0 0.978-0.15 1.376-0.417l6.593-4.102c0.137-0.085 0.313-0.085 0.45 0l6.658 4.089c0.417 0.28 0.9 0.43 1.389 0.43 0.75 0 1.493-0.359 1.976-0.965 0.502-0.626 0.685-1.441 0.502-2.256l-1.845-7.545c-0.039-0.163 0.020-0.333 0.143-0.437l6.123-4.995c0.822-0.704 1.115-1.787 0.769-2.817-0.339-1.017-1.245-1.715-2.289-1.774zM30.071 13.806l-6.11 4.989c-0.6 0.489-0.874 1.298-0.685 2.054l1.845 7.532c0.098 0.443-0.078 0.75-0.196 0.893-0.183 0.228-0.456 0.372-0.73 0.372-0.17 0-0.339-0.052-0.522-0.176l-6.684-4.108c-0.32-0.196-0.685-0.3-1.063-0.3s-0.75 0.104-1.069 0.306l-6.619 4.115c-0.424 0.28-0.991 0.157-1.291-0.235-0.124-0.163-0.254-0.443-0.137-0.854l1.845-7.551c0.183-0.75-0.085-1.552-0.678-2.041l-6.019-4.975c-0.476-0.411-0.346-0.939-0.293-1.089s0.267-0.652 0.893-0.685l7.806-0.561c0.769-0.059 1.435-0.535 1.728-1.252l2.98-7.245c0.241-0.587 0.783-0.633 0.939-0.633s0.698 0.046 0.939 0.633l2.98 7.245c0.293 0.717 0.959 1.193 1.728 1.252l7.819 0.567c0.613 0.033 0.828 0.535 0.88 0.685 0.039 0.137 0.17 0.665-0.287 1.063z"></path>
</svg>
