<!-- Generated by IcoMoon.io -->
<svg version="1.1" xmlns="http://www.w3.org/2000/svg" width="32" height="32" viewBox="0 0 32 32">
<title>resource-editor--file-blank</title>
<path d="M28.32 6.351c0-0.193-0.084-0.366-0.216-0.486l-1.805-1.805-3.859-3.869c-0.116-0.116-0.272-0.184-0.435-0.191-0.003-0-0.005-0-0.008-0-0.006-0-0.013-0.001-0.019-0.001h-17.645c-0.361 0-0.653 0.292-0.653 0.653v30.694c0 0.361 0.292 0.653 0.653 0.653h23.333c0.361 0 0.653-0.292 0.653-0.653v-24.971c0-0.008 0.001-0.017 0.001-0.025zM22.621 2.23l3.466 3.468h-3.466v-3.468zM4.986 30.694v-29.388h16.329v5.045c0 0.361 0.292 0.653 0.653 0.653h5.044v23.69h-22.027z"></path>
</svg>
