<?xml version="1.0" encoding="UTF-8" ?>
<!DOCTYPE svg PUBLIC "-//W3C//DTD SVG 1.1//EN" "http://www.w3.org/Graphics/SVG/1.1/DTD/svg11.dtd">
<svg width="224pt" height="145pt" viewBox="0 0 224 145" version="1.1" xmlns="http://www.w3.org/2000/svg">
<g id="#ffffffff">
</g>
<g id="#000000ff">
<path fill="#000000" opacity="1.00" d=" M 0.00 7.43 C 1.73 3.11 6.52 0.76 11.01 0.97 C 78.37 1.02 145.74 0.96 213.10 1.00 C 218.89 0.94 223.71 5.85 224.00 11.56 L 224.00 133.89 C 223.45 139.41 218.68 143.96 213.10 143.99 C 145.70 144.05 78.30 143.98 10.91 144.02 C 6.41 144.24 2.03 141.76 0.00 137.73 L 0.00 7.43 M 14.04 8.13 C 46.40 30.93 79.05 53.34 111.44 76.11 C 143.95 53.46 176.54 30.91 208.96 8.13 C 143.99 8.19 79.01 8.19 14.04 8.13 M 6.16 11.52 C 6.17 52.20 6.17 92.88 6.16 133.57 C 35.61 113.41 65.00 93.16 94.39 72.93 C 65.00 52.43 35.62 31.92 6.16 11.52 M 128.61 72.90 C 157.98 93.19 187.40 113.39 216.84 133.57 C 216.83 92.89 216.83 52.20 216.84 11.52 C 187.38 31.90 158.03 52.44 128.61 72.90 M 14.19 136.86 C 79.06 136.83 143.94 136.79 208.81 136.88 C 180.13 116.81 151.10 97.22 122.35 77.23 C 119.38 79.32 116.44 81.45 113.42 83.47 C 112.37 84.32 110.63 84.32 109.59 83.47 C 106.56 81.45 103.62 79.31 100.64 77.23 C 71.90 97.21 42.89 116.82 14.19 136.86 Z" />
</g>
</svg>
