<svg width="514pt" height="298pt" viewBox="0 0 514 298" version="1.1" xmlns="http://www.w3.org/2000/svg">
	<g>
		<path d=" M 228.50 1.80 C 268.95 -1.90 310.11 2.36 348.97 14.16 C 406.30 31.73 458.20 66.31 496.73 112.22 C 501.24 117.81 506.27 123.16 509.28 129.77 C 514.45 140.84 515.00 154.03 510.48 165.40 C 508.49 170.67 505.17 175.28 501.70 179.65 C 472.86 215.65 436.13 245.38 394.65 265.60 C 326.94 299.29 246.75 306.38 173.93 286.35 C 112.00 269.39 55.70 232.70 15.05 183.00 C 11.81 178.89 8.22 174.99 5.76 170.32 C -1.17 157.50 -1.27 141.29 5.38 128.34 C 8.10 123.01 12.19 118.59 15.85 113.91 C 51.55 70.83 98.92 37.43 151.65 18.65 C 176.40 9.74 202.31 4.12 228.50 1.80 M 248.16 35.23 C 217.95 37.38 189.14 52.50 169.68 75.61 C 154.03 94.13 144.54 117.74 143.14 141.96 C 141.40 168.20 149.24 194.91 164.81 216.10 C 182.86 241.07 211.41 258.14 241.99 262.06 C 263.70 265.00 286.24 261.45 305.99 251.96 C 333.39 239.03 355.13 214.69 364.89 186.01 C 373.11 162.22 373.10 135.70 364.88 111.92 C 356.04 86.08 337.55 63.68 313.85 50.12 C 294.13 38.64 270.89 33.47 248.16 35.23 M 37.24 142.21 C 34.23 145.78 34.04 151.39 36.82 155.15 C 63.23 189.23 97.65 217.07 136.53 235.72 C 118.25 210.43 108.18 179.26 108.49 148.04 C 108.56 117.42 118.66 87.03 136.51 62.21 C 97.87 80.80 63.64 108.43 37.24 142.21 M 377.47 62.20 C 395.55 87.28 405.62 118.09 405.51 149.04 C 405.58 179.99 395.50 210.83 377.33 235.88 C 415.97 217.16 450.34 189.59 476.76 155.72 C 479.92 151.97 479.92 146.04 476.78 142.28 C 450.41 108.44 416.13 80.80 377.47 62.20 Z" />
		<path d=" M 248.49 90.66 C 264.93 88.33 282.38 93.19 295.03 104.04 C 306.87 113.99 314.51 128.78 315.71 144.22 C 316.78 156.92 313.49 169.92 306.62 180.64 C 298.63 193.23 285.69 202.56 271.22 206.13 C 255.55 210.12 238.23 207.25 224.79 198.23 C 212.49 190.24 203.32 177.49 199.84 163.22 C 196.92 151.37 197.66 138.60 202.24 127.26 C 209.72 108.03 228.04 93.51 248.49 90.66 M 251.19 125.23 C 241.88 127.44 234.31 135.55 232.86 145.02 C 231.34 153.87 235.22 163.43 242.53 168.66 C 250.66 174.90 262.71 174.90 271.03 169.02 C 280.11 162.92 283.94 150.26 279.82 140.14 C 275.73 129.03 262.68 122.06 251.19 125.23 Z" />
	</g>
</svg>
