<?xml version="1.0" encoding="UTF-8" ?>
<!DOCTYPE svg PUBLIC "-//W3C//DTD SVG 1.1//EN" "http://www.w3.org/Graphics/SVG/1.1/DTD/svg11.dtd">
<svg width="512pt" height="512pt" viewBox="0 0 512 512" version="1.1" xmlns="http://www.w3.org/2000/svg">
<g>
<path opacity="1.00" d=" M 248.48 0.00 L 270.73 0.00 C 310.80 1.11 350.64 11.78 385.57 31.53 C 433.37 58.24 471.82 101.27 492.87 151.83 C 504.69 179.82 510.92 210.02 512.00 240.35 L 512.00 261.83 C 510.95 302.80 500.21 343.53 480.32 379.39 C 451.83 431.34 404.76 472.78 349.56 494.32 C 321.80 505.31 292.10 511.05 262.30 512.00 L 249.99 512.00 C 210.31 510.90 170.84 500.83 135.83 482.05 C 86.16 455.71 45.66 412.54 22.61 361.25 C 7.89 328.82 0.29 293.27 0.00 257.68 L 0.00 255.21 C 0.11 205.75 14.86 156.42 42.22 115.19 C 74.44 66.12 124.01 28.69 180.15 11.45 C 202.27 4.52 225.35 0.95 248.48 0.00 M 186.19 104.95 C 186.17 123.64 186.18 142.34 186.18 161.03 C 186.23 171.00 185.80 181.05 187.42 190.94 C 190.75 213.13 201.25 234.66 218.47 249.35 C 230.48 259.73 246.08 266.15 262.04 266.14 C 272.74 266.01 283.15 270.84 290.51 278.50 C 300.42 288.65 305.40 302.96 305.51 317.02 C 305.54 330.58 305.51 344.13 305.52 357.69 C 303.06 354.94 300.54 352.23 298.19 349.39 C 298.26 356.36 298.21 363.35 298.22 370.33 C 293.37 364.97 288.69 359.47 283.76 354.20 C 280.26 350.63 273.85 348.99 269.67 352.06 C 268.73 357.85 270.74 363.96 274.67 368.28 C 287.60 382.72 300.43 397.27 313.42 411.67 C 318.05 416.75 326.80 416.36 331.11 411.06 C 343.99 396.56 357.02 382.18 369.77 367.57 C 369.75 361.16 366.60 354.36 360.58 351.57 C 355.87 349.31 349.95 350.71 346.48 354.53 C 341.69 359.73 337.06 365.08 332.30 370.32 C 332.28 355.56 332.35 340.80 332.27 326.04 C 331.92 301.72 323.42 277.16 306.90 259.08 C 295.30 246.27 279.36 237.04 262.06 235.00 C 256.72 234.23 251.24 234.87 245.95 233.61 C 236.63 231.60 228.34 225.98 222.30 218.70 C 213.58 208.25 209.15 194.56 209.18 181.02 C 209.15 156.70 209.20 132.38 209.15 108.06 C 209.23 99.17 203.38 89.46 194.07 88.11 C 188.64 91.67 186.18 98.63 186.19 104.95 M 311.19 87.97 C 306.10 92.00 303.57 98.60 303.71 105.00 C 303.71 126.98 303.70 148.97 303.71 170.95 C 304.21 186.16 298.93 201.76 288.11 212.65 C 298.75 216.85 308.53 223.19 316.73 231.17 C 325.49 215.27 330.02 197.12 329.93 178.98 C 329.91 154.96 330.01 130.94 329.88 106.92 C 329.82 97.12 321.70 86.80 311.19 87.97 M 197.93 267.46 C 190.79 281.51 187.09 297.24 186.95 312.99 C 186.90 326.78 186.95 340.57 186.92 354.36 C 183.11 349.97 179.03 345.81 175.42 341.26 C 175.57 349.79 175.45 358.33 175.49 366.88 C 170.86 361.69 166.25 356.49 161.60 351.33 C 159.06 348.48 155.23 346.54 151.35 347.02 C 150.22 353.03 151.82 359.50 155.93 364.07 C 168.66 378.31 181.33 392.61 194.09 406.83 C 198.71 412.30 207.90 411.76 212.13 406.09 C 222.44 394.39 232.78 382.72 243.07 371.00 C 245.02 368.86 245.07 365.75 245.08 363.02 C 244.93 356.77 241.51 350.20 235.52 347.76 C 230.90 345.79 225.31 347.35 222.04 351.06 C 217.66 355.88 213.38 360.79 209.06 365.66 C 209.07 351.77 209.02 337.89 209.08 324.00 C 209.29 309.42 214.91 294.83 225.20 284.39 C 215.18 280.45 205.97 274.60 197.93 267.46 Z" />
</g>
</svg>
