<svg width="1047pt" height="1000pt" viewBox="0 0 1047 1000" version="1.1" xmlns="http://www.w3.org/2000/svg">
	<g>
		<path d=" M 4.39 259.45 C 177.31 172.95 350.28 86.54 523.19 0.03 C 692.73 84.70 862.20 169.51 1031.71 254.24 C 1036.85 256.50 1041.59 259.83 1047.00 261.34 L 1047.00 261.61 C 1039.81 264.59 1032.99 268.54 1025.94 271.88 C 953.34 308.19 880.71 344.45 808.14 380.80 C 886.97 420.28 965.83 459.69 1044.68 499.13 C 1045.26 499.21 1046.42 499.39 1047.00 499.47 L 1047.00 500.46 C 1044.50 500.64 1042.41 502.08 1040.24 503.14 C 972.63 536.94 905.02 570.74 837.42 604.54 C 827.72 609.53 817.77 614.07 808.23 619.34 C 887.41 658.78 966.51 698.38 1045.61 737.98 C 1045.96 738.07 1046.65 738.26 1047.00 738.35 L 1047.00 738.61 C 1040.98 740.50 1035.60 744.09 1029.84 746.69 C 876.51 823.36 723.17 900.01 569.83 976.68 C 554.36 984.48 538.79 992.10 523.37 1000.00 L 523.16 1000.00 C 393.63 935.06 263.96 870.38 134.37 805.54 C 89.57 783.21 44.88 760.64 0.00 738.47 L 0.00 738.45 C 79.32 698.71 158.65 658.99 238.08 619.46 C 237.46 618.88 236.79 618.40 236.06 618.00 C 159.55 579.80 83.07 541.51 6.57 503.29 C 4.44 502.24 2.40 500.88 0.00 500.56 L 0.00 499.52 C 2.22 499.14 4.18 497.98 6.15 496.97 C 83.48 458.30 160.81 419.62 238.13 380.94 C 236.56 379.65 234.65 378.93 232.86 378.02 C 157.75 340.46 82.63 302.90 7.51 265.36 C 5.00 264.16 2.61 262.72 0.00 261.77 L 0.00 261.31 C 1.57 260.96 2.98 260.17 4.39 259.45 M 264.21 499.60 C 264.21 499.81 264.22 500.23 264.23 500.45 C 350.55 543.48 436.86 586.54 523.13 629.70 C 609.67 586.70 696.04 543.35 782.56 500.31 C 782.56 500.16 782.57 499.87 782.57 499.72 C 747.09 482.11 711.74 464.23 676.24 446.67 C 625.26 472.27 574.23 497.75 523.18 523.21 C 472.17 497.66 421.16 472.13 370.11 446.67 C 334.84 464.36 299.53 482.00 264.21 499.60 M 367.60 686.29 C 333.42 703.43 299.18 720.47 265.00 737.60 C 264.73 737.88 264.18 738.44 263.91 738.72 C 350.41 781.78 436.78 825.09 523.19 868.33 C 562.81 848.58 602.39 828.73 641.99 808.94 C 688.96 785.37 736.09 762.06 782.96 738.31 C 747.70 720.69 712.45 703.02 677.16 685.44 C 625.85 710.85 574.52 736.23 523.17 761.56 C 472.37 736.07 421.52 710.72 370.71 685.27 C 369.54 684.87 368.62 685.94 367.60 686.29 Z" />
	</g>
</svg>
