<svg xmlns="http://www.w3.org/2000/svg" xmlns:xlink="http://www.w3.org/1999/xlink" width="20" height="20" viewBox="0 0 20 20"><defs><clipPath id="b"><rect width="20" height="20"/></clipPath></defs><g id="a" clip-path="url(#b)"><g transform="translate(-602.1 -167.852)"><path d="M609.553,174.23c-.052-.11-.123-.215-.181-.319l-.339-.608-.588-1.057-.025-.044a.5.5,0,0,0-.29-.28.5.5,0,0,0-.64.27l-1.06,2.03a.61.61,0,0,0-.08.32.544.544,0,0,0,.18.36.5.5,0,0,0,.34.13h2a.959.959,0,0,0,.487-.07.552.552,0,0,0,.255-.349A.582.582,0,0,0,609.553,174.23Zm-2.313.052.72-1.38.76,1.38Z"/><path d="M608.9,176.052h-1.83a.649.649,0,0,0-.65.65v1.86a.655.655,0,0,0,.65.65h1.83a.664.664,0,0,0,.65-.66V176.7A.649.649,0,0,0,608.9,176.052Zm-.1,2.41h-1.63v-1.67h1.63Z"/><path d="M607.99,180.222h-.01a1.67,1.67,0,1,0,1.67,1.67A1.677,1.677,0,0,0,607.99,180.222Zm-.01,2.6a.925.925,0,1,1,.93-.93A.926.926,0,0,1,607.98,182.822Z"/><path d="M617.81,173.432a.371.371,0,0,1-.34.4h-6.18a.375.375,0,0,1-.27-.62.384.384,0,0,1,.26-.13h6.15a.352.352,0,0,1,.25.09A.347.347,0,0,1,617.81,173.432Z"/><path d="M617.81,177.6a.377.377,0,0,1-.34.4h-6.18a.368.368,0,0,1-.36-.34.354.354,0,0,1,.09-.28.384.384,0,0,1,.26-.13h6.15a.352.352,0,0,1,.25.09A.347.347,0,0,1,617.81,177.6Z"/><path d="M617.8,181.892a.378.378,0,0,1-.37.38h-6.11a.375.375,0,1,1,0-.75h6.11A.376.376,0,0,1,617.8,181.892Z"/></g></g></svg>