<!-- Generated by IcoMoon.io -->
<svg version="1.1" xmlns="http://www.w3.org/2000/svg" width="1024" height="1024" viewBox="0 0 1024 1024">
<title></title>
<g id="icomoon-ignore">
</g>
<path d="M672 341.333c-41.311-38.751-97.047-62.555-158.342-62.555-127.953 0-231.68 103.727-231.68 231.68 0 55.233 19.328 105.951 51.589 145.761l-0.34-0.433c40.211 51.712 66.221 116.268 71.191 186.634l0.062 1.099s-2.987 20.48 15.36 21.333h184.747c20.053 0 15.36-25.173 15.36-25.173 4.994-69.598 30.537-132.406 70.522-183.338l-0.549 0.725c33.478-39.842 53.816-91.698 53.816-148.304 0-65.826-27.503-125.228-71.645-167.342l-0.091-0.086zM557.653 822.613c-1.729 5.959-7.137 10.24-13.546 10.24-0.038 0-0.075 0-0.113 0h-63.141c-0.032 0-0.069 0-0.107 0-6.409 0-11.818-4.282-13.522-10.141l-0.025-0.099-35.84-217.173v-2.56c0-8.483 6.877-15.36 15.36-15.36v0h134.827c7.227 1.545 12.567 7.876 12.567 15.455 0 0.87-0.070 1.724-0.206 2.556l0.012-0.091z"></path>
<path d="M500.053 834.133h24.32v0.427h-24.32v-0.427z"></path>
<path d="M559.787 618.24l-31.573 192h-32l-32-192h95.573z"></path>
<path d="M606.293 904.107h-188.587c-8.483 0-15.36 6.877-15.36 15.36s6.877 15.36 15.36 15.36h14.507c6.529 38.781 39.857 67.959 80 67.959s73.471-29.178 79.934-67.483l0.066-0.476h14.080c8.483 0 15.36-6.877 15.36-15.36s-6.877-15.36-15.36-15.36v0zM512 972.373c-0.134 0.001-0.293 0.002-0.451 0.002-21.686 0-40.114-13.947-46.805-33.361l-0.104-0.348h94.72c-6.794 19.762-25.223 33.709-46.909 33.709-0.159 0-0.317-0.001-0.475-0.002h0.024z"></path>
<path d="M756.48 279.893c-8.107-8.107-16.213-16.213-24.747-23.893l112.64-128c12.8 11.52 25.173 23.040 36.693 35.413zM266.667 269.227l-119.893-121.6c12.373-11.947 25.173-23.467 38.4-34.133l107.093 133.12c-9.39 7.275-17.742 14.68-25.58 22.593l-0.020 0.020zM530.773 170.667h-34.133l-4.693-170.667h51.2z"></path>
</svg>
