<?xml version="1.0" encoding="UTF-8"?>
<!DOCTYPE svg PUBLIC "-//W3C//DTD SVG 1.1//EN" "http://www.w3.org/Graphics/SVG/1.1/DTD/svg11.dtd">
<!-- Creator: CorelDRAW 2017 -->
<svg xmlns="http://www.w3.org/2000/svg" xml:space="preserve" width="10cm" height="9.65023cm" version="1.1" style="shape-rendering:geometricPrecision; text-rendering:geometricPrecision; image-rendering:optimizeQuality; fill-rule:evenodd; clip-rule:evenodd"
viewBox="0 0 9.12 8.8"
 xmlns:xlink="http://www.w3.org/1999/xlink">
 <g>
  <path d="M9.01 8.15l-2.34 -2.35c0.45,-0.57 0.72,-1.29 0.72,-2.07 0,-0.41 -0.08,-0.81 -0.21,-1.17l-0.62 0.62c0.04,0.18 0.06,0.36 0.06,0.55 0,1.41 -1.14,2.57 -2.56,2.57 -0.19,0 -0.38,-0.02 -0.56,-0.06l-0.6 0.6c0.36,0.14 0.76,0.21 1.16,0.21 0.78,0 1.5,-0.27 2.07,-0.72l2.36 2.36c0.08,0.08 0.17,0.11 0.27,0.11 0.1,0 0.19,-0.04 0.27,-0.11 0.15,-0.14 0.15,-0.39 0,-0.53zm-8.27 -0.34c-0.17,0.17 -0.44,0.17 -0.61,0 -0.17,-0.17 -0.17,-0.44 0,-0.61l1.36 -1.36c-0.48,-0.58 -0.76,-1.31 -0.76,-2.12 0,-1.83 1.51,-3.33 3.34,-3.33 0.8,0 1.54,0.28 2.11,0.76l1.04 -1.04c0.17,-0.17 0.44,-0.17 0.61,0 0.17,0.17 0.17,0.44 0,0.61l-7.08 7.08zm1.29 -2.51l3.6 -3.6c-0.44,-0.34 -0.98,-0.54 -1.57,-0.54 -1.41,0 -2.56,1.14 -2.56,2.56 0,0.59 0.2,1.14 0.54,1.58z"/>
 </g>
</svg>
