<?xml version="1.0" encoding="UTF-8" ?>
<!DOCTYPE svg PUBLIC "-//W3C//DTD SVG 1.1//EN" "http://www.w3.org/Graphics/SVG/1.1/DTD/svg11.dtd">
<svg width="169pt" height="29pt" viewBox="0 0 169 29" version="1.1" xmlns="http://www.w3.org/2000/svg">
<g id="#fdfdfdff">
</g>
<g id="#010101ff">
<path fill="#010101" opacity="1.00" d=" M 10.19 1.12 C 15.09 0.30 20.08 0.75 25.02 0.70 C 64.01 0.61 103.00 0.70 141.99 0.67 C 147.01 0.68 152.04 0.32 157.04 0.84 C 161.90 1.26 166.07 4.91 167.88 9.34 C 168.71 12.75 168.77 16.44 167.81 19.82 C 165.95 24.17 161.81 27.76 156.99 28.16 C 152.67 28.59 148.33 28.35 144.01 28.33 C 103.66 28.33 63.32 28.29 22.97 28.35 C 16.73 28.27 9.27 29.56 4.46 24.57 C -2.96 17.82 0.15 3.46 10.19 1.12 Z" />
</g>
</svg>
