<?xml version="1.0" encoding="UTF-8"?>
<!DOCTYPE svg PUBLIC "-//W3C//DTD SVG 1.1//EN" "http://www.w3.org/Graphics/SVG/1.1/DTD/svg11.dtd">
<!-- Creator: CorelDRAW 2017 -->
<svg xmlns="http://www.w3.org/2000/svg" xml:space="preserve" width="22cm" height="21.9991cm" version="1.1" style="shape-rendering:geometricPrecision; text-rendering:geometricPrecision; image-rendering:optimizeQuality; fill-rule:evenodd; clip-rule:evenodd"
viewBox="0 0 1205.7 1205.65"
 xmlns:xlink="http://www.w3.org/1999/xlink">
 <g id="Warstwa_x0020_1">
  <g id="_2574157119344">
   <g>
    <g>
     <path d="M144.59 516.1l123.85 -123.85 -67.72 -67.67c-34.15,-34.15 -34.15,-89.71 0,-123.85 34.15,-34.15 89.71,-34.15 123.85,0l298.86 298.86 123.85 -123.81 -298.91 -298.91c-102.4,-102.44 -269.07,-102.44 -371.51,0 -102.4,102.44 -102.44,269.12 0,371.51l67.72 67.72z"/>
     <path d="M1061.11 689.6l-123.85 123.85 67.72 67.72c34.15,34.1 34.15,89.66 0,123.81 -34.15,34.15 -89.71,34.15 -123.85,0l-298.86 -298.86 -123.85 123.81 298.91 298.91c51.2,51.2 118.48,76.82 185.76,76.82 67.28,0 134.51,-25.62 185.76,-76.82 102.44,-102.44 102.44,-269.07 0,-371.51l-67.72 -67.72z"/>
     <path d="M881.12 200.72c34.15,-34.15 89.71,-34.15 123.85,0 34.15,34.15 34.15,89.71 0,123.85l-298.86 298.86 123.81 123.85 298.91 -298.86c102.4,-102.44 102.4,-269.12 0,-371.56 -102.44,-102.4 -269.12,-102.4 -371.51,0l-67.72 67.72 123.85 123.85 67.67 -67.72z"/>
     <path d="M324.58 1004.98c-34.15,34.15 -89.71,34.15 -123.85,0 -34.15,-34.15 -34.15,-89.71 0,-123.85l298.86 -298.86 -123.81 -123.85 -298.91 298.91c-102.44,102.4 -102.44,269.07 0,371.51 51.2,51.2 118.48,76.82 185.76,76.82 67.28,0 134.56,-25.62 185.76,-76.82l67.72 -67.72 -123.85 -123.85 -67.67 67.72z"/>
    </g>
   </g>
  </g>
 </g>
</svg>