<?xml version="1.0" encoding="UTF-8" ?>
<!DOCTYPE svg PUBLIC "-//W3C//DTD SVG 1.1//EN" "http://www.w3.org/Graphics/SVG/1.1/DTD/svg11.dtd">
<svg width="432pt" height="430pt" viewBox="0 0 432 430" version="1.1" xmlns="http://www.w3.org/2000/svg">
<g>
<path d=" M 15.62 0.00 L 106.52 0.00 C 112.58 0.80 118.46 4.00 121.68 9.31 C 125.69 15.43 125.86 23.80 122.08 30.06 C 118.66 36.02 111.97 39.90 105.09 39.95 C 92.96 40.15 80.81 39.84 68.67 40.10 C 71.61 43.56 74.97 46.62 78.15 49.85 C 106.48 78.24 134.93 106.51 163.18 134.97 C 161.15 139.14 157.22 141.85 154.66 145.67 C 148.57 152.01 143.71 159.48 137.03 165.25 C 105.57 133.96 74.27 102.50 42.86 71.15 C 41.96 70.30 41.03 69.48 40.09 68.66 C 39.89 80.11 40.08 91.57 40.01 103.02 C 40.05 106.97 39.50 111.04 37.46 114.49 C 33.62 121.68 25.10 125.93 17.04 124.60 C 8.02 123.46 0.82 115.44 0.00 106.48 L 0.00 15.56 C 1.45 12.06 3.00 8.46 5.77 5.77 C 8.45 2.97 12.10 1.45 15.62 0.00 Z" />
<path d=" M 160.04 179.92 C 159.85 169.32 169.32 159.85 179.92 160.04 C 254.95 159.90 329.98 160.07 405.01 159.97 C 410.55 159.98 416.50 159.56 421.49 162.46 C 427.45 165.60 431.29 171.88 432.00 178.51 L 432.00 411.51 C 431.21 421.12 423.10 429.22 413.49 430.00 L 178.50 430.00 C 168.05 429.20 159.40 419.57 160.01 409.05 C 160.02 332.68 159.93 256.29 160.04 179.92 M 200.03 200.03 C 200.00 263.34 199.97 326.66 200.03 389.97 C 264.01 390.03 327.99 390.02 391.97 389.97 C 392.00 326.66 392.01 263.34 391.97 200.03 C 327.99 199.97 264.01 199.98 200.03 200.03 Z" />
</g>
</svg>
