<?xml version="1.0" encoding="UTF-8" ?>
<!DOCTYPE svg PUBLIC "-//W3C//DTD SVG 1.1//EN" "http://www.w3.org/Graphics/SVG/1.1/DTD/svg11.dtd">
<svg width="447pt" height="391pt" viewBox="0 0 447 391" version="1.1" xmlns="http://www.w3.org/2000/svg">
<g>
<path opacity="1.00" d=" M 200.10 7.04 C 235.96 -2.68 274.62 -2.03 310.08 9.11 C 343.13 19.39 373.18 38.87 396.33 64.57 C 417.08 87.38 432.30 115.22 440.16 145.06 C 453.39 194.26 446.34 248.56 420.71 292.62 C 398.96 330.40 364.30 360.62 323.74 376.70 C 300.70 385.98 275.84 390.63 251.01 390.59 C 244.86 390.55 238.86 387.76 234.77 383.19 C 228.30 376.31 227.04 365.14 231.81 357.00 C 235.77 349.85 243.79 345.19 251.98 345.46 C 277.94 345.36 303.90 338.48 326.33 325.37 C 349.32 312.17 368.67 292.73 381.78 269.69 C 398.37 241.05 404.76 206.76 400.03 174.04 C 395.83 143.62 381.80 114.71 360.65 92.47 C 340.90 71.43 314.95 56.23 286.86 49.54 C 255.59 42.03 221.89 44.71 192.35 57.48 C 159.80 71.33 132.55 97.20 116.98 128.96 C 110.42 142.39 105.83 156.78 103.51 171.55 C 117.03 171.57 130.56 171.49 144.08 171.55 C 149.75 171.63 155.20 175.60 156.76 181.09 C 158.26 185.56 157.02 190.55 154.10 194.17 C 132.64 223.70 111.17 253.24 89.71 282.78 C 84.73 289.74 73.23 289.69 68.21 282.80 C 47.16 253.87 26.17 224.90 5.12 195.97 C 2.73 193.10 0.34 189.89 0.34 185.96 C -0.32 178.41 6.37 171.33 13.95 171.56 C 28.60 171.48 43.25 171.56 57.90 171.53 C 62.41 133.63 78.41 97.21 103.32 68.29 C 128.56 38.89 162.64 17.09 200.10 7.04 Z" />
<path opacity="1.00" d=" M 206.85 161.78 C 208.35 156.46 213.38 152.35 218.91 152.04 C 222.93 151.70 226.95 153.37 229.72 156.26 C 236.98 163.51 244.25 170.75 251.47 178.04 C 258.94 170.64 266.32 163.16 273.80 155.77 C 278.49 150.96 286.82 150.80 291.84 155.19 C 297.79 159.84 298.30 169.62 292.90 174.90 C 285.53 182.34 278.10 189.74 270.68 197.12 C 277.95 204.58 285.39 211.88 292.74 219.26 C 297.06 223.48 297.93 230.65 294.78 235.80 C 291.73 241.09 284.87 243.66 279.08 241.74 C 274.60 240.46 271.82 236.49 268.60 233.43 C 262.79 227.79 257.25 221.86 251.33 216.34 C 244.34 223.68 237.03 230.71 229.92 237.93 C 226.31 241.89 220.34 243.46 215.29 241.57 C 208.66 239.39 204.76 231.54 206.87 224.92 C 207.56 222.27 209.35 220.13 211.26 218.26 C 218.33 211.25 225.34 204.19 232.38 197.17 C 225.09 189.95 217.85 182.67 210.59 175.42 C 206.97 172.00 205.36 166.57 206.85 161.78 Z" />
</g>
</svg>
