<?xml version="1.0" encoding="UTF-8" ?>
<!DOCTYPE svg PUBLIC "-//W3C//DTD SVG 1.1//EN" "http://www.w3.org/Graphics/SVG/1.1/DTD/svg11.dtd">
<svg width="512pt" height="512pt" viewBox="0 0 512 512" version="1.1" xmlns="http://www.w3.org/2000/svg">
<g>
<path opacity="1.00" d=" M 197.63 0.00 L 209.08 0.00 C 244.50 1.12 279.63 11.43 309.74 30.18 C 343.22 50.81 370.51 81.34 387.15 116.96 C 403.23 151.09 409.32 189.80 404.72 227.23 C 400.26 264.22 385.02 299.65 362.05 328.92 C 409.94 377.03 457.85 425.12 505.75 473.22 C 509.39 476.86 511.38 481.85 512.00 486.91 L 512.00 490.14 C 511.34 501.47 501.43 511.05 490.24 512.00 L 487.35 512.00 C 481.66 511.49 476.25 508.91 472.28 504.82 C 424.48 457.04 376.73 409.22 328.92 361.46 C 307.98 378.21 283.72 390.82 257.90 398.07 C 218.32 409.25 175.30 408.04 136.48 394.42 C 102.82 382.73 72.44 361.91 49.22 334.90 C 18.16 299.11 0.33 252.16 0.00 204.75 L 0.00 197.81 C 0.75 175.08 5.03 152.44 13.22 131.21 C 29.08 89.52 59.15 53.50 97.14 30.18 C 127.22 11.50 162.27 1.16 197.63 0.00 M 182.65 47.78 C 155.52 51.24 129.39 62.08 107.73 78.76 C 83.45 97.33 64.79 123.16 54.91 152.09 C 44.65 181.87 43.80 214.74 52.22 245.07 C 60.22 274.10 76.86 300.64 99.43 320.56 C 121.88 340.51 150.21 353.77 179.95 358.06 C 207.86 362.17 236.89 358.64 262.90 347.67 C 291.67 335.64 316.61 314.73 333.61 288.60 C 350.01 263.61 359.01 233.85 359.15 203.96 C 359.44 174.40 351.00 144.83 335.18 119.86 C 319.10 94.29 295.52 73.51 268.10 60.85 C 241.62 48.51 211.60 44.00 182.65 47.78 Z" />
</g>
</svg>
