<svg width="442pt" height="441pt" viewBox="0 0 442 441" version="1.1" xmlns="http://www.w3.org/2000/svg">
	<g>
		<path d=" M 198.84 0.00 L 238.95 0.00 C 246.43 0.65 254.01 3.14 259.25 8.77 C 263.26 12.86 265.71 18.28 266.61 23.91 C 268.33 33.84 269.92 43.79 271.71 53.71 C 282.42 56.97 292.74 61.38 302.70 66.49 C 311.78 60.35 320.51 53.70 329.60 47.57 C 339.52 40.83 353.92 42.20 362.56 50.47 C 370.97 58.73 379.28 67.10 387.62 75.45 C 389.94 77.78 392.40 80.03 394.27 82.76 C 400.20 91.46 400.55 103.79 394.62 112.58 C 388.48 121.73 381.62 130.39 375.66 139.67 C 380.77 149.08 384.76 159.07 387.96 169.28 C 398.66 171.40 409.47 172.89 420.19 174.93 C 427.90 176.46 434.72 181.65 438.38 188.59 C 440.14 191.65 440.72 195.18 442.00 198.44 L 442.00 244.26 L 441.51 241.76 C 441.19 253.40 432.38 264.22 421.03 266.77 C 410.00 269.11 398.79 270.42 387.75 272.64 C 384.71 283.09 380.11 292.96 375.50 302.77 C 381.87 311.34 387.97 320.12 394.11 328.86 C 401.09 338.94 399.90 353.66 391.41 362.50 C 383.39 370.77 375.09 378.77 366.97 386.95 C 364.29 389.59 361.78 392.47 358.58 394.50 C 349.75 400.11 337.52 400.23 328.90 394.12 C 320.08 388.04 311.49 381.63 302.68 375.53 C 292.96 380.26 283.03 384.63 272.68 387.82 C 270.56 398.55 269.10 409.39 266.98 420.11 C 265.10 430.33 256.51 438.49 246.59 441.00 L 195.40 441.00 C 185.36 438.56 176.67 430.24 174.87 419.91 C 172.81 409.25 171.35 398.49 169.32 387.83 C 159.27 384.72 149.62 380.48 140.13 375.97 C 131.31 382.18 122.57 388.52 113.77 394.77 C 103.52 402.00 88.25 400.48 79.52 391.51 C 70.05 381.98 60.48 372.55 51.06 362.98 C 41.84 353.46 41.63 337.19 50.18 327.16 C 55.76 319.26 61.40 311.42 67.07 303.59 C 62.08 293.96 57.81 283.96 54.49 273.63 C 43.68 271.71 32.85 269.91 22.04 268.00 C 10.59 265.87 1.48 255.48 0.50 243.93 L 0.00 245.38 L 0.00 201.53 C 0.99 193.15 5.01 184.91 12.10 180.08 C 18.18 175.67 25.90 175.23 33.05 173.94 C 39.96 172.65 46.97 171.85 53.78 170.02 C 57.11 159.80 61.16 149.81 65.94 140.17 C 59.72 131.36 53.45 122.59 47.22 113.79 C 41.34 105.49 41.11 93.84 46.10 85.07 C 48.18 81.30 51.45 78.42 54.44 75.39 C 62.74 67.07 71.07 58.77 79.50 50.58 C 88.46 42.25 103.25 41.60 113.10 48.77 C 121.49 54.88 130.01 60.82 138.30 67.06 C 148.09 62.29 157.99 57.67 168.42 54.48 C 170.53 43.12 172.25 31.68 174.50 20.34 C 177.27 9.19 187.78 1.55 198.84 0.00 M 198.89 25.83 C 196.46 39.23 194.22 52.66 191.87 66.07 C 191.14 71.12 186.97 75.18 182.08 76.33 C 168.84 79.86 156.15 85.35 144.34 92.27 C 140.12 94.82 134.45 94.58 130.48 91.66 C 120.46 84.59 110.53 77.38 100.52 70.30 C 99.06 69.33 97.00 67.74 95.56 69.65 C 86.75 78.13 78.25 86.94 69.54 95.53 C 68.56 96.67 66.56 98.30 67.97 99.88 C 75.46 110.74 83.21 121.42 90.80 132.22 C 93.84 136.24 93.88 142.04 91.21 146.27 C 84.37 158.04 79.31 170.81 75.90 183.99 C 74.76 188.63 70.99 192.70 66.17 193.50 C 53.44 195.90 40.59 197.66 27.87 200.13 C 26.86 200.26 25.30 200.72 25.47 202.05 C 25.02 215.05 25.29 228.07 25.30 241.08 C 25.08 242.56 26.45 243.66 27.81 243.74 C 40.73 246.08 53.70 248.19 66.62 250.50 C 71.54 251.37 75.34 255.55 76.47 260.31 C 79.88 273.17 85.16 285.50 91.86 296.99 C 93.54 299.70 94.49 302.92 94.01 306.12 C 93.66 309.71 91.19 312.51 89.21 315.35 C 82.59 324.66 75.98 333.98 69.42 343.33 C 67.82 345.02 69.74 346.82 70.90 348.05 C 79.26 356.35 87.57 364.69 95.90 373.02 C 96.93 374.13 98.69 375.53 100.17 374.25 C 111.13 366.55 121.99 358.68 133.04 351.09 C 137.33 347.92 143.17 349.08 147.47 351.59 C 158.63 357.87 170.57 362.71 182.94 366.02 C 187.74 367.10 191.83 371.04 192.63 375.96 C 194.86 388.63 196.90 401.34 199.08 414.02 C 199.14 415.54 200.23 417.16 201.94 416.92 C 214.30 416.95 226.66 416.94 239.02 416.92 C 240.43 416.92 242.59 416.79 242.73 414.94 C 245.01 401.90 247.18 388.84 249.48 375.81 C 250.26 370.98 254.34 367.15 259.02 366.07 C 272.21 362.64 284.85 357.27 296.65 350.46 C 300.80 347.86 306.43 347.81 310.48 350.65 C 319.45 356.91 328.30 363.36 337.23 369.68 C 339.70 371.08 341.85 373.97 344.85 373.85 C 352.76 366.41 360.33 358.59 368.08 350.98 C 370.25 348.76 372.72 346.74 374.19 343.95 C 366.57 332.59 358.49 321.55 350.68 310.33 C 347.72 306.32 347.90 300.62 350.50 296.48 C 357.32 284.73 362.57 272.06 366.08 258.93 C 366.79 256.10 368.31 253.40 370.70 251.66 C 373.37 249.47 376.95 249.24 380.20 248.65 C 391.49 246.69 402.79 244.83 414.08 242.88 C 415.53 242.78 417.16 241.74 416.92 240.08 C 417.05 227.33 417.06 214.58 416.96 201.84 C 417.18 200.15 415.50 199.15 414.04 199.05 C 401.15 196.85 388.24 194.75 375.38 192.40 C 370.69 191.51 367.18 187.41 366.15 182.87 C 362.63 169.76 357.44 157.08 350.55 145.38 C 347.80 141.04 347.93 135.10 351.11 131.01 C 358.42 120.64 365.84 110.35 373.17 99.99 C 374.08 98.83 374.15 97.05 372.95 96.06 C 363.68 86.47 354.17 77.12 344.69 67.75 C 342.91 68.62 341.16 69.54 339.56 70.71 C 329.94 77.69 320.29 84.63 310.59 91.49 C 306.51 94.44 300.80 94.05 296.63 91.51 C 284.60 84.41 271.48 79.26 257.99 75.69 C 253.32 74.59 249.45 70.62 248.71 65.84 C 246.15 52.68 244.57 39.33 241.72 26.22 C 241.45 26.01 240.91 25.58 240.65 25.37 C 229.46 24.95 218.25 25.21 207.05 25.12 C 204.32 25.17 201.50 24.86 198.89 25.83 Z" />
		<path d=" M 207.47 126.75 C 228.60 123.73 250.74 127.89 269.13 138.79 C 288.04 149.90 303.01 167.68 310.44 188.34 C 317.87 208.63 318.12 231.47 311.03 251.89 C 303.31 274.38 286.89 293.83 265.80 304.90 C 248.62 314.22 228.46 317.87 209.08 315.35 C 185.05 312.47 162.44 299.79 147.23 281.00 C 134.31 265.29 126.73 245.30 125.95 224.98 C 125.06 205.39 130.45 185.57 141.17 169.15 C 155.93 146.51 180.59 130.34 207.47 126.75 M 208.61 151.71 C 187.68 155.41 168.80 169.17 158.92 187.99 C 151.06 202.57 148.80 220.01 152.37 236.16 C 155.30 249.40 162.15 261.78 171.91 271.20 C 183.66 282.76 199.59 290.04 216.06 291.08 C 234.91 292.57 254.17 285.83 268.12 273.10 C 278.52 263.70 286.11 251.18 289.34 237.51 C 293.55 220.25 291.00 201.38 282.04 185.99 C 274.42 172.59 262.20 161.91 247.98 156.00 C 235.62 150.84 221.79 149.42 208.61 151.71 Z" />
	</g>
</svg>
