<?xml version="1.0" encoding="UTF-8" ?>
<!DOCTYPE svg PUBLIC "-//W3C//DTD SVG 1.1//EN" "http://www.w3.org/Graphics/SVG/1.1/DTD/svg11.dtd">
<svg width="512pt" height="512pt" viewBox="0 0 512 512" version="1.1" xmlns="http://www.w3.org/2000/svg">
<g id="#010101ff">
<path fill="#010101" opacity="1.00" d=" M 191.86 191.95 C 213.24 128.10 234.38 64.16 255.95 0.38 C 264.82 25.92 273.17 51.65 281.86 77.25 C 294.63 115.50 307.56 153.69 320.26 191.96 C 384.17 192.05 448.09 191.92 512.00 192.03 L 512.00 192.08 C 458.83 233.62 405.54 275.00 352.41 316.59 C 373.72 381.68 394.70 446.89 415.97 512.00 L 415.93 512.00 C 362.69 472.17 309.45 432.33 256.21 392.49 C 217.71 421.28 179.10 449.92 140.62 478.73 C 125.81 489.82 110.82 500.68 96.19 512.00 L 96.07 512.00 C 117.10 447.33 138.60 382.80 159.68 318.15 C 109.95 278.91 60.29 239.59 10.59 200.32 C 7.14 197.64 3.91 194.62 0.00 192.61 L 0.00 192.23 C 10.34 191.73 20.69 192.12 31.03 191.98 C 84.64 191.98 138.25 192.03 191.86 191.95 M 252.64 132.74 C 240.22 163.20 227.89 193.69 215.38 224.11 C 175.64 223.91 135.89 224.01 96.14 224.06 C 130.09 250.74 164.29 277.12 198.19 303.87 C 184.96 343.94 171.80 384.04 158.82 424.19 C 189.60 401.51 220.20 378.58 250.93 355.84 C 252.78 354.67 254.35 352.68 256.51 352.25 C 289.02 376.66 321.20 401.53 353.68 425.96 C 340.63 384.46 327.13 343.08 314.24 301.52 C 348.14 275.80 381.96 249.97 415.75 224.10 C 376.09 223.92 336.42 224.01 296.75 224.06 C 283.20 190.98 269.71 157.88 256.17 124.80 C 254.81 127.36 253.65 130.02 252.64 132.74 Z" />
</g>
</svg>
