<svg xmlns="http://www.w3.org/2000/svg" xmlns:xlink="http://www.w3.org/1999/xlink" width="793" height="397" viewBox="0 0 793 397"><defs><clipPath id="a"><rect width="793" height="397" rx="6" transform="translate(564 255)" fill="#fff"/></clipPath></defs><g transform="translate(-564 -255)" clip-path="url(#a)"><g transform="translate(979.343 520.746)" opacity="0.5"><path d="M49.8,14l1.58,1.58,3.68-3.68v8.478h2.235V9.664l.79-.79L56.5,7.293l-.79.79H45v2.235h8.478Z" transform="translate(5.059 0.623)" fill="#c2c2c2"/><path d="M58.471,10.941a4.471,4.471,0,1,1,4.471-4.471A4.475,4.475,0,0,1,58.471,10.941Zm0-6.706a2.235,2.235,0,1,0,2.235,2.235A2.238,2.238,0,0,0,58.471,4.235Z" transform="translate(6.117)" fill="#a7a7a7"/><path d="M42.588,18,37,23.588l4.471,4.471,5.588-5.588" transform="translate(4.117 1.882)" fill="#c2c2c2"/><path d="M0,0H4.742V12.645H0Z" transform="translate(20.995 24.353) rotate(-45)" fill="#c2c2c2"/><path d="M0,0H4.742V12.645H0Z" transform="translate(38.873 42.235) rotate(-45)" fill="#c2c2c2"/><path d="M0,0,30.041,0V17.388L0,17.386Z" transform="translate(16.516 42.239) rotate(-45)" fill="#818181"/><g transform="translate(2 2)"><path d="M0,8.64C0,.168,4.007,0,4.007,0V17.386S0,17.112,0,8.64Z" transform="translate(11.69 43.065) rotate(-45)" fill="#a7a7a7"/><path d="M30.823,23l3.353,3.353-7.823,7.823L23,30.823" transform="translate(0.47 0.47)" fill="#a7a7a7"/><path d="M42.176,34.353,38.823,31,31,38.823l3.353,3.353" transform="translate(1.412 1.412)" fill="#a7a7a7"/><path d="M16.529,26.588l7.823-2.235,2.235-7.823L9.823,2,2,9.823Z" transform="translate(-2 -2)" fill="#a7a7a7"/><path d="M40,50.059l2.235-7.823L50.059,40,64.588,56.765l-7.823,7.823Z" transform="translate(2.47 2.47)" fill="#a7a7a7"/></g><path d="M43.6,5.222,60.987,22.608A12.294,12.294,0,1,1,43.6,5.222Z" transform="translate(4.47 0.379)" fill="#818181"/><path d="M40.546,10.1A13.413,13.413,0,0,0,57.24,18.925l-13.7-13.7A12.291,12.291,0,0,0,40.546,10.1Z" transform="translate(4.535 0.379)" fill="#a7a7a7"/><path d="M20.575,18.995l4.136-4.136-1.693-1.467-4.024,4.024-5.126-5.126,3.657-3.657L15.833,7.165l-3.544,3.544L6.373,4.793l-1.58,1.58,5.916,5.916L7.165,15.833l1.467,1.693,3.657-3.657,5.126,5.126-4.024,4.024,1.467,1.693,4.136-4.136,3.8,3.8,1.229-.351.351-1.229Z" transform="translate(0.329 0.329)" fill="#818181"/><path d="M45.521,47.1l-4.136,4.136,1.693,1.467L47.1,48.682l5.126,5.126L48.57,57.465l1.693,1.467,3.544-3.544L59.723,61.3l1.58-1.58-5.916-5.916,3.544-3.544L57.465,48.57l-3.657,3.657L48.682,47.1l4.024-4.024-1.467-1.693L47.1,45.521l-3.8-3.8-1.229.351L41.721,43.3Z" transform="translate(4.633 4.633)" fill="#818181"/></g><g transform="translate(1054.193 555.564)"><g transform="translate(0.724 0.424)"><path d="M77.54,6.538a117.5,117.5,0,0,1,67.543-2.187C148.464,6.286,151.8,8.3,155.2,10.194c-2.047.875-4.723,1.579-5.005,4.212-.526,3.952,2.291,7.333,4.249,10.507,4.034.771,8.06,2.61,10.581,5.947a26.946,26.946,0,0,1,.482,4.694c-4.649-1.038-9.276-2.432-13.124-5.354.549,2.313.6,4.953,2.232,6.837,2.5,1.876,6.377,1.483,8.282,4.264a65.374,65.374,0,0,0,5.761,6.866c-2.328.482-4.634,1.023-6.94,1.594.46,3.226.63,6.555,1.831,9.617.882,1.476,2.365,2.44,3.611,3.574,1.728-.052,3.455-.1,5.2-.133-.1.319-.289.964-.378,1.283-1.743,1.794-3.7,3.559-4.657,5.925-.408,2.106-.178,4.286-.541,6.4-1.149,2.143-3.344,3.648-4,6.073a44.183,44.183,0,0,0-1.6,8.023c-.356,3.989,1.876,7.645,1.78,11.619a26.043,26.043,0,0,0,.163,5.1c3.455,7.148,10.388,11.523,17,15.393,1.424.845,3.062.044,4.479-.386,4.568-1.705,9.232-4.227,14.274-3.455,2.306.734,3.626,3.025,5.265,4.664,1.075-1.083,2.2-2.121,3.3-3.181.1,2.187.4,4.464-.43,6.562-.608,1.958-1.75,3.893-1.357,6.014a125.985,125.985,0,0,1,1.6,17.826c-.022,2-1.253,3.685-2.084,5.428a31.13,31.13,0,0,0-2.388,6.673c-1.935,6.963-4.36,13.777-6.718,20.606-1.209,2.677.415,5.339,1.453,7.763a117.868,117.868,0,0,1-46.929,29A116.579,116.579,0,0,1,76.183,219.1a113.95,113.95,0,0,1-53.632-39.655A111.5,111.5,0,0,1,19.5,51.265c-.311,4.545-2.365,8.787-2.291,13.377-.082,6.9-.052,13.8-.415,20.688-.111,2.788-.148,5.976,1.972,8.112,2.076,2.655,5.413,3.552,8.216,5.139,4.034,3.114,5.962,8.016,7.5,12.7,1.164,4.367,7.126,3.448,9.3,6.977,1.32,2.158.489,4.783,0,7.059a63.663,63.663,0,0,0-1.861,14.155,11.55,11.55,0,0,0,1.194,6.214,66.606,66.606,0,0,0,17.025,21.429c1,.986,2.469,1.869,2.491,3.441.7,7.7.526,15.49,1.869,23.127,1.164,6.681,5.1,12.39,8.987,17.8a23.133,23.133,0,0,0,9.239,7.815c1.691.9,3.411-.289,4.953-.9-2.388-1.928-5.213-3.4-7.163-5.821a18.436,18.436,0,0,1-.141-9.143c3.3-2.158,7.074-3.626,9.8-6.6,4.293-2.825,9.929-4.864,11.812-10.144.934-2.425.082-6.458,3.248-7.333,4.553-1.416,10.559-2.529,12.316-7.667.971-4.738,2.328-9.5,5.027-13.577,1.223-1.713,3.137-2.87,4.13-4.746.727-2.729.341-6.051-1.854-8.038-1.861-1.661-4.367-2.232-6.673-2.981-5.265-1.505-10.255-3.871-15.623-5.057-1.631-.489-3.507-.719-4.8-1.928-2.1-2.7-1.431-6.859-4.293-9.061-2.432-2.232-5.962-1.438-8.905-2.239-2.084-2.143-3.277-5.05-5.695-6.9-2.721-2.38-6.54-2.328-9.817-3.441-3.507-1-6.673-3.1-10.314-3.611-3.329.46-6.154,2.729-9.543,2.944-2.247.089-4.5-.126-6.748-.23-2.121-3.982-1.505-8.564-1.557-12.895A26.022,26.022,0,0,1,37.373,97.8c-.512-2.514.274-5.042.727-7.5-3.6-.934-7.2.022-10.6,1.268a71.19,71.19,0,0,1,1.831-13.362c.868-3.878,4.812-5.947,8.238-7.193a16.073,16.073,0,0,1,9.7,1.357c1.275,2.721.719,6.191,2.84,8.5.712-.356,1.75-.482,2.076-1.327,1.157-3.114-.156-6.755,1.35-9.743,3.226-3.188,7.689-5.109,10.173-9.046,1.142-1.535,1.854-3.6,3.722-4.412,3.033-1.364,6.318-2.388,8.772-4.746,1.98-1.928,4.664-3.9,4.657-6.948.1-.964.178-1.928.23-2.9,4.115.564,8.542,1.579,12.531-.089,2.951-1.246,3.137-5.257,1.846-7.778-.942-2.054-3.137-2.944-5.02-3.908-2.009-.9-3.737-2.291-5.732-3.211-2.6-.489-5.635.082-7.363,2.232a32.122,32.122,0,0,1-8.3,7.23,77.579,77.579,0,0,1-.964-11.8c3.856-2.024,8.156-3.7,12.591-3.181,3.5.4,6.518,2.469,9.966,3.018,4.086-.83,8.549-3.6,9.447-7.956.66-1.661-1.312-2.462-2.454-3.129-7.259-3.885-15.712-1.461-23.5-1.409C75.278,10.038,76.428,8.3,77.54,6.538Z" transform="translate(-0.724 -0.424)" fill="#dcdcdc"/><path d="M238.347,65.082c.964-.86,2.358-.378,3.426-.022,2.951,1.068,5.228,3.4,8.164,4.493,1.52-.512,2.936-1.305,4.464-1.794,1.95.615,3.559,1.972,5.495,2.625,1.92.378,3.878-.156,5.784-.423,2.884,1.906,3.767,5.228,4.041,8.49a70.983,70.983,0,0,0-9.765,4.8c-3.181-.979-7.141-1.231-9.15-4.256-1.134-1.142-1.757-3.455-3.737-3.159-4.6.623-8.8,2.862-13.228,4.189-.43-.311-.845-.638-1.238-.986C237.538,76.182,234.936,69.027,238.347,65.082Z" transform="translate(-60.665 -17.014)" fill="#dcdcdc"/></g><g transform="translate(16.756 4.351)"><path d="M195.41,5.72a113.675,113.675,0,0,1,70.212,54.322c8,14,12.435,29.808,14.014,45.8v17.262c-.3,2.217-.638,4.427-.875,6.651a110.579,110.579,0,0,1-30.905,62.76c-1.038-2.425-2.662-5.087-1.453-7.763,2.358-6.829,4.783-13.644,6.718-20.606a31.13,31.13,0,0,1,2.388-6.673c.831-1.743,2.061-3.426,2.084-5.428a125.978,125.978,0,0,0-1.6-17.826c-.393-2.121.749-4.056,1.357-6.014.83-2.1.526-4.375.43-6.562-1.1,1.06-2.224,2.1-3.3,3.181-1.639-1.639-2.959-3.93-5.265-4.664-5.042-.771-9.706,1.75-14.274,3.455-1.416.43-3.055,1.231-4.479.386-6.614-3.871-13.547-8.245-17-15.393a26.045,26.045,0,0,1-.163-5.1c.1-3.974-2.135-7.63-1.78-11.619a44.181,44.181,0,0,1,1.6-8.023c.653-2.425,2.847-3.93,4-6.073.363-2.113.133-4.293.541-6.4.957-2.365,2.914-4.13,4.657-5.925.089-.319.282-.964.378-1.283-1.742.03-3.47.082-5.2.133-1.246-1.134-2.729-2.1-3.611-3.574-1.2-3.062-1.372-6.392-1.831-9.617,2.306-.571,4.612-1.112,6.94-1.594a65.365,65.365,0,0,1-5.761-6.866c-1.906-2.781-5.784-2.388-8.283-4.264-1.631-1.883-1.683-4.523-2.232-6.837,3.848,2.921,8.475,4.315,13.124,5.354a26.944,26.944,0,0,0-.482-4.694c-2.521-3.337-6.547-5.176-10.581-5.947-1.958-3.174-4.775-6.555-4.249-10.507.282-2.632,2.959-3.337,5.005-4.212-3.4-1.9-6.74-3.908-10.121-5.843m33.323,44.141c-3.411,3.945-.808,11.1-5.747,13.962.393.348.808.675,1.238.986,4.427-1.327,8.624-3.567,13.228-4.189,1.98-.3,2.6,2.017,3.737,3.159,2.009,3.025,5.969,3.277,9.15,4.256a70.98,70.98,0,0,1,9.765-4.8c-.274-3.263-1.157-6.584-4.041-8.49-1.906.267-3.863.8-5.784.423-1.935-.653-3.544-2.009-5.494-2.625-1.527.489-2.944,1.283-4.464,1.794-2.936-1.09-5.213-3.426-8.164-4.493C231.091,49.483,229.7,49,228.733,49.861Z" transform="translate(-67.083 -5.72)" fill="#b5b5b5"/><path d="M27.42,49.764C41.22,30.833,60.81,16,83.129,8.67c-1.112,1.765-2.262,3.5-3.4,5.242,7.786-.052,16.239-2.477,23.5,1.409,1.142.667,3.114,1.468,2.454,3.129-.9,4.36-5.361,7.126-9.447,7.956-3.448-.549-6.466-2.617-9.966-3.018-4.434-.519-8.735,1.157-12.591,3.181a77.578,77.578,0,0,0,.964,11.8,32.122,32.122,0,0,0,8.3-7.23c1.728-2.15,4.768-2.721,7.363-2.232,1.995.919,3.722,2.313,5.732,3.211,1.883.964,4.078,1.854,5.02,3.908,1.29,2.521,1.1,6.533-1.846,7.778-3.989,1.668-8.416.653-12.531.089-.052.971-.126,1.935-.23,2.9.007,3.048-2.677,5.02-4.657,6.948-2.454,2.358-5.739,3.381-8.772,4.746-1.869.808-2.58,2.877-3.722,4.412-2.484,3.937-6.948,5.858-10.173,9.046-1.505,2.988-.193,6.629-1.35,9.743-.326.845-1.364.971-2.076,1.327-2.121-2.313-1.565-5.784-2.84-8.5a16.072,16.072,0,0,0-9.7-1.357c-3.426,1.246-7.37,3.314-8.238,7.192A71.19,71.19,0,0,0,33.093,93.7c3.4-1.246,6.992-2.2,10.6-1.268-.452,2.454-1.238,4.983-.727,7.5a26.022,26.022,0,0,0,3.515,2.121c.052,4.33-.564,8.913,1.557,12.895,2.247.1,4.5.319,6.748.23,3.389-.215,6.214-2.484,9.543-2.944,3.641.512,6.807,2.61,10.314,3.611,3.277,1.112,7.1,1.06,9.817,3.441,2.417,1.854,3.611,4.76,5.695,6.9,2.944.8,6.473.007,8.905,2.239,2.862,2.2,2.195,6.362,4.293,9.061,1.29,1.209,3.166,1.439,4.8,1.928,5.368,1.186,10.359,3.552,15.623,5.057,2.306.749,4.812,1.32,6.673,2.981,2.195,1.987,2.58,5.309,1.854,8.038-.994,1.876-2.907,3.033-4.13,4.746-2.7,4.078-4.056,8.839-5.027,13.577-1.757,5.139-7.763,6.251-12.316,7.667-3.166.875-2.313,4.909-3.248,7.333-1.883,5.279-7.519,7.319-11.812,10.144-2.729,2.973-6.5,4.442-9.8,6.6A18.436,18.436,0,0,0,86.1,214.7c1.95,2.417,4.775,3.893,7.163,5.821-1.542.615-3.263,1.809-4.953.9a23.133,23.133,0,0,1-9.239-7.815c-3.885-5.406-7.823-11.115-8.987-17.8-1.342-7.637-1.172-15.43-1.869-23.127-.022-1.572-1.49-2.454-2.491-3.441A66.606,66.606,0,0,1,48.7,147.819a11.55,11.55,0,0,1-1.194-6.214,63.662,63.662,0,0,1,1.861-14.155c.489-2.276,1.32-4.9,0-7.059-2.173-3.53-8.134-2.61-9.3-6.977-1.535-4.686-3.463-9.588-7.5-12.7-2.8-1.587-6.14-2.484-8.216-5.139-2.121-2.135-2.084-5.324-1.972-8.112.363-6.888.334-13.792.415-20.688-.074-4.59,1.98-8.831,2.291-13.377A39.723,39.723,0,0,1,27.42,49.764Z" transform="translate(-22.344 -6.483)" fill="#b5b5b5"/></g></g><g transform="translate(684.127 196.246)" opacity="0.61"><g transform="translate(575.16 143.975)"><path d="M440.892,157.359a16.78,16.78,0,1,1-12.582-20.12A16.781,16.781,0,0,1,440.892,157.359Z" transform="translate(-398.75 -136.806)" fill="#dcdcdc"/><g transform="translate(0 7.864)"><path d="M422.524,161.209c-14.611-3.367-25.167-9.865-24.361-13.357s12.856-3.488,27.469-.121,25.447,8.642,24.643,12.133S437.135,164.577,422.524,161.209Zm2.914-12.641c-12.663-2.919-23.958-2.792-24.581-.094s9.5,7.652,22.166,10.571,23.934,2.9,24.556.2S438.1,151.486,425.438,148.568Z" transform="translate(-398.12 -145.22)" fill="#aeaeae" stroke="#aeaeae" stroke-linecap="round" stroke-linejoin="round" stroke-width="2"/></g><path d="M425.108,152.694a125.558,125.558,0,0,0,16.174,2.816,16.778,16.778,0,0,0-32.409-7.727C414.339,149.23,419.625,151.3,425.108,152.694Z" transform="translate(-398.823 -136.806)" fill="#dcdcdc"/></g><g transform="translate(13.123 352.438)"><path d="M352.834,356.942a15.342,15.342,0,1,1-18.8-10.832A15.34,15.34,0,0,1,352.834,356.942Z" transform="translate(-322.673 -345.58)" fill="#c4c4c4"/><g transform="translate(2.036 2.378)"><path d="M332.259,358.287a3.768,3.768,0,1,1-4.616-2.662A3.768,3.768,0,0,1,332.259,358.287Z" transform="translate(-324.851 -348.607)" fill="#9b9b9a" opacity="0.9"/><path d="M344.132,349.32a1.615,1.615,0,1,1-1.979-1.139A1.615,1.615,0,0,1,344.132,349.32Z" transform="translate(-325.905 -348.125)" fill="#9b9b9a" opacity="0.6"/><path d="M339.171,363.406A2.422,2.422,0,1,1,336.2,361.7,2.422,2.422,0,0,1,339.171,363.406Z" transform="translate(-325.476 -349.007)" fill="#9b9b9a" opacity="0.8"/><path d="M352.188,355.775a1.077,1.077,0,1,1-1.32-.76A1.076,1.076,0,0,1,352.188,355.775Z" transform="translate(-326.501 -348.573)" fill="#9b9b9a" opacity="0.8"/><path d="M331.269,368.583a1.615,1.615,0,1,1-1.979-1.14A1.615,1.615,0,0,1,331.269,368.583Z" transform="translate(-325.063 -349.385)" fill="#9b9b9a" opacity="0.6"/><path d="M346.145,370.24a1.884,1.884,0,1,1-2.308-1.331A1.883,1.883,0,0,1,346.145,370.24Z" transform="translate(-326.002 -349.48)" fill="#9b9b9a"/><g transform="translate(9.407 9.542)"><path d="M335.747,359.66a.673.673,0,0,0-.35-1.3.673.673,0,0,0,.35,1.3Z" transform="translate(-334.916 -358.334)" fill="#9b9b9a"/></g><g transform="translate(21.466 21.063)" opacity="0.8"><path d="M349.065,372.652a1.01,1.01,0,0,0-.524-1.95,1.01,1.01,0,0,0,.524,1.95Z" transform="translate(-347.82 -370.662)" fill="#9b9b9a"/></g><g transform="translate(26.19 9.841)"><path d="M353.5,359.648a.5.5,0,0,0-.261-.974.5.5,0,0,0,.261.974Z" transform="translate(-352.874 -358.655)" fill="#9b9b9a"/></g><g transform="translate(0.023 16.108)"><path d="M325.706,366.684a.672.672,0,0,0-.349-1.3.672.672,0,0,0,.349,1.3Z" transform="translate(-324.876 -365.36)" fill="#9b9b9a"/></g><g transform="translate(15.85 25.037)"><path d="M342.557,376.107a.606.606,0,0,0-.314-1.169.606.606,0,0,0,.314,1.169Z" transform="translate(-341.811 -374.914)" fill="#9b9b9a"/></g></g></g><g transform="translate(-69.794 170.684)"><path d="M126.068,404.21A18.459,18.459,0,1,1,102.5,392.98,18.458,18.458,0,0,1,126.068,404.21Z" transform="translate(-90.206 -391.914)" fill="#c1c1c1"/><g transform="translate(0.292 0.117)"><path d="M121.238,404.45a5.563,5.563,0,0,0-1.111.507.338.338,0,0,1-.212.14l-.021,0-.021.012a.3.3,0,0,1-.336,0,1.273,1.273,0,0,1-.942-.788c-.3-.549-.6-1.61-1.521-1.432-.884.172-.941.641-1.252,1.28-.863,1.768-2.586,1.416-4.194.983a4,4,0,0,0-2.417-.222c-1.168.5-.982,1.082-1.313,2.006a2.448,2.448,0,0,1-2.106,1.623,5.319,5.319,0,0,0-2.316.858,3.529,3.529,0,0,0-.66.566q-.035,1.626,1.367,1.453c1.164-.221,2.093-1.02,3.222-1.347a1.714,1.714,0,0,1,1.721.457c.426.611.145,1.321.458,1.931.552,1.08,2.66.2,3.031-.6.173-.374.3-.757.437-1.144a3.747,3.747,0,0,1,1.44-2.082,1.921,1.921,0,0,1,1.976-.2c.493.351.731,1.1,1.412,1.179,1.156.141,1.537-.558,2.163-1.258a6.067,6.067,0,0,1,2.108-1.485c.714-.342,1.65-.876.708-2.012A1.471,1.471,0,0,0,121.238,404.45Z" transform="translate(-91.323 -392.748)" fill="#e9e9e9"/><path d="M97.511,402.157a30.6,30.6,0,0,1,2.918-1.528c1.138-.432,2.338-.6,3.508-.927a9.785,9.785,0,0,0,3.663-1.718,7.427,7.427,0,0,1,2.557-1.6c.936-.262,1.914.1,2.872-.223,1.3-.44.2-1.235-.593-1.39a13.7,13.7,0,0,0-1.68-.28c-2.243-.154-3.034.868-4.4,2.316a5.145,5.145,0,0,1-2.1,1.481c-1.037.363-2.193.081-3.257.227a6.969,6.969,0,0,0-2.52.979c-1.514.855-3.953,2.622-5.9,2.19a18.481,18.481,0,0,0-.815,1.683C93.656,403.965,95.833,403.011,97.511,402.157Z" transform="translate(-90.601 -392.198)" fill="#e9e9e9"/><path d="M123.588,414.317a9.244,9.244,0,0,1-4.508,2.678c-2.708.618-5.525-.049-8.244.453-1.573.29-3.011,1-4.565,1.362-.619.144-1.258.234-1.863.427-.657.211-1.679,1.242-.549,1.649,1.935.694,4.459-.681,6.3-1.231,2.525-.751,5.171-.22,7.752-.42a8.969,8.969,0,0,0,4.849-1.574c1.006-.765,1.888-1.7,2.926-2.417a4.875,4.875,0,0,1,2.108-.88,18.479,18.479,0,0,0,.2-2.412C126.6,411.471,124.528,413.468,123.588,414.317Z" transform="translate(-91.358 -393.337)" fill="#e9e9e9"/><path d="M120.429,399.153a6.746,6.746,0,0,0,1.831-.571c.523-.237,1.031-.507,1.539-.776q-.593-.608-1.238-1.158c-.977.588-2.3.886-3,1.656C119,398.917,119.893,399.226,120.429,399.153Z" transform="translate(-92.407 -392.34)" fill="#e9e9e9"/><path d="M111.057,427.286a40.233,40.233,0,0,0,4.565-1.612,4.55,4.55,0,0,0,.833-.454q-.024-1.026-1.1-.621a8.5,8.5,0,0,0-1.762.423c-1.285.461-2.533,1.01-3.86,1.345-1.079.271-2.246.108-3.274.615-1.483.733-2.157,2.134-3.42,2.81a18.533,18.533,0,0,0,2.16.662c.98-.558,1.6-1.4,2.586-1.978A15.347,15.347,0,0,1,111.057,427.286Z" transform="translate(-91.338 -394.161)" fill="#e9e9e9"/><path d="M124.839,422.321c-.6.182-2.008.533-1.9,1.4.091.743.657.772,1.266.6a9.554,9.554,0,0,0,.948-.357,18.573,18.573,0,0,0,1.475-2.108C126.029,422.03,125.4,422.148,124.839,422.321Z" transform="translate(-92.639 -393.989)" fill="#e9e9e9"/><path d="M104.811,405.1c.252-.327.5-.653.766-.967a5.888,5.888,0,0,1,2.318-1.508,9.6,9.6,0,0,1,3.05-.459,3.549,3.549,0,0,0,1.937-.371c.4-.287,1.567-1.2.092-1.261a.317.317,0,0,1-.108-.025c-3.27,1.128-7.689.977-9.789,4.142C102.3,405.82,104.191,405.9,104.811,405.1Z" transform="translate(-91.328 -392.593)" fill="#e9e9e9"/><path d="M95.692,413.931c.824-.233,1.647-.482,2.451-.78.4-.149.813-.294,1.2-.481.116-.055,1.566-.956.2-.893a13.672,13.672,0,0,0-4.169,1.415c-.728.287-1.554-.065-2.258.22-.971.393-1.682,1.078-2.594,1.494.084.471.185.941.307,1.409.75-.5,1.327-1.327,2.12-1.8S94.835,414.172,95.692,413.931Z" transform="translate(-90.519 -393.33)" fill="#e9e9e9"/><path d="M111.086,422.869c-1.91-.951-4.676.7-6.489,1.25-2.5.761-4.729,1.279-6.758,2.831.362.279.733.547,1.111.8C101.59,423.963,107.461,425.451,111.086,422.869Z" transform="translate(-90.998 -394.037)" fill="#e9e9e9"/><path d="M105.536,393.472c.571-.486,1.079-.993,1.654-1.433a18.552,18.552,0,0,0-8.023,2.889C101.411,395.076,103.834,394.92,105.536,393.472Z" transform="translate(-91.085 -392.039)" fill="#e9e9e9"/><path d="M121.273,412.206c-1.145.293-2.3.536-3.441.86-.293.085-3.051,1.041-1.786,1.229a11.534,11.534,0,0,0,6.5-1.57c2.1-1.243,3.861-2.993,6.137-3.369q-.079-.7-.211-1.4C125.644,408.3,124.047,411.495,121.273,412.206Z" transform="translate(-92.167 -393.08)" fill="#e9e9e9"/><path d="M98.873,407.156a.291.291,0,0,1-.33.174,1.745,1.745,0,0,1-1.283.374c-.5-.031-1.246-.249-1.629.2-.6.7-.147,1.189.6,1.335a4.654,4.654,0,0,0,2.62-.32,2.686,2.686,0,0,0,1.188-.779C100.755,407.131,99.448,405.9,98.873,407.156Z" transform="translate(-90.835 -392.993)" fill="#e9e9e9"/><path d="M96.181,419.331a6.68,6.68,0,0,1,1.625-.781c.707-.239,1.429-.459,2.111-.763.3-.131,2.6-1.529,1.1-1.678a10.627,10.627,0,0,0-4.919.683c-1.61.782-2.554,2.228-4.236,2.546q.371.85.815,1.644A12.309,12.309,0,0,0,96.181,419.331Z" transform="translate(-90.607 -393.611)" fill="#e9e9e9"/></g></g></g><g transform="translate(608.82 207.102)"><path d="M224.1,129.171l-1.571-2.873-2.873-1.571,2.873-1.571,1.571-2.873,1.571,2.873,2.873,1.571-2.873,1.571Z" transform="translate(98.307 6.524)" fill="#e2e2e2"/><path d="M177.316,311.717l-3.035-2.819-4.076-.735,2.818-3.035.737-4.076,3.035,2.819,4.076.735-2.818,3.035Z" transform="translate(242.752 -84.971)" fill="#e2e2e2"/><path d="M480.626,251.892l-1.834-3.353-3.355-1.835,3.355-1.834,1.834-3.354,1.833,3.354,3.355,1.834-3.355,1.835Z" transform="translate(262.364 243.359)" fill="#e2e2e2"/><path d="M17.847,442.486l-1.886-3.446-3.448-1.885,3.447-1.886,1.885-3.448,1.886,3.446,3.448,1.885-3.447,1.886Z" transform="translate(18.226 126.966)" fill="#e2e2e2"/><path d="M389.889,21.333l-2.46-3.133-3.762-1.311,3.133-2.46,1.311-3.762,2.46,3.133,3.762,1.311-3.133,2.46Z" transform="translate(208.86 126.379)" fill="#e2e2e2"/><path d="M29.33,304.468l-3.769-2.3-4.032,1.8,1.024-4.3L19.6,296.395l4.4-.353,2.2-3.827,1.7,4.076,4.32.914-3.353,2.873Z" transform="translate(61.175 201.948)" fill="#e2e2e2"/><path d="M382.041,408.989l-1.751-3.545-3.912-.569,2.831-2.76-.669-3.9,3.5,1.839,3.5-1.839-.669,3.9,2.831,2.76-3.912.569Z" transform="translate(158.897 113.975)" fill="#e2e2e2"/><path d="M382.041,408.989l-1.751-3.545-3.912-.569,2.831-2.76-.669-3.9,3.5,1.839,3.5-1.839-.669,3.9,2.831,2.76-3.912.569Z" transform="translate(-174.939 23.862)" fill="#e2e2e2"/><path d="M481.253,185.781l-2.894-1.863-3.175,1.328.877-3.328-2.244-2.609,3.435-.194,1.789-2.94,1.247,3.208,3.349.792-2.666,2.177Z" transform="translate(197.568 97.132)" fill="#e2e2e2"/><path d="M229.18,49.982l-4.214-1.87-3.93,2.412.477-4.586-3.507-2.991,4.508-.964,1.762-4.261,2.31,3.99,4.6.358L228.1,45.5Z" transform="translate(47.752 410)" fill="#e2e2e2"/><path d="M299.3,318.071l-2.191-1.775-2.706.8,1.01-2.634-1.6-2.325,2.818.146,1.718-2.237.731,2.724,2.658.944-2.366,1.537Z" transform="translate(60.978 87.888)" fill="#e2e2e2"/><path d="M299.3,318.071l-2.191-1.775-2.706.8,1.01-2.634-1.6-2.325,2.818.146,1.718-2.237.731,2.724,2.658.944-2.366,1.537Z" transform="translate(-36.022 -17.112)" fill="#e2e2e2"/><path d="M194.633,459.256l-1.046-2.118-2.337-.34,1.693-1.648-.4-2.328,2.091,1.1,2.091-1.1-.4,2.328,1.693,1.648-2.337.34Z" transform="translate(87.326 135.085)" fill="#e2e2e2"/><path d="M274.824,186.818l-1.567-3.176-3.5-.509,2.536-2.472-.6-3.491,3.133,1.649,3.136-1.649-.6,3.491,2.535,2.472-3.5.509Z" transform="translate(246.63 115.873)" fill="#e2e2e2"/><path d="M274.824,186.818l-1.567-3.176-3.5-.509,2.536-2.472-.6-3.491,3.133,1.649,3.136-1.649-.6,3.491,2.535,2.472-3.5.509Z" transform="translate(-152.31 81.528)" fill="#e2e2e2"/><path d="M51.751,146.433l-2.966-2.486-3.729,1.034,1.448-3.588-2.136-3.227,3.86.269,2.41-3.028.938,3.754,3.624,1.356-3.281,2.051Z" transform="translate(20.835 -32)" fill="#e2e2e2"/><path d="M51.751,146.433l-2.966-2.486-3.729,1.034,1.448-3.588-2.136-3.227,3.86.269,2.41-3.028.938,3.754,3.624,1.356-3.281,2.051Z" transform="translate(-79 99.727)" fill="#e2e2e2"/></g></g></svg>