<svg xmlns="http://www.w3.org/2000/svg" width="83" height="83" viewBox="0 0 83 83"><g transform="translate(-1054 -429)"><circle cx="41.5" cy="41.5" r="41.5" transform="translate(1054 429)" fill="#209d5a" opacity="0.1"/><g transform="translate(1073 448)"><g transform="translate(0 0)"><path d="M22.716,0A22.716,22.716,0,1,0,45.432,22.716,22.742,22.742,0,0,0,22.716,0Zm0,43.457A20.741,20.741,0,1,1,43.457,22.716,20.763,20.763,0,0,1,22.716,43.457Z" fill="#209d5a"/><path d="M101.926,130.963a2.963,2.963,0,1,0-2.963,2.963A2.967,2.967,0,0,0,101.926,130.963Zm-3.951,0a.988.988,0,1,1,.988.988A.989.989,0,0,1,97.975,130.963Z" transform="translate(-84.148 -112.198)" fill="#209d5a"/><path d="M226.963,128a2.963,2.963,0,1,0,2.963,2.963A2.967,2.967,0,0,0,226.963,128Zm0,3.951a.988.988,0,1,1,.988-.988A.989.989,0,0,1,226.963,131.951Z" transform="translate(-196.346 -112.198)" fill="#209d5a"/><path d="M123.424,224.251a.987.987,0,0,0-1.395.077,10.988,10.988,0,0,1-16.306,0,.988.988,0,0,0-1.472,1.318,12.963,12.963,0,0,0,19.249,0A.988.988,0,0,0,123.424,224.251Z" transform="translate(-91.161 -196.345)" fill="#209d5a"/></g></g></g></svg>