<svg xmlns="http://www.w3.org/2000/svg" width="83" height="83" viewBox="0 0 83 83"><g transform="translate(-785 -403)"><circle cx="41.5" cy="41.5" r="41.5" transform="translate(785 403)" fill="#e73632" opacity="0.19"/><g transform="translate(802 422)"><g transform="translate(2)"><path d="M22.716,0A22.716,22.716,0,1,0,45.432,22.716,22.742,22.742,0,0,0,22.716,0Zm0,43.457A20.741,20.741,0,1,1,43.457,22.716,20.763,20.763,0,0,1,22.716,43.457Z" fill="#e4615e"/><path d="M101.926,130.963a2.963,2.963,0,1,0-2.963,2.963A2.967,2.967,0,0,0,101.926,130.963Zm-3.951,0a.988.988,0,1,1,.988.988A.989.989,0,0,1,97.975,130.963Z" transform="translate(-84.148 -112.198)" fill="#e4615e"/><path d="M226.963,128a2.963,2.963,0,1,0,2.963,2.963A2.967,2.967,0,0,0,226.963,128Zm0,3.951a.988.988,0,1,1,.988-.988A.989.989,0,0,1,226.963,131.951Z" transform="translate(-196.346 -112.198)" fill="#e4615e"/><path d="M113.879,224a12.921,12.921,0,0,0-9.625,4.279.988.988,0,1,0,1.472,1.318,10.988,10.988,0,0,1,16.306,0,.988.988,0,0,0,1.472-1.318A12.923,12.923,0,0,0,113.879,224Z" transform="translate(-91.163 -196.346)" fill="#e4615e"/></g></g></g></svg>