<?xml version="1.0" encoding="UTF-8" ?>
<!DOCTYPE svg PUBLIC "-//W3C//DTD SVG 1.1//EN" "http://www.w3.org/Graphics/SVG/1.1/DTD/svg11.dtd">
<svg width="195pt" height="195pt" viewBox="0 0 195 195" version="1.1" xmlns="http://www.w3.org/2000/svg">
<g id="#fefefeff">
<path d=" M 0.00 0.00 L 112.39 0.00 C 123.79 11.38 135.26 22.70 146.54 34.19 C 146.46 51.30 146.53 68.42 146.51 85.53 C 160.50 87.29 173.78 94.39 182.74 105.32 C 189.56 113.57 193.84 123.84 195.00 134.48 L 195.00 146.11 C 193.25 162.03 184.29 177.06 170.84 185.83 C 163.57 190.88 155.00 193.76 146.28 195.00 L 0.00 195.00 L 0.00 0.00 M 11.42 12.09 C 11.44 69.26 11.42 126.42 11.43 183.59 C 42.67 183.61 73.91 183.57 105.15 183.61 C 94.53 174.73 87.20 161.92 85.38 148.16 C 83.43 134.05 87.22 119.26 95.81 107.90 C 104.74 95.82 118.78 87.93 133.64 86.08 C 133.65 73.75 133.64 61.42 133.65 49.08 C 121.50 49.04 109.35 49.09 97.20 49.06 C 97.18 36.73 97.21 24.40 97.19 12.08 C 68.60 12.07 40.01 12.05 11.42 12.09 M 109.53 14.83 C 109.49 22.11 109.56 29.39 109.49 36.67 C 116.81 36.80 124.13 36.72 131.45 36.71 C 124.19 29.37 116.87 22.09 109.53 14.83 M 132.19 99.32 C 115.87 102.43 101.91 115.74 98.67 132.12 C 95.84 145.13 99.99 159.28 108.92 169.08 C 116.03 177.06 126.27 182.30 136.98 182.96 C 150.64 183.92 164.49 177.65 173.05 167.01 C 180.29 158.18 183.74 146.22 181.87 134.91 C 180.16 123.40 173.58 112.69 164.03 106.03 C 154.93 99.54 143.13 97.02 132.19 99.32 Z" />
<path d=" M 65.21 56.30 C 77.74 54.03 90.37 65.33 89.66 78.00 C 89.82 85.71 84.83 92.57 78.43 96.42 C 72.12 99.85 64.00 99.80 57.75 96.25 C 50.86 92.09 46.54 83.97 47.28 75.90 C 47.76 66.27 55.62 57.56 65.21 56.30 M 64.30 67.55 C 59.70 69.24 56.50 74.17 57.07 79.09 C 57.50 84.95 63.15 89.84 69.03 89.25 C 75.46 88.92 80.70 82.33 79.27 75.98 C 78.17 69.37 70.56 64.96 64.30 67.55 Z" />
<path d=" M 26.97 77.40 C 32.80 69.22 41.20 63.17 50.43 59.34 C 43.53 66.50 41.42 77.70 45.15 86.90 C 46.36 90.30 48.69 93.10 50.92 95.87 C 41.37 92.25 32.66 85.96 26.97 77.40 Z" />
<path d=" M 86.59 59.33 C 95.94 62.96 104.29 69.18 110.06 77.42 C 104.41 85.76 95.88 91.74 86.72 95.67 C 90.58 91.31 93.39 85.90 93.84 80.02 C 94.65 72.47 91.82 64.79 86.59 59.33 Z" />
<path d=" M 65.25 71.27 C 70.10 68.58 76.47 73.69 75.03 78.99 C 74.14 83.79 67.70 86.31 63.97 82.97 C 59.94 80.04 60.73 73.27 65.25 71.27 Z" />
<path d=" M 134.73 116.64 C 142.78 124.64 150.81 132.67 158.81 140.72 C 150.80 148.96 142.75 157.16 134.72 165.38 C 134.72 149.13 134.70 132.89 134.73 116.64 Z" />
</g>
<g id="#e8b012ff">
</g>
</svg>
