<svg width="1000pt" height="1000pt" viewBox="0 0 1000 1000" version="1.1" xmlns="http://www.w3.org/2000/svg">
	<g>
		<path d=" M 401.40 0.00 L 402.54 0.00 C 455.32 0.16 508.12 10.63 556.76 31.20 C 625.71 60.04 686.13 108.73 729.23 169.77 C 751.78 201.64 769.73 236.80 782.04 273.86 C 810.65 358.80 809.47 453.46 778.31 537.54 C 765.69 571.74 748.52 604.27 727.36 633.96 C 812.62 719.61 897.95 805.20 983.17 890.89 C 993.81 902.38 999.76 917.87 1000.00 933.49 L 1000.00 934.60 C 999.89 951.91 992.65 969.11 979.94 980.92 C 968.60 992.23 953.09 999.11 937.11 1000.00 L 931.87 1000.00 C 915.62 999.28 899.81 992.25 888.37 980.71 C 803.60 895.95 718.84 811.19 634.09 726.43 C 607.12 745.83 577.80 761.98 546.87 774.13 C 461.67 807.78 364.75 810.63 277.70 782.15 C 207.78 759.60 144.56 717.10 96.80 661.33 C 43.21 599.28 9.37 520.42 1.80 438.74 C 0.68 427.06 0.13 415.34 0.00 403.62 L 0.00 398.36 C 0.21 373.10 2.69 347.85 7.71 323.09 C 21.16 255.05 53.04 190.85 98.71 138.68 C 146.94 83.15 210.57 41.09 280.71 18.85 C 319.65 6.38 360.53 0.14 401.40 0.00 M 374.59 132.80 C 350.90 135.09 327.52 140.53 305.29 149.03 C 238.24 174.19 182.38 227.41 153.96 293.14 C 137.61 330.36 130.09 371.35 131.81 411.94 C 133.63 460.79 149.04 509.08 176.05 549.85 C 197.27 582.26 225.64 609.93 258.48 630.48 C 293.55 652.41 333.75 666.19 374.97 669.94 C 421.29 674.42 468.83 666.77 511.18 647.38 C 576.22 618.19 628.41 562.00 653.11 495.16 C 670.17 449.73 674.44 399.65 665.64 351.94 C 658.55 313.76 643.03 277.15 620.46 245.54 C 596.90 212.30 565.76 184.42 530.03 164.82 C 483.07 138.66 428.05 127.49 374.59 132.80 Z" />
		<path d=" M 233.45 444.08 C 233.48 415.23 233.35 386.39 233.51 357.55 C 346.37 357.70 459.23 357.57 572.09 357.61 C 572.10 386.42 572.10 415.24 572.10 444.05 C 459.21 444.07 346.33 444.03 233.45 444.08 Z" />
	</g>
</svg>
