<svg width="1000pt" height="1000pt" viewBox="0 0 1000 1000" version="1.1" xmlns="http://www.w3.org/2000/svg">
	<g>
		<path d=" M 401.43 0.00 L 402.45 0.00 C 455.28 0.15 508.12 10.62 556.80 31.21 C 624.38 59.50 683.77 106.83 726.68 166.19 C 748.57 196.44 766.30 229.72 778.94 264.86 C 809.44 348.85 810.64 443.21 781.71 527.80 C 768.95 565.60 750.49 601.45 727.37 633.96 C 809.48 716.43 891.60 798.89 973.72 881.35 C 978.77 886.59 984.38 891.38 988.44 897.50 C 999.53 913.12 1002.79 933.87 997.41 952.22 C 989.91 978.62 964.51 998.68 937.10 1000.00 L 931.94 1000.00 C 915.63 999.31 899.80 992.20 888.34 980.62 C 803.58 895.89 718.83 811.15 634.08 726.42 C 609.65 743.95 583.33 758.89 555.59 770.51 C 469.67 806.92 370.80 811.42 281.82 783.42 C 210.55 761.28 145.98 718.47 97.34 661.93 C 72.27 632.99 51.49 600.36 35.61 565.53 C 12.56 514.82 0.36 459.25 0.00 403.55 L 0.00 398.43 C 0.14 387.23 0.53 376.03 1.67 364.89 C 8.45 287.42 39.02 212.34 87.75 151.80 C 137.85 88.92 207.10 41.47 283.97 17.82 C 321.94 6.04 361.69 0.13 401.43 0.00 M 374.56 132.81 C 339.54 136.16 305.21 146.56 274.19 163.16 C 217.94 192.99 172.98 243.45 149.93 302.81 C 138.94 330.91 132.74 360.87 131.76 391.04 C 129.84 440.80 141.95 491.05 166.57 534.37 C 186.58 569.80 214.74 600.60 248.22 623.73 C 280.97 646.36 318.81 661.65 358.15 667.84 C 403.87 675.07 451.51 670.57 494.85 654.16 C 531.10 640.59 564.26 618.95 591.48 591.44 C 618.52 564.19 639.71 531.14 653.10 495.16 C 669.91 450.38 674.32 401.09 666.02 354.01 C 659.30 315.97 644.14 279.46 622.05 247.77 C 599.39 215.14 569.50 187.55 535.11 167.67 C 487.02 139.55 429.98 127.26 374.56 132.81 Z" />
		<path d=" M 360.52 231.83 C 388.69 231.82 416.85 231.83 445.02 231.83 C 445.03 273.74 445.01 315.65 445.03 357.56 C 487.38 357.55 529.74 357.55 572.09 357.56 C 572.10 386.39 572.10 415.22 572.10 444.05 C 529.74 444.06 487.38 444.05 445.02 444.05 C 445.02 485.96 445.03 527.87 445.02 569.78 C 416.85 569.78 388.69 569.78 360.52 569.78 C 360.51 527.87 360.51 485.97 360.52 444.06 C 318.15 443.98 275.77 444.19 233.40 443.96 C 233.50 415.16 233.41 386.36 233.45 357.55 C 275.80 357.55 318.16 357.56 360.51 357.55 C 360.52 315.64 360.51 273.74 360.52 231.83 Z" />
	</g>
</svg>
