<?xml version="1.0" encoding="utf-8"?>
<!-- Generator: Adobe Illustrator 14.0.0, SVG Export Plug-In . SVG Version: 6.00 Build 43363)  -->
<!DOCTYPE svg PUBLIC "-//W3C//DTD SVG 1.1//EN" "http://www.w3.org/Graphics/SVG/1.1/DTD/svg11.dtd">
<svg id="dmp1" xmlns="http://www.w3.org/2000/svg" xmlns:xlink="http://www.w3.org/1999/xlink" width="80px" height="80px" viewBox="380 170 136 136">
	<g id="dmp1_facet">
		<title>DMP-1: Metadata for Discovery.
Data and all associated metadata will be discoverable, through catalogues and search engines, and data access and use conditions, including licenses, will be clearly indicated.</title>
		<a xlink:href="http://www.geolabel.info/Discoverable.htm" target="_blank">
<rect fill="#4160A4" x="383" y="173" stroke="#1D1D1B" width="130" height="130"/>
<rect x="403.295" y="197.373" fill="#FFFFFF" width="64.537" height="78.575"/>
<path d="M468.476,276.59h-65.823v-79.862h65.823V276.59z M403.938,275.303h63.25v-77.289h-63.25V275.303z"/>
<rect x="411.376" y="214.04" width="46.301" height="2"/>
<rect x="411.376" y="228.56" width="46.301" height="2"/>
<rect x="411.802" y="242.503" width="46.302" height="2"/>
<rect x="411.376" y="257.871" width="46.301" height="2"/>
<rect x="450.833" y="252.465" transform="matrix(-0.8492 -0.5281 0.5281 -0.8492 736.6304 727.8912)" fill="#FFFFFF" width="42.844" height="12.587"/>
<path d="M487.329,276.303l-37.474-23.305l7.324-11.783l37.476,23.306L487.329,276.303z M451.626,252.584l35.289,21.946l5.968-9.596
	l-35.289-21.946L451.626,252.584z"/>
<path fill="#FFFFFF" d="M439.223,216.279c11.533,0,20.883,9.35,20.883,20.883c0,11.535-9.35,20.885-20.883,20.885
	c-11.535,0-20.884-9.35-20.884-20.885C418.339,225.629,427.688,216.279,439.223,216.279"/>
<path d="M439.223,258.691c-11.871,0-21.528-9.657-21.528-21.528c0-11.87,9.657-21.527,21.528-21.527
	c11.869,0,21.526,9.657,21.526,21.527C460.749,249.034,451.092,258.691,439.223,258.691 M439.223,216.923
	c-11.161,0-20.241,9.08-20.241,20.24c0,11.161,9.08,20.241,20.241,20.241c11.16,0,20.239-9.08,20.239-20.241
	C459.462,226.003,450.383,216.923,439.223,216.923"/>
<path fill="#FFFFFF" d="M439.223,221.427c8.689,0,15.734,7.045,15.734,15.734c0,8.69-7.045,15.735-15.734,15.735
	c-8.69,0-15.735-7.045-15.735-15.735C423.487,228.472,430.532,221.427,439.223,221.427"/>
<path d="M439.223,253.54c-9.031,0-16.378-7.347-16.378-16.378c0-9.031,7.347-16.378,16.378-16.378
	c9.03,0,16.378,7.347,16.378,16.378C455.601,246.193,448.253,253.54,439.223,253.54 M439.223,222.071
	c-8.321,0-15.092,6.77-15.092,15.091c0,8.321,6.771,15.091,15.092,15.091c8.32,0,15.091-6.77,15.091-15.091
	C454.313,228.841,447.543,222.071,439.223,222.071"/>
		</a>
	</g>
</svg>
