<?xml version="1.0" encoding="utf-8"?>
<!-- Generator: Adobe Illustrator 14.0.0, SVG Export Plug-In . SVG Version: 6.00 Build 43363)  -->
<!DOCTYPE svg PUBLIC "-//W3C//DTD SVG 1.1//EN" "http://www.w3.org/Graphics/SVG/1.1/DTD/svg11.dtd">
<svg id="dmp2" xmlns="http://www.w3.org/2000/svg" xmlns:xlink="http://www.w3.org/1999/xlink" width="80px" height="80px" viewBox="497 250 136 136">
	<g id="dmp2_facet">
		<title>DMP-2: Online Access.
Data will be accessible via online services, including, at a minimum, direct download but preferably user-customizable services for access, visualization and analysis.</title>
		<a xlink:href="http://www.geolabel.info/DataAccess.htm" target="_blank">
<rect fill="#00AD50" x="500" y="253" stroke="#1D1D1B" width="130" height="130"/>
<path fill="#FFFFFF" d="M585.277,328.535c4.911-3.309,16.594-11.853,17.161-16.763c0.824-7.129-5.004-12.058-3.807-14.034
	c1.199-1.975,5.575-5.197,5.575-5.197l-2.708-3.6l-2.71-3.598c0,0-4.306,3.315-6.536,3.918c-2.23,0.605-5.354-6.361-12.433-7.54
	c-4.876-0.813-15.805,7.662-20.344,11.465c-1.703-1.064-2.646-1.229-4.476,0.146c-2.318,1.746-2.26,3.597-0.657,5.726l24.385,32.398
	c1.602,2.128,3.363,2.699,5.683,0.952C586.24,331.033,585.828,330.465,585.277,328.535"/>
<path d="M581.851,334.084L581.851,334.084c-1.313,0-2.502-0.733-3.637-2.24l-24.384-32.399c-0.938-1.247-1.354-2.374-1.271-3.444
	c0.093-1.171,0.765-2.212,2.055-3.183c1.946-1.465,3.239-1.324,4.803-0.42c3.649-3.03,14.207-11.376,19.704-11.376
	c0.282,0,0.553,0.022,0.805,0.064c4.366,0.727,7.25,3.513,9.356,5.547c1.15,1.11,2.231,2.167,2.803,2.007
	c2.082-0.564,6.27-3.775,6.312-3.807l0.515-0.396l6.201,8.237l-0.523,0.385c-0.043,0.032-4.289,3.169-5.405,5.012
	c-0.304,0.5,0.403,1.836,1.153,3.25c1.372,2.586,3.249,6.129,2.74,10.524c-0.616,5.336-12.724,14.018-17.05,16.959
	c0.008,0.026,0.015,0.051,0.021,0.076c0.512,1.71,0.673,2.596-1.251,4.042C583.76,333.704,582.796,334.084,581.851,334.084
	 M557.277,292.988c-0.518,0-1.102,0.265-1.889,0.858c-0.979,0.736-1.483,1.475-1.545,2.256c-0.06,0.743,0.272,1.584,1.015,2.569
	l24.384,32.398c0.875,1.163,1.727,1.728,2.607,1.728h0.001c0.646,0,1.378-0.304,2.174-0.903c1.292-0.972,1.226-1.196,0.793-2.646
	c-0.051-0.167-0.104-0.345-0.158-0.537l-0.129-0.449l0.389-0.261c7.502-5.055,16.423-12.358,16.88-16.304
	c0.464-3.998-1.308-7.336-2.599-9.774c-1.045-1.97-1.799-3.394-1.117-4.519c1.007-1.661,4.003-4.054,5.224-4.99l-4.646-6.171
	c-1.237,0.913-4.364,3.131-6.24,3.64c-0.146,0.039-0.296,0.059-0.45,0.059c-1.113,0-2.149-0.999-3.581-2.383
	c-1.985-1.917-4.704-4.542-8.675-5.203c-0.182-0.031-0.382-0.046-0.594-0.046c-4.174,0-12.671,5.873-19.231,11.369l-0.357,0.3
	l-0.397-0.247C558.279,293.196,557.758,292.988,557.277,292.988"/>
<rect x="605.225" y="280.184" transform="matrix(0.6018 0.7987 -0.7987 0.6018 469.4265 -370.135)" width="1.287" height="10.938"/>
<path fill="#FFFFFF" d="M569.996,340.037c-4.539,3.804-15.981,12.665-20.858,11.853c-7.077-1.181-10.202-8.147-12.432-7.541
	c-2.229,0.604-6.536,3.918-6.536,3.918l-2.709-3.599l-2.709-3.599c0,0,4.376-3.222,5.573-5.197c1.199-1.976-4.63-6.905-3.806-14.034
	c0.569-4.91,11.738-13.067,16.648-16.377c-0.551-1.929-0.449-2.883,1.379-4.259c2.319-1.746,4.082-1.176,5.684,0.952l24.386,32.398
	c1.601,2.129,1.659,3.98-0.658,5.725C572.13,341.653,571.699,341.1,569.996,340.037"/>
<path d="M549.81,352.585c-0.272,0-0.534-0.021-0.777-0.062c-4.363-0.728-7.249-3.513-9.356-5.546
	c-1.147-1.11-2.214-2.167-2.802-2.008c-2.08,0.563-6.271,3.775-6.313,3.808l-0.515,0.396l-6.2-8.237l0.523-0.386
	c0.043-0.032,4.287-3.17,5.405-5.013c0.304-0.5-0.404-1.835-1.153-3.247c-1.372-2.588-3.25-6.131-2.741-10.526
	c0.601-5.18,11.476-13.134,16.547-16.58c-0.449-1.823-0.227-3.023,1.731-4.497c2.479-1.865,4.633-1.517,6.585,1.079l24.386,32.398
	c1.923,2.557,1.659,4.786-0.785,6.626c-0.882,0.664-1.527,0.948-2.156,0.948c-0.729,0-1.322-0.382-2.074-0.864
	c-0.023-0.015-0.045-0.029-0.066-0.043C566.282,343.959,555.387,352.584,549.81,352.585 M536.987,343.667
	c1.114,0,2.15,1,3.584,2.384c1.984,1.916,4.703,4.541,8.673,5.203c0.174,0.029,0.363,0.044,0.565,0.044
	c4.243-0.001,13.303-6.333,19.772-11.755l0.359-0.3l0.396,0.247c0.169,0.106,0.325,0.206,0.472,0.301
	c0.619,0.397,1.028,0.66,1.38,0.66c0.323,0,0.749-0.213,1.382-0.689c1.888-1.42,2.041-2.818,0.531-4.824l-24.386-32.397
	c-1.519-2.02-2.907-2.238-4.782-0.826c-1.561,1.175-1.647,1.816-1.146,3.568l0.128,0.449l-0.388,0.262
	c-7.617,5.133-15.916,12.011-16.369,15.918c-0.462,3.998,1.308,7.337,2.6,9.775c1.046,1.969,1.8,3.393,1.118,4.518
	c-1.007,1.661-4.004,4.054-5.224,4.989l4.645,6.172c1.237-0.913,4.366-3.131,6.24-3.639
	C536.683,343.688,536.835,343.667,536.987,343.667"/>
<rect x="522.447" y="342.487" transform="matrix(0.6013 0.799 -0.799 0.6013 486.6016 -279.2322)" width="1.286" height="10.94"/>
		</a>
	</g>
</svg>
