<?xml version="1.0" encoding="utf-8"?>
<!-- Generator: Adobe Illustrator 14.0.0, SVG Export Plug-In . SVG Version: 6.00 Build 43363)  -->
<!DOCTYPE svg PUBLIC "-//W3C//DTD SVG 1.1//EN" "http://www.w3.org/Graphics/SVG/1.1/DTD/svg11.dtd">
<svg id="dmp3" xmlns="http://www.w3.org/2000/svg" xmlns:xlink="http://www.w3.org/1999/xlink" width="80px" height="80px" viewBox="557 389 136 136">
	<g id="dmp3_facet">
		<title>DMP-3: Data Encoding.
Data should be structured using encodings that are widely accepted in the target user community and aligned with organizational needs and observing methods, with preference given to non-proprietary international standards.</title>
		<a xlink:href="http://www.geolabel.info/Encoding.htm" target="_blank">
<rect fill="#FF0050" x="560" y="392" stroke="#1D1D1B" width="130" height="130"/>
<path fill="#FFFFFF" d="M586.771,453.661c7.604,0,8.675-4.322,8.675-8.201c0-3.103-0.429-6.207-0.856-9.31
	c-0.429-3.104-0.857-6.096-0.857-9.199c0-10.197,6.427-14.519,15.529-14.519h2.25v6.096h-1.929c-6.318,0-8.46,3.547-8.46,9.532
	c0,2.549,0.32,5.208,0.749,7.869c0.429,2.77,0.75,5.429,0.75,8.423c0.106,7.094-2.892,10.64-7.71,11.971v0.22
	c4.818,1.22,7.816,4.988,7.71,12.081c0,2.993-0.321,5.763-0.75,8.424c-0.429,2.771-0.749,5.32-0.749,7.979
	c0,6.205,2.464,9.642,8.46,9.642h1.929v6.095h-2.25c-8.888,0-15.529-3.988-15.529-15.184c0-2.991,0.429-6.095,0.857-9.087
	c0.428-2.994,0.856-5.985,0.856-8.978c0-3.437-1.071-8.202-8.675-8.202V453.661z"/>
<path d="M612.153,501.41h-2.893c-10.58,0-16.172-5.474-16.172-15.828c0-3.154,0.478-6.495,0.862-9.179
	c0.418-2.918,0.851-5.936,0.851-8.887c0-5.086-2.627-7.558-8.031-7.558h-0.644v-6.94h0.644c7.077,0,8.031-3.82,8.031-7.557
	c0-3.064-0.433-6.195-0.851-9.223l-0.041-0.298c-0.423-3.055-0.821-5.941-0.821-8.989c0-9.777,5.744-15.162,16.172-15.162h2.893
	v7.383h-2.57c-5.479,0-7.817,2.658-7.817,8.888c0,2.161,0.235,4.629,0.741,7.767c0.394,2.546,0.758,5.338,0.758,8.526
	c0.093,6.161-2.143,10.215-6.649,12.069c3.386,1.361,6.764,4.618,6.649,12.213c0,2.632-0.233,5.261-0.758,8.515
	c-0.444,2.873-0.741,5.315-0.741,7.878c0,6.14,2.483,8.999,7.817,8.999h2.57V501.41z M587.413,458.683
	c4.103,0.156,8.675,1.888,8.675,8.833c0,3.042-0.438,6.106-0.863,9.07c-0.378,2.643-0.85,5.934-0.85,8.996
	c0,9.648,5.009,14.54,14.886,14.54h1.605v-4.808h-1.283c-6.126,0-9.104-3.365-9.104-10.286c0-2.644,0.303-5.142,0.757-8.079
	c0.514-3.187,0.741-5.753,0.741-8.324c0.096-6.368-2.335-10.22-7.224-11.457l-0.486-0.124v-1.211l0.473-0.13
	c4.966-1.371,7.333-5.08,7.237-11.34c0-3.111-0.356-5.844-0.741-8.335c-0.517-3.204-0.757-5.737-0.757-7.968
	c0-6.942,2.893-10.175,9.104-10.175h1.283v-4.809h-1.605c-6.79,0-14.886,2.407-14.886,13.875c0,2.96,0.393,5.803,0.809,8.813
	l0.041,0.298c0.425,3.071,0.863,6.247,0.863,9.399c0,3.697-0.916,8.579-8.675,8.834V458.683z"/>
<path fill="#FFFFFF" d="M661.388,459.314c-7.604,0-8.675,4.766-8.675,8.202c0,2.993,0.429,5.985,0.857,8.978
	c0.428,2.992,0.855,6.096,0.855,9.088c0,11.195-6.641,15.184-15.529,15.184h-2.248v-6.096h1.928c5.996,0,8.459-3.437,8.459-9.642
	c0-2.66-0.32-5.209-0.748-7.98c-0.429-2.661-0.75-5.431-0.75-8.423c-0.106-7.094,2.891-10.862,7.71-12.082v-0.22
	c-4.819-1.331-7.816-4.877-7.71-11.97c0-2.995,0.321-5.654,0.75-8.424c0.428-2.661,0.748-5.32,0.748-7.869
	c0-5.985-2.141-9.532-8.459-9.532h-1.928v-6.096h2.248c9.104,0,15.529,4.322,15.529,14.519c0,3.103-0.428,6.095-0.855,9.199
	c-0.429,3.103-0.857,6.207-0.857,9.31c0,3.879,1.07,8.201,8.675,8.201V459.314z"/>
<path d="M638.896,501.409h-2.893v-7.383h2.571c5.334,0,7.816-2.859,7.816-8.998c0-2.563-0.296-5.005-0.741-7.882
	c-0.516-3.203-0.756-5.913-0.756-8.522c-0.115-7.585,3.264-10.842,6.647-12.203c-4.506-1.854-6.741-5.909-6.647-12.079
	c0-3.181,0.363-5.971,0.756-8.512c0.506-3.142,0.741-5.609,0.741-7.77c0-6.23-2.337-8.889-7.816-8.889h-2.571v-7.382h2.893
	c10.43,0,16.173,5.384,16.173,15.162c0,3.052-0.399,5.942-0.822,9.001l-0.04,0.286c-0.418,3.03-0.852,6.163-0.852,9.222
	c0,3.738,0.955,7.558,8.032,7.558h0.644v6.939h-0.644c-5.404,0-8.032,2.473-8.032,7.559c0,2.946,0.434,5.964,0.852,8.883
	c0.472,3.297,0.862,6.262,0.862,9.182C655.069,495.936,649.477,501.409,638.896,501.409 M637.291,500.122h1.605
	c9.877,0,14.886-4.892,14.886-14.541c0-2.835-0.384-5.751-0.85-8.996c-0.425-2.967-0.863-6.032-0.863-9.069
	c0-6.945,4.573-8.678,8.675-8.833v-4.388c-7.759-0.255-8.675-5.138-8.675-8.835c0-3.147,0.438-6.325,0.863-9.399l0.039-0.285
	c0.418-3.014,0.811-5.862,0.811-8.825c0-11.468-8.095-13.875-14.886-13.875h-1.605v4.808h1.284c6.212,0,9.104,3.234,9.104,10.176
	c0,2.231-0.241,4.764-0.757,7.972c-0.385,2.485-0.74,5.215-0.74,8.32c-0.095,6.27,2.272,9.98,7.237,11.351l0.472,0.129v1.212
	l-0.486,0.123c-4.889,1.238-7.319,5.089-7.223,11.448c0,2.583,0.228,5.149,0.74,8.33c0.455,2.941,0.757,5.438,0.757,8.083
	c0,6.921-2.978,10.285-9.104,10.285h-1.284V500.122z"/>
		</a>
	</g>
</svg>
