<?xml version="1.0" encoding="utf-8"?>
<!-- Generator: Adobe Illustrator 14.0.0, SVG Export Plug-In . SVG Version: 6.00 Build 43363)  -->
<!DOCTYPE svg PUBLIC "-//W3C//DTD SVG 1.1//EN" "http://www.w3.org/Graphics/SVG/1.1/DTD/svg11.dtd">
<svg id="dmp4" xmlns="http://www.w3.org/2000/svg" xmlns:xlink="http://www.w3.org/1999/xlink" width="80px" height="80px" viewBox="502 510 136 136">
	<g id="dmp4_facet">
		<title> DMP-4: Data Documentation.
Data will be comprehensively documented, including all elements necessary to access, use, understand, and process, preferably via formal structured metadata based on international or community-approved standards. To the possible extent, data will be described in peer-reviewed publications referenced in metadata records.</title>
		<a xlink:href="http://www.geolabel.info/Metadata.htm" target="_blank">
<rect fill="#FF0050" x="505" y="513" stroke="#1D1D1B" width="130" height="130"/>
<path fill="#FFFFFF" d="M562.475,555.178c4.907-0.762,12.712,2.945,12.712,2.945c-15.322,15.466-36.66,35.473-46.82,44.942
	c-3.556-0.356-8.349-2.069-8.472-5.347c-0.142-3.734,5.563-7.785,9.809-11.957c8.691-8.529,12.9-13.039,21.325-21.484
	C555.313,559.988,559.104,555.696,562.475,555.178"/>
<path d="M528.592,603.736l-0.29-0.028c-4.267-0.43-8.919-2.479-9.051-5.965c-0.121-3.194,3.349-6.338,7.022-9.668
	c1-0.908,2.034-1.846,2.979-2.771c5.241-5.144,8.885-8.857,12.743-12.791c2.573-2.625,5.236-5.339,8.578-8.688
	c0.562-0.563,1.114-1.124,1.658-1.677c3.76-3.821,7.007-7.123,10.145-7.604c0.473-0.074,0.99-0.111,1.537-0.111
	c4.942,0,11.282,2.982,11.549,3.109l0.82,0.391l-0.64,0.645c-13.954,14.084-33.172,32.225-46.838,44.961L528.592,603.736z
	 M563.913,555.719c-0.48,0-0.932,0.031-1.34,0.096c-2.718,0.417-5.975,3.729-9.425,7.234c-0.547,0.555-1.102,1.119-1.665,1.683
	c-3.337,3.346-5.997,6.059-8.57,8.682c-3.862,3.937-7.51,7.657-12.76,12.808c-0.962,0.945-2.005,1.891-3.016,2.807
	c-3.293,2.984-6.699,6.07-6.6,8.668c0.104,2.813,4.5,4.324,7.604,4.698c13.431-12.518,32.124-30.164,45.93-44.062
	C572.2,557.532,567.556,555.719,563.913,555.719"/>
<path fill="#FFFFFF" d="M590.503,542.842c3.878,3.594,4.896,4.875,8.638,8.441c-15.758,15.775-47.189,46.438-52.68,51.542
	c-6.189,5.497-11.813,10.212-11.813,10.212l-15.929,7.318l8.542-15.848c0,0,8.616-8.485,13.678-13.367
	C557.468,575.211,574.773,558.192,590.503,542.842"/>
<path d="M517.241,621.743l9.569-17.693c0.086-0.086,8.676-8.542,13.682-13.371c11.858-11.43,24.083-23.386,35.906-34.949
	c4.643-4.541,9.211-9.01,13.654-13.348l0.439-0.426l0.448,0.415c2.157,1.999,3.43,3.282,4.777,4.641
	c1.083,1.093,2.202,2.221,3.866,3.807l0.477,0.454l-0.465,0.467c-15.793,15.811-47.291,46.531-52.698,51.559
	c-6.136,5.45-11.777,10.187-11.834,10.234l-0.146,0.091L517.241,621.743z M527.782,604.899l-7.584,14.069l14.104-6.479
	c0.65-0.547,5.978-5.033,11.731-10.144c5.338-4.964,36.257-35.118,52.188-51.052c-1.421-1.363-2.434-2.385-3.418-3.377
	c-1.24-1.251-2.418-2.438-4.288-4.186c-4.306,4.202-8.727,8.527-13.217,12.918c-11.824,11.565-24.051,23.524-35.912,34.955
	C536.623,596.2,528.609,604.084,527.782,604.899"/>
<path fill="#FFFFFF" d="M623.46,587.795l-2.543,23.754l-53.997-0.297c-10.6,0.275-21.185,2.093-20.302-7.816
	c0.458-5.146,1.742-7.875,10.885-8.38h17.685c0,0-5.66-4.036-12.054-8.013c3.74-3.924,17.913-17.529,23.484-23.011
	C589.925,565.877,623.46,587.795,623.46,587.795"/>
<path d="M557.656,612.202c-3.74,0-7.862-0.326-10.077-2.745c-1.313-1.438-1.839-3.425-1.603-6.077
	c0.516-5.789,2.297-8.457,11.491-8.965l15.678-0.002c-2.145-1.486-6.103-4.18-10.353-6.824l-0.672-0.418l0.546-0.572
	c2.492-2.611,9.501-9.412,15.685-15.413c3.095-3.005,5.941-5.767,7.816-7.611l0.343-0.339l0.421,0.236
	c3.289,1.834,35.51,22.891,36.88,23.786l0.33,0.216l-2.646,24.723l-54.58-0.3c-1.256,0.032-2.532,0.089-3.789,0.144
	C561.207,612.123,559.395,612.202,557.656,612.202 M557.503,595.7c-8.646,0.479-9.805,2.857-10.244,7.794
	c-0.202,2.271,0.213,3.938,1.271,5.093c1.877,2.053,5.667,2.329,9.127,2.329c1.71,0,3.51-0.079,5.414-0.161
	c1.264-0.057,2.549-0.111,3.833-0.145l53.437,0.292l2.438-22.782c-3.369-2.202-31.357-20.478-36.059-23.283
	c-1.869,1.836-4.561,4.447-7.472,7.271c-5.766,5.596-12.251,11.889-15.1,14.811c6.062,3.805,11.358,7.575,11.413,7.613l1.637,1.168
	H557.503z"/>
		</a>
	</g>
</svg>
