<?xml version="1.0" encoding="utf-8"?>
<!-- Generator: Adobe Illustrator 14.0.0, SVG Export Plug-In . SVG Version: 6.00 Build 43363)  -->
<!DOCTYPE svg PUBLIC "-//W3C//DTD SVG 1.1//EN" "http://www.w3.org/Graphics/SVG/1.1/DTD/svg11.dtd">
<svg id="dmp5" xmlns="http://www.w3.org/2000/svg" xmlns:xlink="http://www.w3.org/1999/xlink" width="80px" height="80px" viewBox="382 595 136 136">
	<g id="dmp5_facet">
		<title>DMP-5: Data Traceability.
Data will include provenance metadata indicating the origin and processing history of raw observations and derived products, to ensure full traceability of the product chain.</title>
		<a xlink:href="http://www.geolabel.info/Provenance.htm" target="_blank">
<rect fill="#FF0050" x="385" y="598" stroke="#1D1D1B" width="130" height="130"/>
<path fill="#FFFFFF" d="M447.015,683.679c5.881-0.541,10.647-3.193,14.471-7.762c1.911-3.076,3.48-6.369,4.116-9.757
	c-2.745-1.844-5.038-3.674-8.188-5.467c-1.058-0.603-3.508-1.604-4.239-1.079c-0.279,1.572-0.523,4.972-2.04,7.27
	c-1.69,2.562-4.6,3.783-7.452,3.445c-1.091-0.224-2.197-0.675-3.323-1.433c-7.244-4.871-14.497-9.732-21.751-14.597
	c-3.675-2.466-4.682-7.221-2.297-10.833c1.691-2.563,4.599-3.784,7.451-3.447c1.091,0.223,2.199,0.674,3.323,1.431
	c4.316,2.902,8.654,6.556,12.974,9.454c2.978-2.176,5.332-3.64,9.205-4.315c2.609-0.456,7.222-0.037,9.505,0.279
	c-1.366-0.875-8.502-5.857-11.074-7.569c-4.771-3.436-9.605-6.955-14.753-9.938c-3.281-1.906-6.774-2.765-10.193-2.765
	c-0.762-0.016-1.531,0-2.316,0.074c-5.883,0.541-10.648,3.191-14.473,7.761c-2.203,3.604-3.424,6.526-3.982,10.451
	c-0.195,1.376-0.225,2.776-0.33,4.163c0.371,1.878,1.398,5.854,1.448,5.995c1.681,4.692,4.824,8.164,8.932,10.883
	c2.574,1.708,5.146,3.413,7.716,5.124c4.775,3.438,9.611,6.957,14.76,9.945c3.282,1.904,6.775,2.763,10.194,2.763
	C445.46,683.769,446.229,683.749,447.015,683.679"/>
<path d="M445.138,684.403c-0.15,0-0.302-0.001-0.452-0.004c-3.708,0-7.247-0.957-10.506-2.849c-4.944-2.871-9.634-6.25-14.169-9.519
	l-0.643-0.463c-2.552-1.696-5.122-3.401-7.696-5.108c-4.56-3.017-7.563-6.683-9.183-11.203c-0.074-0.213-1.113-4.265-1.474-6.088
	l-0.017-0.086l0.007-0.087c0.032-0.433,0.058-0.867,0.083-1.301c0.057-0.951,0.113-1.935,0.252-2.903
	c0.54-3.79,1.682-6.789,4.07-10.697l0.056-0.077c3.981-4.758,8.997-7.445,14.906-7.989c0.747-0.07,1.557-0.093,2.389-0.075
	c3.709,0,7.248,0.959,10.504,2.851c4.926,2.855,9.597,6.22,14.114,9.474l0.692,0.5c1.232,0.819,3.542,2.412,5.776,3.952
	c2.353,1.621,4.574,3.152,5.269,3.596l2.472,1.583l-2.906-0.403c-1.657-0.228-4.227-0.474-6.475-0.474
	c-1.153,0-2.105,0.064-2.833,0.191c-3.883,0.679-6.153,2.169-8.937,4.201l-0.363,0.266l-0.374-0.251
	c-2.187-1.466-4.404-3.146-6.552-4.771c-2.108-1.598-4.292-3.249-6.422-4.683c-1.008-0.679-2.02-1.115-3.094-1.334
	c-0.23-0.025-0.518-0.041-0.803-0.041c-2.418,0-4.655,1.2-5.982,3.212c-2.188,3.313-1.257,7.68,2.117,9.945l2.601,1.743
	c6.388,4.282,12.773,8.564,19.152,12.854c1.012,0.679,2.023,1.117,3.093,1.336c0.231,0.024,0.521,0.041,0.807,0.041
	c2.417,0,4.652-1.199,5.979-3.211c1.176-1.781,1.547-4.347,1.793-6.044c0.054-0.374,0.102-0.706,0.151-0.983l0.045-0.258
	l0.212-0.152c0.249-0.179,0.579-0.269,0.982-0.269c1.203,0,3.062,0.804,3.951,1.311c2.161,1.23,3.95,2.497,5.681,3.722
	c0.831,0.589,1.665,1.179,2.547,1.771l0.352,0.236l-0.077,0.416c-0.582,3.098-1.956,6.361-4.202,9.978l-0.054,0.073
	c-3.98,4.757-8.996,7.447-14.905,7.989C446.446,684.375,445.813,684.403,445.138,684.403 M402.296,649.006
	c0.367,1.829,1.336,5.589,1.412,5.836c1.516,4.229,4.355,7.686,8.674,10.546c2.576,1.707,5.146,3.412,7.718,5.123l0.663,0.477
	c4.51,3.25,9.173,6.609,14.063,9.449c3.06,1.774,6.381,2.675,9.871,2.675c0.841,0.015,1.543-0.01,2.261-0.074
	c5.62-0.517,10.203-2.969,14.005-7.498c2.046-3.3,3.332-6.277,3.924-9.085c-0.761-0.518-1.49-1.034-2.218-1.549
	c-1.783-1.263-3.468-2.454-5.574-3.653c-0.852-0.484-2.525-1.148-3.35-1.141c-0.025,0.173-0.054,0.359-0.081,0.559
	c-0.262,1.81-0.658,4.547-1.992,6.568c-1.565,2.373-4.203,3.789-7.054,3.789c-0.337,0-0.677-0.02-1.011-0.06
	c-1.274-0.258-2.47-0.772-3.606-1.536c-6.379-4.289-12.764-8.57-19.15-12.853l-2.602-1.744c-3.969-2.664-5.058-7.813-2.475-11.723
	c1.566-2.374,4.204-3.791,7.057-3.791c0.334,0,0.674,0.02,1.008,0.059c1.277,0.26,2.473,0.773,3.606,1.535
	c2.162,1.454,4.358,3.118,6.481,4.727c2.01,1.521,4.082,3.091,6.119,4.478c2.684-1.941,5.14-3.472,9.107-4.164
	c0.8-0.139,1.828-0.211,3.055-0.211c1.316,0,2.741,0.081,4.036,0.194c-0.913-0.626-2.005-1.377-3.126-2.149
	c-2.229-1.537-4.535-3.127-5.779-3.955l-0.711-0.512c-4.492-3.235-9.137-6.581-14.008-9.405c-3.059-1.777-6.379-2.678-9.871-2.678
	c-0.844-0.018-1.559,0.005-2.256,0.071c-5.623,0.518-10.206,2.969-14.011,7.496c-2.271,3.725-3.356,6.579-3.868,10.166
	c-0.13,0.916-0.186,1.873-0.24,2.797C402.351,648.183,402.326,648.594,402.296,649.006"/>
<path fill="#FFFFFF" d="M451.375,646.295c-5.88,0.541-10.647,3.191-14.471,7.761c-1.91,3.077-3.645,6.256-4.28,9.646
	c2.745,1.842,4.585,3.403,7.735,5.195c1.058,0.602,2.692,1.491,3.323,1.433c0.279-1.574,2.057-4.941,3.573-7.237
	c1.69-2.565,4.598-3.785,7.451-3.445c1.091,0.223,2.198,0.673,3.324,1.429c7.244,4.872,14.497,9.732,21.751,14.597
	c3.676,2.469,4.682,7.222,2.297,10.836c-1.692,2.562-4.601,3.783-7.451,3.446c-1.091-0.224-2.199-0.674-3.324-1.431
	c-4.315-2.902-9.379-5.783-13.697-8.682c-2.979,2.176-4.527,2.852-8.4,3.527c-2.609,0.458-7.285,0.054-9.569-0.26
	c1.366,0.873,8.485,5.853,11.058,7.565c4.771,3.436,9.606,6.954,14.753,9.938c3.28,1.904,6.774,2.764,10.194,2.764
	c0.761,0.015,1.531,0,2.316-0.072c5.882-0.542,10.647-3.191,14.472-7.76c2.205-3.605,3.424-6.526,3.983-10.454
	c0.195-1.374,0.225-2.774,0.33-4.163c-0.371-1.878-1.398-5.853-1.45-5.993c-1.679-4.694-4.822-8.166-8.93-10.887
	c-2.574-1.703-5.146-3.411-7.717-5.122c-4.774-3.438-9.61-6.954-14.759-9.943c-3.284-1.906-6.775-2.764-10.194-2.764
	C452.931,646.205,452.162,646.224,451.375,646.295"/>
<path d="M476.156,704.027c-0.177,0-0.352-0.002-0.527-0.005c-3.707,0-7.246-0.96-10.504-2.852
	c-4.931-2.859-9.606-6.228-14.129-9.485l-0.677-0.487c-1.241-0.826-3.565-2.429-5.811-3.979c-2.328-1.607-4.529-3.126-5.219-3.566
	l-2.469-1.579l2.903,0.399c1.544,0.212,4.161,0.46,6.451,0.46c1.194,0,2.177-0.066,2.919-0.197c3.736-0.652,5.181-1.258,8.132-3.413
	l0.364-0.266l0.374,0.251c2.134,1.432,4.496,2.889,6.78,4.296c2.328,1.435,4.734,2.919,6.918,4.386
	c1.009,0.678,2.02,1.114,3.094,1.335c0.229,0.024,0.519,0.041,0.803,0.041c2.418,0,4.653-1.201,5.982-3.212
	c2.186-3.312,1.255-7.682-2.119-9.947l-4.651-3.12c-5.703-3.823-11.403-7.646-17.1-11.477c-1.009-0.678-2.021-1.113-3.094-1.333
	c-0.232-0.024-0.523-0.042-0.812-0.042c-2.414,0-4.648,1.2-5.974,3.212c-1.47,2.225-3.218,5.532-3.477,6.995l-0.086,0.482
	l-0.61,0.051c-0.637,0-1.707-0.454-3.578-1.519c-2.104-1.196-3.612-2.278-5.209-3.423c-0.806-0.577-1.639-1.174-2.567-1.798
	L431.913,664l0.079-0.417c0.669-3.568,2.493-6.851,4.366-9.864l0.053-0.075c3.98-4.758,8.995-7.445,14.905-7.988
	c0.76-0.07,1.561-0.097,2.389-0.079c3.709,0,7.248,0.959,10.506,2.852c4.942,2.868,9.629,6.244,14.163,9.509l0.648,0.468
	c2.552,1.697,5.122,3.405,7.695,5.107c4.563,3.022,7.564,6.688,9.182,11.208c0.086,0.235,1.119,4.28,1.476,6.086l0.017,0.086
	l-0.007,0.087c-0.033,0.43-0.059,0.861-0.083,1.293c-0.056,0.954-0.113,1.94-0.252,2.912c-0.541,3.793-1.682,6.792-4.07,10.697
	l-0.057,0.077c-3.981,4.757-8.997,7.445-14.905,7.989C477.433,704,476.823,704.027,476.156,704.027 M442.149,684.031
	c0.904,0.619,1.982,1.365,3.092,2.129c2.241,1.548,4.559,3.147,5.811,3.979l0.696,0.502c4.496,3.239,9.146,6.589,14.022,9.415
	c3.06,1.777,6.381,2.679,9.871,2.679c0.85,0.015,1.567-0.006,2.258-0.07c5.621-0.518,10.203-2.97,14.006-7.496
	c2.271-3.723,3.358-6.578,3.871-10.168c0.131-0.918,0.187-1.877,0.241-2.804c0.022-0.409,0.047-0.819,0.077-1.228
	c-0.376-1.872-1.339-5.594-1.413-5.83c-1.514-4.235-4.353-7.692-8.675-10.555c-2.573-1.703-5.146-3.411-7.716-5.123l-0.669-0.481
	c-4.508-3.246-9.17-6.603-14.057-9.44c-3.06-1.776-6.382-2.677-9.872-2.677c-0.845-0.017-1.546,0.009-2.259,0.074
	c-5.623,0.517-10.205,2.969-14.007,7.498c-1.724,2.778-3.4,5.782-4.088,8.974c0.803,0.547,1.534,1.07,2.243,1.579
	c1.568,1.125,3.05,2.186,5.095,3.35c1.355,0.771,2.107,1.112,2.524,1.256c0.547-1.826,2.136-4.765,3.518-6.855
	c1.563-2.373,4.198-3.79,7.047-3.79c0.339,0,0.681,0.021,1.017,0.061c1.275,0.259,2.471,0.771,3.606,1.533
	c5.695,3.83,11.396,7.653,17.099,11.476l4.651,3.121c3.969,2.666,5.056,7.815,2.477,11.725c-1.567,2.373-4.206,3.79-7.057,3.79
	c-0.335,0-0.674-0.019-1.007-0.06c-1.278-0.258-2.474-0.771-3.607-1.535c-2.163-1.454-4.559-2.931-6.875-4.358
	c-2.163-1.334-4.396-2.709-6.45-4.073c-2.882,2.064-4.526,2.718-8.304,3.378c-0.814,0.142-1.872,0.215-3.141,0.215
	C444.854,684.219,443.427,684.14,442.149,684.031"/>
		</a>
	</g>
</svg>
