<?xml version="1.0" encoding="utf-8"?>
<!-- Generator: Adobe Illustrator 14.0.0, SVG Export Plug-In . SVG Version: 6.00 Build 43363)  -->
<!DOCTYPE svg PUBLIC "-//W3C//DTD SVG 1.1//EN" "http://www.w3.org/Graphics/SVG/1.1/DTD/svg11.dtd">
<svg id="dmp6" xmlns="http://www.w3.org/2000/svg" xmlns:xlink="http://www.w3.org/1999/xlink" width="80px" height="80px" viewBox="244 604 136 136">
	<g id="dmp6_facet">
		<title>DMP-6: Data Quality-Control.
Data will be quality-controlled and the results of quality control shall be indicated in metadata; data made available in advance of quality control will be flagged in metadata as unchecked.</title>
		<a xlink:href="http://www.geolabel.info/Quality.htm" target="_blank">
<rect fill="#FF0050" x="247" y="607" stroke="#1D1D1B" width="130" height="130"/>
<path fill="#FFFFFF" d="M336.583,681.51l-0.773,1.752c-0.77,1.77-2.4,5.455-2.774,6.204c-1.337,2.69-3.03,4.084-5.493,4.527
	c-1.097,0.195-14.599,0.401-25.031,0.493l22.017-26.596l-19.752-24.697h1.82c15.547,0,17.39,0.292,17.548,0.325
	c2.225,0.472,3.764,1.246,4.829,2.405c0.428,0.556,1.755,4.518,2.891,8.984l0.428,1.705h8.852l-2.063-24.871h-59.184l0.155,2.402
	c0.149,2.237,0.55,5.178,1.61,6.491c5.069,6.271,20.534,25.551,24.899,31l-0.533,0.632c-5.262,6.264-18.31,21.785-24.201,28.735
	c-1.473,1.743-1.605,5.561-1.596,7.122l0.014,2.253l59.946-0.326l4.353-26.511L336.583,681.51z"/>
<path d="M279.607,711.025l-0.018-2.896c-0.013-2.028,0.198-5.706,1.747-7.541c5.589-6.594,17.561-20.832,24.2-28.734l0.194-0.229
	c-4.468-5.574-19.546-24.373-24.568-30.584c-0.936-1.16-1.525-3.468-1.751-6.854l-0.199-3.088h60.462l2.17,26.156h-10.052
	l-0.551-2.19c-1.162-4.568-2.441-8.291-2.778-8.75c-0.942-1.022-2.369-1.726-4.451-2.168c-0.062-0.012-1.795-0.312-17.415-0.312
	l-0.482,0.001l19.244,24.06l-21.468,25.934c11.082-0.105,22.605-0.304,23.54-0.47c2.271-0.409,3.776-1.661,5.029-4.181
	c0.371-0.745,2.018-4.47,2.76-6.175l0.994-2.254l9.061,2.313l-4.536,27.629L279.607,711.025z M280.584,632.387l0.111,1.717
	c0.202,3.028,0.723,5.205,1.468,6.129c5.155,6.376,20.905,26.014,24.901,31.001l0.331,0.412l-0.874,1.037
	c-6.639,7.901-18.613,22.142-24.203,28.736c-1.367,1.62-1.45,5.539-1.442,6.702l0.01,1.608l58.759-0.318l4.169-25.393l-6.862-1.75
	l-0.554,1.252c-0.766,1.763-2.4,5.459-2.786,6.232c-1.436,2.887-3.272,4.391-5.954,4.874c-1.221,0.218-15.703,0.42-25.14,0.503
	l-1.384,0.012l22.566-27.259l-20.261-25.332l3.158-0.002c15.27,0,17.406,0.282,17.679,0.34c2.36,0.501,4.003,1.327,5.172,2.6
	c0.625,0.808,2.065,5.427,3.04,9.261l0.307,1.22h7.651l-1.956-23.582H280.584z"/>
		</a>
	</g>
</svg>
