<?xml version="1.0" encoding="utf-8"?>
<!-- Generator: Adobe Illustrator 14.0.0, SVG Export Plug-In . SVG Version: 6.00 Build 43363)  -->
<!DOCTYPE svg PUBLIC "-//W3C//DTD SVG 1.1//EN" "http://www.w3.org/Graphics/SVG/1.1/DTD/svg11.dtd">
<svg id="dmp7" xmlns="http://www.w3.org/2000/svg" xmlns:xlink="http://www.w3.org/1999/xlink" width="80px" height="80px" viewBox="117 517 136 136">
	<g id="dmp7_facet">
		<title>DMP-7: Data Preservation.
Data will be protected from loss and preserved for future use; preservation planning will be for the long term and include guidelines for loss prevention, retention schedules, and disposal or transfer procedures</title>
		<a xlink:href="http://www.geolabel.info/Preservation.htm" target="_blank">
<rect fill="#FF6700" x="120" y="520" stroke="#1D1D1B" width="130" height="130"/>
<path fill="#FFFFFF" d="M230.813,574.414v-12.655h-9.743l-35.946-13.729l-36.308,13.729h-9.811v12.655h8.902v36.788h-5.041
	l-3.861,9.115h91.808l-3.861-9.115h-5.041v-36.788H230.813z M191.666,611.202h-13.514v-36.788h13.514V611.202z M156.273,574.414
	h13.514v36.788h-13.514V574.414z M213.545,611.202h-13.513v-36.788h13.513V611.202z"/>
<path d="M231.785,620.961h-93.751l4.406-10.404h4.824v-35.5h-8.902v-13.942h10.336l36.427-13.772l0.229,0.086l35.835,13.687h10.268
	v13.942h-8.903v35.5h4.824L231.785,620.961z M139.977,619.674h89.864l-3.316-7.83h-5.257V573.77h8.901v-11.368h-9.217l-0.111-0.042
	l-35.718-13.643l-36.189,13.685h-9.286v11.368h8.903v38.074h-5.258L139.977,619.674z M214.189,611.844h-14.801V573.77h14.801
	V611.844z M200.675,610.557h12.227v-35.5h-12.227V610.557z M192.31,611.844h-14.801V573.77h14.801V611.844z M178.796,610.557h12.227
	v-35.5h-12.227V610.557z M170.43,611.844h-14.801V573.77h14.801V611.844z M156.916,610.557h12.227v-35.5h-12.227V610.557z"/>
		</a>
	</g>
</svg>
