<?xml version="1.0" encoding="utf-8"?>
<!-- Generator: Adobe Illustrator 14.0.0, SVG Export Plug-In . SVG Version: 6.00 Build 43363)  -->
<!DOCTYPE svg PUBLIC "-//W3C//DTD SVG 1.1//EN" "http://www.w3.org/Graphics/SVG/1.1/DTD/svg11.dtd">
<svg id="dmp8" xmlns="http://www.w3.org/2000/svg" xmlns:xlink="http://www.w3.org/1999/xlink" width="80px" height="80px" viewBox="77 387 136 136">
	<g id="dmp8_facet">
		<title>DMP-8: Data and Metadata Verification.
Data and associated metadata held in data management systems will be periodically verified to ensure integrity, authenticity and readability.</title>
		<a xlink:href="http://www.geolabel.info/Verified.htm" target="_blank">
<rect fill="#FF6700" x="80" y="390" stroke="#1D1D1B" width="130" height="130"/>
<path fill="#FFFFFF" d="M184.174,419.179c-0.342-1.438-1.354-2.553-2.851-3.135c-2.628-1.026-5.3-0.391-7.278,1.731l-23.677,25.452
	c-6.665,7.161-13.331,14.324-19.938,21.456c-0.717-0.364-1.442-0.717-2.146-1.061l-3.554-1.751
	c-3.492-1.729-6.983-3.454-10.49-5.171c-0.615-0.298-1.3-0.423-2.151-0.326l-3.395,0.008l0.297,3.629
	c0.005,0.398,0.02,1.226,0.451,2.085c4.657,9.308,9.328,18.617,14.016,27.91c0.547,1.084,1.124,2.152,1.685,3.178l0.807,1.485
	c1.267,2.367,2.987,2.917,4.145,2.959l0.192,0.007l0.095-0.005c2.724-0.112,3.877-2.319,4.372-3.262
	c3.137-6.02,6.93-12.399,11.934-20.085c8.216-12.616,16.919-24.674,27.455-38.891c1.927-2.6,3.869-5.19,5.814-7.773l3.194-4.253
	C184.143,422.044,184.502,420.556,184.174,419.179"/>
<path d="M130.292,498.278l-0.221-0.008c-1.111-0.039-3.2-0.521-4.688-3.297l-0.804-1.482c-0.643-1.175-1.177-2.169-1.695-3.196
	c-4.411-8.745-8.996-17.876-14.017-27.912c-0.502-1.002-0.514-1.957-0.519-2.364l-0.352-4.281l4.057-0.008
	c0.94-0.102,1.718,0.027,2.468,0.389c3.51,1.719,7.002,3.446,10.495,5.174l3.651,1.799c0.533,0.261,1.078,0.526,1.621,0.798
	c6.145-6.633,12.34-13.29,18.537-19.95l24.751-26.605c1.472-1.58,3.298-2.416,5.282-2.416c0.899,0,1.808,0.177,2.7,0.524
	c1.698,0.662,2.851,1.936,3.243,3.586c0.374,1.572-0.029,3.249-1.136,4.723l-3.193,4.253c-1.944,2.582-3.885,5.171-5.811,7.769
	c-10.523,14.199-19.214,26.24-27.433,38.86c-5.009,7.694-8.791,14.058-11.903,20.031c-0.499,0.953-1.822,3.48-4.915,3.607
	L130.292,498.278z M109.392,457.023l0.241,2.935c0.007,0.391,0.015,1.111,0.385,1.849c5.02,10.036,9.605,19.165,14.015,27.908
	c0.51,1.012,1.039,1.995,1.675,3.16l0.808,1.486c1.126,2.102,2.581,2.586,3.603,2.623l0.164,0.006l0.066-0.004
	c2.358-0.097,3.355-2,3.834-2.916c3.132-6.009,6.935-12.409,11.966-20.139c8.236-12.645,16.941-24.706,27.478-38.923
	c1.928-2.601,3.871-5.192,5.816-7.777l3.193-4.252c0.873-1.162,1.197-2.459,0.913-3.652c-0.292-1.227-1.165-2.18-2.458-2.684
	c-2.367-0.923-4.792-0.343-6.574,1.569l-24.75,26.604c-6.307,6.778-12.612,13.554-18.864,20.304l-0.33,0.356l-0.433-0.22
	c-0.681-0.345-1.368-0.681-2.038-1.007l-3.656-1.801c-3.492-1.729-6.982-3.454-10.488-5.171c-0.534-0.259-1.106-0.343-1.795-0.265
	l-0.072,0.005L109.392,457.023z"/>
		</a>
	</g>
</svg>
