<?xml version="1.0" encoding="utf-8"?>
<!-- Generator: Adobe Illustrator 14.0.0, SVG Export Plug-In . SVG Version: 6.00 Build 43363)  -->
<!DOCTYPE svg PUBLIC "-//W3C//DTD SVG 1.1//EN" "http://www.w3.org/Graphics/SVG/1.1/DTD/svg11.dtd">
<svg id="dmp9" xmlns="http://www.w3.org/2000/svg" xmlns:xlink="http://www.w3.org/1999/xlink" width="80px" height="80px" viewBox="123 248 136 136">
	<g id="dmp9_facet">
		<title>DMP-9: Data Review and Reprocessing.
Data will be managed to perform corrections and updates in accordance with reviews, and to enable reprocessing as appropriate; where applicable this shall follow established and agreed procedures.</title>
		<a xlink:href="http://www.geolabel.info/Processing.htm" target="_blank">
<rect fill="#FFF02B" x="126" y="251" stroke="#1D1D1B" width="130" height="130"/>
<path fill="#FFFFFF" d="M233.135,325.384v-17.161h-7.042c-0.884-3.62-2.309-7.028-4.194-10.128l4.972-4.98l-12.143-12.125
	l-4.973,4.98c-3.086-1.871-6.479-3.287-10.082-4.166v-7.044h-17.16v7.044c-3.669,0.896-7.118,2.349-10.25,4.272l-5.003-4.956
	l-12.076,12.193l5.003,4.955c-1.835,3.053-3.226,6.402-4.095,9.955h-7.042v17.161h7.042c0.885,3.62,2.31,7.029,4.196,10.128
	l-4.973,4.98l12.143,12.125l4.973-4.981c3.086,1.873,6.479,3.287,10.082,4.168v7.042h17.16v-7.042
	c3.669-0.897,7.118-2.35,10.25-4.274l5.003,4.956l12.076-12.193L222,335.338c1.835-3.053,3.226-6.4,4.094-9.954H233.135z
	 M199.673,335.758c-0.377,0.171-0.76,0.332-1.15,0.48c-2.308,0.884-4.811,1.373-7.43,1.373c-2.578,0-5.045-0.473-7.323-1.33
	c-0.427-0.161-0.845-0.336-1.257-0.523c-4.592-2.083-8.292-5.782-10.374-10.374c-0.182-0.403-0.355-0.812-0.511-1.228
	c-0.865-2.287-1.341-4.763-1.341-7.353c0-2.548,0.46-4.989,1.298-7.246c0.169-0.452,0.356-0.896,0.554-1.334
	c2.083-4.592,5.782-8.29,10.374-10.373c0.378-0.171,0.761-0.333,1.151-0.482c2.308-0.882,4.811-1.371,7.429-1.371
	c2.578,0,5.044,0.473,7.323,1.33c0.426,0.16,0.844,0.335,1.257,0.523c4.592,2.083,8.292,5.781,10.374,10.373
	c0.183,0.404,0.355,0.812,0.512,1.229c0.864,2.286,1.341,4.763,1.341,7.351c0,2.549-0.461,4.989-1.299,7.245
	c-0.168,0.454-0.356,0.897-0.554,1.336C207.965,329.976,204.265,333.675,199.673,335.758"/>
<path d="M200.317,359.49h-18.448v-7.185c-3.29-0.851-6.427-2.148-9.337-3.859l-5.074,5.082l-13.053-13.034l5.073-5.081
	c-1.725-2.926-3.031-6.078-3.887-9.386h-7.185V307.58h7.185c0.837-3.234,2.109-6.328,3.786-9.208l-5.103-5.055l12.982-13.106
	l5.104,5.055c2.965-1.765,6.159-3.097,9.509-3.964v-7.184h18.448v7.184c3.287,0.851,6.423,2.147,9.337,3.859l5.073-5.081
	l13.054,13.035l-5.073,5.08c1.725,2.926,3.031,6.079,3.887,9.385h7.184v18.447h-7.184c-0.838,3.235-2.11,6.327-3.786,9.207
	l5.103,5.054l-12.982,13.108l-5.103-5.055c-2.967,1.766-6.161,3.097-9.51,3.965V359.49z M183.156,358.203h15.874v-6.904l0.49-0.12
	c3.563-0.871,6.949-2.282,10.066-4.197l0.431-0.264l4.905,4.858l11.17-11.279l-4.904-4.857l0.26-0.433
	c1.824-3.036,3.177-6.325,4.02-9.776l0.12-0.49h6.903v-15.874h-6.903l-0.12-0.491c-0.861-3.522-2.247-6.868-4.119-9.946
	l-0.263-0.432l4.875-4.882l-11.233-11.215l-4.875,4.882l-0.432-0.262c-3.066-1.86-6.398-3.236-9.901-4.092l-0.49-0.12v-6.904
	h-15.874v6.904l-0.49,0.12c-3.564,0.87-6.95,2.282-10.066,4.196l-0.431,0.264l-4.905-4.858l-11.171,11.277l4.906,4.858l-0.261,0.433
	c-1.825,3.038-3.177,6.327-4.02,9.777l-0.12,0.491h-6.905v15.874h6.905l0.12,0.49c0.86,3.523,2.247,6.869,4.12,9.947l0.263,0.431
	l-4.876,4.883l11.232,11.216l4.876-4.883l0.432,0.262c3.062,1.858,6.394,3.235,9.901,4.092l0.49,0.12V358.203z M191.093,338.254
	c-2.593,0-5.133-0.461-7.55-1.37c-0.42-0.159-0.844-0.335-1.296-0.539c-4.745-2.153-8.543-5.951-10.694-10.695
	c-0.199-0.44-0.372-0.854-0.528-1.266c-0.917-2.428-1.382-4.978-1.382-7.58c0-2.565,0.45-5.079,1.339-7.47
	c0.162-0.436,0.349-0.885,0.571-1.377c2.151-4.744,5.95-8.541,10.694-10.693c0.39-0.176,0.786-0.343,1.187-0.496
	c4.868-1.862,10.337-1.876,15.208-0.043c0.418,0.156,0.842,0.333,1.297,0.539c4.744,2.152,8.542,5.949,10.694,10.693
	c0.201,0.444,0.374,0.859,0.528,1.267c0.917,2.428,1.382,4.978,1.382,7.58c0,2.565-0.45,5.078-1.338,7.469
	c-0.161,0.431-0.348,0.882-0.572,1.377c-2.151,4.744-5.95,8.543-10.694,10.694c-0.39,0.177-0.784,0.342-1.186,0.496
	C196.301,337.779,193.724,338.254,191.093,338.254 M191.093,296.641c-2.473,0-4.895,0.447-7.199,1.329
	c-0.378,0.144-0.75,0.301-1.116,0.466c-4.46,2.023-8.03,5.593-10.053,10.054c-0.21,0.463-0.385,0.885-0.536,1.292
	c-0.836,2.248-1.259,4.61-1.259,7.022c0,2.445,0.437,4.843,1.299,7.125c0.146,0.386,0.308,0.774,0.496,1.189
	c2.022,4.461,5.593,8.031,10.054,10.054c0.426,0.193,0.824,0.36,1.218,0.508c4.575,1.721,9.721,1.71,14.296-0.042
	c0.378-0.144,0.749-0.301,1.115-0.466c4.46-2.023,8.03-5.593,10.053-10.053c0.212-0.468,0.387-0.891,0.537-1.295
	c0.835-2.246,1.258-4.609,1.258-7.02c0-2.446-0.437-4.843-1.299-7.124c-0.152-0.404-0.319-0.8-0.496-1.191
	c-2.023-4.46-5.593-8.03-10.054-10.053c-0.428-0.194-0.826-0.36-1.217-0.506C195.917,297.075,193.529,296.641,191.093,296.641"/>
		</a>
	</g>
</svg>
