<?xml version="1.0" encoding="UTF-8" ?>
<!DOCTYPE svg PUBLIC "-//W3C//DTD SVG 1.1//EN" "http://www.w3.org/Graphics/SVG/1.1/DTD/svg11.dtd">
<svg width="271pt" height="81pt" viewBox="0 0 271 81" version="1.1" xmlns="http://www.w3.org/2000/svg">
<g id="#fefefeff">
<path fill="#fefefe" opacity="1.00" d=" M 90.55 0.00 L 98.45 0.00 C 103.88 0.47 109.09 2.28 113.98 4.63 C 113.98 10.17 114.06 15.72 113.92 21.26 C 119.43 13.33 128.35 7.78 138.00 6.84 C 147.32 5.61 157.00 8.68 164.11 14.78 C 175.34 24.26 179.22 41.32 172.78 54.60 C 166.90 68.12 151.50 76.46 136.96 74.03 C 127.72 72.85 119.42 67.32 113.96 59.88 C 114.03 65.38 113.98 70.88 114.00 76.38 C 109.18 78.78 103.98 80.53 98.58 81.00 L 90.22 81.00 C 77.92 79.71 66.65 72.47 60.02 62.09 C 55.57 67.11 49.91 71.23 43.38 73.03 C 31.70 76.54 18.15 73.19 9.72 64.30 C 4.28 59.09 1.05 51.91 0.00 44.51 L 0.00 36.39 C 0.83 31.15 2.64 26.03 5.61 21.61 C 13.54 9.51 29.66 3.67 43.48 8.08 C 43.46 12.95 43.49 17.81 43.45 22.68 C 37.38 19.86 29.89 19.56 23.98 22.94 C 17.84 26.25 13.66 33.03 13.71 40.04 C 13.39 46.57 16.63 53.13 21.99 56.86 C 28.03 61.31 36.68 61.86 43.26 58.29 C 47.66 56.00 50.92 51.97 52.80 47.43 C 44.06 47.39 35.33 47.42 26.59 47.36 C 26.58 42.80 26.59 38.24 26.62 33.68 C 35.89 33.61 45.16 33.63 54.43 33.61 C 55.89 25.90 59.42 18.56 64.77 12.80 C 71.47 5.63 80.79 1.02 90.55 0.00 M 81.96 16.82 C 75.44 20.21 70.57 26.47 68.64 33.54 C 77.36 33.65 86.09 33.43 94.82 33.65 C 94.83 38.22 94.82 42.78 94.82 47.34 C 86.10 47.55 77.38 47.39 68.66 47.48 C 71.39 58.00 81.10 66.44 92.00 67.17 C 106.00 68.99 120.18 57.72 121.19 43.60 C 123.32 50.97 128.26 58.09 136.07 60.07 C 148.28 64.41 162.67 53.90 162.24 40.94 C 163.26 28.02 149.38 17.03 137.04 20.62 C 128.94 22.42 123.15 29.53 121.34 37.40 C 120.40 29.00 115.19 21.24 107.81 17.13 C 100.00 12.64 89.88 12.56 81.96 16.82 Z" />
<path fill="#fefefe" opacity="1.00" d=" M 190.89 15.82 C 198.86 11.27 208.89 11.31 217.42 14.22 C 217.37 18.23 217.41 22.25 217.37 26.27 C 211.98 24.24 205.98 22.74 200.31 24.39 C 197.24 25.26 195.41 28.88 197.10 31.75 C 199.74 34.96 203.97 36.02 207.64 37.57 C 212.93 39.60 218.47 42.47 221.17 47.71 C 225.17 55.26 222.38 65.52 215.05 69.95 C 206.03 75.40 194.58 74.82 184.83 71.78 C 184.75 67.52 184.77 63.25 184.82 58.99 C 190.63 61.85 197.40 63.45 203.83 62.10 C 206.70 61.58 209.05 58.95 209.00 56.00 C 208.22 51.67 203.62 49.90 199.99 48.51 C 193.69 46.28 186.82 43.13 183.86 36.72 C 180.36 29.28 183.82 19.79 190.89 15.82 Z" />
<path fill="#fefefe" opacity="1.00" d=" M 241.50 14.37 C 248.98 11.42 257.48 11.71 265.06 14.11 C 265.03 18.18 265.05 22.25 265.02 26.32 C 259.54 24.12 253.20 22.61 247.47 24.66 C 243.94 25.87 242.83 30.70 245.96 33.00 C 252.35 37.66 261.21 38.26 266.62 44.45 C 273.27 51.55 271.55 64.16 263.50 69.46 C 254.34 75.47 242.32 74.96 232.28 71.63 C 232.29 67.41 232.13 63.18 232.42 58.96 C 238.60 61.88 245.75 63.72 252.51 61.85 C 256.87 60.66 257.99 54.23 254.16 51.77 C 248.48 47.78 240.97 47.14 235.81 42.26 C 231.03 38.37 228.96 31.52 230.89 25.66 C 232.30 20.42 236.56 16.36 241.50 14.37 Z" />
<path fill="#fefefe" opacity="1.00" d=" M 132.70 32.60 C 133.23 31.96 134.30 30.67 134.83 30.02 C 136.01 31.02 137.55 30.67 138.87 31.25 C 139.03 32.49 138.22 33.57 137.84 34.70 C 136.88 35.26 135.94 35.84 135.00 36.44 C 135.02 35.46 135.05 33.51 135.07 32.53 C 134.48 32.55 133.29 32.58 132.70 32.60 Z" />
<path fill="#fefefe" opacity="1.00" d=" M 123.24 35.04 C 124.01 33.98 124.77 32.90 125.68 31.96 C 127.75 32.13 129.87 35.05 131.82 33.24 C 132.02 33.51 132.41 34.05 132.61 34.32 C 132.19 34.76 131.36 35.65 130.95 36.09 L 130.93 37.34 C 131.39 36.82 132.30 35.78 132.76 35.26 C 133.23 36.04 133.70 36.83 134.16 37.62 C 132.13 38.98 130.65 41.51 127.86 41.02 C 128.46 41.57 129.67 42.66 130.28 43.20 C 132.49 42.44 134.12 44.40 135.88 45.34 C 134.85 47.26 133.57 49.03 132.05 50.60 C 131.99 51.29 131.85 52.66 131.78 53.34 C 129.88 51.82 131.27 49.38 130.80 47.39 C 130.28 46.04 129.81 44.66 129.74 43.21 C 129.17 43.01 128.01 42.61 127.43 42.42 C 126.91 41.59 126.40 40.77 125.88 39.95 C 126.00 38.36 126.09 36.77 126.11 35.18 C 125.39 35.15 123.96 35.08 123.24 35.04 Z" />
<path fill="#fefefe" opacity="1.00" d=" M 141.83 33.98 C 144.38 35.86 146.68 33.18 148.07 31.25 C 150.57 32.79 153.78 31.73 156.45 31.14 C 156.62 31.99 156.95 33.70 157.12 34.55 C 156.05 34.47 155.04 34.66 154.08 35.13 C 156.68 37.68 153.38 40.92 152.89 43.76 C 152.11 42.94 151.27 42.19 150.36 41.51 C 150.19 41.98 149.85 42.91 149.68 43.38 C 149.15 42.74 148.08 41.48 147.55 40.85 C 144.92 43.12 145.68 48.09 142.16 49.24 C 141.43 47.57 141.10 45.79 140.91 43.99 C 139.82 43.87 137.39 44.07 137.93 42.22 C 138.87 39.33 140.52 36.72 141.83 33.98 Z" />
<path fill="#fefefe" opacity="1.00" d=" M 156.17 35.16 C 156.83 35.81 156.83 35.81 156.17 35.16 Z" />
<path fill="#fefefe" opacity="1.00" d=" M 153.96 49.40 C 153.38 47.33 155.82 44.92 157.77 46.19 C 159.77 46.91 159.45 49.37 158.21 50.66 C 157.05 49.35 155.69 48.50 153.96 49.40 Z" />
</g>
</svg>
