<svg xmlns="http://www.w3.org/2000/svg" xmlns:xlink="http://www.w3.org/1999/xlink" width="3.1988cm" height="0.90556cm" viewBox="0 0 25.78 6.74">
    <defs>
        <clipPath id="b">
            <rect width="25.78" height="6.74" />
        </clipPath>
    </defs>
    <g id="a" clip-path="url(#b)">
        <g transform="translate(0.001 0.005)">
            <path d="M.01,3.63a.141.141,0,0,0,.1.12c.01,0,.03.01.05,0A.136.136,0,0,0,.28,3.6,3.088,3.088,0,0,1,4.11.35,3.033,3.033,0,0,1,6,1.76l-.34-.09a.124.124,0,0,0-.16.1.124.124,0,0,0,.1.16h0l.65.17a.173.173,0,0,0,.1-.01.156.156,0,0,0,.06-.08l.17-.65a.133.133,0,1,0-.26-.06l-.09.34A3.349,3.349,0,0,0,.01,3.62h0Z" fill="#888" fill-rule="evenodd" />
            <path d="M4.92,6A3.082,3.082,0,0,1,.7,4.92l.34.09a.133.133,0,1,0,.06-.26h0L.45,4.58a.124.124,0,0,0-.16.1l-.17.65a.124.124,0,0,0,.1.16h0a.124.124,0,0,0,.16-.1l.09-.34A3.349,3.349,0,0,0,6.69,3.07a.136.136,0,0,0-.27.03A3.054,3.054,0,0,1,4.92,6h0Z" fill="#888" fill-rule="evenodd" />
            <path d="M3.74,2.06a.08.08,0,1,0,.08.08A.079.079,0,0,0,3.74,2.06Z" fill="#888" fill-rule="evenodd" />
            <path d="M2.96,2.06a.08.08,0,1,0,.08.08A.079.079,0,0,0,2.96,2.06Z" fill="#888" fill-rule="evenodd" />
            <path d="M5.04,3.74a.6.6,0,0,0,.1-.33.531.531,0,0,0-.2-.42.477.477,0,0,0,.04-.2.578.578,0,0,0-.31-.51.472.472,0,0,0-.35-.51.56.56,0,0,0-.5-.35.543.543,0,0,0-.47.28.543.543,0,0,0-.47-.28.56.56,0,0,0-.5.35.463.463,0,0,0-.35.51.571.571,0,0,0-.31.51.448.448,0,0,0,.04.2.547.547,0,0,0-.2.42.58.58,0,0,0,.1.33.571.571,0,0,0-.1.31.589.589,0,0,0,.16.39.566.566,0,0,0,.54.65h.01a.63.63,0,0,0,.54.31.614.614,0,0,0,.54-.34.612.612,0,0,0,1.08.03h.01a.558.558,0,0,0,.54-.57.22.22,0,0,0-.01-.08.552.552,0,0,0,.16-.39.571.571,0,0,0-.1-.31h0ZM3.27,2.59a.293.293,0,0,0-.16-.04.08.08,0,0,0,0,.16.158.158,0,0,1,.16.16V4.35a.612.612,0,0,0-.47-.21.08.08,0,0,0,0,.16.469.469,0,0,1,.47.47.48.48,0,0,1-.47.49.465.465,0,0,1-.42-.27.068.068,0,0,0-.08-.04H2.28a.4.4,0,0,1-.4-.5.067.067,0,0,0-.03-.08.375.375,0,0,1-.14-.3.361.361,0,0,1,.06-.2.5.5,0,0,0,.33.12.08.08,0,1,0,0-.16.408.408,0,0,1-.39-.41.4.4,0,0,1,.18-.33.071.071,0,0,0,.03-.1.449.449,0,0,1-.05-.19.408.408,0,0,1,.39-.41.408.408,0,0,1,.39.41.08.08,0,1,0,.16,0,.564.564,0,0,0-.54-.57.22.22,0,0,0-.08.01V2.23a.311.311,0,0,1,.53-.22.078.078,0,1,0,.11-.11.432.432,0,0,0-.26-.13.392.392,0,0,1,.32-.18A.408.408,0,0,1,3.28,2v.61h0ZM4.59,3.97a.555.555,0,0,0,.33-.12.361.361,0,0,1,.06.2.405.405,0,0,1-.14.3.114.114,0,0,0-.03.08.277.277,0,0,1,.01.09.407.407,0,0,1-.42.41H4.38c-.03,0-.07.01-.08.04a.476.476,0,0,1-.42.27.487.487,0,0,1-.47-.49.469.469,0,0,1,.47-.47.08.08,0,1,0,0-.16.627.627,0,0,0-.47.21V2.85a.158.158,0,0,1,.16-.16.08.08,0,0,0,0-.16.419.419,0,0,0-.16.04V1.96a.385.385,0,0,1,.71-.23.5.5,0,0,0-.26.13.078.078,0,0,0,.11.11.311.311,0,0,1,.53.22V2.2c-.03,0-.05-.01-.08-.01a.558.558,0,0,0-.54.57.08.08,0,1,0,.16,0,.39.39,0,1,1,.78,0,.414.414,0,0,1-.05.19.069.069,0,0,0,.03.1.386.386,0,0,1,.18.33.408.408,0,0,1-.39.41.08.08,0,1,0,0,.16h0Z" fill="#888" fill-rule="evenodd" />
            <path d="M3.1,3.08a.091.091,0,0,0-.11-.01.393.393,0,0,1-.65-.29.08.08,0,1,0-.16,0,.556.556,0,0,0,.46.54.238.238,0,0,1-.22.16.08.08,0,0,0,0,.16.387.387,0,0,0,.38-.32.515.515,0,0,0,.29-.13.091.091,0,0,0,.01-.11h0Z" fill="#888" fill-rule="evenodd" />
            <path d="M2.26,4.45a.08.08,0,0,0,0,.16.408.408,0,0,1,.39.41.08.08,0,1,0,.16,0,.564.564,0,0,0-.54-.57Z" fill="#888" fill-rule="evenodd" />
            <path d="M2.89,3.82a.7.7,0,0,0-.61.35.081.081,0,1,0,.14.08.551.551,0,0,1,.47-.28.08.08,0,0,0,0-.16h0Z" fill="#888" fill-rule="evenodd" />
            <path d="M4.29,3.49a.238.238,0,0,1-.22-.16.548.548,0,0,0,.46-.54.08.08,0,0,0-.16,0,.39.39,0,0,1-.39.39.4.4,0,0,1-.26-.1.078.078,0,0,0-.1.12.515.515,0,0,0,.29.13.387.387,0,0,0,.38.32.08.08,0,0,0,0-.16h0Z" fill="#888" fill-rule="evenodd" />
            <path d="M4.44,4.45a.558.558,0,0,0-.54.57.08.08,0,0,0,.16,0,.408.408,0,0,1,.39-.41.08.08,0,0,0,0-.16Z" fill="#888" fill-rule="evenodd" />
            <path d="M4.43,4.18a.69.69,0,0,0-.61-.35.08.08,0,1,0,0,.16.531.531,0,0,1,.47.28.081.081,0,1,0,.14-.08h0Z" fill="#888" fill-rule="evenodd" />
        </g>
        <path d="M1.178-.024V-.172a.052.052,0,0,0-.054-.054h-.3V-1.732h.3a.052.052,0,0,0,.054-.054v-.148a.052.052,0,0,0-.054-.054H.138a.052.052,0,0,0-.054.054v.148a.052.052,0,0,0,.054.054h.3V-.226h-.3a.052.052,0,0,0-.054.054v.148A.052.052,0,0,0,.138.03h.986A.052.052,0,0,0,1.178-.024Zm1.648,0v-1.91a.052.052,0,0,0-.054-.054H2.5a.052.052,0,0,0-.054.054V-.783l-.6-1.151c-.014-.028-.028-.054-.071-.054H1.488a.052.052,0,0,0-.054.054v1.91A.052.052,0,0,0,1.488.03h.276a.052.052,0,0,0,.054-.054V-1.175l.6,1.151A.08.08,0,0,0,2.486.03h.287A.052.052,0,0,0,2.827-.024ZM4.319-1.686v-.247a.052.052,0,0,0-.054-.054H3.222a.052.052,0,0,0-.054.054v1.91A.052.052,0,0,0,3.222.03H3.5a.052.052,0,0,0,.054-.054v-.8h.657a.052.052,0,0,0,.054-.054v-.247a.052.052,0,0,0-.054-.054H3.551v-.455h.713A.052.052,0,0,0,4.319-1.686ZM5.882-.68v-.6a.648.648,0,0,0-.7-.739.648.648,0,0,0-.7.739v.6a.648.648,0,0,0,.7.739A.648.648,0,0,0,5.882-.68ZM5.5-.709c0,.236-.071.412-.313.412s-.313-.176-.313-.412v-.54c0-.236.071-.412.313-.412s.313.176.313.412ZM7.61-.027,7.152-.794a.528.528,0,0,0,.406-.583c0-.435-.244-.611-.654-.611H6.277a.052.052,0,0,0-.054.054v1.91A.052.052,0,0,0,6.277.03h.276a.052.052,0,0,0,.054-.054V-.766h.139l.441.742C7.2,0,7.223.03,7.254.03h.324A.036.036,0,0,0,7.61-.027Zm-.435-1.35c0,.207-.117.27-.321.27H6.606v-.54h.256C7.067-1.647,7.175-1.584,7.175-1.377ZM9.7-.024v-1.91a.052.052,0,0,0-.054-.054H9.338a.079.079,0,0,0-.068.054L8.789-.746,8.306-1.934a.079.079,0,0,0-.068-.054H7.925a.052.052,0,0,0-.054.054v1.91A.052.052,0,0,0,7.925.03H8.2a.052.052,0,0,0,.054-.054V-1.189l.321.824a.076.076,0,0,0,.065.054h.293A.076.076,0,0,0,9-.365l.321-.824V-.024A.052.052,0,0,0,9.375.03H9.65A.052.052,0,0,0,9.7-.024Zm1.844,0-.563-1.907a.069.069,0,0,0-.065-.054h-.372a.069.069,0,0,0-.065.054L9.92-.027A.041.041,0,0,0,9.96.03h.31a.063.063,0,0,0,.06-.054l.08-.287h.651l.08.287A.063.063,0,0,0,11.2.03h.31A.041.041,0,0,0,11.549-.027ZM10.96-.666h-.452l.227-.818Zm1.714-1.02v-.247a.052.052,0,0,0-.054-.054H11.336a.052.052,0,0,0-.054.054v.247a.052.052,0,0,0,.054.054h.452V-.024a.052.052,0,0,0,.054.054h.276a.052.052,0,0,0,.054-.054V-1.632h.449A.052.052,0,0,0,12.674-1.686ZM14-.024V-.172a.052.052,0,0,0-.054-.054h-.3V-1.732h.3A.052.052,0,0,0,14-1.786v-.148a.052.052,0,0,0-.054-.054h-.986a.052.052,0,0,0-.054.054v.148a.052.052,0,0,0,.054.054h.3V-.226h-.3a.052.052,0,0,0-.054.054v.148a.052.052,0,0,0,.054.054h.986A.052.052,0,0,0,14-.024ZM15.473-.68v-.6a.648.648,0,0,0-.7-.739.648.648,0,0,0-.7.739v.6a.648.648,0,0,0,.7.739A.648.648,0,0,0,15.473-.68ZM15.09-.709c0,.236-.071.412-.313.412s-.313-.176-.313-.412v-.54c0-.236.071-.412.313-.412s.313.176.313.412Zm2.117.685v-1.91a.052.052,0,0,0-.054-.054h-.276a.052.052,0,0,0-.054.054V-.783l-.6-1.151c-.014-.028-.028-.054-.071-.054h-.287a.052.052,0,0,0-.054.054v1.91a.052.052,0,0,0,.054.054h.276A.052.052,0,0,0,16.2-.024V-1.175l.6,1.151a.08.08,0,0,0,.071.054h.287A.052.052,0,0,0,17.207-.024Z" transform="translate(8.56 4.406)" fill="#888" />
    </g>
</svg>