<svg id="Слой_1" data-name="Слой 1" xmlns="http://www.w3.org/2000/svg" viewBox="0 0 512 645"><defs><style>.cls-1{fill:#fefefe;}</style></defs><g id="_fefefeff" data-name="#fefefeff"><path class="cls-1" d="M501.32,536.42l-.13,0c-3.51-1.21-7-4.39-6.79-8.74-.06-35.8,0-72.24,0-107.48q0-30.5,0-61c0-1,0-2,0-3,.06-3.73.12-7.58-1.66-10.86a15.43,15.43,0,0,0-13.6-8.27c-.25,0-.5,0-.74,0H38.66l-2,0c-.67,0-1.35,0-2,0a18.59,18.59,0,0,0-8.13,1.4,15.26,15.26,0,0,0-8.83,13.65q0,41.55,0,83.09c0,30.31,0,61.66,0,92.48.17,4.28-3.27,7.46-6.75,8.7l-.14,0H6.94l-.13,0a10.83,10.83,0,0,1-6.76-6.77l0-.13V348.71c1.09-6.25,3-11.22,5.87-15.22a32.76,32.76,0,0,1,26.62-14H311V305.19h-5.75l-11.91,0-11.92,0c-7.66,0-13.86,0-19.52-.11-16.45-.7-30.45-15.16-30.61-31.58-.06-32.18,0-102.13,0-134.71.17-16.66,14.46-31.16,31.21-31.67H426.91c7.29,1.21,13.54,4,18.1,8.13a32.83,32.83,0,0,1,11.17,24.53c0,14.79,0,38.78,0,62.77s0,48.08,0,62.88c0,.73,0,1.46,0,2.18,0,4.84.07,9.85-1.52,14.6a32.92,32.92,0,0,1-31,23l-1.25,0h-46v14.25H479.52A33,33,0,0,1,507,334.76c2.34,3.6,3.94,8,5,13.91V529.44l0,.13a10.91,10.91,0,0,1-6.73,6.81l-.14,0Zm-142.51-217V305.19h-30.2v14.25ZM418,287.55h1.8l1.8,0c3.42,0,6.21-.29,8.72-1.68a15.79,15.79,0,0,0,8.32-12.56q-47.46-.06-94.91,0t-94.94,0c.61,7.66,7.32,14.2,14.79,14.2H418Zm20.56-31.89V213.43c0-27.06,0-57.29,0-73.62a15.19,15.19,0,0,0-14.73-15H269.15l-1.68,0H265.8a19.25,19.25,0,0,0-7.43,1.11,15.14,15.14,0,0,0-9.49,13.92c0,16.27,0,46.32,0,73.3,0,16.69,0,32.2,0,42.56ZM311.81,236.27a8.8,8.8,0,0,1-6.21-15q16-16.12,32.2-32.23,15.3-15.28,30.57-30.59l.08-.08a11.47,11.47,0,0,1,4.24-3,7.75,7.75,0,0,1,2.84-.52,8.86,8.86,0,0,1,5.79,15.59l-26.41,26.4q-18.44,18.45-36.9,36.87A8.42,8.42,0,0,1,311.81,236.27Z"/><path class="cls-1" d="M108.49,246.9l-28,0h-.14a8.8,8.8,0,0,1-2.71-17.11,12.07,12.07,0,0,1,4.11-.52l.75,0c5.9,0,11.77,0,17.64,0h20.22q8.05,0,16.11,0h.16a8.8,8.8,0,0,1,0,17.6h-.2Q122.5,246.9,108.49,246.9Z"/><path class="cls-1" d="M100.51,270.82q-18,0-35.95,0H64.4A8.8,8.8,0,0,1,55.87,263a8.89,8.89,0,0,1,5.83-9.36,13,13,0,0,1,4.21-.52h.66l20.45,0h24.77q12.34,0,24.69,0h.16a8.87,8.87,0,0,1,8.59,8.81,8.67,8.67,0,0,1-2.53,6.15,8.54,8.54,0,0,1-6,2.64h-.22Q118.51,270.82,100.51,270.82Z"/><path class="cls-1" d="M100.51,294.74l-36,0h-.17a8.81,8.81,0,0,1-2.68-17.12,13,13,0,0,1,4.21-.52h.66l20.44,0h24.78q12.34,0,24.69,0h.16a8.8,8.8,0,0,1,0,17.6h-.22Q118.5,294.74,100.51,294.74Z"/><path class="cls-1" d="M182.37,518l-.14-.06c-3.08-1.13-6.46-3.76-6.7-7.72-.19-3.48-.15-7-.12-10.41,0-1.88,0-3.82,0-5.73H49.53c0,1.91,0,3.85,0,5.74,0,3.4.07,6.92-.11,10.4-.2,3.31-2.68,6.2-6.66,7.72l-.14.06H38.85l-.14,0c-3.5-1.21-7-4.39-6.78-8.74-.05-32.84,0-66.27,0-98.6q0-34,0-68a8.9,8.9,0,0,1,2.3-6.8,8.46,8.46,0,0,1,6.24-2.89h.24q27.74-.06,55.54,0h87.11a6.87,6.87,0,0,1,.86,0,9,9,0,0,1,6.65,3.07,8.75,8.75,0,0,1,2.22,6.81c0,21.76,0,43.63,0,65.49,0,33.11,0,67.34,0,101,.18,4.28-3.26,7.46-6.76,8.7l-.13,0Zm-7-41.57v-30.2H49.54v30.2Zm0-47.84v-30.2H49.54v30.2Zm0-47.84v-30.2H49.54v30.2Z"/><path class="cls-1" d="M112.48,374.48c-2.68,0-5.37,0-8,0h-.21a8.46,8.46,0,0,1-6.38-3.06,8.57,8.57,0,0,1-2.1-6.82,8.89,8.89,0,0,1,5.83-7.24l.07,0h.07a42.57,42.57,0,0,1,7.42-.53c1.28,0,2.56,0,3.85.06s2.54.06,3.8.06c.91,0,1.81,0,2.71-.06.23,0,.52,0,.8,0a9,9,0,0,1,8.74,6.84,8.84,8.84,0,0,1-8.28,10.83h-.25C117.85,374.47,115.17,374.48,112.48,374.48Z"/><path class="cls-1" d="M112.48,422.32q-4,0-8.07-.05h-.19a8.85,8.85,0,0,1-8.48-9.88,8.92,8.92,0,0,1,5.82-7.24l.07,0h.07a43.78,43.78,0,0,1,7.43-.53c1.28,0,2.56,0,3.85.06s2.54.06,3.81.06c.9,0,1.81,0,2.71-.06a7,7,0,0,1,.83,0,9,9,0,0,1,8.89,7.83,8.87,8.87,0,0,1-8.5,9.84h-.21C117.86,422.3,115.17,422.32,112.48,422.32Z"/><path class="cls-1" d="M112.47,470.16c-2.68,0-5.37,0-8,0h-.19a8.86,8.86,0,0,1-8.49-9.89,8.89,8.89,0,0,1,5.82-7.24l.07,0,.07,0a43.78,43.78,0,0,1,7.43-.53c1.28,0,2.57,0,3.85.06s2.54.06,3.81.06c.9,0,1.81,0,2.71-.06.24,0,.53,0,.83,0a9,9,0,0,1,8.89,7.83,8.87,8.87,0,0,1-8.5,9.85h-.21C117.85,470.15,115.16,470.16,112.47,470.16Z"/></g></svg>