<?xml version="1.0" encoding="UTF-8" ?>
<!DOCTYPE svg PUBLIC "-//W3C//DTD SVG 1.1//EN" "http://www.w3.org/Graphics/SVG/1.1/DTD/svg11.dtd">
<svg width="361pt" height="512pt" viewBox="0 0 361 512" version="1.1" xmlns="http://www.w3.org/2000/svg">
<g id="#6b7275ff">
<path fill="#6b7275" opacity="1.00" d=" M 36.96 0.00 L 247.12 0.00 C 285.08 44.30 323.05 88.60 361.00 132.92 L 361.00 474.74 C 360.49 483.43 357.14 491.94 351.37 498.48 C 344.56 506.43 334.46 511.33 324.03 512.00 L 37.23 512.00 C 27.62 511.45 18.25 507.35 11.49 500.48 C 4.70 493.78 0.64 484.55 0.00 475.05 L 0.00 37.23 C 0.57 26.93 5.30 16.93 13.01 10.07 C 19.55 4.10 28.16 0.61 36.96 0.00 M 21.72 39.01 C 21.69 183.66 21.70 328.30 21.72 472.94 C 21.45 482.20 29.81 490.35 38.98 490.27 C 133.32 490.29 227.67 490.30 322.01 490.27 C 331.25 490.50 339.35 482.16 339.28 473.02 C 339.31 366.58 339.29 260.15 339.28 153.72 C 314.51 153.70 289.73 153.73 264.95 153.70 C 253.65 153.68 242.56 148.34 235.35 139.66 C 229.36 132.57 226.05 123.31 226.19 114.04 C 226.19 83.26 226.20 52.49 226.19 21.72 C 163.81 21.71 101.44 21.70 39.06 21.73 C 29.78 21.45 21.63 29.83 21.72 39.01 M 247.90 33.59 C 247.88 60.05 247.92 86.51 247.89 112.97 C 247.26 123.16 256.80 132.68 266.99 132.01 C 288.64 131.98 310.30 132.02 331.96 131.99 C 303.94 99.19 275.93 66.39 247.90 33.59 Z" />
</g>
<g id="#279d8fff">
<path fill="#279d8f" opacity="1.00" d=" M 134.15 205.68 C 165.10 227.36 196.09 249.00 227.01 270.74 C 223.44 274.02 219.43 276.77 215.54 279.65 C 188.75 298.80 161.42 317.18 134.13 335.60 C 134.00 292.29 134.27 248.99 134.15 205.68 Z" />
</g>
</svg>
