<?xml version="1.0" encoding="UTF-8" ?>
<!DOCTYPE svg PUBLIC "-//W3C//DTD SVG 1.1//EN" "http://www.w3.org/Graphics/SVG/1.1/DTD/svg11.dtd">
<svg width="361pt" height="512pt" viewBox="0 0 361 512" version="1.1" xmlns="http://www.w3.org/2000/svg">
<g id="#6b7275ff">
<path fill="#6b7275" opacity="1.00" d=" M 36.81 0.00 L 247.12 0.00 C 285.08 44.30 323.05 88.60 361.00 132.92 L 361.00 474.94 C 360.41 484.02 356.72 492.87 350.46 499.49 C 343.72 506.83 334.11 511.28 324.19 512.00 L 37.06 512.00 C 26.81 511.36 16.88 506.67 10.06 498.97 C 4.13 492.47 0.66 483.93 0.00 475.17 L 0.00 37.01 C 0.64 27.02 5.13 17.33 12.50 10.54 C 19.06 4.33 27.83 0.68 36.81 0.00 M 21.72 39.06 C 21.70 183.71 21.69 328.36 21.72 473.00 C 21.49 482.25 29.85 490.36 39.01 490.27 C 133.34 490.29 227.68 490.30 322.01 490.27 C 331.25 490.50 339.36 482.15 339.28 473.00 C 339.31 366.57 339.29 260.15 339.28 153.72 C 314.19 153.68 289.10 153.77 264.00 153.68 C 248.04 153.37 233.14 142.12 228.22 126.97 C 225.64 119.91 226.25 112.32 226.19 104.96 C 226.19 77.22 226.20 49.47 226.19 21.72 C 163.79 21.71 101.40 21.70 39.00 21.73 C 29.73 21.48 21.61 29.88 21.72 39.06 M 247.91 33.60 C 247.88 60.08 247.92 86.56 247.89 113.04 C 247.29 123.22 256.87 132.72 267.06 132.01 C 288.69 131.98 310.32 132.02 331.96 131.99 C 303.94 99.19 275.93 66.39 247.91 33.60 Z" />
</g>
<g id="#279d8fff">
<path fill="#279d8f" opacity="1.00" d=" M 169.47 199.69 C 180.86 197.51 192.94 198.75 203.56 203.47 C 217.99 209.77 229.57 222.28 234.67 237.18 C 239.35 250.63 238.80 265.83 233.09 278.88 C 227.42 291.97 216.68 302.78 203.62 308.50 C 188.88 315.07 171.33 314.97 156.67 308.20 C 143.22 302.10 132.35 290.58 127.05 276.79 C 121.51 262.58 121.94 246.17 128.28 232.30 C 135.71 215.66 151.53 203.05 169.47 199.69 M 177.42 226.55 C 162.02 227.79 149.48 242.69 150.96 258.09 C 151.67 273.69 166.48 286.79 182.06 285.56 C 198.02 285.12 211.53 269.89 210.01 253.98 C 209.33 237.80 193.49 224.43 177.42 226.55 Z" />
<path fill="#279d8f" opacity="1.00" d=" M 132.40 207.26 C 119.50 219.94 111.99 237.87 112.09 255.97 C 111.98 274.09 119.49 292.04 132.40 304.74 C 106.83 295.28 84.21 278.11 68.26 256.00 C 84.21 233.89 106.84 216.72 132.40 207.26 Z" />
<path fill="#279d8f" opacity="1.00" d=" M 228.61 207.29 C 254.17 216.73 276.75 233.93 292.71 256.00 C 276.75 278.10 254.14 295.27 228.58 304.74 C 241.50 292.03 249.07 274.09 248.91 255.95 C 249.04 237.85 241.49 219.97 228.61 207.29 Z" />
<path fill="#279d8f" opacity="1.00" d=" M 175.21 238.27 C 181.92 236.21 189.68 238.40 194.28 243.70 C 199.23 249.11 200.40 257.55 197.10 264.09 C 193.65 271.45 184.98 275.84 177.01 274.16 C 168.88 272.74 162.34 265.28 162.03 257.03 C 161.41 248.71 167.20 240.53 175.21 238.27 Z" />
</g>
</svg>
