<?xml version="1.0" encoding="UTF-8" ?>
<!DOCTYPE svg PUBLIC "-//W3C//DTD SVG 1.1//EN" "http://www.w3.org/Graphics/SVG/1.1/DTD/svg11.dtd">
<svg width="118pt" height="225pt" viewBox="0 0 118 225" version="1.1" xmlns="http://www.w3.org/2000/svg">
<g id="#3c5a9aff">
<path fill="#ffffff" d=" M 82.37 0.00 L 93.59 0.00 C 101.36 0.16 109.09 0.84 116.83 1.45 C 117.23 13.43 116.89 25.42 117.00 37.41 C 109.03 37.45 101.06 37.35 93.09 37.44 C 87.63 37.71 81.32 39.32 78.45 44.44 C 75.77 48.81 76.16 54.09 76.06 59.00 C 75.62 66.80 76.28 74.59 75.93 82.40 C 89.15 82.44 102.38 82.40 115.60 82.41 C 113.85 95.74 112.18 109.08 110.40 122.41 C 98.98 122.39 87.55 122.46 76.13 122.37 C 75.88 156.56 75.89 190.79 76.11 225.00 L 34.59 225.00 C 34.59 190.80 34.60 156.60 34.58 122.41 C 23.05 122.41 11.53 122.41 0.00 122.41 L 0.00 82.41 C 11.53 82.42 23.05 82.41 34.58 82.42 C 34.60 72.63 34.59 62.84 34.58 53.06 C 34.47 39.59 37.98 25.43 47.27 15.30 C 56.09 5.40 69.40 0.77 82.37 0.00 Z" />
</g>
</svg>
