<?xml version="1.0" encoding="UTF-8" ?>
<!DOCTYPE svg PUBLIC "-//W3C//DTD SVG 1.1//EN" "http://www.w3.org/Graphics/SVG/1.1/DTD/svg11.dtd">
<svg width="383pt" height="308pt" viewBox="0 0 383 308" version="1.1" xmlns="http://www.w3.org/2000/svg">
<g>
<path fill="#ffffff" d=" M 229.50 8.74 C 244.77 1.12 262.49 -0.68 279.20 2.18 C 295.40 5.17 310.39 13.50 321.81 25.32 C 339.25 21.66 356.22 15.51 371.55 6.39 C 365.95 24.45 353.09 39.58 337.22 49.58 C 352.57 47.24 367.77 43.52 382.00 37.23 C 371.71 52.78 358.38 66.34 343.19 77.13 C 343.05 84.40 343.53 91.70 342.79 98.95 C 338.73 169.10 300.19 236.94 240.53 274.54 C 207.53 295.55 168.69 306.61 129.71 308.00 L 110.32 308.00 C 71.43 306.59 32.96 294.75 0.00 274.07 L 0.00 273.30 C 21.22 275.97 42.97 273.69 63.46 267.70 C 82.09 262.28 99.35 252.96 115.01 241.61 C 108.88 240.68 102.62 240.42 96.63 238.68 C 71.14 232.33 49.79 212.23 41.67 187.27 C 53.37 189.40 65.58 189.07 77.08 185.98 C 56.73 181.95 38.24 169.51 26.89 152.14 C 18.49 139.43 14.06 124.19 14.25 108.97 C 25.17 114.64 37.26 118.23 49.61 118.57 C 32.30 107.01 19.79 88.40 16.15 67.85 C 12.80 49.90 16.07 30.59 25.66 15.00 C 65.05 63.10 125.40 93.59 187.59 95.83 C 183.77 80.14 185.31 63.29 191.61 48.45 C 198.84 31.18 212.63 16.84 229.50 8.74 Z" />
</g>
</svg>
